<svg id="Layer_1" data-name="Layer 1" xmlns="http://www.w3.org/2000/svg" viewBox="0 0 180 370"><defs><style>.cls-1{fill:#b3b3b3;}</style></defs><title>Artboard 1 copy</title><path class="cls-1" d="M161.34,208.61c-1.33-1.15-2.59-2.48-3.87-3.81-6-17.25-14.78-33.26-24.88-48.44-7.25-10.9-15-26.16-27.88-31.27a4.13,4.13,0,0,1-1.72-1,3.92,3.92,0,0,1-.63-2.55c0-3.41-1.23-9.18-.12-12.37,1.19-3.4,3.73-3.71,6.84-6,9-6.77,12.34-19,14.34-29.51,2.14-11.33,2-22.8-2.16-33.65-12-31-54.1-36.19-67.79-3.56-7.71,18.38-6,42.31,6.25,58.29A35.57,35.57,0,0,0,67.1,102c2.39,1.72,6.48,2.68,7.45,5.7a12.58,12.58,0,0,1,.25,4.86c-.47,6.17-1,9.55-6.12,12.49-5.42,3.09-9.88,5.64-13.83,10.7-5.12,4.3-8.32,10.38-11.32,16.35a132,132,0,0,0-8.32,20.32c-1.44,4.65-2.46,9.48-3.49,14.33Q27.64,197.84,24,209.12c-3.92,2.26-7.06,7.33-8.86,10.84s.13,9.3,4.63,9.77c18.57,1.92,20.3-20.55,25.22-32.54.13-.31.24-.61.37-.92,2.39-5.44,5-10.77,7-16.37.36-1,.71-2,1.05-3-.93,4.35-1.93,8.7-3,13.09a149.47,149.47,0,0,0-3.39,18.77c-.59,5.63-1.61,13.4,1.31,18.54,2.17,3.83,6.76,5.89,11.12,7-2.65,33.61-5.25,67.23-7.23,100.88,0,.23,0,.44,0,.67a53.67,53.67,0,0,0-4.32,5c-2.51,3.37-3.7,7.68-2.35,11.74,3.63,10.94,17.76,6.47,23.75.47,6.87-6.88,9.28-16.28,9.46-25.78.06-2.93,0-5.87,0-8.82,4-24.94,7.79-49.92,11.86-74.85,1.7,11.2,3.6,22.39,5,33.62,1.33,10.58,2.56,21.17,3.62,31.77,0,.77,0,1.54,0,2.31.14,6.72-.5,14.34,2.1,20.7,3,7.31,12.67,12.52,19.25,16.53,5.75,3.51,16.13.15,13.42-8.27a49.27,49.27,0,0,0-5.36-11.85c-2-3.11-4.31-6.55-7.38-8.76,1-29.57,1.39-59.22,0-88.77,5.71-2.32,8.63-6.78,7.79-13.23-1.58-12.07-3.11-24.15-4.7-36.22,1.48,1.94,2.91,3.9,4.28,5.92,5.93,8.74,9.73,18.71,15.95,27.2,4.25,5.8,19.31,20.87,23.75,6.72C170.26,215.34,165.22,211.92,161.34,208.61Z"/></svg>