<svg xmlns="http://www.w3.org/2000/svg" viewBox="0 0 549 206"><defs><style>.cls-1{isolation:isolate;}.cls-2,.cls-5{fill:#cde4b7;}.cls-3,.cls-6{opacity:0.3;}.cls-11,.cls-4,.cls-6,.cls-8{fill:#99402d;}.cls-5{mix-blend-mode:multiply;}.cls-7{fill:#f6a85a;}.cls-8{opacity:0.6;}.cls-9{fill:#f59691;}.cls-10{fill:#f27783;}.cls-11{opacity:0.15;}.cls-12{fill:#231f20;}.cls-13{fill:#b14e6c;}.cls-14{fill:#f7e9d9;}.cls-15{fill:#6aa6d5;}.cls-16{fill:#ce506b;}</style></defs><title>(18) Confirm Purchase</title><g class="cls-1"><g id="Layer_1" data-name="Layer 1"><rect class="cls-2" width="549" height="206"/><g class="cls-3"><polygon class="cls-4" points="118.76 128.21 267.7 126.71 267.7 129.71 118.76 128.21"/></g><g class="cls-3"><polygon class="cls-4" points="416.64 128.21 267.7 129.71 267.7 126.71 416.64 128.21"/></g><path class="cls-5" d="M206.3,127.51l-74.59-19.37,61.73-16a9.56,9.56,0,0,0,5.61-14.47L172.31,36.56l63.48,22a9.55,9.55,0,0,0,11.73-4.84L270.33,6.91l22.81,46.84a9.56,9.56,0,0,0,11.73,4.84l63.49-22L341.61,77.64a9.56,9.56,0,0,0,5.61,14.47l61.74,16-74.59,19.37"/><path class="cls-6" d="M310.54,120a2.31,2.31,0,0,0-2.11-2.89,205.25,205.25,0,0,0-48,.4c-17.55,2.26-23.67,3.47-40.6,15.32-5.36,3.75-37.24,13-6.1,28.76,10.26,5.2,23,7.75,34.31,9,13.49,1.54,28.22,4.64,41.76,3.39,15-1.38,42.56-17.57,53.6-28.21C348.79,140.61,311.38,116.1,310.54,120Z"/><path class="cls-7" d="M333.82,73.61c-1.22-2.72-4.88-3-7.49-3.45a107.15,107.15,0,0,0-12-1.43c-8.63-.59-17.29-.4-25.94-.65-4.43-.13-8.86-.37-13.27-.9-4-.48-8.31-2-12.37-1.72-3.71.24-7.47,2.25-10.88,3.57q-6.36,2.46-12.66,5c-9,3.73-18.23,7.44-26.86,12-.65.34-1,2.53-.87,3.1l.09.4c12,5,44.21,18,55.63,19.57C267.21,109.19,317.06,84.68,333.82,73.61Z"/><path class="cls-8" d="M333.82,73.61c-1.22-2.72-4.88-3-7.49-3.45a107.15,107.15,0,0,0-12-1.43c-8.63-.59-17.29-.4-25.94-.65-4.43-.13-8.86-.37-13.27-.9-4-.48-8.31-2-12.37-1.72-3.71.24-7.47,2.25-10.88,3.57q-6.36,2.46-12.66,5c-9,3.73-18.23,7.44-26.86,12-.65.34-1,2.53-.87,3.1l.09.4c12,5,44.21,18,55.63,19.57C267.21,109.19,317.06,84.68,333.82,73.61Z"/><path class="cls-9" d="M312.28,42.45c-2.54-1-4.78.06-6.34,1.86a2.06,2.06,0,0,0-1.66-.46,1.94,1.94,0,0,0-1.57,2A5,5,0,0,0,304,49.64a5.71,5.71,0,0,0,1.85,2.51c.17.15.35.34.53.53-3.75,7.42-7.4,14.86-13.26,20.94-.87.91.19,2.71,1.42,2.14,4.15-1.93,6.85-6.66,9.35-10.33A70.76,70.76,0,0,0,311,52.76a4,4,0,0,0,3.23-3.17C316.35,47.56,314.85,43.47,312.28,42.45Z"/><path class="cls-9" d="M227.76,42.45c2.54-1,4.78.06,6.34,1.86a2,2,0,0,1,1.65-.46,1.93,1.93,0,0,1,1.57,2,5,5,0,0,1-1.27,3.83,5.78,5.78,0,0,1-1.85,2.51,6.62,6.62,0,0,0-.53.53c3.74,7.42,7.4,14.86,13.25,20.94.88.91-.18,2.71-1.41,2.14-4.15-1.93-6.86-6.66-9.35-10.33A71.43,71.43,0,0,1,229,52.76a4,4,0,0,1-3.22-3.17C223.69,47.56,225.19,43.47,227.76,42.45Z"/><path class="cls-10" d="M303.21,88.48a24.91,24.91,0,0,0-3.32-8,17.26,17.26,0,0,1-1.79-3.12,13.41,13.41,0,0,1-.6-3c-1.75-13.55-5.3-37.3-21-42a17.61,17.61,0,0,0-11.89.93c-5.91,2.56-10.27,7.55-13,13.31-3.32,7.11-1.63,14.34-4,21.42-.88,2.59-2.6,4.79-4,7.12-10.76,17.54-3.38,46.6,19.11,50.05,12.09,1.85,26.93-.45,35.45-12.63A31.19,31.19,0,0,0,303.21,88.48Z"/><path class="cls-11" d="M299.89,80.43l-.28-.42c-.7,2-1.24,4.1-1.79,6.28-1.28,5.13-3.67,9.27-5.86,14-2.92,6.31-4.32,16-13.65,13.6-2.66-.67-5-1.89-7.87-1.66-2.1.18-4,1.24-6.07,1.49-3.47.43-6.28-1.73-8-4.59-1.16-2-1.8-4.19-3-6.13s-3.24-3.29-5.17-4.67A12.79,12.79,0,0,1,243,90.83c-1.64-5.84-.12-11.31,1.38-16.83l-.72,1.13c-10.76,17.54-3.38,46.6,19.11,50.05,12.09,1.85,26.93-.45,35.45-12.63a31.19,31.19,0,0,0,5-24.07A24.91,24.91,0,0,0,299.89,80.43Z"/><path class="cls-12" d="M267.66,58.28c-.66-2.12-3-5.86-5.44-6.16s-5.27,1.82-7.06,3.29.27,4.61,2.1,3.08c.93-.78,3.41-3,4.68-2.76.69.16,1.52,1.43,2,1.94a9.37,9.37,0,0,0,2.24,1.88A1.06,1.06,0,0,0,267.66,58.28Z"/><path class="cls-12" d="M276.32,57.4c.75-2.09,3.26-5.73,5.7-5.93s5.18,2,6.91,3.59-.46,4.59-2.22,3c-.9-.82-3.29-3.19-4.56-3-.7.13-1.59,1.36-2.1,1.85a9,9,0,0,1-2.33,1.78A1,1,0,0,1,276.32,57.4Z"/><path class="cls-13" d="M283.12,67.87c-1.25-2.89-4-2.32-6.38-1.49a10.76,10.76,0,0,1-6.28.27,11.66,11.66,0,0,0-4.34-.52,4.37,4.37,0,0,0-4,4.66.75.75,0,0,0-.05.48,11.46,11.46,0,0,0,4.63,7c2.37,1.47,5.49,1.52,8.19,1.27a8.54,8.54,0,0,0,6.91-4C283.05,73.39,284.14,70.22,283.12,67.87Z"/><path class="cls-4" d="M262.08,71.27a8.49,8.49,0,0,0,.26,1c1.77-.88,3.55-1.72,5.56-1.44,1.49.21,2.83,1,4.33,1.2a9.82,9.82,0,0,0,3.44-.45c2.66-.66,5.73-1.35,7.67,0a6.26,6.26,0,0,0-.22-3.75c-1.25-2.89-4-2.32-6.38-1.49a10.76,10.76,0,0,1-6.28.27,11.66,11.66,0,0,0-4.34-.52,4.37,4.37,0,0,0-4,4.66A.75.75,0,0,0,262.08,71.27Z"/><path class="cls-10" d="M257.7,109.56c-5.88,3-9.82,9.42-12.6,15.18-1.53,3.18-2.39,6.78-4,9.87-1,1.79-3.14,2.37-4.68,3.58a19.49,19.49,0,0,0-3.45,3.58,2.36,2.36,0,0,0,2,3.82c4.62-.34,9.57-3.1,10.63-7.88a1.74,1.74,0,0,0-.15-1.21c1.13-2.31,1.72-5.15,2.61-7.33a61.9,61.9,0,0,1,4.39-9.14c1.9-3.14,4.38-5.62,6.79-8.34C260.11,110.72,258.94,108.93,257.7,109.56Z"/><path class="cls-14" d="M247,106.24a57.29,57.29,0,0,1-3.72-14.53.67.67,0,0,0-1.34.07,30.59,30.59,0,0,0,3.24,15.34C245.63,108.14,247.39,107.31,247,106.24Z"/><path class="cls-14" d="M244.52,84.86a.83.83,0,0,0-1.55-.33,3.81,3.81,0,0,0-.39,1.53c-.08.52-.17,1-.25,1.58a.78.78,0,0,0,1.52.33l.41-1.55A3.83,3.83,0,0,0,244.52,84.86Z"/><path class="cls-14" d="M293.4,112.06a19.74,19.74,0,0,1-13.27,7.55.73.73,0,0,0,.07,1.45,18.33,18.33,0,0,0,14.68-7.68C295.62,112.36,294.2,111,293.4,112.06Z"/><path class="cls-14" d="M298.15,105.19a13.84,13.84,0,0,0-2.24,4.18c-.36,1,1.15,1.37,1.63.59a13.73,13.73,0,0,0,1.76-4.18A.68.68,0,0,0,298.15,105.19Z"/><path class="cls-14" d="M283.52,39.6a8.88,8.88,0,0,0-3.1-2.83,13.41,13.41,0,0,0-3.85-1.94c-.64-.19-1.17.77-.61,1.17,1.11.8,2.29,1.48,3.36,2.33a23.4,23.4,0,0,0,3,2.56C283.21,41.37,283.89,40.35,283.52,39.6Z"/><path class="cls-14" d="M286.81,43.85a2.1,2.1,0,0,0-1.1-1.27.89.89,0,0,0-1.18.37.87.87,0,0,0,.37,1.17c-.07,0,0,0,0,0l.05.05h0l0,.07s.16.32.08.14a.92.92,0,0,0,1.13.56A.9.9,0,0,0,286.81,43.85Z"/><path class="cls-10" d="M306.71,131.26c-.9-.17-2.73.08-3.45-.46s-1.47-2.87-1.93-3.67a68.4,68.4,0,0,0-4.3-6.64c-2.82-3.88-6.85-9.1-11.41-11a1.29,1.29,0,0,0-1.58,1.77c1.49,2.58,4,4.59,5.87,6.88a71.1,71.1,0,0,1,5.87,8.13c1.1,1.79,1.92,4,3,5.93.51,4.4,4.91,6.49,9.18,5.89,1.8-.25,3.5-1.43,3.28-3.45C311,132.41,308.61,131.63,306.71,131.26Z"/><path class="cls-15" d="M251.82,51.24a3.11,3.11,0,0,0,1.67.31,2.67,2.67,0,0,0,1.79-1.25c1.43-2.34-.91-3.37-1.92-3.87-1.7-.84-3.47-1.54-5.12-2.46a2.16,2.16,0,0,0-1.23-.38c-1.21.12-2,2-2.06,3.2a2.66,2.66,0,0,0,1,2.21c1.31,1.18,3.2,1.48,4.91,1.93A7.56,7.56,0,0,1,251.82,51.24Z"/><path class="cls-16" d="M252.46,55.13c-.13-1.43-1.9-1.71-3-2.13l-3.66-1.44c-1.29-.51-4.33-1.51-4,2.22.24,3,2.92,3.74,5,4.4,1.05.32,3.13,1,4.21.33A4.74,4.74,0,0,0,252.46,55.13Z"/><path class="cls-7" d="M333.88,73.35c-16.8,11-66.75,35.31-66.75,35.31-11.42-1.63-43.57-14.78-55.55-19.79,2.31,9.87,5.59,19.58,8.5,29.29l4.58,15.23c.76,2.53,1.53,5.07,2.29,7.61.5,1.66.49,3.51,1.16,5.12s2.15,2.57,3.59,3.44a88.74,88.74,0,0,0,20.55,9.35,76.76,76.76,0,0,0,24.89,3.17c.86,0,15.11-9.9,21.74-14.38,7.28-4.93,14.58-9.93,21.52-15.33a.94.94,0,0,0,.24-.25,8.71,8.71,0,0,0,3.14-3.23,31.67,31.67,0,0,0,2.35-7.31q1.23-4.72,2.28-9.51a224.76,224.76,0,0,0,5.34-37.14,1.18,1.18,0,0,0,.26-1.26C334,73.56,333.92,73.46,333.88,73.35Z"/><path class="cls-6" d="M333.88,73.35c-16.8,11-66.75,35.31-66.75,35.31-11.42-1.63-43.57-14.78-55.55-19.79,2.31,9.87,5.59,19.58,8.5,29.29l4.58,15.23c.76,2.53,1.53,5.07,2.29,7.61.5,1.66.49,3.51,1.16,5.12s2.15,2.57,3.59,3.44a88.74,88.74,0,0,0,20.55,9.35,76.76,76.76,0,0,0,24.89,3.17c.86,0,15.11-9.9,21.74-14.38,7.28-4.93,14.58-9.93,21.52-15.33a.94.94,0,0,0,.24-.25,8.71,8.71,0,0,0,3.14-3.23,31.67,31.67,0,0,0,2.35-7.31q1.23-4.72,2.28-9.51a224.76,224.76,0,0,0,5.34-37.14,1.18,1.18,0,0,0,.26-1.26C334,73.56,333.92,73.46,333.88,73.35Z"/><path class="cls-14" d="M293.05,131.91l-.62,2.4-1.24-1.2-.62,2.4-1.24-1.2-.62,2.4-1.24-1.2-.62,2.4-1.23-1.2-.62,2.4-1.24-1.2a47.28,47.28,0,0,1,0,10.2,106.09,106.09,0,0,1-2.15,11.27c3.31-2.17,7.92-5.31,11.94-8,.21-1.76.48-3.93.74-6.22C294.91,139.71,293.05,131.91,293.05,131.91Z"/><path class="cls-11" d="M267.46,108.5l-.33.16c-11.42-1.63-43.57-14.78-55.55-19.79,2.31,9.87,5.59,19.58,8.5,29.29l4.58,15.23c.76,2.53,1.53,5.07,2.29,7.61.5,1.66.49,3.51,1.16,5.12s2.15,2.57,3.59,3.44a88.74,88.74,0,0,0,20.55,9.35,76.76,76.76,0,0,0,24.89,3.17.77.77,0,0,0,.23-.08c-1.39-5.43-3.16-12.4-4.68-18.47C270.63,135.3,268.57,118.47,267.46,108.5Z"/><path class="cls-7" d="M353.12,90.74c-.82-3.25-7.64-9.17-9-10.37a45.51,45.51,0,0,0-5.1-3.86c-.9-.59-1.82-1.15-2.77-1.67-.47-.26-1.92-.77-2.78-1.29l-.11-.07-.07-.06c-16.53,10.79-64.48,34.19-66.56,35.2,3.63,1.69,6.68,4.76,9.66,7.34A90.94,90.94,0,0,1,285.1,125c2,2.34,3.87.94,6-.41,1.36-.88,2.69-1.82,4-2.78,2.56-1.87,5.06-3.81,7.72-5.53,4.82-3.14,9.79-6.06,14.85-8.79,4.05-2.18,8.2-4.15,12.41-6,7.19-3.15,14.54-5.92,21.86-8.72a2.47,2.47,0,0,0,1-.54A1.54,1.54,0,0,0,353.12,90.74Z"/><path class="cls-13" d="M254.65,136.23q-3.9-3.79-7.65-7.75a1.1,1.1,0,0,0-1.3-.1l-6.32,3.17c-1.49.76-3.9,1.44-5,2.72-.19.22,1.89,3.31,2.89,4.16s1.88,1.6,2.83,2.4c.55.47,1.32,1.43,2,1.64,1.53.45,3.38-1.1,4.69-1.69a55.18,55.18,0,0,1,6.86-2.52l.15-.07A1.16,1.16,0,0,0,254.65,136.23Z"/><path class="cls-4" d="M246.18,146.81c2,.9,4,1.85,5.95,2.83a.68.68,0,0,0,.76-.22c1-1,2-2.07,2.93-3.11.69-.74,1.92-1.63,2.28-2.58a8.4,8.4,0,0,0-2.5-1.76l-2.11-.78a4.6,4.6,0,0,0-1.5-.51c-1,.06-1.69,1.32-2.31,1.93a35.37,35.37,0,0,1-3.38,2.85.27.27,0,0,0-.08.07A.7.7,0,0,0,246.18,146.81Z"/><path class="cls-7" d="M267.18,108.13l-.05,0c-11.42-1.63-43.56-14.78-55.55-19.79l-.06-.21c-1.71,1.14-2.12,3.57-3.08,5.27-1.3,2.29-2.62,4.56-4.05,6.77-1.29,2-2.63,4-4,5.85a43.48,43.48,0,0,1-4,5.14,2.09,2.09,0,0,0-.47.56c-.9,1.78,4,2.56,5,2.9,2.51.83,5,1.72,7.47,2.65q6.74,2.53,13.27,5.53l1.36.61q6.15,2.85,12.11,6.11c3.68,2,7.3,4.58,11.47,5.41l.24,0a.83.83,0,0,0,1.14-.13c3.17-3.86,5.75-8.3,8.52-12.45,1.43-2.14,2.85-4.3,4.29-6.43.87-1.27,1.48-2.73,2.71-3.7s2.71-1.33,3.41-2.71A2.76,2.76,0,0,0,267.18,108.13Z"/></g></g></svg>