<svg xmlns="http://www.w3.org/2000/svg" xmlns:xlink="http://www.w3.org/1999/xlink" viewBox="0 0 1248 890.78"><defs><style>.cls-1,.cls-3{fill:none;}.cls-10,.cls-2{fill:#fff;}.cls-3{stroke:#f47785;stroke-miterlimit:10;stroke-width:5px;}.cls-11,.cls-4{fill:#6aa6d5;}.cls-5{fill:url(#linear-gradient);}.cls-6{fill:url(#linear-gradient-2);}.cls-7{clip-path:url(#clip-path);}.cls-8{fill:#f6a85a;opacity:0.15;}.cls-9{fill:#f27783;}.cls-10{font-size:72px;}.cls-10,.cls-11{font-family:Crete-Thick, Crete;}.cls-11{font-size:36px;}.cls-12{letter-spacing:-0.02em;}.cls-13{letter-spacing:-0.07em;}.cls-14{letter-spacing:0em;}.cls-15{letter-spacing:-0.03em;}.cls-16{letter-spacing:-0.02em;}</style><linearGradient id="linear-gradient" x1="54.62" y1="67.23" x2="82.03" y2="67.23" gradientUnits="userSpaceOnUse"><stop offset="0" stop-color="#b14e6c"/><stop offset="1" stop-color="#f27783"/></linearGradient><linearGradient id="linear-gradient-2" x1="75.22" y1="81.83" x2="102.63" y2="81.83" gradientUnits="userSpaceOnUse"><stop offset="0" stop-color="#f48457"/><stop offset="1" stop-color="#99402d"/></linearGradient><clipPath id="clip-path"><rect class="cls-1" width="1248" height="890.78"/></clipPath></defs><title>2 - Jumbotron B</title><g id="BG"><rect class="cls-2" width="1248" height="890.78"/><polyline class="cls-3" points="661.1 808.82 624 828 586.9 808.82"/></g><g id="Layer_1" data-name="Layer 1"><path class="cls-4" d="M116.78,59.9c0-8.35,4-12.36,11.16-12.36s11.16,4,11.16,12.36-4,12.32-11.16,12.32S116.78,68.14,116.78,59.9Zm4.23,0c0,5.8,2.28,8.66,6.93,8.66s6.94-2.86,6.94-8.66-2.29-8.7-6.94-8.7S121,54.05,121,59.9Z"/><path class="cls-4" d="M145.88,57.54a4.37,4.37,0,0,1,3.8-2.26,1.8,1.8,0,0,1,0,3.6,3.55,3.55,0,0,0-3.8,3.9v7.33a1.91,1.91,0,0,1-3.81,0V57.36a1.91,1.91,0,0,1,3.81,0Z"/><path class="cls-4" d="M152.78,63.7c0-5.74,2.78-8.45,7.54-8.45,4.26,0,7.29,2.36,7.29,7V71.2c0,4.86-2.4,7.6-7.61,7.6-2.85,0-5-.88-6.16-2.32a1.57,1.57,0,0,1-.35-1,1.71,1.71,0,0,1,1.69-1.69,1.86,1.86,0,0,1,1.12.42,6.16,6.16,0,0,0,3.7,1.37c2.5,0,3.77-1.3,3.77-3.45V70.78a5.71,5.71,0,0,1-3.84,1.4C155.49,72.18,152.78,69.44,152.78,63.7Zm11-1.41c0-2.43-1.44-3.8-3.48-3.8-2.43,0-3.77,1.76-3.77,5.21s1.37,5.24,3.77,5.24a4.84,4.84,0,0,0,3.48-1.79Z"/><path class="cls-4" d="M173.67,60a1.69,1.69,0,0,1-1.06.35A1.65,1.65,0,0,1,171,58.66a1.74,1.74,0,0,1,.46-1.16,7.37,7.37,0,0,1,5.77-2.25c4.37,0,7,2.15,7,5.88v9a1.87,1.87,0,1,1-3.73,0c-1,1.52-2.5,2-4.61,2-3.45,0-5.74-2.14-5.74-5.31s2.64-5,5.7-5h4.61v-.63c0-1.59-1.16-2.64-3.2-2.64A5.78,5.78,0,0,0,173.67,60Zm6.72,5.88v-1h-4.12c-1.54,0-2.39.74-2.39,2s1,2.15,2.92,2.15A3.33,3.33,0,0,0,180.39,65.85Z"/><path class="cls-4" d="M201.74,61.38v8.8a1.84,1.84,0,0,1-1.9,1.83,1.79,1.79,0,0,1-1.9-1.83v-8.1c0-2-.81-3.38-3.1-3.38-2.64,0-3.52,1.55-3.52,3.62v7.86a1.91,1.91,0,0,1-3.81,0V57.36a1.91,1.91,0,0,1,3.81,0,5.2,5.2,0,0,1,4.5-2.11C200.61,55.25,201.74,58.31,201.74,61.38Z"/><path class="cls-4" d="M116.78,90.42c0-8.34,4-12.35,11.16-12.35s11.16,4,11.16,12.35-4,12.33-11.16,12.33S116.78,98.66,116.78,90.42Zm4.23,0c0,5.82,2.28,8.67,6.93,8.67s6.94-2.85,6.94-8.67-2.29-8.69-6.94-8.69S121,84.58,121,90.42Z"/><path class="cls-4" d="M145.7,87.89V96.1c0,1.61.56,3.16,3.17,3.16S152,97.71,152,96.1V87.89a1.9,1.9,0,0,1,3.8,0V96.1c0,3.44-1.3,6.61-6.93,6.61s-7-3.17-7-6.61V87.89a1.9,1.9,0,0,1,3.8,0Z"/><path class="cls-4" d="M160.79,83.31a1.87,1.87,0,0,1,3.73,0v3h1.58a1.59,1.59,0,1,1,0,3.17h-1.58V98a1.3,1.3,0,0,0,1.34,1.27,1.66,1.66,0,0,1,0,3.31c-3.14,0-5.07-2-5.07-4.79V89.44H160a1.59,1.59,0,1,1,0-3.17h.81Z"/><path class="cls-4" d="M174.58,79.09V98.38a.69.69,0,0,0,.67.64,1.76,1.76,0,0,1,0,3.52c-2.75,0-4.47-1.55-4.47-4.51V79.09a1.9,1.9,0,1,1,3.8,0Z"/><path class="cls-4" d="M187,85.78c6,0,7,4.58,7,7,0,1.31,0,2.82-2.15,2.82h-8.69c0,2.54,1.79,3.7,4.12,3.7a6,6,0,0,0,3.48-1.09,1.89,1.89,0,0,1,1.13-.39,1.65,1.65,0,0,1,1.65,1.66,1.75,1.75,0,0,1-.6,1.3,8.27,8.27,0,0,1-5.66,1.93c-4.9,0-7.93-2.64-7.93-8.52C179.43,88.8,182.25,85.78,187,85.78Zm-3.7,6.65h7A3.14,3.14,0,0,0,187,89,3.44,3.44,0,0,0,183.34,92.43Z"/><path class="cls-4" d="M197.91,83.31a1.87,1.87,0,0,1,3.73,0v3h1.59a1.59,1.59,0,0,1,0,3.17h-1.59V98A1.3,1.3,0,0,0,203,99.23a1.66,1.66,0,0,1,0,3.31c-3.13,0-5.07-2-5.07-4.79V89.44h-.81a1.59,1.59,0,0,1,0-3.17h.81Z"/><path class="cls-5" d="M82,53.14c.17,4.35-2.92,6.46-4.69,8S74.65,63.46,75,65.31a9.71,9.71,0,0,1-.53,5.62c-.29.95,2.13,3.37,3.32,4.8S81.7,83.49,77.4,87s-12.89,3.07-17-2.63-7.06-11.9-5.34-21.54,7.06-16.74,17-17.52C79.12,44.88,81.89,49.75,82,53.14Z"/><path class="cls-6" d="M75.22,95.93c-.16-4.35,2.93-6.47,4.7-8s2.68-2.37,2.35-4.21a9.8,9.8,0,0,1,.54-5.62c.28-1-2.14-3.37-3.33-4.81s-3.94-7.75.37-11.24,12.89-3.08,17,2.63,7.06,11.9,5.33,21.54-7,16.74-17,17.52C78.13,104.19,75.35,99.32,75.22,95.93Z"/><g class="cls-7"><path class="cls-8" d="M949.29,368.13c-94.39-11.51-145.94,52-181.71,87.81s-56.22,54.09-95.8,43.62S597.31,487.1,548.52,501c-21,4.55-69.36-52.48-98.46-81S288.44,320.4,204.79,407.84s-90.17,274.77,26.59,373.42,246.17,175,459.06,154.88,376.94-123.37,411.87-338.89C1123.81,446.23,1022.82,377.09,949.29,368.13Z"/><path class="cls-8" d="M1186.53,81.22c-63.21,79.86-33.91,162.44-21.16,215.11s18.06,81.59-13.61,111.93-53,61.11-67.46,113.49c-7.59,21.78-86.69,34.1-129,44.81S774,658.65,807.25,783.92s200.82,235.81,356.18,184.15,297.37-127.33,397.82-333.16,97.65-413.43-79.86-565.67C1355.34-34.71,1235.77,19,1186.53,81.22Z"/><path class="cls-8" d="M-318.79,854.61c74.55,59,151.66,31.66,200.84,19.75s76.17-16.86,104.5,12.71,57.06,49.45,106,63c20.34,7.09,31.84,80.94,41.83,120.41s86,169.31,203,138.27,220.16-187.5,171.93-332.55S390.33,598.53,198.16,504.75s-386-91.17-528.14,74.56C-427,697-376.88,808.63-318.79,854.61Z"/></g><path class="cls-9" d="M624.91,414.16c83.31,0,149.79,49.67,270.51,46.6s237.49-75.22,233.11-181.94S989.88,29.94,614.6,29.94,114.39,162.7,128.18,299.3s191.56,161.6,258.9,161.6S553.49,414.16,624.91,414.16Z"/><text class="cls-10" transform="translate(381.85 265.56)">Need a kidney?</text><text class="cls-11" transform="translate(427.42 675.21)">The<tspan class="cls-12" x="60.52" y="0">r</tspan><tspan x="75.85" y="0">e</tspan><tspan class="cls-13" x="93.46" y="0">’</tspan><tspan class="cls-14" x="100.08" y="0">s an app </tspan><tspan class="cls-15" x="239.87" y="0">f</tspan><tspan x="251.85" y="0">or th</tspan><tspan class="cls-16" x="328.93" y="0">a</tspan><tspan x="347.65" y="0">t.</tspan></text></g></svg>