<svg xmlns="http://www.w3.org/2000/svg" xmlns:xlink="http://www.w3.org/1999/xlink" viewBox="0 0 1248 890.78"><defs><style>.cls-1,.cls-4{fill:none;}.cls-2{isolation:isolate;}.cls-3{fill:#f7e9d9;}.cls-4{stroke:#f47785;stroke-miterlimit:10;stroke-width:5px;}.cls-5{fill:#fff;}.cls-6{fill:#6aa6d5;}.cls-7{fill:url(#linear-gradient);}.cls-8{fill:url(#linear-gradient-2);}.cls-9{font-size:72px;fill:#ce506b;font-family:Crete-Thick, Crete;}.cls-10{font-size:36px;font-family:Crete-Thin, Crete;}.cls-11{letter-spacing:-0.02em;}.cls-12{letter-spacing:-0.07em;}.cls-13{letter-spacing:0em;}.cls-14{letter-spacing:-0.03em;}.cls-15{letter-spacing:-0.02em;}.cls-16{clip-path:url(#clip-path);}.cls-17,.cls-19{opacity:0.3;mix-blend-mode:multiply;}.cls-18,.cls-19{fill:#f6a85a;}</style><linearGradient id="linear-gradient" x1="54.62" y1="67.23" x2="82.03" y2="67.23" gradientUnits="userSpaceOnUse"><stop offset="0" stop-color="#b14e6c"/><stop offset="1" stop-color="#f27783"/></linearGradient><linearGradient id="linear-gradient-2" x1="75.22" y1="81.83" x2="102.63" y2="81.83" gradientUnits="userSpaceOnUse"><stop offset="0" stop-color="#f48457"/><stop offset="1" stop-color="#99402d"/></linearGradient><clipPath id="clip-path"><rect class="cls-1" width="1248" height="890.78"/></clipPath></defs><title>2 - Jumbotron A</title><g class="cls-2"><g id="Layer_1" data-name="Layer 1"><rect class="cls-3" width="1248" height="890.78"/><polyline class="cls-4" points="661.1 808.82 624 828 586.9 808.82"/><path class="cls-5" d="M624.91,414.16c83.31,0,149.79,49.67,270.51,46.6s237.49-75.22,233.11-181.94S989.88,29.94,614.6,29.94,114.39,162.7,128.18,299.3s191.56,161.6,258.9,161.6S553.49,414.16,624.91,414.16Z"/><path class="cls-6" d="M116.78,59.9c0-8.35,4-12.36,11.16-12.36s11.16,4,11.16,12.36-4,12.32-11.16,12.32S116.78,68.14,116.78,59.9Zm4.23,0c0,5.8,2.28,8.66,6.93,8.66s6.94-2.86,6.94-8.66-2.29-8.7-6.94-8.7S121,54.05,121,59.9Z"/><path class="cls-6" d="M145.88,57.54a4.37,4.37,0,0,1,3.8-2.26,1.8,1.8,0,0,1,0,3.6,3.55,3.55,0,0,0-3.8,3.9v7.33a1.91,1.91,0,0,1-3.81,0V57.36a1.91,1.91,0,0,1,3.81,0Z"/><path class="cls-6" d="M152.78,63.7c0-5.74,2.78-8.45,7.54-8.45,4.26,0,7.29,2.36,7.29,7V71.2c0,4.86-2.4,7.6-7.61,7.6-2.85,0-5-.88-6.16-2.32a1.57,1.57,0,0,1-.35-1,1.71,1.71,0,0,1,1.69-1.69,1.86,1.86,0,0,1,1.12.42,6.16,6.16,0,0,0,3.7,1.37c2.5,0,3.77-1.3,3.77-3.45V70.78a5.71,5.71,0,0,1-3.84,1.4C155.49,72.18,152.78,69.44,152.78,63.7Zm11-1.41c0-2.43-1.44-3.8-3.48-3.8-2.43,0-3.77,1.76-3.77,5.21s1.37,5.24,3.77,5.24a4.84,4.84,0,0,0,3.48-1.79Z"/><path class="cls-6" d="M173.67,60a1.69,1.69,0,0,1-1.06.35A1.65,1.65,0,0,1,171,58.66a1.74,1.74,0,0,1,.46-1.16,7.37,7.37,0,0,1,5.77-2.25c4.37,0,7,2.15,7,5.88v9a1.87,1.87,0,1,1-3.73,0c-1,1.52-2.5,2-4.61,2-3.45,0-5.74-2.14-5.74-5.31s2.64-5,5.7-5h4.61v-.63c0-1.59-1.16-2.64-3.2-2.64A5.78,5.78,0,0,0,173.67,60Zm6.72,5.88v-1h-4.12c-1.54,0-2.39.74-2.39,2s1,2.15,2.92,2.15A3.33,3.33,0,0,0,180.39,65.85Z"/><path class="cls-6" d="M201.74,61.38v8.8a1.84,1.84,0,0,1-1.9,1.83,1.79,1.79,0,0,1-1.9-1.83v-8.1c0-2-.81-3.38-3.1-3.38-2.64,0-3.52,1.55-3.52,3.62v7.86a1.91,1.91,0,0,1-3.81,0V57.36a1.91,1.91,0,0,1,3.81,0,5.2,5.2,0,0,1,4.5-2.11C200.61,55.25,201.74,58.31,201.74,61.38Z"/><path class="cls-6" d="M116.78,90.42c0-8.34,4-12.35,11.16-12.35s11.16,4,11.16,12.35-4,12.33-11.16,12.33S116.78,98.66,116.78,90.42Zm4.23,0c0,5.82,2.28,8.67,6.93,8.67s6.94-2.85,6.94-8.67-2.29-8.69-6.94-8.69S121,84.58,121,90.42Z"/><path class="cls-6" d="M145.7,87.89V96.1c0,1.61.56,3.16,3.17,3.16S152,97.71,152,96.1V87.89a1.9,1.9,0,0,1,3.8,0V96.1c0,3.44-1.3,6.61-6.93,6.61s-7-3.17-7-6.61V87.89a1.9,1.9,0,0,1,3.8,0Z"/><path class="cls-6" d="M160.79,83.31a1.87,1.87,0,0,1,3.73,0v3h1.58a1.59,1.59,0,1,1,0,3.17h-1.58V98a1.3,1.3,0,0,0,1.34,1.27,1.66,1.66,0,0,1,0,3.31c-3.14,0-5.07-2-5.07-4.79V89.44H160a1.59,1.59,0,1,1,0-3.17h.81Z"/><path class="cls-6" d="M174.58,79.09V98.38a.69.69,0,0,0,.67.64,1.76,1.76,0,0,1,0,3.52c-2.75,0-4.47-1.55-4.47-4.51V79.09a1.9,1.9,0,1,1,3.8,0Z"/><path class="cls-6" d="M187,85.78c6,0,7,4.58,7,7,0,1.31,0,2.82-2.15,2.82h-8.69c0,2.54,1.79,3.7,4.12,3.7a6,6,0,0,0,3.48-1.09,1.89,1.89,0,0,1,1.13-.39,1.65,1.65,0,0,1,1.65,1.66,1.75,1.75,0,0,1-.6,1.3,8.27,8.27,0,0,1-5.66,1.93c-4.9,0-7.93-2.64-7.93-8.52C179.43,88.8,182.25,85.78,187,85.78Zm-3.7,6.65h7A3.14,3.14,0,0,0,187,89,3.44,3.44,0,0,0,183.34,92.43Z"/><path class="cls-6" d="M197.91,83.31a1.87,1.87,0,0,1,3.73,0v3h1.59a1.59,1.59,0,0,1,0,3.17h-1.59V98A1.3,1.3,0,0,0,203,99.23a1.66,1.66,0,0,1,0,3.31c-3.13,0-5.07-2-5.07-4.79V89.44h-.81a1.59,1.59,0,0,1,0-3.17h.81Z"/><path class="cls-7" d="M82,53.14c.17,4.35-2.92,6.46-4.69,8S74.65,63.46,75,65.31a9.71,9.71,0,0,1-.53,5.62c-.29.95,2.13,3.37,3.32,4.8S81.7,83.49,77.4,87s-12.89,3.07-17-2.63-7.06-11.9-5.34-21.54,7.06-16.74,17-17.52C79.12,44.88,81.89,49.75,82,53.14Z"/><path class="cls-8" d="M75.22,95.93c-.16-4.35,2.93-6.47,4.7-8s2.68-2.37,2.35-4.21a9.8,9.8,0,0,1,.54-5.62c.28-1-2.14-3.37-3.33-4.81s-3.94-7.75.37-11.24,12.89-3.08,17,2.63,7.06,11.9,5.33,21.54-7,16.74-17,17.52C78.13,104.19,75.35,99.32,75.22,95.93Z"/><text class="cls-9" transform="translate(381.85 219.84)">Need a kidney?<tspan class="cls-10"><tspan x="60.57" y="93.6">The</tspan><tspan class="cls-11" x="121.08" y="93.6">r</tspan><tspan x="136.42" y="93.6">e</tspan><tspan class="cls-12" x="154.02" y="93.6">’</tspan><tspan class="cls-13" x="160.65" y="93.6">s an app </tspan><tspan class="cls-14" x="300.44" y="93.6">f</tspan><tspan x="312.42" y="93.6">or th</tspan><tspan class="cls-15" x="389.5" y="93.6">a</tspan><tspan x="408.22" y="93.6">t.</tspan></tspan></text><g class="cls-16"><g class="cls-17"><path class="cls-18" d="M731.41,639.17C727.75,624.59,712,613,700.07,605c-9.4-6.31-25.59-12.52-29.26-24.29-2.38-7.63.78-16.67,1.27-24.51A45.42,45.42,0,0,0,669,535.63c-5.93-14.22-20.16-23.85-34.91-16.12-10.26,5.38-6.32,18.45,1.24,23.63,4.74,3.24,5.79,1,7.77,6.64,2.06,5.89-.29,13.38-.72,19.46-1,14,2.64,26.55,12.7,36.6,8.56,8.56,20,13.55,30.37,19.44,12,6.78,21.78,18.44,34.29,23.76C726.54,651.92,733.2,646.32,731.41,639.17Z"/><path class="cls-18" d="M741.37,552.94c-10.89-3.8-19.49-7.53-24.23-18.77-4.37-10.35-2-19.38-1-30,.68-6.71-6.48-13.76-13-8.9-19.42,14.38-15.26,45.63-2.83,63.25,8.06,11.43,18.81,16.16,31.15,21.61,13.48,6,15.29,15.27,16.35,28.88,1,13.15,21,19.06,26.76,5.69C786.09,588,766.29,561.63,741.37,552.94Z"/></g><path class="cls-19" d="M1060.87,50.08c-10.24-10.25-28.38-7.44-29.64,8.7-.44,5.69,1.88,12.72,5.9,18.13-.64,4.56,2.92,9.12,7.26,10.62a15.76,15.76,0,0,0,1.7,4.85,14.76,14.76,0,0,0,7,6.44c8,3.38,15.28-1.19,17.36-9.17C1073.92,76.38,1070.75,60,1060.87,50.08Z"/><path class="cls-19" d="M1247.51,56.93a12.29,12.29,0,0,1-1.35,4.4,41.9,41.9,0,0,1-5.65,8.26,72.64,72.64,0,0,1-13.63,13.62c-27.78,21.41-68.27,27.64-102.42,22.17-14-2.24-28.93-10.3-34.5-23.07-5.74-8.41-8.12-19-5.25-29.2a34.1,34.1,0,0,1,14.81-19.46c8.58-5.34,18.37-5,28.08-4.21,9.07.72,17.26-.17,25.14-5.11,7.14-4.48,10.78-11.19,15.39-17.93,4.86-7.12,11.39-13.32,20.24-14.7,9.42-1.48,18.48,2.26,26.36,7.09C1229,7.51,1244.73,20,1248.79,37A34.36,34.36,0,0,1,1247.51,56.93Z"/><path class="cls-19" d="M1216.52,264.25c-11.8-11.81-32.69-8.58-34.14,10-.51,6.55,2.17,14.64,6.8,20.88-.74,5.25,3.36,10.5,8.36,12.23a18.24,18.24,0,0,0,2,5.59,17,17,0,0,0,8.11,7.42c9.24,3.9,17.6-1.37,20-10.56C1231.56,294.54,1227.9,275.63,1216.52,264.25Z"/><path class="cls-19" d="M1332.58,331.62c-6.83-16.83-22.44-22.44-38.78-23.37-19.64-14.08-39.18-24.93-64.47-23.73-24.35,1.16-48,13.62-60.35,35.05-23.15,40.17,5.3,101.14,56.8,83.11,11.49-4,20.47-12.55,31.48-17.4,11.89-5.24,23.2-4,35.81-4.55C1317.67,379.73,1343.54,358.66,1332.58,331.62Z"/><path class="cls-19" d="M168.17,570.91c-4.47-7.26-12.35-12.42-16.06-20.12-1.72-3.57-1.57-7.79-1.76-11.66a74.61,74.61,0,0,0-2.11-15.67,55.82,55.82,0,0,0-13.52-23.61c-13.4-14.32-34-19.3-52.73-14-20.62,5.81-34,24.26-36.77,44.82-.21.88-.39,1.7-.53,2.43-3.48,18.48-.42,37.91,6.91,55.12,7,16.52,18.33,33.43,36.71,38.29,9.91,2.61,19.64-.13,28.74,5.44,8.72,5.34,16.82,10.37,27.52,8.26,19.43-3.83,30.15-24.44,30.77-42.73A48.39,48.39,0,0,0,168.17,570.91Z"/><g class="cls-17"><path class="cls-18" d="M91,473.33c-4.33,5.67-8.45,13.93-16.22,15.12-9.41,1.45-18.46-2.47-27.89.81-7.75,2.7-13.86,8.52-18.67,15-5.05,6.8-9.5,12.88-5.36,21.28,1.52,3.1,6.07,4.05,9.06,3.11a7.66,7.66,0,0,0,4.71-4,6.62,6.62,0,0,0,.68-2.47c.45-1.94.68-2.55,2.53-4.82a46.18,46.18,0,0,1,6.63-7.06c6.95-5.59,14.33-2.87,22.4-2,17.83,1.84,30.2-8.81,39-23.33C113.88,475,98,464,91,473.33Z"/><path class="cls-18" d="M156.5,488c-3.91-10.49-22.58-8.5-21.06,3.34a13.85,13.85,0,0,1-2.64.43c-3.14.58-6.33.88-9.32,2.08A31,31,0,0,0,111.41,503c-2.39,2.86-4.53,7.44-7.63,9.56-4,2.72-10.16.72-14.75.78a60,60,0,0,0-33.34,10.82C48,529.57,37.56,542,49.82,548.92c4.16,2.34,9.6-1.24,9.28-5.93-.19-2.74,12.48-7,14.56-7.64a45.74,45.74,0,0,1,15.29-2c6.68.32,13.11,2.19,19.74,0a28.27,28.27,0,0,0,11.18-7.21c2.77-2.78,4.89-6.09,7.44-9.05,3.38-3.91,6.07-3.78,11-4.61C149.92,510.59,161.25,500.72,156.5,488Z"/><path class="cls-18" d="M165.85,537.88c-.84-9.83-11.12-11.8-17.11-6.77l-.41.07a17,17,0,0,0-3.09.4,21,21,0,0,0-8.23,2.93,33.44,33.44,0,0,0-8.81,8.7c-2.48,3.35-4.79,7.84-8.73,9.71s-9.19,1.4-13.42,1.34c-10.92-.16-21.06.09-31.11,4.9-9,4.28-20.11,12.36-22,22.76-1.47,7.84,7.16,12.18,12.77,8.6v.1c4.4-3.09,7.3-7.69,11.73-10.79a31.71,31.71,0,0,1,14-5.56c11.28-1.48,22.55,2.31,33.74-1,10.41-3.09,16.13-11.37,22.35-19.57a2.45,2.45,0,0,1,.77-.8c.25,0,.65-.06,1.22-.15,2.48-.41,5-.43,7.45-1.32C162.75,549.26,166.39,544.16,165.85,537.88Z"/><path class="cls-18" d="M146.6,446.47c-4.78-2.86-11.34-2.58-16.46-.86-3.71,1.25-9,4.12-10.26,8.29-3,4.08,1.15,8.88,5.65,8.63,2.42.28,5.05-.58,7.18-.7a8.09,8.09,0,0,1,2.75.25c1.69.33,3.31.93,5,1.22C150.73,465.08,155.49,451.78,146.6,446.47Z"/></g><path class="cls-19" d="M690.52,569.89c-2.86-32.89-29.27-52.17-57.6-63.78-17.39-7.13-36.31-15.05-54.31-5.27-7.63,4.15-13.1,10.45-17.87,17.55-3.61,5.38-8.41,11.47-7,18.12l-5.94,9.5c-4.89,7.82-11,15.79-12.46,25.14-2.57,16.45,7.71,31.58,21.35,39.76,14.21,8.53,33,8,46.28,17.77,5.69,4.19,9.32,10.14,15.65,13.71a39,39,0,0,0,23.63,4.48C677.56,642.49,693.26,601.41,690.52,569.89Z"/><g class="cls-17"><path class="cls-18" d="M413.83,900.27c-4-4.63-11.88-6.4-17.1-2.46a.2.2,0,0,0-.06.12,1.48,1.48,0,0,1-.08-.13c-1.23-2-1.21-4.88-1.13-7.15.3-8.58,3.5-16.91,4.09-25.52,1-14.94-5.49-27.35-16.36-37.2-8.32-7.54-19.16-13-25.95-22.13-9.87-13.24-.51-32.19-10.75-45-3.31-4.15-10.08-4.59-12.74.67-4.38,8.7-4.5,20.29-4.45,29.9s2.14,19.52,7.56,27.74c8.42,12.78,22.79,19.21,32.18,30.87,5,6.21,4.53,12.51,2.82,20-2.42,10.64-5.26,21-2.84,31.92,2.17,9.84,8.21,18.07,17.67,21.88,9.29,3.74,20.92,2.23,27-6.38C417.51,912,418.45,905.6,413.83,900.27Z"/><path class="cls-18" d="M454,877.35c-20.42-17.43-7-42.78-13.71-65.32a38,38,0,0,0-9.65-16.5c-5-4.75-10.85-6.42-17-9.08-9.95-4.33-10.31-16-13.31-25.12-3.85-11.73-19.19-7-20,3.75-.93,12.32,3,27,11.71,36,4.49,4.66,9.62,6.74,15.34,9.35,6.57,3,8.25,7.53,8.53,14.64.57,14.44-2.51,27.55.85,41.91,3,12.91,10.34,25.33,22.18,31.87C452,906.11,465.51,887.2,454,877.35Z"/><path class="cls-18" d="M503.57,854.5c-6.71-7.54-12.63-14.1-11.7-25.08C493,816.25,496,805.77,490.13,793c-5.12-11.18-13.41-19.67-21.93-28.31a78.39,78.39,0,0,1-10.45-12.27c-3.29-5.08-4.3-11-7.55-16-4.07-6.36-12.92-5-16.53.86-7.33,12,2.27,28.05,9.81,37.54s18.91,18.52,22.72,30.4c2.16,6.73-.42,12.78-1.34,19.52a54.9,54.9,0,0,0,.82,19.59c2.77,12.54,10.9,26.11,22.59,32.07C502.74,883.79,513.33,865.47,503.57,854.5Z"/></g><g class="cls-17"><path class="cls-18" d="M1016.37,585.62c3.9,3.06,5.63,9.36,2.64,13.74,0,0-.06,0-.09.06l.11.05c1.68.92,4,.79,5.83.64,6.93-.57,13.55-3.48,20.49-4.28,12-1.39,22.33,3.39,30.71,11.81,6.42,6.44,11.27,15,18.9,20.14,11.08,7.48,26.06-.81,36.84,7,3.49,2.52,4.11,8,0,10.33-6.87,3.88-16.24,4.42-24,4.75s-15.87-1-22.73-5.05c-10.66-6.33-16.41-17.7-26.2-24.86-5.22-3.81-10.3-3.18-16.32-1.51-8.51,2.37-16.76,5.06-25.71,3.52-8-1.38-14.93-5.95-18.37-13.46s-2.6-16.84,4.13-22.09C1006.74,583.1,1011.89,582.09,1016.37,585.62Z"/><path class="cls-18" d="M1033.38,552.29c14.87,15.85,34.87,4.06,53.36,8.59a30.66,30.66,0,0,1,13.72,7.17c4,3.85,5.6,8.53,8,13.4,3.88,7.88,13.36,7.72,20.83,9.8,9.63,2.67,6.42,15.25-2.27,16.32-9.93,1.22-22-1.4-29.59-8.09-3.94-3.46-5.83-7.52-8.15-12.05-2.68-5.2-6.41-6.38-12.17-6.34-11.7.09-22.19,3.08-33.93.91-10.56-2-20.89-7.39-26.63-16.72C1010.19,555,1025,543.32,1033.38,552.29Z"/><path class="cls-18" d="M1050,511.28c6.36,5.13,11.89,9.67,20.74,8.51,10.61-1.41,19-4.22,29.49,0,9.24,3.72,16.43,10.09,23.74,16.66a63.84,63.84,0,0,0,10.33,8c4.23,2.47,9,3.06,13.26,5.5,5.29,3,4.57,10.25-.07,13.4-9.42,6.38-22.78-.76-30.74-6.5s-15.7-14.59-25.47-17.22c-5.52-1.49-10.31.84-15.73,1.83a44.37,44.37,0,0,1-15.88.09c-10.25-1.76-21.54-7.82-26.81-17C1026.3,513.07,1040.71,503.8,1050,511.28Z"/></g><path class="cls-19" d="M1076.7,688a15,15,0,0,0,1.71,5.28,50.6,50.6,0,0,0,6.95,9.86A87.27,87.27,0,0,0,1102,719.33c33.85,25.32,82.76,32.11,123.81,24.92,16.83-3,34.68-12.94,41.17-28.41,6.77-10.25,9.45-23,5.81-35.29a41,41,0,0,0-18.19-23.18c-10.43-6.29-22.23-5.68-33.92-4.58-10.92,1-20.79.1-30.38-5.72-8.68-5.26-13.19-13.29-18.86-21.33-6-8.49-14-15.85-24.65-17.36-11.38-1.61-22.23,3-31.65,9-17,10.76-35.77,26.05-40.36,46.66A41.41,41.41,0,0,0,1076.7,688Z"/><path class="cls-19" d="M797.54,751.11c-9.34,19.88-1.49,38.35,11.1,53.61,3.63,29,10.05,55.26,31.88,76.73,21,20.67,51.52,31.43,80.68,24.8,54.68-12.44,85.45-87.77,27.14-118.68-13-6.9-28-7.88-41.3-13.66-14.42-6.26-22.64-17.29-33.45-28.06C852.49,724.83,812.55,719.16,797.54,751.11Z"/><path class="cls-19" d="M363.73,742.18c-8-19.66-26.2-26.2-45.27-27.28-22.94-16.45-45.75-29.12-75.28-27.72-28.43,1.35-56.05,15.91-70.47,40.92-27,46.92,6.18,118.11,66.32,97,13.42-4.7,23.91-14.65,36.76-20.31,13.88-6.12,27.09-4.72,41.81-5.32C346.33,798.35,376.54,773.76,363.73,742.18Z"/><g class="cls-17"><path class="cls-18" d="M1189.62,125.61c3.33-3.89,9.92-5.42,14.31-2.14a.13.13,0,0,1,.06.1l.07-.12c1-1.69,1-4.09.9-6-.29-7.18-3-14.14-3.55-21.35-.93-12.51,4.45-22.94,13.5-31.24,6.94-6.37,16-11,21.63-18.68,8.19-11.14.26-27,8.76-37.79,2.75-3.5,8.43-3.9,10.68.49,3.72,7.26,3.88,17,3.89,25s-1.69,16.36-6.19,23.28c-7,10.75-19,16.21-26.8,26-4.16,5.23-3.73,10.51-2.25,16.8,2.08,8.9,4.51,17.54,2.54,26.72-1.77,8.25-6.78,15.18-14.69,18.42-7.76,3.18-17.51,2-22.66-5.2C1186.61,135.46,1185.78,130.1,1189.62,125.61Z"/><path class="cls-18" d="M1155.89,106.62c17-14.7,5.68-35.87,11.14-54.79A31.72,31.72,0,0,1,1175,38c4.15-4,9.06-5.43,14.19-7.7,8.31-3.67,8.55-13.48,11-21.11,3.17-9.84,16-6,16.78,3,.84,10.31-2.38,22.63-9.63,30.24-3.73,3.93-8,5.7-12.79,7.92-5.49,2.54-6.87,6.35-7.07,12.31-.41,12.09,2.24,23.06-.5,35.1-2.46,10.84-8.53,21.28-18.42,26.82C1157.67,130.7,1146.26,114.94,1155.89,106.62Z"/><path class="cls-18" d="M1114.21,87.74c5.58-6.35,10.5-11.88,9.67-21.07-1-11-3.55-19.8,1.27-30.48,4.23-9.4,11.12-16.56,18.22-23.84A66,66,0,0,0,1152.06,2c2.73-4.27,3.55-9.21,6.24-13.47,3.38-5.34,10.8-4.3,13.85.64,6.2,10-1.75,23.5-8,31.5s-15.75,15.61-18.88,25.58c-1.77,5.65.43,10.7,1.23,16.35A46,46,0,0,1,1145.9,79c-2.26,10.52-9,21.93-18.76,27C1115.06,112.28,1106.09,97,1114.21,87.74Z"/></g></g></g></g></svg>