<?xml version="1.0" encoding="utf-8"?>
<!-- Generator: Adobe Illustrator 22.1.0, SVG Export Plug-In . SVG Version: 6.00 Build 0)  -->
<svg version="1.1" id="Layer_1" xmlns="http://www.w3.org/2000/svg" xmlns:xlink="http://www.w3.org/1999/xlink" x="0px" y="0px"
	 viewBox="0 0 528 408" style="enable-background:new 0 0 528 408;" xml:space="preserve">
<style type="text/css">
	.st0{fill:#F59691;}
	.st1{fill:#F27783;}
	.st2{opacity:0.15;fill:#99402D;enable-background:new    ;}
	.st3{fill:#99402D;}
	.st4{fill:#B14E6C;}
	.st5{fill:#6AA6D5;}
	.st6{fill:#CE506B;}
	.st7{fill:#231F20;}
	.st8{fill:#F7E9D9;}
</style>
<title>Artboard 1</title>
<g>
	<g id="Layer_1_1_">
		<path class="st0" d="M357.1,106.4c-1.2-4.9-4.4-9.5-10.2-8.5c-4,0.7-8.3,4.2-10.5,8.2c-1.6-0.3-3.2-0.4-4.9-0.3
			c-4.8,0.3-7.3,6.6-3.5,9.9c3.1,2.7,6.9,4.7,10.9,5.8c-4.2,8.8-9,17.3-14.3,25.4c-4.8,7.2-15.2,16.3-14.9,25.3
			c0,1.7,1.8,3.5,3.6,3.2c9.3-1.6,15-13.3,19.9-20.7c6.2-9.6,11.7-19.6,16.4-29.9c0.7-0.2,1.3-0.5,1.8-0.8c0.3-0.1,0.5-0.3,0.7-0.4
			c2.1-1.5,3.7-3.6,4.6-6c0.8-1.1,1.3-2.4,1.6-3.7C358.9,111.4,358.4,108.7,357.1,106.4z"/>
		<path class="st1" d="M237.4,316.3c-2-2.8-4.3-5.3-6.9-7.5c0.4-1.5,1-2.9,1.6-4.3c2.7-5.1,5.5-10.1,8.6-15.1
			c5.7-9.2,13.3-17.5,18.3-27.1c1.5-2.9-2.1-6.8-5-4.6c-8,5.8-14,14.5-19.6,22.6c-5.8,8.4-12.7,17.9-16.2,27.5
			c-3.8,10.4,11.2,26.2,19.5,14.2C238.6,320.2,238.5,318,237.4,316.3z"/>
		<path class="st1" d="M307.9,289.9c-0.2-2-0.1-4,0.4-5.9c1-5.1,2.2-10.3,3.3-15.4c1.9-9,5.7-19.2,4.2-28.3
			c-0.3-1.6-1.8-2.6-3.3-2.4c-0.7,0.1-1.3,0.5-1.7,1c-3.9,5.3-5.1,11.8-6.7,18.1c-2.2,8.5-4.2,17-6.1,25.6
			c-2.7,12.1-0.1,20.2,12.3,24.3c3.7,1.2,6.6-0.7,7.5-4.2C319.4,296.2,312.6,292.7,307.9,289.9z"/>
		<path class="st1" d="M336.9,192.4c-1.9-11.4-6.5-22.4-14.8-30.7c-4.6-4.6-9.9-7.4-10.5-14.4c-0.5-6,1-11.3-1.7-17
			c-2.8-5.9-10-8.5-9.5-15.6c0.5-6.2,2.5-11.9,1.6-18.2c-1.5-10.5-8.7-19.2-17.5-24.7c-20.2-12.7-46.8-6-64,8.7
			c-33.1,28.2-34.2,77.9-23,116.4c8.7,29.8,24.1,63.7,56.6,73.2c21.9,6.4,46.8,0.2,63.2-15.6C333.4,238.7,340.6,214.5,336.9,192.4z"
			/>
		<path class="st2" d="M323.9,245.8c-4.6,2.1-7.7,7-11.3,10.3c-8,7.3-17.8,10.2-27.8,4.8c-4.7-2.5-8.3-7.4-13.4-9.2
			c-6.3-2.3-13.4,1-19.9-1.7c-10.2-4.1-13.9-15.2-16.1-25c-1.1-4.8-1.4-10.6-4-14.8s-7.6-6.9-11.2-10.2
			c-8.3-7.6-14.4-17.2-18.8-27.5c-5.4-12.8-8-26.5-8.7-40.3c-3.6,21.5-1.1,44.6,4.7,64.7c8.7,29.8,24.2,63.7,56.6,73.2
			c21.9,6.4,46.8,0.2,63.2-15.6c2.8-2.8,5.4-5.8,7.6-9C324.5,245.5,324.2,245.6,323.9,245.8z"/>
		<path class="st0" d="M217.8,193.4c2.3,1.4,2.1,5.5-0.8,6c-10.8,2.1-22.4-3.9-31.5-9.2c-10.4-6.1-21.9-13.8-30.1-22.6
			c-0.2-0.2-0.3-0.4-0.4-0.6c-5.5-1.4-11.7-3.8-14.9-7.7c-3.8-4.7-0.4-13.4,3.3-17.3s10.6-5.3,15-1.4c1.2,1.2,2.2,2.6,2.8,4.2
			c0.1-0.1,0.3-0.1,0.4-0.1c2.6-0.6,5.3,0.3,7.1,2.4c4.1,4.9-0.1,10.2-3.6,14.4c7.9,5.8,15,12.7,23.3,18.1
			C197.7,185.5,208.5,187.9,217.8,193.4z"/>
		<path class="st3" d="M302.6,136.9c-4-6.4-8.9-0.9-14.4,1.9c-1.2,0.7-2.5,1.3-3.8,1.7c-5.8,1.4-13.7-1.7-16.9,2.4
			c-3.7,4.6,0,10.8,3.5,14.3c9.3,9.2,26.5,10.6,32.2-3C305.4,148.8,305.8,141.9,302.6,136.9z"/>
		<path class="st4" d="M303.2,154.1c1.5-3.6,2-7.6,1.5-11.5c-2.6-0.1-5.3,0.3-7.7,1.4c-2,0.9-3.7,2.4-5.7,3.4
			c-2.2,1-4.5,1.1-6.8,1.3c-5.5,0.6-10.6,3.3-14.2,7.6c0.2,0.3,0.5,0.5,0.7,0.8C280.3,166.4,297.5,167.7,303.2,154.1z"/>
		<path class="st5" d="M215,134.6c2.2,0.6,4.5,0.8,6.8,0.6c2.2-0.3,4.4-1.5,4.9-3.5c1.9-6.2-8.6-8.7-13.2-9.8
			c-7.7-2-15.5-3.6-23.2-5.8c-1.7-0.6-3.5-0.9-5.2-0.8c-4.4,0.4-4.6,5.5-3,8.6c1.4,2.7,4.2,4.4,7,5.6c6.8,2.9,14.4,3.4,21.6,4.4
			C212.3,134.2,213.8,134.4,215,134.6z"/>
		<path class="st6" d="M223.3,144.7c-2.7-3.7-9.8-4.2-14.6-5.2l-16.1-3.3c-5.7-1.2-18.8-3.4-12,6.3c5.5,7.8,16.8,9.4,25.8,10.8
			c4.5,0.7,13.5,2.3,16.6,0.4C225.3,152.2,225.1,147.1,223.3,144.7z"/>
		<path class="st7" d="M244.6,124.3c1.3-5,5.6-10.3,10.8-11.5c5.5-1.3,11,2.7,14.9,6.2c1.2,1.1-0.4,2.8-1.7,2.1
			c-3.7-1.9-8.5-5.8-12.8-3.6c-3.5,1.8-4.6,5.8-6.9,8.7C247.3,128.2,243.9,127.1,244.6,124.3z"/>
		<path class="st7" d="M307.6,112.8c-2.2-3.1-7.2-7.3-11.3-7.2c-4.8,0.1-9.1,6.7-11.7,9.9c-0.9,1.1,0.5,3.1,1.8,2
			c2.8-2.3,6-6.8,9.6-6.8s5.7,3.8,8.8,5.3C306.7,116.9,308.9,114.7,307.6,112.8z"/>
		<path class="st8" d="M331.5,210c-0.4-2.9-5-2.6-4.6,0.3c0.6,4.1-1,9.1-1.8,13.1c-1,4.9-3.3,8.4-6.5,12.1c-1.9,2.3,1.5,5.3,3.4,3
			c3.4-4,6.1-7.9,7.3-13C330.5,220.7,332.2,214.8,331.5,210z"/>
		<path class="st8" d="M314.8,241c-3.6,0-3.3,5.5,0.3,5.5S318.4,241,314.8,241z"/>
		<path class="st8" d="M293.6,89.1c-3.1-5.2-7.5-9.5-12.9-12.3c-3.2-1.7-5.7,3.3-2.6,4.9c4.5,2.4,8.3,6,10.8,10.5
			C290.8,95.2,295.4,92.2,293.6,89.1z"/>
		<path class="st8" d="M272,72.8c-3.6,0-3.3,5.5,0.3,5.5S275.6,72.8,272,72.8z"/>
	</g>
</g>
</svg>
