<svg id="Layer_1" data-name="Layer 1" xmlns="http://www.w3.org/2000/svg" viewBox="0 0 549 206"><defs><style>.cls-1,.cls-14{fill:#f6a85a;}.cls-1{opacity:0.2;}.cls-10,.cls-2,.cls-6{fill:#9db2d7;}.cls-2{opacity:0.3;}.cls-15,.cls-17,.cls-20,.cls-3{fill:#99402d;}.cls-3{opacity:0.3;}.cls-17,.cls-4,.cls-6{opacity:0.15;}.cls-13,.cls-5{fill:#6aa6d5;}.cls-7{fill:#fff;}.cls-13,.cls-15,.cls-8{opacity:0.6;}.cls-9{fill:#f27783;}.cls-11{fill:#f7e9d9;}.cls-12{opacity:0.5;}.cls-16{fill:#f59691;}.cls-18{fill:#231f20;}.cls-19{fill:#b14e6c;}.cls-21{fill:#ce506b;}</style></defs><title>Artboard 1</title><path class="cls-1" d="M494.88,28.07c-5.48-4.42-12.43-8.32-19.43-6.73-7.2-.07-14.47,1.39-20.68,5.18a14.31,14.31,0,0,0-5.32,5.66C443,37.65,439,46.75,439.92,55c1.58,14,18,20.69,29.79,23.84,7.82,2.09,14.78,0,21.85-3.51,6.05-3,11.25-6.84,13.95-13.22C510.81,49.64,504.91,36.15,494.88,28.07ZM479.6,49.92a5.08,5.08,0,0,1-1.16-1.86l0-.1.24.11c.41.2.87.29,1.27.53a3.3,3.3,0,0,1,1.72,2.4c0,.09,0,.18,0,.26A5.08,5.08,0,0,1,479.6,49.92Zm11.1,3A11.51,11.51,0,0,0,489,44.88a13.55,13.55,0,0,0-8.74-5.82h.22c5.82.49,9.67,5.59,10.74,11a22.53,22.53,0,0,1,.4,3.66A7.57,7.57,0,0,0,490.7,53ZM462.27,41.12l.51-.47c-1.55,4.71.26,9.82,2.63,14,2,3.57,5,6.74,8.89,8.17a4.69,4.69,0,0,0-.9,1,33.06,33.06,0,0,1-5.78-3.38c-5.3-3.92-9.09-11-7-17.57C461.18,42.27,461.72,41.64,462.27,41.12ZM449.56,49.5a23.86,23.86,0,0,1,1.29-3.85,26.34,26.34,0,0,0,7.78,19.14C452.71,61.69,447.76,56.77,449.56,49.5Z"/><path class="cls-2" d="M182.91,185.24A57.36,57.36,0,0,1,164.7,188c-6.62-.13-12.82-1.73-19.29-2.76-6.68-1.07-13.23-.18-19.88.5s-13.08,1.19-19.64,1.57q-20.06,1.14-40.17.44c-5.24-.19-10.49-.42-15.72-.8a53,53,0,0,1-8.76,1.53,6,6,0,0,1-1.28,0,17.46,17.46,0,0,1-6.1-.83,11.65,11.65,0,0,1-2.36-1.1,15.56,15.56,0,0,1-7.79-5.51c-3-4.33-2.95-10.1,1.31-13.67,3.87-3.25,9.5-3.22,14.34-1.94,6.2,1.66,12,4.29,18.28,5.76,13.65,3.2,27,.3,40.62-1.09a375.68,375.68,0,0,1,43-1.89c14.3.19,29.73.51,42.21,7.75C187.31,178.24,187.85,183.69,182.91,185.24Z"/><path class="cls-2" d="M528.8,170.6a42.85,42.85,0,0,1-12.45,1.66c-4.53-.1-8.77-1.11-13.21-1.77s-9.05-.14-13.59.27-8.95.71-13.44.93c-9.14.44-18.32.5-27.49.18-3.58-.13-7.17-.29-10.75-.53a39.34,39.34,0,0,1-6,.93,4.25,4.25,0,0,1-.88,0,13.38,13.38,0,0,1-4.17-.53,8.24,8.24,0,0,1-1.62-.7,10.77,10.77,0,0,1-5.34-3.45c-2.08-2.71-2-6.3.86-8.52,2.64-2,6.5-2,9.81-1.17,4.24,1,8.22,2.7,12.52,3.63,9.35,2,18.45.25,27.79-.58a277,277,0,0,1,29.4-1.08c9.78.15,20.34.38,28.89,4.93C531.8,166.24,532.18,169.64,528.8,170.6Z"/><path class="cls-3" d="M345.57,145.58c.32-1.11-.44-2.36-2.48-2.52a323.94,323.94,0,0,0-56.32.34c-20.6,2-27.79,3-47.66,13.38-6.29,3.28-43.72,11.34-7.15,25.13,12,4.53,27,6.77,40.27,7.89,15.84,1.35,33.13,4,49,3,17.59-1.21,50-15.34,62.93-24.64C390.48,163.6,346.56,142.19,345.57,145.58Z"/><g class="cls-4"><path class="cls-5" d="M82.88,78.79c3.25-2,6.9-5.32,11-4.42,5,1.09,8.73,4.78,14.07,5,4.39.15,8.55-1.58,12.2-3.88,3.83-2.42,7.22-4.6,6.77-9.59-.16-1.83-2.24-3.19-3.92-3.3a4.19,4.19,0,0,0-3.13,1.11,3.61,3.61,0,0,0-.81,1.11,4.94,4.94,0,0,1-2.19,1.92,24.74,24.74,0,0,1-4.67,2.24c-4.54,1.45-7.71-1.33-11.57-3.3-8.54-4.35-16.76-1.42-24,4.13C71.75,73.56,77.56,82.06,82.88,78.79Z"/><path class="cls-5" d="M53,58.87c-.07,6,9.63,8.59,11.15,2.38a7.26,7.26,0,0,1,1.4.3,25.47,25.47,0,0,0,5,.76,16.58,16.58,0,0,0,7.79-2.25c1.74-1,3.69-2.84,5.65-3.3,2.52-.59,5.21,1.59,7.51,2.45a32.14,32.14,0,0,0,18.72,1C115.17,59,122.75,54.79,118,49a3.43,3.43,0,0,0-5.77,1.17c-.43,1.4-7.58,1.1-8.74,1a24.37,24.37,0,0,1-8-2c-3.27-1.44-6.12-3.62-9.84-3.82a15,15,0,0,0-7,1.44c-1.91.85-3.61,2.1-5.46,3.08-2.43,1.3-3.75.72-6.39.18C60.64,48.84,53.08,51.58,53,58.87Z"/><path class="cls-5" d="M57.94,32.15c-1.47,5.07,3.28,8,7.24,6.68l.21,0a10.09,10.09,0,0,0,1.62.4,11.48,11.48,0,0,0,4.67.12,18.06,18.06,0,0,0,6.07-2.64c1.89-1.2,3.9-3,6.23-3.17s4.85,1.07,7,1.92c5.42,2.18,10.53,4,16.47,3.54,5.3-.41,12.42-2.29,15.39-7.1a4.5,4.5,0,0,0-4.72-6.76l0-.05c-2.8.7-5.13,2.43-7.94,3.13a17,17,0,0,1-8,.08c-5.92-1.43-10.81-5.5-17-6-5.79-.47-10.24,2.57-14.92,5.46a1.4,1.4,0,0,1-.54.25L69,27.9a21.45,21.45,0,0,0-4-.78A6.93,6.93,0,0,0,57.94,32.15Z"/><path class="cls-5" d="M49.94,81.47c1.83,2.35,5.17,3.47,8.05,3.6,2.09.09,5.3-.31,6.72-2.16,2.29-1.45,1.13-4.65-1.16-5.4a22.64,22.64,0,0,0-3.72-1,4.14,4.14,0,0,1-1.32-.66c-.78-.48-1.47-1.09-2.26-1.56A4.85,4.85,0,0,0,49.94,81.47Z"/></g><path class="cls-6" d="M524.41,149.14a2.65,2.65,0,0,0,0-.56A66.53,66.53,0,0,0,501.12,107c-14.7-12-31.61-14.54-50-12-9.93,1.34-19.89,3.38-29.95,2.45S401.72,93,392.87,88.52c-15.31-7.71-30.68-23.06-49-21.62-8.66.69-16.39,4.79-24.07,8.52A194.74,194.74,0,0,1,291.35,87c-18.68,5.66-38.12,6.13-56.73-.12A87.06,87.06,0,0,1,210,73.93c-7-5.3-13.31-11.58-20.48-16.73C175.32,47,159.56,45.31,143.17,51.14,122.77,58.4,103.79,71.46,85.59,83c-19.66,12.41-38.22,26.15-56.72,40.18a2.1,2.1,0,0,0-.53.6c-.52.42-1,.86-1.52,1.29a25.75,25.75,0,0,0-9.48,9.38,3.26,3.26,0,0,0,1.06,4.47,2.46,2.46,0,0,0,3,2.18c32.22-4.43,64.4,1.9,96.44,5s64.46,4.45,96.76,4.82c65.46.74,130.9-2.32,196.37-2,36.72.19,73.44,1.48,110,5C524,154.23,525.12,151.49,524.41,149.14Z"/><path class="cls-7" d="M174.39,145.84c-.29-2.94-.08-6.71-2-9.31-4.52-6.21-15.22,0-20.22-6.46-4.25-5.45-1.67-13.9-9.5-17.44-3.2-1.45-6.86-.93-10.2-.35-3.72.65-7.48,1.45-11.13,2.47,0-.26,0-.52,0-.78q.33-5.76.57-11.51c.11-2.73.83-6.33-.25-8.86s-3.27-2.47-5.47-2.47c-3.6,0-7.21.13-10.8.19l-41.67.76c-7.21.14-14.44.46-21.64,0-4.72-.32-9.47-1.43-14.22-.94-3.74.39-6.21,3.07-6.42,7.54-.15,3.06.75,6,1.56,9q1.68,6,2.9,12.22.43,2.16.81,4.32.5,2.86.88,5.73c.21,1.49.4,3,.57,4.47,0,.13,0,.26,0,.39.26,2.31.46,4.64.62,7,.1,1.38.17,2.75.24,4.13,0,1,.09,2.07.11,3.11.11,3.95-.61,8.52.35,12.34,1.34,5.39,4.57,5.57,8.71,5,1.55-.21,3.1-.41,4.66-.58-.81,4,0,8.33,2.52,11.06,3.16,3.47,9.88,5.87,14.8,5.93,5.38.06,8.79-3.57,11.13-7.54a16.56,16.56,0,0,0,2.36-10.86c13.66,0,27.33.52,41.08.12a2.35,2.35,0,0,0,1.67-.92c5.75-.06,11.54.33,17.3.62-1.43,4.34-.74,9.54,2.09,12.65,3.15,3.47,9.88,5.87,14.8,5.93,5.38.06,8.78-3.57,11.12-7.54a16.38,16.38,0,0,0,2.3-11.2q4.26-.25,8.51-.63c1.63-.15,3.36-1.23,3.2-2.91Q175.13,153.14,174.39,145.84Z"/><g class="cls-8"><path class="cls-9" d="M62.54,154.27c-5.47-.85-11.16.63-14.66,3.82-6,3.78-6.82,13.82-2.39,18.69,3.16,3.47,9.88,5.87,14.8,5.93,5.38.06,8.79-3.57,11.13-7.54C76.44,166.64,74.24,156.11,62.54,154.27Z"/><path class="cls-10" d="M175.85,160.43q-.72-7.29-1.46-14.59c-.29-2.94-.08-6.71-2-9.31-4.52-6.21-15.22,0-20.22-6.46-4.25-5.45-1.67-13.9-9.5-17.44-3.2-1.45-6.86-.93-10.2-.35a98.6,98.6,0,0,0-15.92,4,2,2,0,0,0-.81.54,5.6,5.6,0,0,0-2.16,1.23c-3,2.85-3.1,8.79-3.89,12.46-2.21,10.25-4.14,20.54-8.48,30.26-1,2.34,2,3.93,4.15,3.6,11.18-1.72,22.56-.33,33.81,0a284.88,284.88,0,0,0,33.45-1C174.28,163.19,176,162.11,175.85,160.43Z"/><path class="cls-11" d="M144.43,127c-.41-2.18-.83-4.36-1.24-6.54-.26-1.38-.33-3.31-1.43-4.32-2-1.88-6.08-.6-8.33.11-1.89.6-3.76,1.27-5.64,1.9a5.6,5.6,0,0,0-2.7,1.36c-.93,1.09-.86,3.31-1,4.67-.19,1.51-.32,3-.39,4.57-.06.26-.13.53-.18.8a2.29,2.29,0,0,0,.16,1.46,1.37,1.37,0,0,0,1.15,1.13,2.36,2.36,0,0,0,1.6.11,61.26,61.26,0,0,1,16.08-2.32C144,129.9,144.68,128.34,144.43,127Z"/><path class="cls-11" d="M136.53,138.92a16.33,16.33,0,0,0-9.69,1.75c-2,1-.31,3.86,1.64,3.35a23.77,23.77,0,0,1,3.82-.79c1.32-.12,2.54.14,3.85.12C138.7,143.33,139,139.39,136.53,138.92Z"/><path class="cls-5" d="M121.74,93.6c-1.1-2.6-3.27-2.47-5.47-2.47-3.6,0-7.21.13-10.8.19l-41.67.76c-7.21.14-14.44.46-21.64,0-4.72-.32-9.47-1.43-14.22-.94-3.74.39-6.21,3.07-6.42,7.54-.15,3.06.75,6,1.56,9q1.68,6,2.9,12.22c6.61-2,13.72-2.66,20.35-3.68q6.42-1,12.85-1.75c3.92-.47,8.08-1.46,12-.72,2.27.42,2.33,4.27.23,5-3.76,1.36-8,1.12-12,1.48s-8.07.79-12.1,1.25c-6.77.76-13.7,2.26-20.55,2.71q.5,2.86.88,5.73c5.3-1.41,10.69-2.45,16-3.49,7.88-1.54,16.22-3.5,24.24-3.47,3.29,0,3.37,5,.26,5.68-7.71,1.53-15.73,1.75-23.51,2.88-5.5.8-11,1.9-16.44,2.87,0,.13,0,.26,0,.39.26,2.31.46,4.64.62,7,5.34-2.48,11.29-3.35,16.91-4.59,8.33-1.85,17.06-4.14,25.54-4.51,2.75-.12,3.8,4.93.93,5.6-7.65,1.78-15.62,2.37-23.36,3.63q-6,1-12,2.12a44.77,44.77,0,0,0-7.74,1.88c0,1,.09,2.07.11,3.11.11,3.95-.61,8.52.35,12.34,1.34,5.39,4.57,5.57,8.71,5,25.57-3.54,50.92-1.12,76.55-1.87a2.48,2.48,0,0,0,2.19-2.1q3-24.08,4.37-48.36.33-5.76.57-11.51C122.1,99.73,122.82,96.13,121.74,93.6Z"/><path class="cls-11" d="M59.44,120.2c3.92-.36,8.2-.12,12-1.48,2.1-.76,2-4.61-.23-5-3.91-.74-8.07.25-12,.72q-6.43.77-12.85,1.75c-6.63,1-13.74,1.73-20.35,3.68q.43,2.16.81,4.32c6.85-.45,13.78-2,20.55-2.71Q53.38,120.76,59.44,120.2Z"/><path class="cls-11" d="M68.19,128.61c3.11-.63,3-5.67-.26-5.68-8,0-16.36,1.93-24.24,3.47-5.33,1-10.72,2.08-16,3.49.21,1.49.4,3,.57,4.47,5.48-1,10.94-2.07,16.44-2.87C52.46,130.36,60.48,130.14,68.19,128.61Z"/><path class="cls-11" d="M48.92,141.85c7.74-1.26,15.71-1.85,23.36-3.63,2.87-.67,1.82-5.72-.93-5.6-8.48.37-17.21,2.66-25.54,4.51-5.62,1.24-11.57,2.11-16.91,4.59.1,1.38.17,2.75.24,4.13A44.77,44.77,0,0,1,36.88,144Q42.88,142.82,48.92,141.85Z"/><path class="cls-11" d="M100.23,118.26a1.89,1.89,0,0,0-.38-.43c-3.12-2.67-4.94-6.46-6.93-10.21-.77-1.45-2.54-1.11-3.24.2-.83,1.57-2.2,5.71-3.18,6.46a14.49,14.49,0,0,1-2.64.09c-1.19,0-2.37,0-3.56.13a1.37,1.37,0,0,0-.59.19,1.24,1.24,0,0,0-1,.86c-1.63,3.23-2.94,6.67-4.35,10-.53,1.25.27,3.16,1.65,2.9,2.28-.41,4.56-.8,6.85-1.14-.35.8-.69,1.6-1,2.39a2,2,0,0,0,2.69,2.76c5.43-3.39,10.78-6.92,16.09-10.54A2.21,2.21,0,0,0,100.23,118.26Z"/><path class="cls-9" d="M153,154.27c-5.46-.85-11.15.63-14.66,3.82-6,3.78-6.81,13.82-2.38,18.69,3.15,3.47,9.88,5.87,14.8,5.93,5.38.06,8.78-3.57,11.12-7.54C166.87,166.64,164.67,156.11,153,154.27Z"/></g><path class="cls-7" d="M520.62,147.5c-.18-1.78,0-4.05-1.2-5.61-2.72-3.75-9.16,0-12.17-3.89-2.56-3.29-1-8.38-5.73-10.51-1.92-.87-4.13-.57-6.14-.22-2.24.4-4.51.88-6.71,1.5l0-.48c.13-2.31.25-4.62.34-6.93.07-1.64.51-3.81-.14-5.34s-2-1.48-3.3-1.48c-2.17,0-4.34.07-6.51.11l-25.11.46c-4.34.08-8.7.28-13,0-2.85-.19-5.71-.86-8.57-.56-2.26.23-3.74,1.85-3.87,4.54a17.22,17.22,0,0,0,.94,5.4c.68,2.42,1.25,4.88,1.75,7.36.17.87.34,1.73.49,2.61.19,1.14.37,2.29.53,3.45.12.89.24,1.79.34,2.69l0,.23c.15,1.4.27,2.8.37,4.2.06.83.1,1.66.14,2.49,0,.63,0,1.25.07,1.87.07,2.39-.37,5.14.21,7.44.81,3.25,2.76,3.36,5.25,3,.93-.13,1.87-.24,2.8-.35a7.84,7.84,0,0,0,1.52,6.66c1.91,2.1,6,3.54,8.92,3.58,3.24,0,5.29-2.15,6.7-4.54a10,10,0,0,0,1.43-6.54c8.23,0,16.47.31,24.75.07a1.39,1.39,0,0,0,1-.56c3.47,0,6.95.2,10.43.37a8,8,0,0,0,1.25,7.62c1.91,2.1,6,3.54,8.92,3.58,3.25,0,5.3-2.15,6.71-4.54a9.87,9.87,0,0,0,1.38-6.75c1.71-.1,3.42-.23,5.13-.38,1-.09,2-.74,1.92-1.76Z"/><g class="cls-8"><path class="cls-9" d="M453.22,152.58a10.92,10.92,0,0,0-8.83,2.3c-3.63,2.27-4.1,8.32-1.44,11.25,1.91,2.1,6,3.54,8.92,3.58,3.24,0,5.29-2.15,6.7-4.54C461.6,160,460.27,153.68,453.22,152.58Z"/><path class="cls-10" d="M521.49,156.28l-.87-8.78c-.18-1.78,0-4.05-1.2-5.61-2.72-3.75-9.16,0-12.17-3.89-2.56-3.29-1-8.38-5.73-10.51-1.92-.87-4.13-.57-6.14-.22a58.52,58.52,0,0,0-9.59,2.41,1,1,0,0,0-.49.32,3.18,3.18,0,0,0-1.3.74c-1.79,1.71-1.87,5.29-2.35,7.5-1.33,6.18-2.49,12.38-5.11,18.24-.63,1.41,1.22,2.37,2.5,2.17,6.74-1,13.59-.2,20.37,0a171.61,171.61,0,0,0,20.16-.61C520.55,158,521.59,157.3,521.49,156.28Z"/><path class="cls-11" d="M502.56,136.14l-.75-3.94c-.15-.83-.19-2-.85-2.61-1.23-1.13-3.67-.36-5,.07-1.13.36-2.26.77-3.39,1.14a3.52,3.52,0,0,0-1.63.83c-.56.65-.51,2-.61,2.81s-.2,1.83-.24,2.75c0,.16-.07.32-.11.48a1.42,1.42,0,0,0,.1.88.81.81,0,0,0,.69.68,1.4,1.4,0,0,0,1,.07,37,37,0,0,1,9.68-1.4A1.36,1.36,0,0,0,502.56,136.14Z"/><path class="cls-11" d="M497.8,143.32a9.85,9.85,0,0,0-5.83,1.06c-1.21.61-.19,2.33,1,2a13.92,13.92,0,0,1,2.29-.48c.8-.07,1.54.08,2.33.08A1.36,1.36,0,0,0,497.8,143.32Z"/><path class="cls-5" d="M488.9,116c-.67-1.57-2-1.48-3.3-1.48-2.17,0-4.34.07-6.51.11l-25.11.46c-4.34.08-8.7.28-13,0-2.85-.19-5.71-.86-8.57-.56-2.26.23-3.74,1.85-3.87,4.54a17.22,17.22,0,0,0,.94,5.4c.68,2.42,1.25,4.88,1.75,7.36a95.09,95.09,0,0,1,12.26-2.22q3.87-.59,7.74-1.05c2.36-.29,4.87-.88,7.23-.44,1.36.26,1.4,2.58.14,3-2.27.83-4.85.68-7.21.9s-4.87.47-7.29.75c-4.08.46-8.26,1.37-12.38,1.64.19,1.14.37,2.29.53,3.45,3.19-.85,6.44-1.48,9.65-2.11,4.75-.93,9.77-2.11,14.6-2.09,2,0,2,3.05.16,3.42-4.65.93-9.48,1.06-14.16,1.74-3.32.48-6.61,1.15-9.91,1.73l0,.23c.15,1.4.27,2.8.37,4.2,3.22-1.49,6.8-2,10.19-2.76,5-1.12,10.27-2.5,15.39-2.72,1.65-.07,2.28,3,.56,3.37-4.61,1.08-9.42,1.43-14.08,2.19q-3.63.58-7.26,1.28a26.58,26.58,0,0,0-4.66,1.13c0,.63,0,1.25.07,1.87.07,2.39-.37,5.14.21,7.44.81,3.25,2.76,3.36,5.25,3,15.4-2.13,30.68-.68,46.12-1.12a1.51,1.51,0,0,0,1.32-1.27q1.8-14.51,2.63-29.14c.13-2.31.25-4.62.34-6.93C489.11,119.72,489.55,117.55,488.9,116Z"/><path class="cls-11" d="M451.36,132.05c2.36-.22,4.94-.07,7.21-.9,1.26-.45,1.22-2.77-.14-3-2.36-.44-4.87.15-7.23.44q-3.87.47-7.74,1.05a95.09,95.09,0,0,0-12.26,2.22c.17.87.34,1.73.49,2.61,4.12-.27,8.3-1.18,12.38-1.64C446.49,132.52,448.93,132.27,451.36,132.05Z"/><path class="cls-11" d="M456.63,137.11c1.87-.37,1.83-3.41-.16-3.42-4.83,0-9.85,1.16-14.6,2.09-3.21.63-6.46,1.26-9.65,2.11.12.89.24,1.79.34,2.69,3.3-.58,6.59-1.25,9.91-1.73C447.15,138.17,452,138,456.63,137.11Z"/><path class="cls-11" d="M445,145.09c4.66-.76,9.47-1.11,14.08-2.19,1.72-.4,1.09-3.44-.56-3.37-5.12.22-10.37,1.6-15.39,2.72-3.39.75-7,1.27-10.19,2.76.06.83.1,1.66.14,2.49a26.58,26.58,0,0,1,4.66-1.13Q441.39,145.68,445,145.09Z"/><path class="cls-11" d="M475.93,130.88a1.1,1.1,0,0,0-.23-.26c-1.88-1.61-3-3.89-4.17-6.15a1.07,1.07,0,0,0-1.95.12c-.5.94-1.33,3.44-1.92,3.89a8,8,0,0,1-1.59.05c-.72,0-1.43,0-2.15.08a.81.81,0,0,0-.35.12.73.73,0,0,0-.61.52c-1,1.94-1.78,4-2.63,6-.31.76.17,1.91,1,1.75,1.37-.25,2.75-.48,4.13-.68l-.63,1.44a1.21,1.21,0,0,0,1.62,1.66c3.27-2,6.5-4.17,9.69-6.35A1.33,1.33,0,0,0,475.93,130.88Z"/><path class="cls-9" d="M507.71,152.58a10.94,10.94,0,0,0-8.84,2.3c-3.63,2.27-4.1,8.32-1.44,11.25,1.91,2.1,6,3.54,8.92,3.58,3.25,0,5.3-2.15,6.71-4.54C516.08,160,514.76,153.68,507.71,152.58Z"/></g><g class="cls-12"><path class="cls-13" d="M387.49,17.75c-17.26,6.69-33.32,15.15-49.17,24.63-1.72,1,.19,3.49,1.88,2.48a296.16,296.16,0,0,1,44.68-21.41,2,2,0,0,0,2.21.48,4.65,4.65,0,0,0,3.26-3.28A2.23,2.23,0,0,0,387.49,17.75Z"/><path class="cls-13" d="M393.31,41.13c-16-.41-31.35,3.64-46,9.61a1.49,1.49,0,0,0,1.13,2.75c13.84-5.63,28.72-7.57,43.52-8.09a1.6,1.6,0,0,0,.49,0l.83-.06C395.66,45.17,395.76,41.19,393.31,41.13Z"/><path class="cls-13" d="M395.88,60.41a78.81,78.81,0,0,0-34.81.73,1.34,1.34,0,0,0,.35,2.65,144,144,0,0,1,17.24-1,134,134,0,0,1,16.62,1.77C398,65,398.53,61,395.88,60.41Z"/></g><g class="cls-12"><path class="cls-13" d="M227.48,43.13a129.84,129.84,0,0,0-23.35-12.74c-3.94-1.64-8-3.05-12-4.3s-8.7-3-13-2.95c-2.34,0-3.06,3.65-.87,4.52,3.72,1.49,8,1.83,11.88,2.85a112.87,112.87,0,0,1,12.12,4,124.27,124.27,0,0,1,22.76,11.64C227,47.45,229.57,44.56,227.48,43.13Z"/><path class="cls-13" d="M224.17,57.07c-3.83-1-7.48-2.41-11.38-3.2a105.82,105.82,0,0,0-11.08-1.55c-6.89-.64-15.16-1.64-21.9.16-2.41.65-2.19,4.65.33,4.91,3.32.34,6.74-.21,10.08-.27,3.91-.08,7.82,0,11.71.27,7.09.51,14.75,1.11,21.63,2.86C225.58,60.76,226.18,57.61,224.17,57.07Z"/><path class="cls-13" d="M218.42,72.57c-3.84-1.59-8.68-1.26-12.76-1-4.37.23-9.5.67-13.55,2.41-2.52,1.09-2.09,5.38,1,5,4.32-.55,8.52-1.9,12.88-2.42,4-.48,8.31,0,12.25-1A1.6,1.6,0,0,0,218.42,72.57Z"/></g><path class="cls-14" d="M371.89,82.82c-1.42-3.2-5.72-3.49-8.78-4.06A130.59,130.59,0,0,0,349,77.09c-10.13-.7-20.3-.47-30.45-.76-5.21-.16-10.41-.44-15.58-1.06-4.73-.57-9.76-2.33-14.53-2-4.35.28-8.76,2.64-12.77,4.2q-7.47,2.86-14.86,5.92c-10.6,4.37-21.4,8.74-31.54,14.13-.76.41-1.18,3-1,3.65l.12.46c14.09,5.83,51.89,21.12,65.3,23C293.7,124.59,352.22,95.81,371.89,82.82Z"/><path class="cls-15" d="M371.89,82.82c-1.42-3.2-5.72-3.49-8.78-4.06A130.59,130.59,0,0,0,349,77.09c-10.13-.7-20.3-.47-30.45-.76-5.21-.16-10.41-.44-15.58-1.06-4.73-.57-9.76-2.33-14.53-2-4.35.28-8.76,2.64-12.77,4.2q-7.47,2.86-14.86,5.92c-10.6,4.37-21.4,8.74-31.54,14.13-.76.41-1.18,3-1,3.65l.12.46c14.09,5.83,51.89,21.12,65.3,23C293.7,124.59,352.22,95.81,371.89,82.82Z"/><path class="cls-16" d="M323.88,32.38c-2.71-.38-4.64,1.19-5.73,3.32a2.05,2.05,0,0,0-1.73-.06,1.93,1.93,0,0,0-1.06,2.28,5.08,5.08,0,0,0,2.15,3.43,5.83,5.83,0,0,0,2.39,2,6.41,6.41,0,0,1,.65.38c-1.89,8.12-3.69,16.22-7.95,23.53-.63,1.1.83,2.6,1.89,1.75,3.58-2.86,5.1-8.11,6.65-12.27a71.45,71.45,0,0,0,4-14,4,4,0,0,0,2.39-3.84C329.05,36.4,326.62,32.77,323.88,32.38Z"/><path class="cls-16" d="M241.58,52.41c2.23-1.59,4.67-1.07,6.62.32a2,2,0,0,1,1.5-.84,1.91,1.91,0,0,1,2,1.53,5,5,0,0,1-.33,4,5.68,5.68,0,0,1-1.21,2.88c-.13.19-.26.41-.39.64,5.41,6.34,10.73,12.72,17.87,17.25,1.07.68.46,2.68-.87,2.42-4.5-.9-8.25-4.86-11.55-7.85a71.19,71.19,0,0,1-10-10.63,4,4,0,0,1-3.89-2.32C238.83,58.35,239.32,54,241.58,52.41Z"/><path class="cls-9" d="M326,79.35a25.06,25.06,0,0,0-5.13-7,16.54,16.54,0,0,1-2.48-2.61,13,13,0,0,1-1.29-2.75C312.13,54.16,303,31.88,286.68,31a17.56,17.56,0,0,0-11.35,3.73c-5.14,3.89-8.21,9.78-9.46,16-1.55,7.71,1.81,14.35,1.16,21.81-.23,2.73-1.39,5.28-2.23,7.89-6.33,19.63,7.74,46.17,30.46,44.2,12.21-1.06,26.11-6.82,31.52-20.7A31.21,31.21,0,0,0,326,79.35Z"/><path class="cls-17" d="M320.82,72.3l-.37-.35c-.21,2.12-.24,4.3-.26,6.55,0,5.29-1.37,9.89-2.38,15-1.35,6.83-.43,16.55-10.07,16.48-2.74,0-5.36-.64-8.05.25-2,.67-3.6,2.15-5.56,2.89-3.28,1.24-6.53-.19-8.85-2.58-1.59-1.64-2.75-3.66-4.38-5.25s-3.94-2.44-6.15-3.33a12.89,12.89,0,0,1-6.88-6.08c-3-5.3-2.8-11-2.64-16.71-.15.42-.3.84-.43,1.27-6.33,19.63,7.74,46.17,30.46,44.2,12.21-1.06,26.11-6.82,31.52-20.7A31.21,31.21,0,0,0,326,79.35,25.06,25.06,0,0,0,320.82,72.3Z"/><path class="cls-18" d="M284.18,58.37c-1.13-1.91-4.32-5-6.75-4.71s-4.7,3-6.09,4.88,1.35,4.42,2.77,2.5c.72-1,2.6-3.77,3.9-3.8.71,0,1.82,1,2.42,1.41a9.15,9.15,0,0,0,2.64,1.3A1.05,1.05,0,0,0,284.18,58.37Z"/><path class="cls-18" d="M292.41,55.46c.23-2.21,1.81-6.35,4.14-7.13s5.53.77,7.58,1.86.64,4.58-1.45,3.44c-1.07-.59-4-2.33-5.14-1.8-.66.29-1.22,1.7-1.61,2.3a9,9,0,0,1-1.84,2.29A1.06,1.06,0,0,1,292.41,55.46Z"/><path class="cls-19" d="M301.51,64c-1.9-2.52-4.42-1.31-6.56.07a10.92,10.92,0,0,1-6.06,1.75,11.44,11.44,0,0,0-4.35.52,4.37,4.37,0,0,0-2.77,5.48.76.76,0,0,0,.06.48A11.51,11.51,0,0,0,288,78c2.66.87,5.72.18,8.28-.7A8.58,8.58,0,0,0,302,71.74C302.75,69.44,303.06,66.09,301.51,64Z"/><path class="cls-20" d="M281.83,72.34a8.44,8.44,0,0,0,.5.93c1.51-1.27,3.05-2.51,5.07-2.72,1.5-.15,3,.33,4.5.14a9.78,9.78,0,0,0,3.24-1.25c2.43-1.27,5.26-2.67,7.47-1.79a6.24,6.24,0,0,0-1.1-3.61c-1.9-2.52-4.42-1.31-6.56.07a10.92,10.92,0,0,1-6.06,1.75,11.44,11.44,0,0,0-4.35.52,4.37,4.37,0,0,0-2.77,5.48A.76.76,0,0,0,281.83,72.34Z"/><path class="cls-9" d="M286.64,110.65c-5,4.32-7.33,11.51-8.67,17.78-.74,3.45-.72,7.16-1.6,10.56-.51,2-2.49,3-3.7,4.6a20,20,0,0,0-2.52,4.3,2.38,2.38,0,0,0,2.9,3.24c4.41-1.43,8.59-5.29,8.48-10.19a1.72,1.72,0,0,0-.43-1.15c.55-2.51.46-5.43.8-7.76A63.57,63.57,0,0,1,284,122.1c1.11-3.51,2.93-6.52,4.64-9.73C289.26,111.21,287.7,109.75,286.64,110.65Z"/><path class="cls-11" d="M275.39,110a57.17,57.17,0,0,1-7.06-13.28.68.68,0,0,0-1.3.39,30.71,30.71,0,0,0,6.79,14.18C274.55,112.14,276.07,110.91,275.39,110Z"/><path class="cls-11" d="M268,89.73a.84.84,0,0,0-1.6,0,4,4,0,0,0,0,1.58c0,.53.08,1.06.13,1.59a.78.78,0,0,0,1.55,0c0-.54,0-1.07,0-1.6A3.86,3.86,0,0,0,268,89.73Z"/><path class="cls-11" d="M322,104.63a19.79,19.79,0,0,1-11.13,10.5.73.73,0,0,0,.42,1.39,18.38,18.38,0,0,0,12.47-11C324.23,104.4,322.53,103.45,322,104.63Z"/><path class="cls-11" d="M325,96.82a13.61,13.61,0,0,0-1.2,4.6c-.11,1,1.44,1.06,1.73.18a13.69,13.69,0,0,0,.72-4.48A.67.67,0,0,0,325,96.82Z"/><path class="cls-11" d="M295.2,36.42a8.94,8.94,0,0,0-3.69-2,13.6,13.6,0,0,0-4.21-1c-.66,0-1,1-.32,1.29,1.28.51,2.59.9,3.84,1.47A23,23,0,0,0,294.36,38C295.32,38.22,295.74,37.06,295.2,36.42Z"/><path class="cls-11" d="M299.41,39.78a2.13,2.13,0,0,0-1.37-1,.9.9,0,0,0-1.06.65.88.88,0,0,0,.64,1c-.09,0,0,0,0,0l.06,0h0l.06,0s.22.27.11.12a.93.93,0,0,0,1.24.28A.91.91,0,0,0,299.41,39.78Z"/><path class="cls-9" d="M345,122.39c-.92,0-2.64.72-3.47.37s-2.11-2.44-2.74-3.12a72.46,72.46,0,0,0-5.77-5.45c-3.67-3.1-8.83-7.23-13.71-8a1.3,1.3,0,0,0-1.12,2.1c2.06,2.15,4.95,3.53,7.34,5.3a72.11,72.11,0,0,1,7.64,6.53c1.5,1.48,2.83,3.46,4.34,5.06,1.54,4.17,6.33,5.15,10.34,3.56,1.69-.67,3.06-2.22,2.37-4.14C349.5,122.49,347,122.3,345,122.39Z"/><path class="cls-5" d="M267.1,55.27a3.16,3.16,0,0,0,1.69-.09,2.71,2.71,0,0,0,1.45-1.65c.84-2.61-1.68-3.06-2.79-3.31-1.85-.41-3.74-.67-5.57-1.18A2.14,2.14,0,0,0,260.6,49c-1.15.4-1.48,2.45-1.25,3.61a2.66,2.66,0,0,0,1.46,1.92c1.55.84,3.47.68,5.23.71A7.82,7.82,0,0,1,267.1,55.27Z"/><path class="cls-21" d="M268.64,58.9c-.47-1.36-2.26-1.21-3.4-1.37L261.33,57c-1.38-.19-4.57-.44-3.39,3.12,1,2.88,3.73,3,5.93,3.09,1.1.06,3.3.26,4.18-.68A4.72,4.72,0,0,0,268.64,58.9Z"/><path class="cls-14" d="M372,82.51C352.24,95.43,293.6,124,293.6,124c-13.4-1.92-51.14-17.35-65.21-23.24,2.71,11.59,6.56,23,10,34.39q2.67,8.94,5.37,17.87,1.33,4.47,2.69,8.94c.58,1.95.57,4.13,1.35,6s2.53,3,4.22,4a104.12,104.12,0,0,0,24.12,11,90.31,90.31,0,0,0,29.23,3.72c1,0,17.73-11.62,25.52-16.88,8.54-5.79,17.12-11.66,25.27-18a1.9,1.9,0,0,0,.28-.29,10.27,10.27,0,0,0,3.68-3.8c1.44-2.62,2-5.72,2.76-8.58q1.44-5.55,2.68-11.16a263.88,263.88,0,0,0,6.26-43.6,1.37,1.37,0,0,0,.31-1.48A3.08,3.08,0,0,0,372,82.51Z"/><path class="cls-3" d="M372,82.51C352.24,95.43,293.6,124,293.6,124c-13.4-1.92-51.14-17.35-65.21-23.24,2.71,11.59,6.56,23,10,34.39q2.67,8.94,5.37,17.87,1.33,4.47,2.69,8.94c.58,1.95.57,4.13,1.35,6s2.53,3,4.22,4a104.12,104.12,0,0,0,24.12,11,90.31,90.31,0,0,0,29.23,3.72c1,0,17.73-11.62,25.52-16.88,8.54-5.79,17.12-11.66,25.27-18a1.9,1.9,0,0,0,.28-.29,10.27,10.27,0,0,0,3.68-3.8c1.44-2.62,2-5.72,2.76-8.58q1.44-5.55,2.68-11.16a263.88,263.88,0,0,0,6.26-43.6,1.37,1.37,0,0,0,.31-1.48A3.08,3.08,0,0,0,372,82.51Z"/><path class="cls-11" d="M324,151.26l-.73,2.82-1.46-1.41-.72,2.81-1.46-1.4-.73,2.81-1.45-1.41-.73,2.82-1.45-1.41-.73,2.82-1.46-1.41a55.4,55.4,0,0,1,0,12,122.2,122.2,0,0,1-2.52,13.24c3.89-2.56,9.3-6.25,14-9.47.25-2.05.56-4.61.87-7.29C326.22,160.42,324,151.26,324,151.26Z"/><path class="cls-17" d="M294,123.78l-.4.19c-13.4-1.92-51.14-17.35-65.21-23.24,2.71,11.59,6.56,23,10,34.39q2.67,8.94,5.37,17.87,1.33,4.47,2.69,8.94c.58,1.95.57,4.13,1.35,6s2.53,3,4.22,4a104.12,104.12,0,0,0,24.12,11,90.31,90.31,0,0,0,29.23,3.72,1.15,1.15,0,0,0,.27-.09c-1.64-6.38-3.72-14.56-5.5-21.69C297.72,155.24,295.3,135.49,294,123.78Z"/><path class="cls-14" d="M394.55,102.93c-1-3.81-9-10.76-10.59-12.18a53.58,53.58,0,0,0-6-4.52c-1.06-.69-2.14-1.35-3.25-2-.56-.31-2.25-.9-3.26-1.51l-.13-.08-.09-.08c-19.4,12.67-75.69,40.14-78.14,41.33,4.26,2,7.84,5.58,11.34,8.62a105.92,105.92,0,0,1,10.25,10.62c2.39,2.74,4.54,1.1,7-.48,1.6-1,3.15-2.14,4.69-3.27,3-2.18,5.95-4.46,9.07-6.49,5.66-3.68,11.49-7.11,17.44-10.31,4.75-2.57,9.62-4.88,14.56-7,8.44-3.69,17.07-7,25.67-10.23a3,3,0,0,0,1.12-.64A1.77,1.77,0,0,0,394.55,102.93Z"/><path class="cls-19" d="M279,156.33q-4.57-4.46-9-9.1a1.28,1.28,0,0,0-1.52-.11L261,150.84c-1.75.89-4.58,1.69-5.87,3.19-.22.26,2.23,3.88,3.4,4.89s2.21,1.88,3.32,2.81c.65.55,1.55,1.68,2.4,1.93,1.8.52,4-1.3,5.5-2a65.89,65.89,0,0,1,8.06-3l.18-.07A1.36,1.36,0,0,0,279,156.33Z"/><path class="cls-20" d="M269,168.75q3.53,1.59,7,3.32a.77.77,0,0,0,.89-.25l3.45-3.65c.81-.87,2.26-1.91,2.67-3a9.43,9.43,0,0,0-2.94-2.07l-2.47-.92a5.65,5.65,0,0,0-1.76-.6c-1.13.08-2,1.56-2.72,2.27a39.61,39.61,0,0,1-4,3.35l-.09.08A.82.82,0,0,0,269,168.75Z"/><path class="cls-14" d="M293.67,123.35l-.07,0c-13.4-1.92-51.13-17.35-65.2-23.24a1.13,1.13,0,0,1-.08-.24c-2,1.34-2.49,4.19-3.61,6.18-1.53,2.69-3.08,5.36-4.76,8-1.51,2.34-3.08,4.64-4.73,6.88a50.86,50.86,0,0,1-4.68,6,2.79,2.79,0,0,0-.54.65c-1.07,2.1,4.69,3,5.86,3.4q4.41,1.48,8.77,3.12,7.89,3,15.57,6.49l1.59.72q7.23,3.35,14.22,7.17c4.32,2.35,8.58,5.37,13.47,6.36l.28,0a1,1,0,0,0,1.34-.16c3.72-4.53,6.75-9.74,10-14.61,1.68-2.51,3.35-5.05,5-7.55,1-1.49,1.74-3.21,3.18-4.34s3.18-1.57,4-3.19A3.21,3.21,0,0,0,293.67,123.35Z"/></svg>