<?xml version="1.0" encoding="utf-8"?>
<!-- Generator: Adobe Illustrator 16.0.0, SVG Export Plug-In . SVG Version: 6.00 Build 0)  -->
<!DOCTYPE svg PUBLIC "-//W3C//DTD SVG 1.1//EN" "http://www.w3.org/Graphics/SVG/1.1/DTD/svg11.dtd">
<svg version="1.1" id="Layer_1" xmlns="http://www.w3.org/2000/svg" xmlns:xlink="http://www.w3.org/1999/xlink" x="0px" y="0px"
	 width="1008px" height="612px" viewBox="0 0 1008 612" enable-background="new 0 0 1008 612" xml:space="preserve">
<g>
	<g>
		<g>
			<path fill="#BDB7AC" d="M661.08,549.013h-316.2c-11.22,0-20.4-9.18-20.4-20.4V301.154c0-11.221,9.18-20.401,20.4-20.401h316.2
				c11.221,0,20.4,9.181,20.4,20.401v227.459C681.48,539.833,672.301,549.013,661.08,549.013z M364.26,509.234h276.42v-187.68
				H364.26V509.234z"/>
		</g>
		<g>
			<path fill="#BDB7AC" d="M691.681,321.554h-377.4c-11.22,0-20.4-9.182-20.4-20.4V188.953c0-11.22,9.18-20.399,20.4-20.399H692.7
				c11.22,0,20.4,9.18,20.4,20.399v112.201C712.08,312.372,702.9,321.554,691.681,321.554z M333.661,281.773h338.64v-71.4h-338.64
				V281.773z"/>
		</g>
	</g>
	<g>
		<g>
			<path fill="#53C3FF" d="M457.445,193.161L457.445,193.161c-26.444-2-59.718-21.905-74.761-39.409
				c-22.564-26.257-19.642-64.907,6.614-87.471c12.035-10.342,28.846-16.23,45.12-15s31.069,8.487,42.351,21.615
				c9.402,10.94,19.129,31.111,23.847,49.88c8.649,34.41-0.872,52.102-10.718,60.564
				C484.352,189.06,473.718,194.392,457.445,193.161z M431.341,91.965c-6.103-0.462-11.341,1.188-15.718,4.949
				c-8.751,7.521-9.828,21.76-2.308,30.512c8.462,9.846,32.966,23.974,47.206,25.051c1.018,0.077,2.034,0.153,3.052,0.23
				c2.727-9-6.232-39.342-17.437-53.486C442.376,94.845,437.443,92.427,431.341,91.965z"/>
		</g>
	</g>
	<g>
		<g>
			<path fill="#53C3FF" d="M511.333,183.341c-9.846-8.462-19.367-26.154-10.718-60.564c4.718-18.77,14.444-38.94,23.847-49.88
				c11.282-13.127,26.077-20.384,42.351-21.615c16.274-1.23,33.086,4.658,45.12,15c26.257,22.564,29.179,61.214,6.614,87.471
				c-15.043,17.503-48.316,37.409-74.762,39.409l0,0C527.513,194.392,516.879,189.06,511.333,183.341z M555.094,99.222
				c-11.205,14.145-20.163,44.486-17.437,53.486c1.019-0.077,2.034-0.154,3.052-0.23c14.24-1.077,38.744-15.205,47.206-25.051
				c7.521-8.752,6.444-22.991-2.308-30.512c-4.377-3.761-9.615-5.411-15.718-4.949C563.787,92.427,558.854,94.845,555.094,99.222z"
				/>
		</g>
	</g>
</g>
<ellipse fill="#818991" cx="504" cy="491.959" rx="98.245" ry="12.188"/>
<path fill="#981D20" d="M517.315,380.269c-11.462-4.341-18.708-10.964-25.705-17.372c-6.449-5.926-12.552-11.497-22.082-15.107
	c-33.184-12.584-64.121-0.89-75.234,28.432c-25.683,67.763,80.188,111.368,81.274,111.782
	c18.049,6.841,114.363,29.269,136.534-29.23c11.113-29.322-4.294-58.582-37.486-71.162c-9.523-3.609-17.77-3.463-26.511-3.315
	C538.609,384.445,528.794,384.621,517.315,380.269z"/>
</svg>
