<?xml version="1.0" encoding="utf-8"?>
<!-- Generator: Adobe Illustrator 16.0.0, SVG Export Plug-In . SVG Version: 6.00 Build 0)  -->
<!DOCTYPE svg PUBLIC "-//W3C//DTD SVG 1.1//EN" "http://www.w3.org/Graphics/SVG/1.1/DTD/svg11.dtd">
<svg version="1.1" id="Layer_1" xmlns="http://www.w3.org/2000/svg" xmlns:xlink="http://www.w3.org/1999/xlink" x="0px" y="0px"
	 width="1008px" height="612px" viewBox="0 0 1008 612" enable-background="new 0 0 1008 612" xml:space="preserve">
<g id="Layer_1_1_">
	<g>
		<circle fill="#37B1F2" cx="430.564" cy="166.464" r="24.48"/>
	</g>
	<g>
		<circle fill="#37B1F2" cx="577.45" cy="166.464" r="24.48"/>
	</g>
	<path fill="#37B1F2" d="M601.92,195.84H552.98c-3.14-0.005-6.271,1.188-8.672,3.584l-40.299,40.304l-40.309-40.304
		c-2.399-2.399-5.553-3.594-8.69-3.584H406.09c-13.523,0-24.48,10.957-24.48,24.479v48.96c0,13.52,10.957,24.477,24.48,24.477
		v97.925h48.96v-97.925v-68.368l40.31,40.305c2.292,2.302,5.396,3.588,8.646,3.588c3.246,0,6.36-1.286,8.656-3.583l40.304-40.305
		v68.368l-0.005,97.92h48.96v-97.925c13.522,0,24.48-10.957,24.48-24.477v-48.96C626.4,206.797,615.442,195.84,601.92,195.84z"/>
</g>
<g id="Layer_2">
	<g>
		<path fill="#981B1E" d="M438.619,275c0-1.905,0.563-3.323,1.109-4.693c0.506-1.264,0.979-2.458,0.979-4.042
			c0.001-5.517-3.403-9.369-8.277-9.369c-11.265,0-11.771,17.791-11.771,17.972c0,3,2.046,18.235,11.771,18.235
			c4.874,0,8.278-3.852,8.278-9.369c0-1.583-0.476-2.773-0.979-4.036C439.186,278.325,438.619,276.908,438.619,275z"/>
		<path display="none" fill="#981B1E" d="M414.5,251v47h34v-47H414.5z M432.432,295.793c-11.886,0-14.459-16.774-14.459-20.926
			c0-5.36,2.657-20.66,14.459-20.66c6.355,0,10.969,5.069,10.969,12.058c0,2.101-0.621,3.66-1.17,5.037
			c-0.493,1.24-0.921,2.311-0.921,3.698c0,1.391,0.428,2.461,0.923,3.702c0.548,1.375,1.169,2.935,1.169,5.032
			C443.399,290.721,438.786,295.793,432.432,295.793z"/>
	</g>
	<path fill="#BDB7AC" d="M564.735,283.735c0-2.098,0.62-3.657,1.169-5.032c0.495-1.24,0.922-2.312,0.922-3.702
		c0-1.389-0.427-2.458-0.92-3.698c-0.549-1.377-1.17-2.938-1.17-5.037c0-6.988,4.611-12.058,10.968-12.058
		c11.804,0,14.46,15.3,14.46,20.66c0,4.151-2.574,20.926-14.46,20.926C569.35,295.793,564.736,290.721,564.735,283.735z
		 M567.427,266.265c0,1.584,0.476,2.778,0.979,4.042c0.546,1.371,1.109,2.789,1.109,4.693c0,1.908-0.565,3.325-1.111,4.697
		c-0.503,1.263-0.979,2.454-0.979,4.037c0,5.518,3.404,9.369,8.278,9.369c9.724,0,11.771-15.236,11.771-18.235
		c0-0.181-0.506-17.972-11.771-17.972C570.83,256.896,567.426,260.749,567.427,266.265z"/>
</g>
</svg>
