<?xml version="1.0" encoding="utf-8"?>
<!-- Generator: Adobe Illustrator 16.0.0, SVG Export Plug-In . SVG Version: 6.00 Build 0)  -->
<!DOCTYPE svg PUBLIC "-//W3C//DTD SVG 1.1//EN" "http://www.w3.org/Graphics/SVG/1.1/DTD/svg11.dtd">
<svg version="1.1" id="Layer_1" xmlns="http://www.w3.org/2000/svg" xmlns:xlink="http://www.w3.org/1999/xlink" x="0px" y="0px"
	 width="1008px" height="612px" viewBox="0 0 1008 612" enable-background="new 0 0 1008 612" xml:space="preserve">
<g display="none">
	<path display="inline" fill="#010101" d="M504.133,92.677c-118.321,0-214.261,95.897-214.261,214.248
		c0,118.352,95.934,214.292,214.261,214.292c118.375,0,214.278-95.94,214.278-214.292
		C718.411,188.569,622.508,92.677,504.133,92.677z M618.727,334.008l28.016-27.985h14.174c5.895,0,10.657,4.738,10.657,10.645
		l-0.145-0.445c0,5.895,4.793,10.657,10.688,10.657v25.885l5.558,3.498c-21.712,81.045-95.633,140.72-183.547,140.72
		c-104.948,0-190.039-85.078-190.039-190.038c0-8.556,0.614-16.955,1.704-25.162l27.065,40.413h19.375v-24.318h23.109
		c9.507,0,17.202-7.713,17.202-17.19h19.701l20.599-20.599v-19.11l-20.394-20.399h-20.725v16.955h-20.104
		c-10.706,0-19.376-8.688-19.376-19.406c0-10.675,8.67-19.376,19.376-19.376v-19.852h-17.913
		c34.754-38.119,84.796-62.047,140.431-62.047c54.792,0,104.123,23.241,138.786,60.295"/>
	<path display="inline" fill="#010101" d="M383.163,359.875c0,12.572,10.182,22.76,22.766,22.76v75.119l19.297,9.459v-14.288
		l34.651-34.663v-16.703c12.597,0,22.754-10.205,22.754-22.777l0.108-16.215h-20.206l-39.493-40.221l-60.807-0.145l20.839,21.459
		L383.163,359.875z"/>
	<path display="inline" fill="#010101" d="M504.133,253.958c8.478,0,42.605,56.267,42.605-0.723l-14.571-9.333L504.133,253.958z"/>
	<path display="inline" fill="#010101" d="M578.295,296.539h-71.05c-7.502,0-13.554,6.051-13.554,13.571v13.023
		c0,22.567,18.293,40.89,40.854,40.89h20.821v48.319l19.165,19.141h19.135v-21.079l19.382-19.353v-34.819
		c7.075,0,12.85-5.738,12.85-12.837h-12.38L578.295,296.539z"/>
	<path display="inline" fill="#010101" d="M431.97,155.694l-14.866,22.627l8.441,12.909l0.175,20.285l20.394,20.418l12.198-28.046
		c19.864,0,35.916-16.083,35.916-35.916L431.97,155.694z"/>
	<path display="inline" fill="#010101" d="M601.397,419.845v11.646c6.425,0,11.645-5.203,11.645-11.646v-11.62
		C606.611,408.225,601.397,413.439,601.397,419.845z"/>
	<path display="inline" fill="#010101" d="M523.46,235.467h14.571v-14.511C529.999,220.956,523.46,227.471,523.46,235.467z"/>
</g>
<path fill="#BDB7AC" d="M442.224,14.445l-1.535-6.623c8.905-2.071,17.997-3.728,27.034-4.998l0.951,6.75
	C459.829,10.796,450.924,12.451,442.224,14.445z"/>
<path fill="#BDB7AC" d="M575.754,14.047c-8.683-1.975-17.576-3.534-26.512-4.679l0.903-6.755c9.122,1.174,18.226,2.793,27.077,4.786
	L575.754,14.047z"/>
<path fill="#BDB7AC" d="M495.504,7.129l-0.318-6.798c9.176-0.428,18.49-0.428,27.528-0.066l-0.253,6.815
	C513.478,6.707,504.451,6.707,495.504,7.129z"/>
<path fill="#BDB7AC" d="M246.61,464.859c4.721,7.864,9.833,15.571,15.203,22.935l5.503-4.028c-5.25-7.177-10.26-14.697-14.89-22.41
	L246.61,464.859z"/>
<path fill="#BDB7AC" d="M222.616,415.354c3.251,8.616,6.9,17.13,10.874,25.282l6.111-2.968c-3.865-7.973-7.442-16.3-10.633-24.699
	L222.616,415.354z"/>
<path fill="#BDB7AC" d="M207.918,362.344c1.656,9.02,3.715,18.057,6.153,26.824l6.563-1.813c-2.384-8.593-4.401-17.419-6.021-26.24
	L207.918,362.344z"/>
<path fill="#BDB7AC" d="M209.749,307.57h-6.804c0.012,9.141,0.439,18.389,1.265,27.511l6.773-0.614
	C210.17,325.531,209.755,316.493,209.749,307.57z"/>
<path fill="#BDB7AC" d="M214.421,253.989l-6.701-1.204c-1.59,8.989-2.812,18.153-3.613,27.306l6.774,0.577
	C211.669,271.727,212.85,262.742,214.421,253.989z"/>
<path fill="#BDB7AC" d="M228.564,202.08l-6.376-2.366c-3.209,8.64-6.051,17.437-8.442,26.186l6.569,1.801
	C222.658,219.156,225.439,210.54,228.564,202.08z"/>
<path fill="#BDB7AC" d="M251.818,153.592l-5.853-3.474c-4.673,7.839-9.044,16.004-13.006,24.271l6.136,2.921
	C242.967,169.259,247.248,161.251,251.818,153.592z"/>
<path fill="#BDB7AC" d="M261.115,127.129l5.509,3.986c5.244-7.237,10.88-14.324,16.75-21.074l-5.136-4.474
	C272.224,112.456,266.467,119.73,261.115,127.129z"/>
<path fill="#BDB7AC" d="M317.875,67.479c-7.099,5.678-14.065,11.795-20.67,18.123l4.708,4.943
	c6.473-6.226,13.289-12.229,20.213-17.756L317.875,67.479z"/>
<path fill="#BDB7AC" d="M721.205,84.331C714.612,78.058,707.622,72,700.45,66.281l-4.257,5.347
	c7.057,5.575,13.879,11.506,20.346,17.642L721.205,84.331z"/>
<path fill="#BDB7AC" d="M366.923,42.973l-3.251-5.955c-7.972,4.305-15.902,9.086-23.579,14.191l3.781,5.636
	C351.371,51.865,359.126,47.217,366.923,42.973z"/>
<path fill="#BDB7AC" d="M678.112,50.15c-7.623-5.004-15.564-9.73-23.693-14.065l-3.179,6.003c7.888,4.215,15.685,8.852,23.157,13.74
	L678.112,50.15z"/>
<path fill="#BDB7AC" d="M416.296,21.67l-2.131-6.455c-8.761,2.872-17.425,6.166-25.722,9.761l2.686,6.25
	C399.257,27.703,407.741,24.512,416.296,21.67z"/>
<path fill="#BDB7AC" d="M629.612,24.223c-8.382-3.528-17.063-6.773-25.818-9.592l-2.077,6.485
	c8.567,2.739,17.045,5.906,25.234,9.387L629.612,24.223z"/>
<path fill="#0C405C" d="M799.811,161.209l-16.354-16.323l6.726-55.617l-7.472-7.406l-19.25,42.985l-11.139-11.115
	c-0.97-0.981-2.282-1.729-3.667-2.174l3.758-18.563l-5.974-5.979l-8.887,20.815l-20.803,8.875l5.954,5.984l18.588-3.757
	c0.451,1.379,1.198,2.686,2.18,3.673l11.139,11.139l-43.015,19.274l7.388,7.441l55.665-6.695l16.299,16.323
	c3.011,3.053,6.997,4.913,11.278,5.221c0.746,0,1.487-0.217,2.041-0.747c0.506-0.536,0.831-1.271,0.776-2.017
	C804.73,168.23,802.863,164.243,799.811,161.209z"/>
<g>
	<path fill="#53C3FF" d="M673.03,322.785c-1.927-1.939-10.543-11.254-2.168-10.82c-6.593-6.311-13.451-8.664-22.471-8.664
		c-4.774,0-20.483-2.487-14.366,6.063c1.132,1.59,2.77,2.012,1.301,3.486c-1.813,1.813-3.619,3.619-5.449,5.449
		c-3.654,3.649-7.34,7.334-11,10.995c-2.373-2.366-17.877-19.31-17.335-8.659c-2.613-5.231-4.859-13.33-8.869-17.533
		c-3.823-4.01-7.346-9.206-8.255-14.757c-0.561-3.36,0.15-6.533,2.992-2.879c2.138,2.746,3.812,5.913,5.383,9.002
		c0.241,0.464,4.89-1.445,5.432-1.62c6.882-2.294,13.77-4.582,20.652-6.882c-2.885-5.78-5.78-11.555-8.665-17.329
		c-9.729,9.309-22.862,7.286-32.899,15.733c-2.92,2.475-6.243,1.596-10.055,1.596c-0.795,0-0.373-15.806-0.373-17.329
		c0-2.27,1.282-7.683-0.808-9.368c-5.166-4.143-11.734-4.089-16.527,0.704c-4.438,4.438-8.352,10.663-8.658,17.13
		c-0.019,0.482-7.623,0.199-8.671,0.199c2.354-2.354,4.721-4.721,7.075-7.093c2.492-2.469,0.198-2.969-2.149-5.311
		c-1.277-1.283-4.113-5.732-5.672-4.173c-2.571,2.571-5.154,5.154-7.707,7.707c-1.15,1.149-0.205,6.821-0.205,8.496
		c0,0.885-4.955,0.909-5.75,1.017c-6.756,0.741-13.506,1.494-20.243,2.24c0-6.37-0.608-7.015,3.197-10.94
		c3.186-3.281,4.576-7.972,5.142-12.403c0.5-3.943-0.518-7.532,3.24-9.904c5.924-3.745,14.359-4.034,21.157-4.264
		c0.934-0.029,1.831,0.271,2.704,0.741c-0.012-0.006-0.019-0.013-0.024-0.019c-1.596-1.602,3.95-5.467,5.305-6.821
		c4.774-4.763,11.513-7.051,17.516-10.05c5.027-2.522,2.42-13.12,2.42-18.328c0-0.458,17.57-0.217,19.058-0.217
		c5.72,0,12.801,1.403,18.021-1.216c5.232-2.613,11.302-4.745,15.986-8.255c6.828-5.124,16.871-16.679,26.216-26.83
		c-31.749-33.953-76.896-55.231-126.937-55.231c-54.985,0-104.051,25.68-135.933,65.647c1.487,0.355,2.848,1.145,4.215,2.902
		c2.438,3.131,11.337,18.491,2.324,18.642c-7.773,0.126-3.143,10.338-10.988,12.59c-1.993,0.572-2.601-0.289-2.601,1.902
		c0,5.281,0,10.567,0,15.842c0,3.131-0.566,3.914,2.228,4.42c4.046,0.746,6.25,4.925,9.814,6.629
		c6.539,3.125,14.806,0.97,21.14-1.716c3.896-1.644-0.554-7.526,2.282-10.086c5.045-4.527,15.137-11.367,21.856-6.321
		c3.077,2.306,3.535,7.574,5.359,10.916c4.269,7.785,8.989,15.842,15.306,22.157c5.756,5.744-1.084,8.123-6.358,8.544
		c-4.854,0.403-7.593,6.341-9.393,10.537c-1.253,2.902-0.397,9.363-4.017,10.495c-2.691,0.837-5.925-0.145-8.501-0.994
		c-4.914-1.589-7.087-2.589-12.319-2.589c-6.346,0-10.856,7.328-17.708,8.46c-5.768,0.969-10.772,1.866-11.025,8.869
		c-5.78-2.879-11.548-5.774-17.329-8.658c0,4.75,0,9.524,0,14.281c0,4.106-1.938,4.992-4.919,7.973
		c-3.402,3.39-3.546,3.738-8.243,3.738c-1.409,0-3.835,0.325-6.256,0.512c8.141,45.23,33.809,84.435,69.73,110.301
		c1.307-5.021,2.788-10.013,3.968-15.064c1.066-4.564,2.505-10.224,1.108-14.86c-1.102-3.69-6.135-3.143-8.73-5.822
		c-6.16-6.358-8.616-15.167-12-23.079c-2.734-6.395-6.268-12.523-9.387-18.762c-3.173-6.334-5.076-14.456-11.566-17.708
		c-4.347-2.174-8.694-4.354-13.048-6.521c-1.74-0.873-0.656-7.087-0.656-8.996c11.771,0,23.555,0,35.338,0
		c5.329,0,10.657,0,15.986,0c4.245,0,8.484-3.654,13.048-3.848c4.643-0.18,4.51,2.523,5.16,6.214
		c0.987,5.63,5.166,10.64,10.206,13.198c2.896,1.47,8.297,0.555,9.965,3.686c1.463,2.751,1.271,6.431,1.276,9.44
		c0.03,5.606-1.451,14.626,6.178,14.626c8.05,0,16.101,0,24.156,0c0,7.357-4.034,21.362-9.417,26.745
		c-2.144,2.15-6.713,5.154-7.911,7.912c-1.578,3.667,1.047,8.706-0.807,12.639c-2.83,5.997-11.946,8.772-16.528,13.36
		c-4.702,4.69-15.655,8.093-17.124,15.18c-0.241,1.168-0.481,2.264-0.729,3.342c24.645,13.408,52.865,21.037,82.844,21.037
		c80.967,0,149.186-55.641,168.435-130.694C678.269,329.812,676.649,326.44,673.03,322.785z"/>
	<path fill="#0C405C" d="M510.563,90.99c-33.903,0-65.85,8.517-93.828,23.51h187.651C576.407,99.508,544.462,90.99,510.563,90.99z"
		/>
	<path fill="#0C405C" d="M510.563,489.6c30.417,0,59.26-6.861,85.077-19.1H425.48C451.298,482.739,480.142,489.6,510.563,489.6z"/>
	<path fill="#0C405C" d="M709.867,290.295c0-7.279-0.403-14.465-1.168-21.544v43.086
		C709.464,304.759,709.867,297.573,709.867,290.295z"/>
	<path fill="#0C405C" d="M708.699,311.837v-43.086c-7.217-66.833-47.602-123.861-104.313-154.25H416.734
		c-62.719,33.608-105.476,99.795-105.476,175.795c0,79.475,46.765,148.228,114.222,180.205H595.64
		C656.918,441.451,701.116,382.053,708.699,311.837z M510.563,464.16c-29.979,0-58.199-7.629-82.844-21.037
		c0.247-1.078,0.487-2.174,0.729-3.342c1.469-7.087,12.422-10.489,17.124-15.18c4.582-4.588,13.698-7.363,16.528-13.36
		c1.854-3.933-0.771-8.972,0.807-12.639c1.198-2.758,5.768-5.762,7.911-7.912c5.383-5.383,9.417-19.388,9.417-26.745
		c-8.056,0-16.106,0-24.156,0c-7.629,0-6.147-9.02-6.178-14.626c-0.006-3.01,0.187-6.689-1.276-9.44
		c-1.668-3.131-7.069-2.216-9.965-3.686c-5.04-2.559-9.219-7.568-10.206-13.198c-0.65-3.69-0.518-6.394-5.16-6.214
		c-4.564,0.193-8.803,3.848-13.048,3.848c-5.329,0-10.657,0-15.986,0c-11.783,0-23.566,0-35.338,0c0,1.909-1.083,8.123,0.656,8.996
		c4.354,2.167,8.701,4.347,13.048,6.521c6.491,3.252,8.394,11.374,11.566,17.708c3.119,6.238,6.653,12.367,9.387,18.762
		c3.384,7.912,5.84,16.721,12,23.079c2.595,2.68,7.628,2.132,8.73,5.822c1.397,4.637-0.042,10.296-1.108,14.86
		c-1.18,5.052-2.661,10.043-3.968,15.064c-35.922-25.866-61.59-65.07-69.73-110.301c2.42-0.187,4.847-0.512,6.256-0.512
		c4.697,0,4.841-0.349,8.243-3.738c2.98-2.98,4.919-3.866,4.919-7.973c0-4.757,0-9.531,0-14.281
		c5.78,2.884,11.548,5.779,17.329,8.658c0.253-7.003,5.257-7.9,11.025-8.869c6.852-1.132,11.362-8.46,17.708-8.46
		c5.232,0,7.406,1,12.319,2.589c2.577,0.85,5.81,1.831,8.501,0.994c3.619-1.132,2.764-7.593,4.017-10.495
		c1.8-4.196,4.539-10.134,9.393-10.537c5.274-0.421,12.114-2.8,6.358-8.544c-6.316-6.315-11.037-14.372-15.306-22.157
		c-1.824-3.342-2.282-8.61-5.359-10.916c-6.719-5.046-16.811,1.794-21.856,6.321c-2.836,2.56,1.614,8.442-2.282,10.086
		c-6.334,2.686-14.601,4.841-21.14,1.716c-3.564-1.704-5.768-5.883-9.814-6.629c-2.793-0.506-2.228-1.289-2.228-4.42
		c0-5.274,0-10.561,0-15.842c0-2.191,0.608-1.33,2.601-1.902c7.845-2.252,3.215-12.464,10.988-12.59
		c9.014-0.15,0.115-15.511-2.324-18.642c-1.367-1.758-2.728-2.547-4.215-2.902c31.881-39.968,80.947-65.647,135.933-65.647
		c50.041,0,95.188,21.278,126.937,55.231c-9.345,10.151-19.388,21.706-26.216,26.83c-4.685,3.51-10.754,5.642-15.986,8.255
		c-5.22,2.619-12.301,1.216-18.021,1.216c-1.487,0-19.058-0.241-19.058,0.217c0,5.208,2.607,15.806-2.42,18.328
		c-6.003,2.999-12.741,5.287-17.516,10.05c-1.354,1.354-6.9,5.22-5.305,6.821c0.006,0.006,0.013,0.013,0.024,0.019
		c-0.873-0.47-1.771-0.771-2.704-0.741c-6.798,0.229-15.233,0.519-21.157,4.264c-3.758,2.372-2.74,5.961-3.24,9.904
		c-0.565,4.432-1.956,9.122-5.142,12.403c-3.806,3.926-3.197,4.57-3.197,10.94c6.737-0.746,13.487-1.499,20.243-2.24
		c0.795-0.107,5.75-0.132,5.75-1.017c0-1.675-0.945-7.347,0.205-8.496c2.553-2.553,5.136-5.136,7.707-7.707
		c1.559-1.56,4.395,2.89,5.672,4.173c2.348,2.342,4.642,2.842,2.149,5.311c-2.354,2.372-4.721,4.738-7.075,7.093
		c1.048,0,8.652,0.283,8.671-0.199c0.307-6.467,4.221-12.692,8.658-17.13c4.793-4.793,11.361-4.847,16.527-0.704
		c2.09,1.686,0.808,7.099,0.808,9.368c0,1.523-0.422,17.329,0.373,17.329c3.812,0,7.135,0.879,10.055-1.596
		c10.037-8.447,23.17-6.425,32.899-15.733c2.885,5.774,5.78,11.549,8.665,17.329c-6.883,2.3-13.771,4.588-20.652,6.882
		c-0.542,0.175-5.19,2.084-5.432,1.62c-1.571-3.089-3.245-6.256-5.383-9.002c-2.842-3.654-3.553-0.481-2.992,2.879
		c0.909,5.551,4.432,10.747,8.255,14.757c4.01,4.203,6.256,12.302,8.869,17.533c-0.542-10.65,14.962,6.293,17.335,8.659
		c3.66-3.661,7.346-7.346,11-10.995c1.83-1.83,3.637-3.637,5.449-5.449c1.469-1.475-0.169-1.896-1.301-3.486
		c-6.117-8.55,9.592-6.063,14.366-6.063c9.02,0,15.878,2.354,22.471,8.664c-8.375-0.434,0.241,8.881,2.168,10.82
		c3.619,3.654,5.238,7.026,5.967,10.681C659.748,408.52,591.529,464.16,510.563,464.16z"/>
</g>
<path fill="#0C405C" d="M517.782,225.304c-1.915,1.927-3.854,3.847-5.769,5.78c-1.975,0.723-5.238,0.86-5.358,3.137
	c-0.145,2.812-0.271,5.605-0.422,8.417c3.775-1.884,7.551-3.774,11.32-5.653C518.758,236.376,517.782,226.978,517.782,225.304z"/>
<path fill="#0C405C" d="M534.967,216.639c2.149,0,5.925,1.204,5.925-1.354c0-0.054,0-0.114,0-0.162
	c0.415,0.824,1.162,1.343,2.324,1.451c-0.692,2.914-1.451,5.828-2.324,8.736c2.637-2.638,5.262-5.269,7.905-7.912
	c1.771-1.77,0.753-6.201,0.753-8.55c0-0.409,0-0.825,0-1.24c0-5.647,0-11.308,0-16.962c-0.163,0.332-0.452,0.867-0.795,1.494
	c-0.108-1.223-0.163-2.421-0.289-3.655c-0.337,2.029-0.668,4.04-1.006,6.058c-2.216,4.143-5.4,10.435-6.575,15.257
	c0-0.729,0-1.457,0-2.186c0-5.647,0-11.308,0-16.961C539.139,194.145,525.748,216.639,534.967,216.639z"/>
<path fill="#0C405C" d="M612.585,355.082c5.659-0.945,10.868-4.552,14.962-8.46c-6.425-2.137-12.831-4.28-19.262-6.418
	c-7.188-2.396-7.207-3.173-10.688-10.151c-2.728-5.474-4.611-9.327-8.856-13.572c-3.101-3.101-13.187-9.995-13.187-14.541
	c0-6.918,1.343-7.31-5.136-7.31c-8.116,0-16.228,0-24.35,0c-13.282,0-26.559,0-39.836,0c-5.238,5.311-10.319,11.085-14.167,17.497
	c-6.847,11.41,1.716,17.112,9.212,25.319c8.021,8.772,4.913,23.669,19.918,26.3c5.353,0.928,11.404,0.199,16.823,0.199
	c0.644,0,12.523-1.674,11.38-3.758c1.258,2.258,0.565,8.532,1.011,11.271c1.018,6.148,2.349,12.253,3.709,18.329
	c1.608,7.243,4.113,14.39,4.113,21.82c0,7.641,7.953,12.283,13.18,17.515c1.987,1.987,3.125,4.143,5.949,4.143
	c4.883,0,9.79,0,14.68,0c2.432,0-2.107-30.057,5.593-33.856c2.198-1.084,6.545,0.127,7.846-2.384c0.897-1.704-0.084-3.8,0.813-5.498
	c2.155-4.154,7.243-0.096,7.736-6.936c0.386-5.552-0.596-17.01-4.51-21.405C604.757,357.84,606.238,356.148,612.585,355.082z"/>
<path fill="#0C405C" d="M480.126,173.209c-4.407-4.354-9.157-8.478-14.252-12.019c-6.882-4.78-12.066-5.208-20.303-5.208
	c-3.938,0-7.954-0.271-11.88,0.048c-1.691,0.139-1.035,2.029-1.523,3.282c-2.956,7.563-15.245,16.648-21.26,22.663
	c8.321,0,12.963,17.263,16.119,23.572c1.896,3.787,1.216,7.726,1.216,11.958c0,6.196-0.535,7.268,3.745,11.549
	c4.251,4.251,3.89,5.955,8.087,1.758c4.221-4.221,8.436-8.436,12.65-12.65c2.77-2.781,1.511-7.285,1.511-11.055
	c0-5.563-1.975-7.797,3.655-7.797c4.323,0,8.381,0.385,11.861-2.602c2.638-2.275,4.69-5.142,8.315-5.858
	c4.021-0.795,12.523-2.233,10.825-8.875C488.207,179.284,482.186,175.244,480.126,173.209z"/>
</svg>
