<?xml version="1.0" encoding="UTF-8"?>
<svg width="1442px" height="863px" viewBox="0 0 1442 863" version="1.1" xmlns="http://www.w3.org/2000/svg" xmlns:xlink="http://www.w3.org/1999/xlink">
    <!-- Generator: Sketch 51.2 (57519) - http://www.bohemiancoding.com/sketch -->
    <title>BG</title>
    <desc>Created with Sketch.</desc>
    <defs></defs>
    <g id="Symbols" stroke="none" stroke-width="1" fill="none" fill-rule="evenodd" opacity="0.15">
        <g id="BG" transform="translate(1.000000, -27.000000)" fill="#9DB2D7" fill-rule="nonzero">
            <g transform="translate(-1.000000, 27.000000)" id="Layer_1">
                <g>
                    <g id="Group">
                        <path d="M955.810323,256.699493 C888.194635,248.449385 851.267114,293.971919 825.643497,319.639718 C800.019881,345.307517 785.370651,358.410208 757.017765,350.905548 C728.664878,343.400889 703.671644,341.974502 668.721232,351.937708 C653.678013,355.199045 619.035628,314.321229 598.190025,293.878738 C577.344421,273.436246 482.414545,222.487708 422.492389,285.162724 C362.570233,347.837741 357.899672,482.111653 441.53997,552.821744 C525.180268,623.531836 617.882315,678.257791 770.384739,663.836229 C922.887163,649.414668 1040.40336,575.4074 1065.42525,420.927533 C1080.82664,312.679809 1008.48308,263.121819 955.810323,256.699493 Z" id="Shape"></path>
                        <path d="M1125.75572,51.048887 C1080.47563,108.290731 1101.4645,167.482209 1110.59788,205.234875 C1119.73127,242.987542 1123.53505,263.716744 1100.84845,285.463771 C1078.16184,307.210797 1062.88223,329.266038 1052.52389,366.810839 C1047.08685,382.422251 990.424054,391.252949 960.115549,398.929635 C929.807044,406.606321 830.242424,464.937666 854.060854,554.728372 C877.879285,644.519078 997.917009,723.751653 1109.20818,686.722932 C1220.49934,649.694211 1322.22732,595.455664 1394.18405,447.92137 C1466.14078,300.387076 1464.13502,151.584086 1336.97684,42.4618937 C1246.68171,-32.0471179 1161.02848,6.45099668 1125.75572,51.048887 Z" id="Shape"></path>
                        <path d="M47.4291207,605.397367 C100.832548,647.687234 156.069816,628.09054 191.299603,619.553721 C226.529389,611.016902 245.863507,607.468854 266.157526,628.663962 C286.451545,649.85907 307.032101,664.108605 342.089965,673.820939 C356.660397,678.90289 364.898351,731.836902 372.054625,760.128106 C379.210899,788.419311 433.660189,881.485689 517.472409,859.236919 C601.28463,836.988148 675.182653,724.841154 640.633393,620.872591 C606.084133,516.904028 555.402812,421.845008 417.74303,354.625623 C280.083249,287.406238 141.234337,289.277027 39.413234,408.068547 C-30.0864382,492.42608 5.81671138,572.439942 47.4291207,605.397367 Z" id="Shape"></path>
                    </g>
                </g>
            </g>
        </g>
    </g>
</svg>