<?xml version="1.0" encoding="UTF-8"?>
<svg width="1315px" height="941px" viewBox="0 0 1315 941" version="1.1" xmlns="http://www.w3.org/2000/svg" xmlns:xlink="http://www.w3.org/1999/xlink">
    <!-- Generator: Sketch 51.2 (57519) - http://www.bohemiancoding.com/sketch -->
    <title>Group</title>
    <desc>Created with Sketch.</desc>
    <defs></defs>
    <g id="Symbols" stroke="none" stroke-width="1" fill="none" fill-rule="evenodd" opacity="0.3">
        <g id="Jumbotron-BG" transform="translate(0.000000, -1.000000)" fill="#F6A85A" fill-rule="nonzero">
            <g id="Group">
                <g style="mix-blend-mode: multiply;" transform="translate(606.000000, 509.000000)" id="Shape">
                    <path d="M104.41,146.17 C100.75,131.59 85,120 73.07,112 C63.67,105.69 47.48,99.48 43.81,87.71 C41.43,80.08 44.59,71.04 45.08,63.2 C45.6582345,56.1973987 44.6039266,49.156128 42,42.63 C36.07,28.41 21.84,18.78 7.09,26.51 C-3.17,31.89 0.77,44.96 8.33,50.14 C13.07,53.38 14.12,51.14 16.1,56.78 C18.16,62.67 15.81,70.16 15.38,76.24 C14.38,90.24 18.02,102.79 28.08,112.84 C36.64,121.4 48.08,126.39 58.45,132.28 C70.45,139.06 80.23,150.72 92.74,156.04 C99.54,158.92 106.2,153.32 104.41,146.17 Z"></path>
                    <path d="M114.37,59.94 C103.48,56.14 94.88,52.41 90.14,41.17 C85.77,30.82 88.14,21.79 89.14,11.17 C89.82,4.46 82.66,-2.59 76.14,2.27 C56.72,16.65 60.88,47.9 73.31,65.52 C81.37,76.95 92.12,81.68 104.46,87.13 C117.94,93.13 119.75,102.4 120.81,116.01 C121.81,129.16 141.81,135.07 147.57,121.7 C159.09,95 139.29,68.63 114.37,59.94 Z"></path>
                </g>
                <path d="M1039.87,66.08 C1029.63,55.83 1011.49,58.64 1010.23,74.78 C1009.79,80.47 1012.11,87.5 1016.13,92.91 C1015.49,97.47 1019.05,102.03 1023.39,103.53 C1023.68748,105.228794 1024.26178,106.86724 1025.09,108.38 C1026.64877,111.240285 1029.10996,113.504577 1032.09,114.82 C1040.09,118.2 1047.37,113.63 1049.45,105.65 C1052.92,92.38 1049.75,76 1039.87,66.08 Z" id="Shape" style="mix-blend-mode: multiply;"></path>
                <path d="M1226.51,72.93 C1226.34109,74.4685922 1225.88306,75.9614305 1225.16,77.33 C1223.61342,80.2991638 1221.71656,83.0722716 1219.51,85.59 C1215.59164,90.715118 1211.00799,95.2954048 1205.88,99.21 C1178.1,120.62 1137.61,126.85 1103.46,121.38 C1089.46,119.14 1074.53,111.08 1068.96,98.31 C1063.22,89.9 1060.84,79.31 1063.71,69.11 C1066.07095,61.0153959 1071.34719,54.0825444 1078.52,49.65 C1087.1,44.31 1096.89,44.65 1106.6,45.44 C1115.67,46.16 1123.86,45.27 1131.74,40.33 C1138.88,35.85 1142.52,29.14 1147.13,22.4 C1151.99,15.28 1158.52,9.08 1167.37,7.7 C1176.79,6.22 1185.85,9.96 1193.73,14.79 C1208,23.51 1223.73,36 1227.79,53 C1229.34598,59.623539 1228.90049,66.5599221 1226.51,72.93 Z" id="Shape" style="mix-blend-mode: multiply;"></path>
                <path d="M1195.52,280.25 C1183.72,268.44 1162.83,271.67 1161.38,290.25 C1160.87,296.8 1163.55,304.89 1168.18,311.13 C1167.44,316.38 1171.54,321.63 1176.54,323.36 C1176.89691,325.320055 1177.57252,327.208397 1178.54,328.95 C1180.34705,332.253191 1183.19957,334.863016 1186.65,336.37 C1195.89,340.27 1204.25,335 1206.65,325.81 C1210.56,310.54 1206.9,291.63 1195.52,280.25 Z" id="Shape" style="mix-blend-mode: multiply;"></path>
                <path d="M1311.58,347.62 C1304.75,330.79 1289.14,325.18 1272.8,324.25 C1253.16,310.17 1233.62,299.32 1208.33,300.52 C1183.98,301.68 1160.33,314.14 1147.98,335.57 C1124.83,375.74 1153.28,436.71 1204.78,418.68 C1216.27,414.68 1225.25,406.13 1236.26,401.28 C1248.15,396.04 1259.46,397.28 1272.07,396.73 C1296.67,395.73 1322.54,374.66 1311.58,347.62 Z" id="Shape" style="mix-blend-mode: multiply;"></path>
                <path d="M147.17,586.91 C142.7,579.65 134.82,574.49 131.11,566.79 C129.39,563.22 129.54,559 129.35,555.13 C129.203681,549.846675 128.496377,544.593853 127.24,539.46 C124.749612,530.595357 120.104989,522.484444 113.72,515.85 C100.32,501.53 79.72,496.55 60.99,501.85 C40.37,507.66 26.99,526.11 24.22,546.67 C24.01,547.55 23.83,548.37 23.69,549.1 C20.21,567.58 23.27,587.01 30.6,604.22 C37.6,620.74 48.93,637.65 67.31,642.51 C77.22,645.12 86.95,642.38 96.05,647.95 C104.77,653.29 112.87,658.32 123.57,656.21 C143,652.38 153.72,631.77 154.34,613.48 C154.571941,604.116054 152.081196,594.886054 147.17,586.91 Z" id="Shape" style="mix-blend-mode: multiply;"></path>
                <g style="mix-blend-mode: multiply;" transform="translate(0.000000, 460.000000)" id="Shape">
                    <path d="M70,29.33 C65.67,35 61.55,43.26 53.78,44.45 C44.37,45.9 35.32,41.98 25.89,45.26 C18.14,47.96 12.03,53.78 7.22,60.26 C2.17,67.06 -2.28,73.14 1.86,81.54 C3.38,84.64 7.93,85.59 10.92,84.65 C12.9820106,84.037168 14.6913059,82.5855372 15.63,80.65 C16.0153363,79.8787986 16.2463276,79.0397566 16.31,78.18 C16.76,76.24 16.99,75.63 18.84,73.36 C20.7964334,70.7807859 23.0186513,68.4144423 25.47,66.3 C32.42,60.71 39.8,63.43 47.87,64.3 C65.7,66.14 78.07,55.49 86.87,40.97 C92.88,31 77,20 70,29.33 Z"></path>
                    <path d="M135.5,44 C131.59,33.51 112.92,35.5 114.44,47.34 C113.575934,47.5681719 112.691812,47.7121766 111.8,47.77 C108.66,48.35 105.47,48.65 102.48,49.85 C97.7619984,51.8550904 93.6148882,54.9989229 90.41,59 C88.02,61.86 85.88,66.44 82.78,68.56 C78.78,71.28 72.62,69.28 68.03,69.34 C56.0874188,69.5477181 44.47861,73.3151839 34.69,80.16 C27,85.57 16.56,98 28.82,104.92 C32.98,107.26 38.42,103.68 38.1,98.99 C37.91,96.25 50.58,91.99 52.66,91.35 C57.6067531,89.8228312 62.7768751,89.1465562 67.95,89.35 C74.63,89.67 81.06,91.54 87.69,89.35 C91.9371387,87.8702115 95.7699196,85.3984449 98.87,82.14 C101.64,79.36 103.76,76.05 106.31,73.09 C109.69,69.18 112.38,69.31 117.31,68.48 C128.92,66.59 140.25,56.72 135.5,44 Z"></path>
                    <path d="M144.85,93.88 C144.01,84.05 133.73,82.08 127.74,87.11 L127.33,87.18 C126.289927,87.2184633 125.255584,87.3523589 124.24,87.58 C121.321605,87.9689454 118.517609,88.9672091 116.01,90.51 C112.557371,92.8363025 109.569497,95.7868705 107.2,99.21 C104.72,102.56 102.41,107.05 98.47,108.92 C94.53,110.79 89.28,110.32 85.05,110.26 C74.13,110.1 63.99,110.35 53.94,115.16 C44.94,119.44 33.83,127.52 31.94,137.92 C30.47,145.76 39.1,150.1 44.71,146.52 L44.71,146.62 C49.11,143.53 52.01,138.93 56.44,135.83 C60.5923243,132.879044 65.3944797,130.971902 70.44,130.27 C81.72,128.79 92.99,132.58 104.18,129.27 C114.59,126.18 120.31,117.9 126.53,109.7 C126.72206,109.377919 126.985492,109.104224 127.3,108.9 C127.55,108.9 127.95,108.84 128.52,108.75 C131,108.34 133.52,108.32 135.97,107.43 C141.75,105.26 145.39,100.16 144.85,93.88 Z"></path>
                    <path d="M125.6,2.47 C120.82,-0.39 114.26,-0.11 109.14,1.61 C105.43,2.86 100.14,5.73 98.88,9.9 C95.88,13.98 100.03,18.78 104.53,18.53 C106.95,18.81 109.58,17.95 111.71,17.83 C112.63422,17.7551197 113.564434,17.8396846 114.46,18.08 C116.15,18.41 117.77,19.01 119.46,19.3 C129.73,21.08 134.49,7.78 125.6,2.47 Z"></path>
                </g>
                <path d="M669.52,585.89 C666.66,553 640.25,533.72 611.92,522.11 C594.53,514.98 575.61,507.06 557.61,516.84 C549.98,520.99 544.51,527.29 539.74,534.39 C536.13,539.77 531.33,545.86 532.74,552.51 L526.8,562.01 C521.91,569.83 515.8,577.8 514.34,587.15 C511.77,603.6 522.05,618.73 535.69,626.91 C549.9,635.44 568.69,634.91 581.97,644.68 C587.66,648.87 591.29,654.82 597.62,658.39 C604.828017,662.335424 613.098062,663.903338 621.25,662.87 C656.56,658.49 672.26,617.41 669.52,585.89 Z" id="Shape" style="mix-blend-mode: multiply;"></path>
                <g style="mix-blend-mode: multiply;" transform="translate(308.000000, 748.000000)" id="Shape">
                    <path d="M84.83,168.27 C80.83,163.64 72.95,161.87 67.73,165.81 C67.69678,165.841899 67.6755869,165.884285 67.67,165.93 C67.641115,165.888072 67.6144128,165.844681 67.59,165.8 C66.36,163.8 66.38,160.92 66.46,158.65 C66.76,150.07 69.96,141.74 70.55,133.13 C71.55,118.19 65.06,105.78 54.19,95.93 C45.87,88.39 35.03,82.93 28.24,73.8 C18.37,60.56 27.73,41.61 17.49,28.8 C14.18,24.65 7.41,24.21 4.75,29.47 C0.37,38.17 0.25,49.76 0.3,59.37 C0.35,68.98 2.44,78.89 7.86,87.11 C16.28,99.89 30.65,106.32 40.04,117.98 C45.04,124.19 44.57,130.49 42.86,137.98 C40.44,148.62 37.6,158.98 40.02,169.9 C42.19,179.74 48.23,187.97 57.69,191.78 C66.98,195.52 78.61,194.01 84.69,185.4 C88.51,180 89.45,173.6 84.83,168.27 Z"></path>
                    <path d="M125,145.35 C104.58,127.92 118,102.57 111.29,80.03 C109.531776,73.7976056 106.21002,68.1179192 101.64,63.53 C96.64,58.78 90.79,57.11 84.64,54.45 C74.69,50.12 74.33,38.45 71.33,29.33 C67.48,17.6 52.14,22.33 51.33,33.08 C50.4,45.4 54.33,60.08 63.04,69.08 C67.53,73.74 72.66,75.82 78.38,78.43 C84.95,81.43 86.63,85.96 86.91,93.07 C87.48,107.51 84.4,120.62 87.76,134.98 C90.76,147.89 98.1,160.31 109.94,166.85 C123,174.11 136.51,155.2 125,145.35 Z"></path>
                    <path d="M174.57,122.5 C167.86,114.96 161.94,108.4 162.87,97.42 C164,84.25 167,73.77 161.13,61 C156.01,49.82 147.72,41.33 139.2,32.69 C135.304351,28.9698995 131.802514,24.8581735 128.75,20.42 C125.46,15.34 124.45,9.42 121.2,4.42 C117.13,-1.94 108.28,-0.58 104.67,5.28 C97.34,17.28 106.94,33.33 114.48,42.82 C122.02,52.31 133.39,61.34 137.2,73.22 C139.36,79.95 136.78,86 135.86,92.74 C134.9556,99.2663013 135.233362,105.902109 136.68,112.33 C139.45,124.87 147.58,138.44 159.27,144.4 C173.74,151.79 184.33,133.47 174.57,122.5 Z"></path>
                </g>
                <g style="mix-blend-mode: multiply;" transform="translate(975.000000, 524.000000)" id="Shape">
                    <path d="M20.37,77.62 C24.27,80.68 26,86.98 23.01,91.36 C23.01,91.36 22.95,91.36 22.92,91.42 L23.03,91.47 C24.71,92.39 27.03,92.26 28.86,92.11 C35.79,91.54 42.41,88.63 49.35,87.83 C61.35,86.44 71.68,91.22 80.06,99.64 C86.48,106.08 91.33,114.64 98.96,119.78 C110.04,127.26 125.02,118.97 135.8,126.78 C139.29,129.3 139.91,134.78 135.8,137.11 C128.93,140.99 119.56,141.53 111.8,141.86 C104.04,142.19 95.93,140.86 89.07,136.81 C78.41,130.48 72.66,119.11 62.87,111.95 C57.65,108.14 52.57,108.77 46.55,110.44 C38.04,112.81 29.79,115.5 20.84,113.96 C12.84,112.58 5.91,108.01 2.47,100.5 C-0.97,92.99 -0.13,83.66 6.6,78.41 C10.74,75.1 15.89,74.09 20.37,77.62 Z"></path>
                    <path d="M37.38,44.29 C52.25,60.14 72.25,48.35 90.74,52.88 C95.8513462,54.0570871 100.575255,56.5257769 104.46,60.05 C108.46,63.9 110.06,68.58 112.46,73.45 C116.34,81.33 125.82,81.17 133.29,83.25 C142.92,85.92 139.71,98.5 131.02,99.57 C121.09,100.79 109.02,98.17 101.43,91.48 C97.49,88.02 95.6,83.96 93.28,79.43 C90.6,74.23 86.87,73.05 81.11,73.09 C69.41,73.18 58.92,76.17 47.18,74 C36.62,72 26.29,66.61 20.55,57.28 C14.19,47 29,35.32 37.38,44.29 Z"></path>
                    <path d="M54,3.28 C60.36,8.41 65.89,12.95 74.74,11.79 C85.35,10.38 93.74,7.57 104.23,11.79 C113.47,15.51 120.66,21.88 127.97,28.45 C131.130672,31.4629343 134.592129,34.1436366 138.3,36.45 C142.53,38.92 147.3,39.51 151.56,41.95 C156.85,44.95 156.13,52.2 151.49,55.35 C142.07,61.73 128.71,54.59 120.75,48.85 C112.79,43.11 105.05,34.26 95.28,31.63 C89.76,30.14 84.97,32.47 79.55,33.46 C74.3051499,34.4447194 68.9256747,34.4752076 63.67,33.55 C53.42,31.79 42.13,25.73 36.86,16.55 C30.3,5.07 44.71,-4.2 54,3.28 Z"></path>
                </g>
                <path d="M1055.7,704 C1055.9366,705.851046 1056.51653,707.64169 1057.41,709.28 C1059.3252,712.832047 1061.65844,716.142232 1064.36,719.14 C1069.16087,725.253667 1074.75704,730.698502 1081,735.33 C1114.85,760.65 1163.76,767.44 1204.81,760.25 C1221.64,757.25 1239.49,747.31 1245.98,731.84 C1252.75,721.59 1255.43,708.84 1251.79,696.55 C1248.80849,686.836269 1242.3262,678.575715 1233.6,673.37 C1223.17,667.08 1211.37,667.69 1199.68,668.79 C1188.76,669.79 1178.89,668.89 1169.3,663.07 C1160.62,657.81 1156.11,649.78 1150.44,641.74 C1144.44,633.25 1136.44,625.89 1125.79,624.38 C1114.41,622.77 1103.56,627.38 1094.14,633.38 C1077.14,644.14 1058.37,659.43 1053.78,680.04 C1052.03697,688.040834 1052.70513,696.378831 1055.7,704 Z" id="Shape" style="mix-blend-mode: multiply;"></path>
                <path d="M776.54,767.11 C767.2,786.99 775.05,805.46 787.64,820.72 C791.27,849.72 797.69,875.98 819.52,897.45 C840.52,918.12 871.04,928.88 900.2,922.25 C954.88,909.81 985.65,834.48 927.34,803.57 C914.34,796.67 899.34,795.69 886.04,789.91 C871.62,783.65 863.4,772.62 852.59,761.85 C831.49,740.83 791.55,735.16 776.54,767.11 Z" id="Shape" style="mix-blend-mode: multiply;"></path>
                <path d="M342.73,758.18 C334.73,738.52 316.53,731.98 297.46,730.9 C274.52,714.45 251.71,701.78 222.18,703.18 C193.75,704.53 166.13,719.09 151.71,744.1 C124.71,791.02 157.89,862.21 218.03,841.1 C231.45,836.4 241.94,826.45 254.79,820.79 C268.67,814.67 281.88,816.07 296.6,815.47 C325.33,814.35 355.54,789.76 342.73,758.18 Z" id="Shape" style="mix-blend-mode: multiply;"></path>
                <g style="mix-blend-mode: multiply;" transform="translate(1090.000000, 0.000000)" id="Shape">
                    <path d="M78.62,141.61 C81.95,137.72 88.54,136.19 92.93,139.47 C92.9646679,139.49199 92.9869118,139.529063 92.99,139.57 L93.06,139.45 C94.06,137.76 94.06,135.36 93.96,133.45 C93.67,126.27 90.96,119.31 90.41,112.1 C89.48,99.59 94.86,89.16 103.91,80.86 C110.85,74.49 119.91,69.86 125.54,62.18 C133.73,51.04 125.8,35.18 134.3,24.39 C137.05,20.89 142.73,20.49 144.98,24.88 C148.7,32.14 148.86,41.88 148.87,49.88 C148.88,57.88 147.18,66.24 142.68,73.16 C135.68,83.91 123.68,89.37 115.88,99.16 C111.72,104.39 112.15,109.67 113.63,115.96 C115.71,124.86 118.14,133.5 116.17,142.68 C114.4,150.93 109.39,157.86 101.48,161.1 C93.72,164.28 83.97,163.1 78.82,155.9 C75.61,151.46 74.78,146.1 78.62,141.61 Z"></path>
                    <path d="M44.89,122.62 C61.89,107.92 50.57,86.75 56.03,67.83 C57.4643488,62.6159952 60.2078811,57.8552609 64,54 C68.15,50 73.06,48.57 78.19,46.3 C86.5,42.63 86.74,32.82 89.19,25.19 C92.36,15.35 105.19,19.19 105.97,28.19 C106.81,38.5 103.59,50.82 96.34,58.43 C92.61,62.36 88.34,64.13 83.55,66.35 C78.06,68.89 76.68,72.7 76.48,78.66 C76.07,90.75 78.72,101.72 75.98,113.76 C73.52,124.6 67.45,135.04 57.56,140.58 C46.67,146.7 35.26,130.94 44.89,122.62 Z"></path>
                    <path d="M3.21,103.74 C8.79,97.39 13.71,91.86 12.88,82.67 C11.88,71.67 9.33,62.87 14.15,52.19 C18.38,42.79 25.27,35.63 32.37,28.35 C35.6131833,25.2064354 38.5251115,21.7382585 41.06,18 C43.79,13.73 44.61,8.79 47.3,4.53 C50.68,-0.81 58.1,0.23 61.15,5.17 C67.35,15.17 59.4,28.67 53.15,36.67 C46.9,44.67 37.4,52.28 34.27,62.25 C32.5,67.9 34.7,72.95 35.5,78.6 C36.2846446,84.0584386 36.081411,89.6134903 34.9,95 C32.64,105.52 25.9,116.93 16.14,122 C4.06,128.28 -4.91,113 3.21,103.74 Z"></path>
                </g>
            </g>
        </g>
    </g>
</svg>