<?xml version="1.0" encoding="utf-8"?>
<!-- Generator: Adobe Illustrator 22.1.0, SVG Export Plug-In . SVG Version: 6.00 Build 0)  -->
<svg version="1.1" id="Layer_1" xmlns="http://www.w3.org/2000/svg" xmlns:xlink="http://www.w3.org/1999/xlink" x="0px" y="0px"
	 viewBox="0 0 360 360" style="enable-background:new 0 0 360 360;" xml:space="preserve">
<style type="text/css">
	.st0{clip-path:url(#SVGID_2_);fill:#FAF0EB;stroke:#F0D1C5;stroke-width:0.8;}
	.st1{clip-path:url(#SVGID_4_);}
	.st2{fill:none;stroke:#F0D1C5;stroke-width:0.8;}
	.st3{fill:#FFFFFF;stroke:#F0D1C5;}
	.st4{fill:#FFFFFF;stroke:#F0D1C5;stroke-width:0.8;}
	.st5{clip-path:url(#SVGID_6_);fill:none;stroke:#F0D1C5;stroke-width:0.8;}
	.st6{clip-path:url(#SVGID_8_);fill:none;stroke:#000000;stroke-width:0.4;}
	.st7{clip-path:url(#SVGID_10_);fill:none;stroke:#000000;stroke-width:0.4;}
	.st8{clip-path:url(#SVGID_12_);fill:none;stroke:#000000;stroke-width:0.4;}
	.st9{clip-path:url(#SVGID_14_);}
	.st10{clip-path:url(#SVGID_16_);fill:#E3E3E3;stroke:#E3E3E3;stroke-width:0.8;}
	.st11{clip-path:url(#SVGID_18_);fill:none;stroke:#F0D1C5;stroke-width:0.25;}
	.st12{clip-path:url(#SVGID_20_);fill:none;stroke:#F0D1C5;stroke-width:0.25;}
	.st13{clip-path:url(#SVGID_22_);fill:none;stroke:#F0D1C5;stroke-width:0.25;}
	.st14{clip-path:url(#SVGID_24_);fill:none;stroke:#F0D1C5;stroke-width:0.25;}
	.st15{clip-path:url(#SVGID_26_);fill:none;stroke:#F0D1C5;stroke-width:0.25;}
	.st16{clip-path:url(#SVGID_28_);fill:none;stroke:#F0D1C5;stroke-width:0.25;}
	.st17{clip-path:url(#SVGID_30_);fill:none;stroke:#F0D1C5;stroke-width:0.25;}
	.st18{clip-path:url(#SVGID_32_);fill:none;stroke:#F0D1C5;stroke-width:0.25;}
	.st19{clip-path:url(#SVGID_34_);fill:none;stroke:#F0D1C5;stroke-width:0.25;}
	.st20{clip-path:url(#SVGID_36_);fill:none;stroke:#F0D1C5;stroke-width:0.25;}
	.st21{clip-path:url(#SVGID_38_);fill:none;stroke:#F0D1C5;stroke-width:0.25;}
	.st22{clip-path:url(#SVGID_40_);fill:none;stroke:#F0D1C5;stroke-width:0.25;}
	.st23{clip-path:url(#SVGID_42_);fill:none;stroke:#F0D1C5;stroke-width:0.25;}
	.st24{clip-path:url(#SVGID_44_);fill:none;stroke:#F0D1C5;stroke-width:0.25;}
	.st25{clip-path:url(#SVGID_46_);fill:none;stroke:#F0D1C5;stroke-width:0.25;}
	.st26{clip-path:url(#SVGID_48_);fill:none;stroke:#F0D1C5;stroke-width:0.25;}
	.st27{clip-path:url(#SVGID_50_);fill:none;stroke:#F0D1C5;stroke-width:0.25;}
	.st28{clip-path:url(#SVGID_52_);fill:none;stroke:#F0D1C5;stroke-width:0.25;}
	.st29{clip-path:url(#SVGID_54_);fill:none;stroke:#F0D1C5;stroke-width:0.25;}
	.st30{clip-path:url(#SVGID_56_);fill:none;stroke:#F0D1C5;stroke-width:0.25;}
	.st31{clip-path:url(#SVGID_58_);fill:none;stroke:#F0D1C5;stroke-width:0.25;}
	.st32{clip-path:url(#SVGID_60_);fill:#F0D1C5;stroke:#F0D1C5;stroke-width:0.25;}
	.st33{clip-path:url(#SVGID_62_);fill:none;stroke:#F0D1C5;stroke-width:0.8;}
	.st34{clip-path:url(#SVGID_64_);fill:none;stroke:#F0D1C5;stroke-width:0.8;}
	.st35{clip-path:url(#SVGID_66_);fill:none;stroke:#F0D1C5;stroke-width:0.8;}
	.st36{clip-path:url(#SVGID_68_);fill:none;stroke:#F0D1C5;stroke-width:0.8;}
	.st37{clip-path:url(#SVGID_70_);fill:#666666;}
	.st38{clip-path:url(#SVGID_72_);fill:#666666;}
	.st39{clip-path:url(#SVGID_74_);fill:#666666;}
	.st40{clip-path:url(#SVGID_76_);fill:#666666;}
	.st41{clip-path:url(#SVGID_78_);fill:#666666;}
	.st42{clip-path:url(#SVGID_80_);fill:none;stroke:#0072BC;stroke-linecap:round;stroke-linejoin:round;}
	.st43{clip-path:url(#SVGID_82_);}
	.st44{fill:#F0D1C5;}
	.st45{clip-path:url(#SVGID_84_);}
	.st46{clip-path:url(#SVGID_86_);}
	.st47{clip-path:url(#SVGID_88_);}
	.st48{clip-path:url(#SVGID_90_);}
	.st49{clip-path:url(#SVGID_92_);}
	.st50{clip-path:url(#SVGID_94_);}
	.st51{clip-path:url(#SVGID_96_);}
	.st52{clip-path:url(#SVGID_98_);}
	.st53{clip-path:url(#SVGID_100_);}
	.st54{clip-path:url(#SVGID_102_);}
	.st55{clip-path:url(#SVGID_104_);}
</style>
<g>
	<g>
		<defs>
			<rect id="SVGID_1_" x="0" y="-103.8" width="406.8" height="494.2"/>
		</defs>
		<clipPath id="SVGID_2_">
			<use xlink:href="#SVGID_1_"  style="overflow:visible;"/>
		</clipPath>
		<path class="st0" d="M232,88.1c-2.1-0.2-8.1-1.1-8.2-3c-0.2-3.2,0.6-7.3,0.9-11.1c0.3-3.8,1.3-4.1,2.8-7.3
			c1.6-3.2,1.1-5.4,2.2-5.4c1,0,5.3,0.2,9.7,0.2s5.2-0.6,7.3-0.7c1.8-0.1,4.5-3.2,5.4-5.8c1-2.5,0-5.7-0.3-8.2c-0.3-2.5,0-2.5,0-4.1
			c0-1.6,1.6-3.2,2.2-4.4c0.6-1.3,0.6-1.6,0-3.2c-0.6-1.6-0.3-1.3-0.3-1.3s0.9-0.3,1.6-1.6c0.6-1.3,0.6-2.5,0.6-3.8s-0.3-3.2-1-4.7
			c-0.6-1.6,0.6-0.9,1.6-1.3c0.9-0.3,2.8,0.3,4.1,0c1.3-0.3,3.5-2.2,3.8-4.4c0.3-2.2-0.3-2.5-1.3-5.1c-0.9-2.5-1.6-3.8-3.5-7.6
			c-1.9-3.8-3.7-6.1-4.7-7.9c-0.6-1.1,0.3-1.6,0.3-1.6s0.9-0.9,2.2-2.2c1.3-1.3,1.6-1.6,2.8-4.4c1.3-2.8,0.6-3.5-0.6-6.3
			c-1.3-2.8-0.9-3.2-3.5-7.6c-2.5-4.4-2.2-4.7-5.4-9.5c-0.6-0.9-4.1-5.7-5.7-7.6c-1.6-1.9-20.9-8.9-22.8-9.2
			c-1.9-0.3-25.3-0.9-28.5,0c-3.2,0.9-18.7,7-22.1,10.1c-3.5,3.2-10.4,12.3-10.8,14.9c-0.3,2.5-3.5,13-2.8,15.8
			c0.6,2.8,1.3,11.7,2.2,14.2c0.9,2.5,2.2,8.5,3.8,11.4c1.6,2.8,4.1,6.3,5.4,10.4c1.3,4.1,1.6,6,1.3,11.4
			c-0.3,5.4,2.5,12.4-5.5,23.7l-0.8,0.6c-1.6,1.7-3.3,3.2-4.1,3.9c-3.7,3.3-17.8,14.1-21.5,16.9c-3.7,2.9-12.4,5-17.8,7.9
			c-33.3,17.9-35.5,51.3-35.5,57.9c0,6.6-1.9,18.7-6.6,29.8c-7.7,18.2-12.2,49.4-14.9,59.5c-6.6,25.4-6.1,54-3.9,72.7
			c2.8,22.6,13.8,63.9,12.7,75.8c-0.1,1.5,0.8,11.3,1.9,12.4c1.1,1.1,1.1,7.7,1.1,14.1c0,6.3,3.6,25.6,3,29.2
			c-0.8,5,1.7,9.9,4.1,10.7c2.5,0.8,6.1,6.8,7.7,8c1.7,1.2,6.5,3.3,7.3,1.2c2.5,1.6,6.6,2.8,7.4-0.4c2.3,1.2,3,1.5,4.3,1.7
			c3,0.3,4.3-1,4.3-3c2.1,0.8,1.7,2.1,4.5,2.5c0.5,29.8,11.6,77.2,14.3,85.4c2.8,8.3,5.5,18.2,5.5,23.7c0,5.5,2.2,29.2,2.8,35.3
			c0.8,9.3-10.5,19.3-12.1,35.8c-4.3,42.5,6.9,72.3,10.6,78.9c3.7,6.6,5.8,15.7,7.9,21.1c2.1,5.4,9.1,38,10.2,46.8
			c1.1,8.8-1.2,11.3-1.9,12.9c-7.3,16.5-2.1,19.1,3.3,23.7c4.6,3.9,21.8,17.9,24.2,23.6c5.4,12.7,9.1,10.5,10.5,12.2
			c5.4,6.2,9.9,3.1,10.1,0.8c4.8,3.3,12.8,2.7,11.8-0.4c6.8,1.2,8.7-0.6,8.3-2.9c11,1,12-3.7,11.2-6c7.4,2.1,11.4-1.2,12-4.5
			c0.4-2.3,2.1-4.1-2.5-5.6c-5.7-1.8-18.1-8.3-20.3-12.2c-2.2-3.9-8.3-13.8-19.8-25.9c-11.6-12.1-12.7-39.7-13.8-47.9
			c-1.1-8.3-2.2-22.6-0.5-30.9c4.9-24.3-1-85.4-0.6-99.9c4.1-7,10.3-17.8,9.1-27.7c-1.2-9.9-1.2-17.8,1.7-22.3
			c2.9-4.5,7-20.7,5.4-28.5c-1.7-7.9,1.2-38,0.8-55c8.3,14.1,28.5,73.2,31.4,82.3c2.9,9.1,4.5,21.5,0,28.5
			c-9.5,14.6-13.6,48.4-13.6,58.3c0,24.4,7.9,27.3,7.9,67c0,23.6,7.3,32.4,1.2,64.1c-6.1,31.7,23.1,23.7,29.2,22.9
			c6.1-0.8,12.7-0.8,18.2-0.5c5.5,0.3,13.5-0.3,17.1,1c21.7,7.9,34.5,2.7,36.4,1.7c1.9-1,3.3-3.9,7-2.1c4.6,2.3,17.8-1.2,17.6-7
			c-0.2-5.8-7.2-5.6-10.7-5.4c-0.8-3.5-4.8-3.1-6.6-2.9c-2.9-3.7-8.9-1-10.7,0.1c-17.8-13.6-32.5-18.5-36.4-21
			c-4.4-2.7-9.9-3.9-12.1-23.1c-5.3-46.2,5-70.5,6.6-100.8c0.4-6.6,2.5-21.3,7.9-27.7c4.4-5.2,4.5-13.8,7.4-17.4
			c1.3-1.6,2.5-7.8,2.5-10.3c0-9.5-6.5-11.6-4.5-34.3c5-59.1-4.1-88-11.6-114.9c9.5-3.3,8.7-12.4,14.5-19c5.8-6.6,4.5-42.6,4.1-47.9
			c-0.4-5.4-5-21.5-5.8-28.1c-7.4-64.1-19.2-79.2-24.9-86.7c1.7-8-1.7-18.7-2.8-28.7c4.7-8.5,3-13.5,2.8-17.4
			c-0.3-3.9-3.9-18.7-4.4-21.2c-0.5-2.5-0.9-4.5,1.4-8c10.2-15.4,2.8-34.4-1.7-44.4c11.6-45.5-14.1-47.9-15.7-49.3
			c-1.7-1.4-12.1-6.3-18.5-9.4c-3.2-1.5-6.7-1.9-7.7-3L232,88.1z"/>
	</g>
	<g>
		<defs>
			<rect id="SVGID_3_" x="0" y="-103.8" width="406.8" height="494.2"/>
		</defs>
		<clipPath id="SVGID_4_">
			<use xlink:href="#SVGID_3_"  style="overflow:visible;"/>
		</clipPath>
		<g class="st1">
			<path class="st2" d="M247.3,309.3c-1.5-3.4,1.7-8.1,4-6.3c2.3,1.8,1.2,5.5-0.1,7.3"/>
			<g>
				<path class="st3" d="M244.8,843.3c4.5,1.4,4.1,3.9,2.5,5.6c-1.7,1.7-4.5,6.6-12,4.5c0.8,2.3-0.2,7-11.2,6
					c0.4,2.3-1.4,4.1-8.3,2.9c1,3.1-7,3.7-11.8,0.4c-0.2,2.3-4.7,5.3-10.1-0.8c-1.4-1.7-5.1,0.6-10.5-12.2L244.8,843.3z"/>
				<path class="st2" d="M331,800.8c2.1,1.1,11.4,2.8,17.4,2.8"/>
				<path class="st2" d="M341.7,800.7c-2.7,0-5.6,1.5-7.4,1"/>
				<path class="st2" d="M275.8,240.9c-1.7,5.4-8.7,18.2-9.1,30.6c-0.4,12.4,0.3,43.3,1.4,48.2c1.1,5,1.7,22.6,0.6,28.7
					c-1.1,6.1,3.9,13.8,3.9,30.9c0,17.1,1.7,26.5,3.9,30.3c2.2,3.9,12.1,31.1,14.3,41.7"/>
				<path class="st4" d="M268.7,348.3c2.6,10.7,14.7,22.5,19.3,40.2c-5.4,3.3-7.6,9-7.2,13.1c0.4,4.1-3.9,6.6-4.4,7.9
					c-3.9-10.2-3.6-18.5-3.9-28.1c-0.3-12.1-1.4-18.8-3-23.7C268.4,354.4,268.7,350,268.7,348.3z"/>
				<path class="st2" d="M282.2,423.6c2.8-1.4,5.8-5,7.2-6.9c1.4-1.9,4.1-4.7,6.1-5"/>
				<path class="st2" d="M189.4,174.1c-2.6-0.8-4.4,1.9-3.6,4.5c0.8,2.8,3.4,6.2,5.3,6.7c2.6,0.7,5-2.6,2.9-6.4
					c-2.1-3.8-3.6-4.2-3.6-4.2"/>
				<path class="st2" d="M189.1,178c1.3-1,5.2,0.5,2.1,3.3"/>
				<path class="st2" d="M280.7,176.7c-0.4-2.4-4.8-1.4-5.9,1c-1.1,2.5,0.1,11.5,4.8,7.2"/>
				<path class="st2" d="M277.6,178.8c2.1,0.2,2.6,3.1,0.3,3.1"/>
				<path class="st2" d="M131.4,174.7c1.1,11-7.3,47.9-12.1,56.8"/>
				<path class="st4" d="M119.3,231.5c-2.2,5.5-9.4,27-18.7,35.8c9.9,16.5,5,100.9,3.3,122.9c1,0.7,3.1,3.5,3.6,4.7
					c0.8-38.9,13.5-44.9,15.7-74.2c2.2-29.2,11.6-20.9,7.7-39.7C127,262.4,123.7,249.7,119.3,231.5z"/>
				<path class="st2" d="M115.2,424c1.4,1,1.7,8.9,1.7,15.5c0,4.8,4.3,11,7.6,14.3"/>
				<path class="st2" d="M105.5,444.4c0,3.1,1.2,9.7,8.7,15.5"/>
				<path class="st2" d="M95,445.7c0.4,2.1,4,11,10.7,15.6"/>
				<path class="st2" d="M85.3,449.2c1.7,0.2,5.2,6.3,13,12.5"/>
				<path class="st2" d="M242.6,387.9c1.2,1.7,10.5,14.6,10.5,29.5c0,5.7,2.1,5.8,2.9,7.9c0.8,2.1-0.4,13.7-6.2,17.4
					c-3,1.9-5.6,0.8-7.4-1.5c-1.8-2.3-7.9-7.2-6.5-11.7c1.4-4.6-1.2-22.7-6.5-28.5"/>
				<path class="st2" d="M235.9,429.3c1.3,5.2-15.2,23.8-26.6,6.4"/>
				<path class="st2" d="M209.1,408.5c-1.7,1.7-1.2,7.4-0.6,10.5c1.7,9.5,0.8,45.9-1.7,74"/>
			</g>
		</g>
	</g>
	<g>
		<defs>
			<rect id="SVGID_5_" x="0" y="-103.8" width="406.8" height="494.2"/>
		</defs>
		<clipPath id="SVGID_6_">
			<use xlink:href="#SVGID_5_"  style="overflow:visible;"/>
		</clipPath>
		<path class="st5" d="M107.5,394.9c2.2,3.8,7.1,10.6,9.6,12.3c2.5,1.7,6.6,8.7,7,12.2c0.3,2.5,3.5,9.7,3.1,14.3
			c-0.4,4.5-2.7,15.5-2.7,20c5,3.3,5.4,11.6-5.8,8.7"/>
	</g>
	<g>
		<defs>
			<rect id="SVGID_7_" x="0" y="-103.8" width="406.8" height="494.2"/>
		</defs>
		<clipPath id="SVGID_8_">
			<use xlink:href="#SVGID_7_"  style="overflow:visible;"/>
		</clipPath>
		<path class="st6" d="M230.4,400.3"/>
	</g>
	<g>
		<defs>
			<rect id="SVGID_9_" x="0" y="-103.8" width="406.8" height="494.2"/>
		</defs>
		<clipPath id="SVGID_10_">
			<use xlink:href="#SVGID_9_"  style="overflow:visible;"/>
		</clipPath>
		<path class="st7" d="M185.5,382.9"/>
	</g>
	<g>
		<defs>
			<rect id="SVGID_11_" x="0" y="-103.8" width="406.8" height="494.2"/>
		</defs>
		<clipPath id="SVGID_12_">
			<use xlink:href="#SVGID_11_"  style="overflow:visible;"/>
		</clipPath>
		<path class="st8" d="M175.9,377.2"/>
	</g>
	<g>
		<defs>
			<rect id="SVGID_13_" x="0" y="-103.8" width="406.8" height="494.2"/>
		</defs>
		<clipPath id="SVGID_14_">
			<use xlink:href="#SVGID_13_"  style="overflow:visible;"/>
		</clipPath>
		<path class="st9" d="M204.8,377.4c-1.4-0.1-3-0.3-3.9-1.5c0,0,0-0.1,0-0.1c0,0,0.1,0,0.1,0C201.9,377,203.4,377.3,204.8,377.4
			C204.8,377.4,204.9,377.4,204.8,377.4C204.9,377.4,204.8,377.4,204.8,377.4L204.8,377.4z"/>
	</g>
	<g>
		<defs>
			<rect id="SVGID_15_" x="0" y="-103.8" width="406.8" height="494.2"/>
		</defs>
		<clipPath id="SVGID_16_">
			<use xlink:href="#SVGID_15_"  style="overflow:visible;"/>
		</clipPath>
		<path class="st10" d="M147.2-16.4c-0.3,3.5-0.3,7.3,1.3,10.8c1.6,3.8,3.2,7.9,6,11.1c1,1.3,0.3,3.2,1.3,4.7
			c5.1,7.9,12.7,13.9,14.9,23.1c-0.3-1.6,0.3-4.4,2.5-3.8c1.9-3.5,2.2-7.3,3.8-10.8c0.3-0.9,0.3-2.5-0.3-3.2
			c-6.3-7.3-11.1-16.5-8.2-25.9c1.3-4.4,6.6-4.1,10.4-3.8c0.3,0.3,0.9,0.6,1.3,1.3c1,2.2,1.6,5.1,3.2,6.3c0.6,0.6,2.5,1,3.2,2.2
			c2.2,4.4,2.8,8.9,3.2,13.6c1-0.3,0.3-1.3,1-1.6c0,0.6,0,1.6,0,2.2c0.9-0.3,1.3-2.2,1.9-1.6c0.6,0.3,0.3,1.6,0.3,2.5
			c2.8-3.5,6.3-6,10.1-8.2c0,0.9-0.6,1.9-0.3,2.8c1-4.7,1.3-9.2,2.2-13.9c0.6-4.1,2.2-7.9,3.2-12c0,0.3,0,0.9,0,1.3
			c1.3-4.1,2.5-8.2,3.2-12.7c0.6-3.2,0.9-6.6,0.6-9.8c4.7,0,9.8,0.3,14.6-0.3V-43c4.7-1.3,8.9,0.3,13.6,0.9c1.3,0,1.6,1.9,2.9,1.6
			v-0.6c3.8-0.3,6.6,3.2,8.2,6.3c0-1-0.3-2.5,0.3-2.8c0.3-0.6,1.9-0.3,2.8-0.3c-0.3-2.8-1.9-5.1-3.5-7.6c-3.5-4.4-6.3-8.9-10.1-12.7
			c-1.6-1.3-3.2-2.5-5.1-3.2c-0.9-0.3-1.9,0.3-2.5-0.3c0-0.3-0.3-0.6-0.6-0.9c-0.9-0.3-2.2,0.3-2.8,0c-7.9-5.7-17.1-5.4-25.9-5.1
			c-1.6,0.3-2.8,2.2-2.8,3.8c-4.1-2.2-8.2-0.9-12.3-0.6c-4.4,0.3-8.9,0.3-13.3,1.9c-3.2,1.3-6,2.5-8.5,4.7c-3.8,3.2-6,7-9.2,10.8
			c-1.3,1.6-3.2,2.2-4.1,3.8c-1,1-1.6,2.2-2.5,3.2c-0.9,1.3-1.3,2.8-1.3,4.1c-1.3,9.5-2.5,18.7-2.2,28.2"/>
	</g>
	<g>
		<defs>
			<rect id="SVGID_17_" x="0" y="-103.8" width="406.8" height="494.2"/>
		</defs>
		<clipPath id="SVGID_18_">
			<use xlink:href="#SVGID_17_"  style="overflow:visible;"/>
		</clipPath>
		<path class="st11" d="M224.6-8.1c0.9-0.5,1.8-1.2,2.7-1.8c0,0,0,0,0-0.1c0,0,0,0-0.1,0C226.3-9.4,225.4-8.8,224.6-8.1
			C224.5-8.2,224.5-8.2,224.6-8.1C224.5-8.2,224.5-8.2,224.6-8.1C224.5-8.1,224.6-8.1,224.6-8.1L224.6-8.1z"/>
	</g>
	<g>
		<defs>
			<rect id="SVGID_19_" x="0" y="-103.8" width="406.8" height="494.2"/>
		</defs>
		<clipPath id="SVGID_20_">
			<use xlink:href="#SVGID_19_"  style="overflow:visible;"/>
		</clipPath>
		<path class="st12" d="M226.8-8.3c1.5-0.8,2.8-1.8,4.3-2.6c0,0,0,0,0-0.1c0,0,0,0-0.1,0C229.5-10.3,228.2-9.2,226.8-8.3
			C226.7-8.4,226.7-8.4,226.8-8.3C226.8-8.3,226.8-8.3,226.8-8.3L226.8-8.3z"/>
	</g>
	<g>
		<defs>
			<rect id="SVGID_21_" x="0" y="-103.8" width="406.8" height="494.2"/>
		</defs>
		<clipPath id="SVGID_22_">
			<use xlink:href="#SVGID_21_"  style="overflow:visible;"/>
		</clipPath>
		<path class="st13" d="M229.1-9.1c1.5-0.8,3-1.7,4.6-2.3c0,0,0,0,0-0.1c0,0,0,0-0.1,0C232-10.9,230.6-9.9,229.1-9.1
			C229-9.1,229.1-9.1,229.1-9.1C229.1-9.1,229.1-9.1,229.1-9.1C229.1-9.1,229.1-9.1,229.1-9.1L229.1-9.1z"/>
	</g>
	<g>
		<defs>
			<rect id="SVGID_23_" x="0" y="-103.8" width="406.8" height="494.2"/>
		</defs>
		<clipPath id="SVGID_24_">
			<use xlink:href="#SVGID_23_"  style="overflow:visible;"/>
		</clipPath>
		<path class="st14" d="M230.2-9.3c1.9-0.9,3.9-1.5,5.8-2.4c0,0,0,0,0,0c0,0,0,0-0.1,0C234.1-10.9,232.1-10.3,230.2-9.3
			C230.2-9.4,230.2-9.4,230.2-9.3C230.2-9.3,230.2-9.3,230.2-9.3L230.2-9.3z"/>
	</g>
	<g>
		<defs>
			<rect id="SVGID_25_" x="0" y="-103.8" width="406.8" height="494.2"/>
		</defs>
		<clipPath id="SVGID_26_">
			<use xlink:href="#SVGID_25_"  style="overflow:visible;"/>
		</clipPath>
		<path class="st15" d="M232.9-9.7c2.1-0.9,4.2-1.7,6.4-2.2c0,0,0,0,0-0.1c0,0,0,0-0.1,0C237.1-11.5,235-10.7,232.9-9.7
			C232.9-9.7,232.9-9.7,232.9-9.7C232.9-9.7,232.9-9.7,232.9-9.7L232.9-9.7z"/>
	</g>
	<g>
		<defs>
			<rect id="SVGID_27_" x="0" y="-103.8" width="406.8" height="494.2"/>
		</defs>
		<clipPath id="SVGID_28_">
			<use xlink:href="#SVGID_27_"  style="overflow:visible;"/>
		</clipPath>
		<path class="st16" d="M235.9-10.3c2-0.7,4-1.2,6-1.5c0,0,0.1,0,0,0c0,0,0,0,0,0C239.9-11.6,237.9-11.1,235.9-10.3
			C235.9-10.4,235.9-10.3,235.9-10.3C235.9-10.3,235.9-10.3,235.9-10.3L235.9-10.3z"/>
	</g>
	<g>
		<defs>
			<rect id="SVGID_29_" x="0" y="-103.8" width="406.8" height="494.2"/>
		</defs>
		<clipPath id="SVGID_30_">
			<use xlink:href="#SVGID_29_"  style="overflow:visible;"/>
		</clipPath>
		<path class="st17" d="M238.9-10.2c1.9-0.6,3.8-1,5.7-1.4c0,0,0,0,0-0.1c0,0,0,0,0,0C242.7-11.4,240.7-10.9,238.9-10.2
			C238.8-10.3,238.8-10.3,238.9-10.2C238.8-10.2,238.9-10.2,238.9-10.2L238.9-10.2z"/>
	</g>
	<g>
		<defs>
			<rect id="SVGID_31_" x="0" y="-103.8" width="406.8" height="494.2"/>
		</defs>
		<clipPath id="SVGID_32_">
			<use xlink:href="#SVGID_31_"  style="overflow:visible;"/>
		</clipPath>
		<path class="st18" d="M241.5-10.1c1.3-0.3,2.6-0.5,3.9-0.7c0,0,0,0,0,0c0,0,0,0-0.1,0C244.1-10.7,242.8-10.5,241.5-10.1
			C241.5-10.1,241.5-10.1,241.5-10.1C241.5-10.1,241.5-10.1,241.5-10.1L241.5-10.1z"/>
	</g>
	<g>
		<defs>
			<rect id="SVGID_33_" x="0" y="-103.8" width="406.8" height="494.2"/>
		</defs>
		<clipPath id="SVGID_34_">
			<use xlink:href="#SVGID_33_"  style="overflow:visible;"/>
		</clipPath>
		<path class="st19" d="M244.3-9.6c1.3-0.3,2.6-0.4,3.9-0.8c0,0,0,0,0-0.1c0,0,0,0,0,0C246.9-10.1,245.6-10,244.3-9.6
			C244.3-9.7,244.3-9.7,244.3-9.6C244.3-9.6,244.3-9.6,244.3-9.6L244.3-9.6z"/>
	</g>
	<g>
		<defs>
			<rect id="SVGID_35_" x="0" y="-103.8" width="406.8" height="494.2"/>
		</defs>
		<clipPath id="SVGID_36_">
			<use xlink:href="#SVGID_35_"  style="overflow:visible;"/>
		</clipPath>
		<path class="st20" d="M246.3-9.2c0.5-0.1,1-0.2,1.5-0.3c0,0,0,0,0-0.1c0,0,0,0-0.1,0C247.3-9.5,246.9-9.3,246.3-9.2
			C246.3-9.3,246.3-9.2,246.3-9.2C246.3-9.2,246.3-9.2,246.3-9.2L246.3-9.2z"/>
	</g>
	<g>
		<defs>
			<rect id="SVGID_37_" x="0" y="-103.8" width="406.8" height="494.2"/>
		</defs>
		<clipPath id="SVGID_38_">
			<use xlink:href="#SVGID_37_"  style="overflow:visible;"/>
		</clipPath>
		<path class="st21" d="M226.5-1.9c1.3-0.2,2.6-0.5,3.9-0.8c2.9-0.8,5.8-1.5,8.5-2.9c0,0,0.1-0.1,0-0.1c0,0-0.1-0.1-0.1,0
			c-2.6,1.4-5.5,2.2-8.4,2.9C229.1-2.5,227.8-2.2,226.5-1.9C226.4-1.9,226.4-1.9,226.5-1.9C226.4-1.9,226.4-1.9,226.5-1.9L226.5-1.9
			z"/>
	</g>
	<g>
		<defs>
			<rect id="SVGID_39_" x="0" y="-103.8" width="406.8" height="494.2"/>
		</defs>
		<clipPath id="SVGID_40_">
			<use xlink:href="#SVGID_39_"  style="overflow:visible;"/>
		</clipPath>
		<path class="st22" d="M226.1-1.7c0.2,0.1,0.4,0.2,0.7,0.3c4.2,0.4,8.4,0,12.5,0.7c0,0,0-0.1,0-0.1c0,0,0.1,0,0.1-0.1
			c0,0-0.1-0.1-0.1,0c-2.9-0.4-5.8-0.3-8.7-0.4C229.1-1.5,227.6-1.3,226.1-1.7C226.1-1.8,226.1-1.8,226.1-1.7
			C226.1-1.7,226.1-1.7,226.1-1.7L226.1-1.7z"/>
	</g>
	<g>
		<defs>
			<rect id="SVGID_41_" x="0" y="-103.8" width="406.8" height="494.2"/>
		</defs>
		<clipPath id="SVGID_42_">
			<use xlink:href="#SVGID_41_"  style="overflow:visible;"/>
		</clipPath>
		<path class="st23" d="M227.6,0.7c3.4,0.9,7.1,1.7,10.5,0.3c0.4-0.2,0.7-0.4,0.9-0.8c0,0,0-0.1,0-0.1c0,0-0.1,0-0.1,0
			c-0.2,0.4-0.5,0.6-0.9,0.7C234.7,2.3,231,1.5,227.6,0.7C227.6,0.6,227.6,0.6,227.6,0.7C227.6,0.7,227.6,0.7,227.6,0.7L227.6,0.7z"
			/>
	</g>
	<g>
		<defs>
			<rect id="SVGID_43_" x="0" y="-103.8" width="406.8" height="494.2"/>
		</defs>
		<clipPath id="SVGID_44_">
			<use xlink:href="#SVGID_43_"  style="overflow:visible;"/>
		</clipPath>
		<path class="st24" d="M224.7-2.7c4.5-0.6,8.4-2.9,12.8-4c0.5-0.1,1.2,0.3,1.8,0.3c0.3,0-0.2,0-0.2,0c0,0,0-0.1,0-0.1
			c-0.4-0.5-1-0.5-1.6-0.3C233-5.7,229.2-3.4,224.7-2.7C224.7-2.7,224.7-2.7,224.7-2.7C224.7-2.7,224.7-2.6,224.7-2.7L224.7-2.7z"/>
	</g>
	<g>
		<defs>
			<rect id="SVGID_45_" x="0" y="-103.8" width="406.8" height="494.2"/>
		</defs>
		<clipPath id="SVGID_46_">
			<use xlink:href="#SVGID_45_"  style="overflow:visible;"/>
		</clipPath>
		<path class="st25" d="M254.7-2.9c-1-3.7,2.3-6.9,5.6-8.1c0,0,0.1,0,0-0.1c0,0,0-0.1-0.1-0.1C256.9-10,253.5-6.7,254.7-2.9
			C254.6-2.9,254.6-2.9,254.7-2.9C254.7-2.9,254.7-2.9,254.7-2.9L254.7-2.9z"/>
	</g>
	<g>
		<defs>
			<rect id="SVGID_47_" x="0" y="-103.8" width="406.8" height="494.2"/>
		</defs>
		<clipPath id="SVGID_48_">
			<use xlink:href="#SVGID_47_"  style="overflow:visible;"/>
		</clipPath>
		<path class="st26" d="M259.2-9.3c0.5-0.7,1.2-1.3,1.7-2c0,0,0-0.1,0-0.1c0,0-0.1,0-0.1,0C260.3-10.6,259.6-10.1,259.2-9.3
			C259.2-9.3,259.2-9.3,259.2-9.3C259.2-9.3,259.2-9.3,259.2-9.3L259.2-9.3z"/>
	</g>
	<g>
		<defs>
			<rect id="SVGID_49_" x="0" y="-103.8" width="406.8" height="494.2"/>
		</defs>
		<clipPath id="SVGID_50_">
			<use xlink:href="#SVGID_49_"  style="overflow:visible;"/>
		</clipPath>
		<path class="st27" d="M258.4-9.5c0.6-0.6,1.2-1.1,1.6-1.8c0,0,0,0,0-0.1c0,0,0,0-0.1,0C259.6-10.6,259-10.1,258.4-9.5
			C258.4-9.5,258.4-9.5,258.4-9.5C258.4-9.4,258.4-9.4,258.4-9.5L258.4-9.5z"/>
	</g>
	<g>
		<defs>
			<rect id="SVGID_51_" x="0" y="-103.8" width="406.8" height="494.2"/>
		</defs>
		<clipPath id="SVGID_52_">
			<use xlink:href="#SVGID_51_"  style="overflow:visible;"/>
		</clipPath>
		<path class="st28" d="M257.8-9.5c0.3-0.3,0.7-0.5,1-0.9c0,0,0,0,0-0.1c0,0,0,0,0,0C258.4-10.1,258.1-9.8,257.8-9.5
			C257.7-9.5,257.7-9.5,257.8-9.5C257.8-9.4,257.8-9.4,257.8-9.5L257.8-9.5z"/>
	</g>
	<g>
		<defs>
			<rect id="SVGID_53_" x="0" y="-103.8" width="406.8" height="494.2"/>
		</defs>
		<clipPath id="SVGID_54_">
			<use xlink:href="#SVGID_53_"  style="overflow:visible;"/>
		</clipPath>
		<path class="st29" d="M234.6,33.2c5.8,1.5,11.8,1.3,17.7,1.1c0.6,0,1.1-0.2,1.7-0.4c0,0,0.1,0,0.1-0.1c0,0-0.1-0.1-0.1-0.1
			c-0.6,0.1-1.3,0.3-2,0.3C246.2,34.2,240.3,34.5,234.6,33.2C234.6,33.1,234.6,33.1,234.6,33.2C234.6,33.2,234.6,33.2,234.6,33.2
			L234.6,33.2z"/>
	</g>
	<g>
		<defs>
			<rect id="SVGID_55_" x="0" y="-103.8" width="406.8" height="494.2"/>
		</defs>
		<clipPath id="SVGID_56_">
			<use xlink:href="#SVGID_55_"  style="overflow:visible;"/>
		</clipPath>
		<path class="st30" d="M234.8,33.3c5.4,1.1,10.7-1.1,15.5-3.5c0.3-0.1,0.6-0.1,0.9,0c1,0.7,1.8,1.8,3.2,1.6c0.7-0.1,1-0.7,1.5-1.1
			c0,0,0-0.1,0-0.1c0,0-0.1,0-0.1,0c-1,1.4-3,1.2-4-0.3c-0.4-0.5-1-0.6-1.6-0.3C245.4,32,240.2,34.1,234.8,33.3
			C234.8,33.2,234.8,33.2,234.8,33.3C234.8,33.2,234.8,33.3,234.8,33.3L234.8,33.3z"/>
	</g>
	<g>
		<defs>
			<rect id="SVGID_57_" x="0" y="-103.8" width="406.8" height="494.2"/>
		</defs>
		<clipPath id="SVGID_58_">
			<use xlink:href="#SVGID_57_"  style="overflow:visible;"/>
		</clipPath>
		<path class="st31" d="M239.1,35.5c4.6,1.4,9.5,2.9,14.3,2.1c0,0,0.1,0,0.1-0.1c0,0,0-0.1-0.1-0.1
			C248.5,38.3,243.7,36.9,239.1,35.5C239.1,35.5,239.1,35.5,239.1,35.5C239,35.5,239.1,35.5,239.1,35.5L239.1,35.5z"/>
	</g>
	<g>
		<defs>
			<rect id="SVGID_59_" x="0" y="-103.8" width="406.8" height="494.2"/>
		</defs>
		<clipPath id="SVGID_60_">
			<use xlink:href="#SVGID_59_"  style="overflow:visible;"/>
		</clipPath>
		<path class="st32" d="M234.1-3.9c-0.5,1.1-0.8,1.9-0.3,2.4c0.5,0.5,4.9,1.6,5.5,0.5c0.6-1.1-0.2-4.4-0.2-4.4L234.1-3.9z"/>
	</g>
	<g>
		<defs>
			<rect id="SVGID_61_" x="0" y="-103.8" width="406.8" height="494.2"/>
		</defs>
		<clipPath id="SVGID_62_">
			<use xlink:href="#SVGID_61_"  style="overflow:visible;"/>
		</clipPath>
		<path class="st33" d="M224.6,842.7c0,1.2,2.5,3.7,2.9,3.7c2.5,1.2,3.3,2.1,5.8,3.3c0.8,0.4,2.5,2.1,2.5,3.3"/>
	</g>
	<g>
		<defs>
			<rect id="SVGID_63_" x="0" y="-103.8" width="406.8" height="494.2"/>
		</defs>
		<clipPath id="SVGID_64_">
			<use xlink:href="#SVGID_63_"  style="overflow:visible;"/>
		</clipPath>
		<path class="st34" d="M215.9,848.9c0,0.1,4.7,5.9,2.9,4.1c2.9,1.7,6.6,2.9,6.2,6.6"/>
	</g>
	<g>
		<defs>
			<rect id="SVGID_65_" x="0" y="-103.8" width="406.8" height="494.2"/>
		</defs>
		<clipPath id="SVGID_66_">
			<use xlink:href="#SVGID_65_"  style="overflow:visible;"/>
		</clipPath>
		<path class="st35" d="M207.6,852.2c1.2,2.1,5.4,6.6,6.2,7.9c0.5,0.7,2.5,1.2,2.5,2.5"/>
	</g>
	<g>
		<defs>
			<rect id="SVGID_67_" x="0" y="-103.8" width="406.8" height="494.2"/>
		</defs>
		<clipPath id="SVGID_68_">
			<use xlink:href="#SVGID_67_"  style="overflow:visible;"/>
		</clipPath>
		<path class="st36" d="M198.9,857.5c2.9-0.8,5.4,2.1,5.4,4.5"/>
	</g>
	<g>
		<defs>
			<rect id="SVGID_69_" x="0" y="-103.8" width="406.8" height="494.2"/>
		</defs>
		<clipPath id="SVGID_70_">
			<use xlink:href="#SVGID_69_"  style="overflow:visible;"/>
		</clipPath>
		<path class="st37" d="M239.4,844.2c-0.8,0.4-1.4,1-1.9,1.7l-0.2,0.4c0,0,0,0.1,0,0.1l0.2,0.3l0,0l0.1,0.2c0,0,0.1,0,0.1,0l0.3,0.1
			c1.7,0.1,3.8,1.7,5.2-0.2c0,0,0.1-0.1,0-0.2c0,0-0.1-0.1-0.2,0c-0.9,1.2-2.6,0.9-3.7,0.2l-1.5-0.2l0.1,0.1l-0.1-0.2l0,0l-0.2-0.3
			l0,0.1l0.7-1.1c0.3-0.4,0.6-0.9,1.2-1c0,0,0-0.1,0-0.1C239.6,844.2,239.5,844.2,239.4,844.2L239.4,844.2z"/>
	</g>
	<g>
		<defs>
			<rect id="SVGID_71_" x="0" y="-103.8" width="406.8" height="494.2"/>
		</defs>
		<clipPath id="SVGID_72_">
			<use xlink:href="#SVGID_71_"  style="overflow:visible;"/>
		</clipPath>
		<path class="st38" d="M229.8,854.2c-0.4-0.2-0.8-0.3-1.1-0.5l-0.3-0.1l0,0l-0.6-0.5l0.1,0.1l-0.1-0.5l0,0.1l0.3-0.4
			c1.4-0.7,3.4-1.6,5-0.9c0.1,0,0.1,0,0.2-0.1c0-0.1,0-0.2-0.1-0.2c-1.4-1.1-2.7,0.5-4.2,0.2l-1.4,1.2c0,0,0,0.1,0,0.1l0,0.2l0,0
			l0,0.2c0,0,0,0.1,0.1,0.1l0.3,0.2l0,0l0.3,0.2l0,0l1,0.2c0.2,0.1,0.3,0.2,0.5,0.2c0,0,0.1,0,0.1,0
			C229.9,854.2,229.9,854.2,229.8,854.2L229.8,854.2z"/>
	</g>
	<g>
		<defs>
			<rect id="SVGID_73_" x="0" y="-103.8" width="406.8" height="494.2"/>
		</defs>
		<clipPath id="SVGID_74_">
			<use xlink:href="#SVGID_73_"  style="overflow:visible;"/>
		</clipPath>
		<path class="st39" d="M222.2,857c0,0,0,0-0.6-0.9c0,0,0-0.1,0-0.1c-0.1,0-0.1,0-0.3-0.1c0,0-0.3,0-0.7-0.1c-0.3,0-0.3,0-0.6,0
			c0,0,0,0-0.1,0c0,0,0,0-0.3,0.2c0,0-0.3,0.2-0.6,0.5c-0.3,0.2-0.3,0.2-0.9,1.1c0,0-0.1,0-0.1,0.1c0.1,0.1,0.1,0.1,0.4,0.5
			c0,0,0.5,0.2,1,0.6c0.6,0,0.7,0,0.7,0c0-0.1,0.1-0.1,0-0.2c-0.1,0-0.1,0-0.1,0c-1.7-0.9-1.7-0.9-1.7-0.9c0,0.2,0,0.2,0,0.2
			c0.9-1.1,0.9-1.1,0.9-1.1l0.8-0.7l-0.1,0l1.3,0.1h0l0.2,0l0,0L222.2,857c-0.1,0-0.1,0.1-0.1,0.1c0,0.1,0.1,0.1,0.1,0
			C222.2,857,222.2,857,222.2,857L222.2,857z"/>
	</g>
	<g>
		<defs>
			<rect id="SVGID_75_" x="0" y="-103.8" width="406.8" height="494.2"/>
		</defs>
		<clipPath id="SVGID_76_">
			<use xlink:href="#SVGID_75_"  style="overflow:visible;"/>
		</clipPath>
		<path class="st40" d="M211.6,860c0,0,0,0-1.1-0.1c0,0-0.1,0-0.1,0c0,0,0,0-0.2,0.1c0,0-0.3,0.3-0.5,0.6c-0.3,0.3-0.3,0.3-0.4,0.7
			c0,0,0,0,0,0.1c0,0,0,0,0.2,0.3l0,0c0,0,0,0,0.1,0.2c0,0,0,0,0,0.1c0,0,0,0,0.3,0.1c0,0,0.4-0.1,0.8-0.2c0.4-0.1,0.5-0.1,0.5-0.1
			c0-0.1,0-0.2-0.1-0.2c-0.1,0-0.1,0-0.1,0c-1.4,0.1-1.4,0.1-1.4,0.1c0.1,0.1,0.1,0.1,0.1,0.1c-0.1-0.2-0.1-0.2-0.1-0.2l0,0
			c-0.2-0.3-0.2-0.3-0.2-0.3c0,0.1,0,0.1,0,0.1c0.8-1.1,0.8-1.1,0.8-1.1c-0.1,0.1-0.1,0.1-0.1,0.1c0.2-0.1,0.2-0.1,0.2-0.1l0,0
			c1,0,1,0,1,0c0,0,0.1,0,0.1,0C211.7,860.1,211.7,860.1,211.6,860C211.7,860,211.6,860,211.6,860z"/>
	</g>
	<g>
		<defs>
			<rect id="SVGID_77_" x="0" y="-103.8" width="406.8" height="494.2"/>
		</defs>
		<clipPath id="SVGID_78_">
			<use xlink:href="#SVGID_77_"  style="overflow:visible;"/>
		</clipPath>
		<path class="st41" d="M201.5,860.2c-0.4,0-0.9,0-1.3,0l-1.3,0c0,0-0.1,0-0.1,0l-0.2,0.2l0.1,0l-0.3,0.1c0,0-0.1,0-0.1,0.1
			l-0.2,0.3l0,0l-0.1,0.2c-0.1,0.1,0,0.1,0,0.2l0.1,0.1l0,0l0.1,0.1c0.4,0.2,0.9,0.3,1.4,0.5c0.1,0,0.2,0,0.2-0.1
			c0-0.1,0-0.1-0.1-0.2c0,0,0,0-1.4-0.5l0,0c0,0,0,0-0.1-0.1c0,0,0,0,0,0.2c0,0,0,0,0.1-0.2l0,0c0,0,0,0,0.2-0.3c0,0,0,0-0.1,0
			c0,0,0,0,0.3-0.1h0c0,0,0,0,0.2-0.2c0,0,0,0-0.1,0c0,0,0,0,1.3,0c0,0,0.4-0.2,0.9,0c0.4,0,0.4,0,0.5-0.1
			C201.6,860.3,201.6,860.3,201.5,860.2C201.5,860.2,201.5,860.2,201.5,860.2z"/>
	</g>
	<g>
		<defs>
			<rect id="SVGID_79_" x="0" y="-103.8" width="406.8" height="494.2"/>
		</defs>
		<clipPath id="SVGID_80_">
			<use xlink:href="#SVGID_79_"  style="overflow:visible;"/>
		</clipPath>
		<path class="st42" d="M120.5,229.7c3.8,14,21.1,25.6,32.8,32.8c22.6,14,25.8,27.4,30.1,44.6"/>
	</g>
	<g>
		<defs>
			<rect id="SVGID_81_" x="0" y="-103.8" width="406.8" height="494.2"/>
		</defs>
		<clipPath id="SVGID_82_">
			<use xlink:href="#SVGID_81_"  style="overflow:visible;"/>
		</clipPath>
		<g class="st43">
			<g>
				<path class="st44" d="M145.2,353.3c22.3,10.1,41.2,26.9,50.1,50c0.2,0.6,1.1,0.4,0.9-0.2c-3.1-11.7-11.2-22.1-19.9-30.3
					c-9-8.4-19.7-15-31-19.6C145.2,353.2,145.1,353.3,145.2,353.3L145.2,353.3z"/>
			</g>
		</g>
	</g>
	<g>
		<defs>
			<rect id="SVGID_83_" x="0" y="-103.8" width="406.8" height="494.2"/>
		</defs>
		<clipPath id="SVGID_84_">
			<use xlink:href="#SVGID_83_"  style="overflow:visible;"/>
		</clipPath>
		<g class="st45">
			<g>
				<path class="st44" d="M264.3,362.4c-1,5.7-3.1,11.2-6.5,15.9c-4,5.7-9.3,8.4-15.1,11.7c-0.4,0.3-0.2,0.9,0.3,0.8
					c5.6-1.2,11-5.9,14.5-10.3c4.2-5.3,6.7-11.3,7-18.1C264.6,362.3,264.4,362.2,264.3,362.4L264.3,362.4z"/>
			</g>
		</g>
	</g>
	<g>
		<defs>
			<rect id="SVGID_85_" x="0" y="-103.8" width="406.8" height="494.2"/>
		</defs>
		<clipPath id="SVGID_86_">
			<use xlink:href="#SVGID_85_"  style="overflow:visible;"/>
		</clipPath>
		<g class="st46">
			<g>
				<path class="st44" d="M122.2,188.6c5.2-2.4,5.8-8.6,9.7-12.2c1.5-1.4,3.7-0.6,5.5-0.4c2.1,0.3,3.9,0.1,5.8-0.7
					c0.4-0.2,0.1-0.8-0.3-0.7c-2.5,0.5-4.6,0.5-7,0.1c-1.3-0.2-2.5-0.3-3.7,0.3c-1.7,0.7-2.7,2.7-3.6,4.1c-1.9,3.3-3.2,7.2-6.7,9.2
					C121.7,188.3,121.9,188.7,122.2,188.6L122.2,188.6z"/>
			</g>
		</g>
	</g>
	<g>
		<defs>
			<rect id="SVGID_87_" x="0" y="-103.8" width="406.8" height="494.2"/>
		</defs>
		<clipPath id="SVGID_88_">
			<use xlink:href="#SVGID_87_"  style="overflow:visible;"/>
		</clipPath>
		<g class="st47">
			<g>
				<path class="st44" d="M89.4,278.1c5.7-1.6,10.4-6.9,12.7-12.3c0.2-0.4-0.4-0.6-0.7-0.3c-3.4,4.7-6.3,10.2-12.1,12.5
					C89.2,278,89.3,278.2,89.4,278.1L89.4,278.1z"/>
			</g>
		</g>
	</g>
	<g>
		<defs>
			<rect id="SVGID_89_" x="0" y="-103.8" width="406.8" height="494.2"/>
		</defs>
		<clipPath id="SVGID_90_">
			<use xlink:href="#SVGID_89_"  style="overflow:visible;"/>
		</clipPath>
		<g class="st48">
			<g>
				<path class="st44" d="M275,285.8c2.7-5.9,5.2-13.1,4.3-19.6c0-0.4-0.7-0.4-0.7,0c-1.1,6.7-1.7,13-4.3,19.3
					C274.1,285.9,274.8,286.2,275,285.8L275,285.8z"/>
			</g>
		</g>
	</g>
	<g>
		<defs>
			<rect id="SVGID_91_" x="0" y="-103.8" width="406.8" height="494.2"/>
		</defs>
		<clipPath id="SVGID_92_">
			<use xlink:href="#SVGID_91_"  style="overflow:visible;"/>
		</clipPath>
		<g class="st49">
			<g>
				<path class="st44" d="M289,371.6c1.4,2.9,2.3,5.5,2.3,8.7c-0.1,3.5-2.3,6.4-4.2,9.2c-0.3,0.5,0.4,1.1,0.8,0.6
					c4.9-5.5,6.1-12.8,1.4-18.8C289.2,371.2,288.9,371.4,289,371.6L289,371.6z"/>
			</g>
		</g>
	</g>
	<g>
		<defs>
			<rect id="SVGID_93_" x="0" y="-103.8" width="406.8" height="494.2"/>
		</defs>
		<clipPath id="SVGID_94_">
			<use xlink:href="#SVGID_93_"  style="overflow:visible;"/>
		</clipPath>
		<g class="st50">
			<g>
				<path class="st44" d="M230.7,96.4c-3.8-4-5.4-8.6-6.3-13.9c-0.1-0.3-0.5-0.2-0.6,0.1c-0.7,5.5,2.5,10.8,6.6,14.1
					C230.6,96.7,230.8,96.5,230.7,96.4L230.7,96.4z"/>
			</g>
		</g>
	</g>
	<g>
		<defs>
			<rect id="SVGID_95_" x="0" y="-103.8" width="406.8" height="494.2"/>
		</defs>
		<clipPath id="SVGID_96_">
			<use xlink:href="#SVGID_95_"  style="overflow:visible;"/>
		</clipPath>
		<g class="st51">
			<g>
				<path class="st44" d="M177.2,12.3c-1.7-3.2-3.4-6.3-4.5-9.7c-1.4-4.4-0.4-13.8,6.6-10.4c0.5,0.2,1-0.4,0.6-0.7
					c-3.5-3.2-7,0-8.3,3.6c-2,5.5,2.1,13.3,5.4,17.4C177.1,12.6,177.3,12.4,177.2,12.3L177.2,12.3z"/>
			</g>
		</g>
	</g>
	<g>
		<defs>
			<rect id="SVGID_97_" x="0" y="-103.8" width="406.8" height="494.2"/>
		</defs>
		<clipPath id="SVGID_98_">
			<use xlink:href="#SVGID_97_"  style="overflow:visible;"/>
		</clipPath>
		<g class="st52">
			<g>
				<path class="st44" d="M186.7,17.7c-3.3,3.9-6.5-0.1-9.2-2.4c-0.5-0.4-1.4,0.1-1,0.7C178.6,19.5,184.7,22.7,186.7,17.7
					C186.8,17.7,186.7,17.6,186.7,17.7L186.7,17.7z"/>
			</g>
		</g>
	</g>
	<g>
		<defs>
			<rect id="SVGID_99_" x="0" y="-103.8" width="406.8" height="494.2"/>
		</defs>
		<clipPath id="SVGID_100_">
			<use xlink:href="#SVGID_99_"  style="overflow:visible;"/>
		</clipPath>
		<g class="st53">
			<g>
				<path class="st44" d="M185.6,7.7c-0.2,0.4-0.5,0.8-0.7,1.2c-0.7,1.4-3.2,1.9-3.6-0.1c-0.2-1.1,0-2.2-0.3-3.2
					c-0.3-0.9-1-1.5-1.6-2.2c-1-1-1.4-2.2-0.8-3.6c0.8-1.7,2.5-0.8,3.7-0.2c0.4,0.2,0.8-0.2,0.6-0.6c-1-1.8-3.8-2.1-5.1-0.3
					c-1.9,2.7,0,4.5,1.8,6.4c1.6,1.7-0.4,4.9,2.4,5.8c2.1,0.7,4-1.3,3.8-3.3C185.7,7.6,185.6,7.6,185.6,7.7L185.6,7.7z"/>
			</g>
		</g>
	</g>
	<g>
		<defs>
			<rect id="SVGID_101_" x="0" y="-103.8" width="406.8" height="494.2"/>
		</defs>
		<clipPath id="SVGID_102_">
			<use xlink:href="#SVGID_101_"  style="overflow:visible;"/>
		</clipPath>
		<g class="st54">
			<g>
				<path class="st44" d="M247.2,16.1c-0.5,3.4,0.5,6.3,4,7.2c1.2,0.3,2.4-0.1,3.3-0.8c1.6-1.1,2.2-2.3,4.3-2.4
					c0.3,0,0.5-0.4,0.2-0.6c-1.6-1-3.2,0.6-4.4,1.6c-1.7,1.5-3.6,1.8-5.5,0.2C247.7,20.2,247.6,17.8,247.2,16.1
					C247.3,16.1,247.2,16.1,247.2,16.1L247.2,16.1z"/>
			</g>
		</g>
	</g>
	<g>
		<defs>
			<rect id="SVGID_103_" x="0" y="-103.8" width="406.8" height="494.2"/>
		</defs>
		<clipPath id="SVGID_104_">
			<use xlink:href="#SVGID_103_"  style="overflow:visible;"/>
		</clipPath>
		<g class="st55">
			<g>
				<path class="st44" d="M192.1,32.6c7,14.1,22.9,28.8,39.4,28.9c0.3,0,0.4-0.5,0.1-0.6c-9.8-1.4-18-5-25.6-11.5
					C200.4,44.7,195.9,38.8,192.1,32.6C192.1,32.5,192.1,32.6,192.1,32.6L192.1,32.6z"/>
			</g>
		</g>
	</g>
</g>
</svg>
