<svg width="25px" height="40px" viewBox="0 0 25 40" version="1.1" xmlns="http://www.w3.org/2000/svg" xmlns:xlink="http://www.w3.org/1999/xlink">
    <!-- Generator: Sketch 51.2 (57519) - http://www.bohemiancoding.com/sketch -->
    <desc>Created with Sketch.</desc>
    <defs></defs>
    <g id="Page-1" stroke="none" stroke-width="1" fill="#F8EADA" fill-rule="evenodd">
        <g id="sellerAvailable" transform="translate(-68.000000, -128.000000)" fill="#F48B76" fill-rule="nonzero">
            <path d="M92.9,135.73 C93.04,139.54 90.33,141.39 88.78,142.73 C87.23,144.07 86.43,144.8 86.72,146.41 C87.0549281,148.06362 86.8913497,149.779453 86.25,151.34 C86,152.17 88.12,154.34 89.16,155.54 C90.2,156.74 92.62,162.34 88.84,165.39 C85.06,168.44 77.55,168.09 73.99,163.09 C70.43,158.09 67.81,152.67 69.32,144.22 C70.83,135.77 75.5,129.55 84.24,128.87 C90.35,128.49 92.78,132.76 92.9,135.73 Z" id="Shape"></path>
        </g>
    </g>
</svg>