<svg id="Layer_1" data-name="Layer 1" xmlns="http://www.w3.org/2000/svg" xmlns:xlink="http://www.w3.org/1999/xlink" viewBox="0 0 120 72"><defs><style>.cls-1{fill:#6aa6d5;}.cls-2{fill:url(#linear-gradient);}.cls-3{fill:url(#linear-gradient-2);}</style><linearGradient id="linear-gradient" x1="19.45" y1="32.06" x2="34.25" y2="32.06" gradientUnits="userSpaceOnUse"><stop offset="0" stop-color="#b14e6c"/><stop offset="1" stop-color="#f27783"/></linearGradient><linearGradient id="linear-gradient-2" x1="30.57" y1="39.94" x2="45.38" y2="39.94" gradientUnits="userSpaceOnUse"><stop offset="0" stop-color="#f48457"/><stop offset="1" stop-color="#99402d"/></linearGradient></defs><title>1 - Logo</title><path class="cls-1" d="M53,28.1c0-4.51,2.18-6.68,6-6.68s6,2.17,6,6.68-2.19,6.65-6,6.65S53,32.54,53,28.1Zm2.28,0c0,3.13,1.23,4.67,3.74,4.67s3.75-1.54,3.75-4.67S61.55,23.4,59,23.4,55.3,24.94,55.3,28.1Z"/><path class="cls-1" d="M68.73,26.82a2.36,2.36,0,0,1,2-1.21,1,1,0,1,1,0,1.93,1.92,1.92,0,0,0-2,2.11v4a1,1,0,0,1-2.06,0V26.73a1,1,0,0,1,2.06,0Z"/><path class="cls-1" d="M72.46,30.15c0-3.1,1.5-4.56,4.07-4.56,2.3,0,3.93,1.27,3.93,3.8V34.2c0,2.62-1.29,4.11-4.11,4.11A4.15,4.15,0,0,1,73,37.05a.82.82,0,0,1-.19-.55.92.92,0,0,1,.91-.91,1,1,0,0,1,.61.22,3.23,3.23,0,0,0,2,.75c1.35,0,2-.71,2-1.87V34a3.06,3.06,0,0,1-2.07.76C73.92,34.73,72.46,33.25,72.46,30.15Zm6-.76a1.84,1.84,0,0,0-1.88-2.06c-1.32,0-2,1-2,2.82s.74,2.83,2,2.83a2.61,2.61,0,0,0,1.88-1Z"/><path class="cls-1" d="M83.74,28.13a.87.87,0,0,1-.57.19.89.89,0,0,1-.9-.89,1,1,0,0,1,.25-.63,4,4,0,0,1,3.12-1.21c2.35,0,3.76,1.16,3.76,3.17v4.87a1,1,0,0,1-2,0,2.65,2.65,0,0,1-2.49,1.1,2.83,2.83,0,0,1-3.1-2.87c0-1.77,1.42-2.68,3.08-2.68h2.49v-.34c0-.86-.63-1.43-1.73-1.43A3.13,3.13,0,0,0,83.74,28.13Zm3.63,3.18v-.53H85.14c-.83,0-1.29.39-1.29,1.08S84.36,33,85.43,33A1.8,1.8,0,0,0,87.37,31.31Z"/><path class="cls-1" d="M98.89,28.89v4.76a1,1,0,0,1-1,1,1,1,0,0,1-1-1V29.27c0-1.08-.44-1.82-1.67-1.82a1.72,1.72,0,0,0-1.91,2v4.24a1,1,0,0,1-2.05,0V26.73a1,1,0,1,1,2.05,0,2.81,2.81,0,0,1,2.44-1.14C98.28,25.59,98.89,27.24,98.89,28.89Z"/><path class="cls-1" d="M53,44.58c0-4.5,2.18-6.67,6-6.67s6,2.17,6,6.67-2.19,6.66-6,6.66S53,49,53,44.58Zm2.28,0c0,3.14,1.23,4.68,3.74,4.68s3.75-1.54,3.75-4.68S61.55,39.89,59,39.89,55.3,41.43,55.3,44.58Z"/><path class="cls-1" d="M68.63,43.21v4.43a1.71,1.71,0,1,0,3.41,0V43.21a1,1,0,0,1,2,0v4.43c0,1.86-.7,3.58-3.75,3.58s-3.76-1.72-3.76-3.58V43.21a1,1,0,0,1,2,0Z"/><path class="cls-1" d="M76.78,40.74a1,1,0,1,1,2,0v1.6h.86a.86.86,0,0,1,0,1.71h-.86v4.6a.7.7,0,0,0,.73.68.9.9,0,0,1,0,1.79,2.51,2.51,0,0,1-2.74-2.58V44.05h-.44a.86.86,0,0,1,0-1.71h.44Z"/><path class="cls-1" d="M84.23,38.46V48.88a.36.36,0,0,0,.36.34.95.95,0,1,1,0,1.9,2.21,2.21,0,0,1-2.42-2.43V38.46a1,1,0,1,1,2.06,0Z"/><path class="cls-1" d="M91,42.07a3.53,3.53,0,0,1,3.81,3.78c0,.71,0,1.53-1.16,1.53H88.9c0,1.36,1,2,2.23,2A3.23,3.23,0,0,0,93,48.78a1,1,0,0,1,.61-.21.89.89,0,0,1,.89.9,1,1,0,0,1-.32.7,4.51,4.51,0,0,1-3.06,1c-2.65,0-4.28-1.43-4.28-4.61C86.85,43.71,88.37,42.07,91,42.07Zm-2,3.59h3.76A1.7,1.7,0,0,0,91,43.82,1.85,1.85,0,0,0,89,45.66Z"/><path class="cls-1" d="M96.83,40.74a1,1,0,1,1,2,0v1.6h.86a.86.86,0,0,1,0,1.71h-.86v4.6a.69.69,0,0,0,.72.68.9.9,0,1,1,0,1.79,2.51,2.51,0,0,1-2.73-2.58V44.05h-.44a.86.86,0,1,1,0-1.71h.44Z"/><path class="cls-2" d="M34.25,24.45c.09,2.35-1.58,3.49-2.54,4.3S30.26,30,30.44,31a5.19,5.19,0,0,1-.29,3c-.15.5,1.16,1.81,1.8,2.59s2.13,4.19-.2,6.07A6.72,6.72,0,0,1,22.6,41.3c-2.2-3.08-3.81-6.43-2.88-11.63s3.81-9,9.19-9.46C32.68,20,34.18,22.62,34.25,24.45Z"/><path class="cls-3" d="M30.58,47.55c-.09-2.35,1.58-3.49,2.53-4.3S34.56,42,34.38,41a5.36,5.36,0,0,1,.29-3c.16-.5-1.15-1.81-1.79-2.59s-2.13-4.19.2-6.07a6.72,6.72,0,0,1,9.15,1.42c2.19,3.08,3.81,6.43,2.88,11.63s-3.81,9-9.2,9.46C32.15,52,30.65,49.38,30.58,47.55Z"/></svg>