<?xml version="1.0" encoding="UTF-8"?>
<svg width="194px" height="47px" viewBox="0 0 194 47" version="1.1" xmlns="http://www.w3.org/2000/svg" xmlns:xlink="http://www.w3.org/1999/xlink">
    <!-- Generator: Sketch 51.2 (57519) - http://www.bohemiancoding.com/sketch -->
    <title>1 - Logo Small</title>
    <desc>Created with Sketch.</desc>
    <defs>
        <linearGradient x1="-0.00795609906%" y1="50.0918758%" x2="99.9763946%" y2="50.0918758%" id="linearGradient-1">
            <stop stop-color="#B14E6C" offset="0%"></stop>
            <stop stop-color="#F27783" offset="100%"></stop>
        </linearGradient>
        <linearGradient x1="-0.0439532188%" y1="49.7494133%" x2="100.014319%" y2="49.7494133%" id="linearGradient-2">
            <stop stop-color="#F48457" offset="0%"></stop>
            <stop stop-color="#99402D" offset="100%"></stop>
        </linearGradient>
    </defs>
    <g id="Symbols" stroke="none" stroke-width="1" fill="none" fill-rule="evenodd">
        <g id="Toolbar-Copy-2" transform="translate(-72.000000, -22.000000)">
            <g id="1---Logo-Small" transform="translate(72.000000, 22.000000)">
                <g id="1---Logo">
                    <path d="M49.627907,21.9121458 C49.627907,15.3771902 52.9063566,12.2328767 58.6511628,12.2328767 C64.395969,12.2328767 67.6744186,15.3771902 67.6744186,21.9121458 C67.6744186,28.4471015 64.3809302,31.5479452 58.6511628,31.5479452 C52.9213953,31.5479452 49.627907,28.345672 49.627907,21.9121458 Z M53.0567442,21.9121458 C53.0567442,26.447492 54.9065116,28.6789403 58.6812403,28.6789403 C62.455969,28.6789403 64.3207752,26.447492 64.3207752,21.9121458 C64.3207752,17.3767997 62.4860465,15.1018816 58.6511628,15.1018816 C54.8162791,15.1018816 53.0868217,17.3333299 53.0868217,21.9121458 L53.0567442,21.9121458 Z" id="Shape" fill="#6AA6D5" fill-rule="nonzero"></path>
                    <path d="M72.6015367,20.5200844 C73.1916317,19.4385137 74.296501,18.7554574 75.5079088,18.7232965 C76.0986615,18.5592436 76.7266737,18.7910972 77.0783988,19.3031002 C77.430124,19.8151031 77.430124,20.4974408 77.0783988,21.0094438 C76.7266737,21.5214467 76.0986615,21.7533003 75.5079088,21.5892474 C74.6975172,21.5505459 73.9107716,21.8741956 73.352666,22.4758666 C72.7945604,23.0775375 72.5203696,23.8976402 72.6015367,24.7224891 L72.6015367,30.6622837 C72.6015367,31.5070016 71.9314047,32.1917808 71.1047551,32.1917808 C70.2781054,32.1917808 69.6079734,31.5070016 69.6079734,30.6622837 L69.6079734,20.386439 C69.6079734,19.5417211 70.2781054,18.8569419 71.1047551,18.8569419 C71.9314047,18.8569419 72.6015367,19.5417211 72.6015367,20.386439 L72.6015367,20.5200844 Z" id="Shape" fill="#6AA6D5" fill-rule="nonzero"></path>
                    <path d="M78.6312292,25.3566051 C78.6312292,20.8117249 80.8064784,18.6712329 84.5334053,18.6712329 C87.8687874,18.6712329 90.2325581,20.5331677 90.2325581,24.2423764 L90.2325581,31.2942712 C90.2325581,35.135428 88.3618439,37.3199027 84.2723754,37.3199027 C82.4600993,37.4780293 80.6743164,36.7989861 79.4143189,35.4726288 C79.2280595,35.2469365 79.1300391,34.9600775 79.1387874,34.6662791 C79.1466318,33.9327627 79.7328894,33.3400674 80.4584385,33.3321368 C80.7805575,33.3373277 81.0917961,33.4508103 81.3430399,33.6546767 C82.1584982,34.3431205 83.1812272,34.7308553 84.2433721,34.7542445 C86.2010963,34.7542445 87.1437043,33.7133203 87.1437043,32.0126555 L87.1437043,31.0010531 C86.3148318,31.7367145 85.2446723,32.1339378 84.1418605,32.1152818 C80.7484718,32.0712991 78.6312292,29.9014853 78.6312292,25.3566051 Z M87.3322259,24.2423764 C87.4254469,23.462579 87.1778509,22.6804317 86.654116,22.1002502 C86.1303812,21.5200687 85.3825279,21.1994802 84.6059136,21.2222302 C82.6916944,21.2222302 81.7055814,22.6883206 81.7055814,25.3566051 C81.7055814,28.0248896 82.7787043,29.5056409 84.6059136,29.5056409 C85.6795179,29.4309974 86.6709358,28.8978566 87.3322259,28.0395505 L87.3322259,24.2423764 Z" id="Shape" fill="#6AA6D5" fill-rule="nonzero"></path>
                    <path d="M94.9527664,22.4283985 C94.7197758,22.6186661 94.4281073,22.7179968 94.1299767,22.7086079 C93.7867572,22.7125482 93.4562664,22.5760024 93.2122061,22.3294213 C92.9681458,22.0828403 92.8308135,21.7467309 92.8308351,21.3960481 C92.8415957,21.0528661 92.969222,20.7242751 93.1917078,20.4669327 C94.3655652,19.2282735 96.0110603,18.5762812 97.6953987,18.6824412 C101.087602,18.6824412 103.122924,20.3931934 103.122924,23.3575139 L103.122924,30.5397233 C103.122924,31.3542254 102.476651,32.0145097 101.679433,32.0145097 C100.882215,32.0145097 100.235942,31.3542254 100.235942,30.5397233 C99.4220137,31.7158984 98.0408146,32.3392954 96.6416505,32.1619883 C95.482316,32.2757224 94.3305879,31.878474 93.4759504,31.0700908 C92.6213128,30.2617075 92.1450354,29.1190606 92.1668294,27.9293515 C92.1668294,25.3189797 94.2165862,23.9769242 96.6127807,23.9769242 L100.207072,23.9769242 L100.207072,23.4754968 C100.207072,22.2071805 99.2976733,21.3665523 97.7098336,21.3665523 C96.7004944,21.3957923 95.7298321,21.7696294 94.9527664,22.4283985 Z M100.192638,27.118219 L100.192638,26.3365823 L96.9736534,26.3365823 C95.7755561,26.3365823 95.1115504,26.911749 95.1115504,27.9293515 C95.1115504,28.9469541 95.8477306,29.610608 97.3922656,29.610608 C98.0888749,29.6673387 98.7784853,29.4349901 99.3054083,28.9660177 C99.8323313,28.4970453 100.152141,27.8309888 100.192638,27.118219 Z" id="Shape" fill="#6AA6D5" fill-rule="nonzero"></path>
                    <path d="M117.302326,23.5660855 L117.302326,30.6147224 C117.302326,31.432549 116.659399,32.0955284 115.866308,32.0955284 C115.073218,32.0955284 114.430291,31.432549 114.430291,30.6147224 L114.430291,24.1287918 C114.430291,22.5295213 113.798444,21.4337248 112.032143,21.4337248 C111.255143,21.3326692 110.477708,21.6175851 109.936823,22.2016213 C109.395939,22.7856575 109.155704,23.599601 109.28935,24.3953369 L109.28935,30.6739546 C109.28935,31.5122269 108.63035,32.1917808 107.817432,32.1917808 C107.004515,32.1917808 106.345515,31.5122269 106.345515,30.6739546 L106.345515,20.3675445 C106.345515,19.5292722 107.004515,18.8497182 107.817432,18.8497182 C108.63035,18.8497182 109.28935,19.5292722 109.28935,20.3675445 C110.102705,19.2267381 111.422812,18.5907296 112.793232,18.6794256 C116.426355,18.6794256 117.302326,21.1227555 117.302326,23.5660855 Z" id="Shape" fill="#6AA6D5" fill-rule="nonzero"></path>
                    <path d="M123.747508,22.5414915 C123.747508,16.0210258 127.025958,12.8767123 132.770764,12.8767123 C138.51557,12.8767123 141.79402,16.0210258 141.79402,22.5414915 C141.79402,29.0619573 138.500532,32.1917808 132.770764,32.1917808 C127.040997,32.1917808 123.747508,28.9460379 123.747508,22.5414915 Z M127.176346,22.5414915 C127.176346,27.0913276 129.026113,29.3227759 132.800842,29.3227759 C136.57557,29.3227759 138.440377,27.0913276 138.440377,22.5414915 C138.440377,17.9916554 136.605648,15.7457173 132.770764,15.7457173 C128.93588,15.7457173 127.206423,17.9771655 127.206423,22.5414915 L127.176346,22.5414915 Z" id="Shape" fill="#6AA6D5" fill-rule="nonzero"></path>
                    <path d="M146.791397,20.8156842 L146.791397,27.463412 C146.719801,28.4242686 147.177644,29.3453776 147.976838,29.8483347 C148.776033,30.3512917 149.781824,30.3512917 150.581018,29.8483347 C151.380212,29.3453776 151.838056,28.4242686 151.76646,27.463412 L151.76646,20.8156842 C151.76646,19.9869171 152.41966,19.3150685 153.225423,19.3150685 C154.031185,19.3150685 154.684385,19.9869171 154.684385,20.8156842 L154.684385,27.463412 C154.684385,30.2545573 153.663111,32.8356164 149.213275,32.8356164 C144.763438,32.8356164 143.727575,30.2545573 143.727575,27.463412 L143.727575,20.8156842 C143.727575,19.9869171 144.380775,19.3150685 145.186538,19.3150685 C145.9923,19.3150685 146.6455,19.9869171 146.6455,20.8156842 L146.791397,20.8156842 Z" id="Shape" fill="#6AA6D5" fill-rule="nonzero"></path>
                    <path d="M159.043956,16.921652 C159.043956,16.1100159 159.699126,15.4520548 160.507319,15.4520548 C161.315513,15.4520548 161.970683,16.1100159 161.970683,16.921652 L161.970683,19.2730075 L163.229176,19.2730075 C163.868037,19.3424944 164.352159,19.8841787 164.352159,20.529513 C164.352159,21.1748474 163.868037,21.7165317 163.229176,21.7860186 L161.970683,21.7860186 L161.970683,28.5461657 C161.978268,28.8216772 162.095623,29.0826095 162.296443,29.270471 C162.497262,29.4583324 162.764748,29.5574092 163.038939,29.5454917 C163.708903,29.6167101 164.217332,30.1842041 164.217332,30.8607812 C164.217332,31.5373583 163.708903,32.1048523 163.038939,32.1760707 C161.989831,32.2735728 160.949544,31.9139493 160.182484,31.1886044 C159.415424,30.4632595 158.995456,29.4420415 159.029322,28.38451 L159.029322,21.7860186 L158.385442,21.7860186 C157.746581,21.7165317 157.262458,21.1748474 157.262458,20.529513 C157.262458,19.8841787 157.746581,19.3424944 158.385442,19.2730075 L159.029322,19.2730075 L159.043956,16.921652 Z" id="Shape" fill="#6AA6D5" fill-rule="nonzero"></path>
                    <path d="M170.089255,13.7333048 L170.089255,28.9123929 C170.105454,29.1905865 170.346492,29.4081102 170.638083,29.4076799 C171.437954,29.4076799 172.086379,30.0272685 172.086379,30.7915699 C172.086379,31.5558712 171.437954,32.1754599 170.638083,32.1754599 C169.629059,32.2728595 168.627798,31.9307733 167.91216,31.2441337 C167.196521,30.5574941 166.842646,29.5993569 166.948739,28.6356149 L166.948739,13.7333048 C166.948739,12.9046413 167.651767,12.2328767 168.518997,12.2328767 C169.386226,12.2328767 170.089255,12.9046413 170.089255,13.7333048 Z" id="Shape" fill="#6AA6D5" fill-rule="nonzero"></path>
                    <path d="M180.06794,18.6889152 C181.563649,18.5632719 183.038329,19.1117296 184.103721,20.1898881 C185.169113,21.2680465 185.71845,22.7678589 185.6071,24.2944484 C185.6071,25.3473395 185.6071,26.5633547 183.920636,26.5633547 L177.01486,26.5633547 C177.01486,28.5801603 178.468707,29.5292452 180.25694,29.5292452 C181.231745,29.5276735 182.181909,29.2167064 182.975635,28.6394781 C183.229404,28.438587 183.541256,28.3290796 183.862482,28.3280596 C184.208186,28.3280373 184.539524,28.4691233 184.782604,28.7198545 C185.025684,28.9705856 185.160291,29.3101096 185.156407,29.6627103 C185.143318,30.0581847 184.975819,30.4319216 184.691176,30.700772 C183.437595,31.7364889 181.853682,32.2644671 180.242402,32.1837173 C176.389705,32.1837173 174.019934,30.0631056 174.019934,25.3473395 C174.034472,21.1209455 176.244321,18.6889152 180.06794,18.6889152 Z M177.160245,24.0126888 L182.626712,24.0126888 C182.68554,23.2931351 182.439064,22.5823901 181.949759,22.0606056 C181.460454,21.538821 180.775292,21.2560876 180.06794,21.2840694 C179.320163,21.2220194 178.580963,21.4813698 178.028833,21.9994959 C177.476703,22.5176221 177.16183,23.2474277 177.160245,24.0126888 Z" id="Shape" fill="#6AA6D5" fill-rule="nonzero"></path>
                    <path d="M188.385638,16.9217692 C188.385638,16.1100683 189.062304,15.4520548 189.897014,15.4520548 C190.731723,15.4520548 191.408389,16.1100683 191.408389,16.9217692 L191.408389,19.2733122 L192.708172,19.2733122 C193.367994,19.3428048 193.868,19.8845322 193.868,20.5299181 C193.868,21.1753039 193.367994,21.7170313 192.708172,21.7865239 L191.408389,21.7865239 L191.408389,28.5472101 C191.412209,28.821424 191.530071,29.0824432 191.735098,29.2707422 C191.940125,29.4590411 192.214835,29.5585645 192.49658,29.5466159 C193.013987,29.4933576 193.517308,29.7317787 193.793132,30.1607872 C194.068956,30.5897958 194.068956,31.1342248 193.793132,31.5632333 C193.517308,31.9922419 193.013987,32.2306629 192.49658,32.1774047 C191.41554,32.2704386 190.34529,31.9087807 189.556529,31.1839055 C188.767767,30.4590303 188.336033,29.4403578 188.370524,28.3855415 L188.370524,21.7865239 L187.705519,21.7865239 C187.210482,21.8386612 186.728322,21.6112018 186.464013,21.2008424 C186.199703,20.790483 186.199703,20.2693531 186.464013,19.8589937 C186.728322,19.4486343 187.210482,19.2211749 187.705519,19.2733122 L188.370524,19.2733122 L188.385638,16.9217692 Z" id="Shape" fill="#6AA6D5" fill-rule="nonzero"></path>
                    <path d="M21.9084485,6.24257064 C22.0416861,9.69281951 19.5693874,11.3665573 18.1481858,12.555792 C16.7269842,13.7450267 16.0015792,14.3910307 16.2680545,15.8592217 C16.567423,17.337206 16.4180145,18.8700451 15.8387331,20.2637948 C15.6166704,20.9978903 17.5560184,22.9212205 18.5034862,24.0664095 C19.450954,25.2115985 21.6567773,30.2181298 18.2074025,32.9783289 C13.8751855,35.9912111 7.92294203,35.1138132 4.66157441,30.9815891 C1.40465399,26.4595608 -0.978819596,21.5411209 0.397969492,13.9065277 C1.77475858,6.27193446 6.0383635,0.692808626 14.0030144,0.0174407624 C19.5841916,-0.290879349 21.8048192,3.55578109 21.9084485,6.24257064 Z" id="Shape" fill="url(#linearGradient-1)" fill-rule="nonzero"></path>
                    <path d="M16.7626485,40.6865895 C16.6294023,37.2411767 19.1018583,35.5697849 20.5083452,34.3822171 C21.9148321,33.1946493 22.6550884,32.5495507 22.3885961,31.0834176 C22.1039444,29.6067962 22.2529525,28.0803053 22.8179448,26.6850183 C23.0548268,25.9519518 21.1153554,24.0313174 20.1678273,22.8877336 C19.2202993,21.7441498 17.0143356,16.7446359 20.4639298,13.9883056 C24.8188647,10.9992127 30.7753512,11.9146291 34.0106196,16.0702147 C37.2529421,20.5859046 39.6513725,25.4974505 38.2744958,33.1213427 C36.8976191,40.7452348 32.633743,46.3165406 24.6537803,46.9909618 C19.0870532,47.2108818 16.8662843,43.3696131 16.7626485,40.6865895 Z" id="Shape" fill="url(#linearGradient-2)" fill-rule="nonzero"></path>
                </g>
            </g>
        </g>
    </g>
</svg>