<?xml version="1.0" encoding="utf-8"?>
<!-- Generator: Adobe Illustrator 16.0.0, SVG Export Plug-In . SVG Version: 6.00 Build 0)  -->
<!DOCTYPE svg PUBLIC "-//W3C//DTD SVG 1.1//EN" "http://www.w3.org/Graphics/SVG/1.1/DTD/svg11.dtd">
<svg version="1.1" xmlns="http://www.w3.org/2000/svg" xmlns:xlink="http://www.w3.org/1999/xlink" x="0px" y="0px" width="1008px"
	 height="612px" viewBox="0 0 1008 612" enable-background="new 0 0 1008 612" xml:space="preserve">
<g id="Guides">
</g>
<g id="Liver">
	<g id="Color_x3F_">
		<rect fill="#991B1E" width="1008" height="154.771"/>
	</g>
	<g>
		<path fill="#991B1E" d="M642.297,207.217c-27.574,0-48.331,6.605-70.328,13.581c-23.92,7.573-48.614,15.425-81.857,15.425
			c-33.174,0-57.892-7.833-81.764-15.408c-22.021-6.993-42.826-13.579-70.424-13.579c-96.124-0.02-163.247,47.213-163.247,114.834
			c0,156.282,309.976,163.295,313.115,163.295c52.27,0,317.752-28.391,317.752-163.295
			C805.544,254.449,738.421,207.217,642.297,207.217z"/>
		<path id="copy_2_" fill="#FBCBCC" d="M565.551,241.172c-13.669,0-23.958,2.496-34.862,5.133c-11.856,2.86-24.1,5.828-40.579,5.828
			c-16.443,0-28.696-2.96-40.53-5.823c-10.915-2.643-21.23-5.131-34.911-5.131c-47.648-0.007-80.922,17.843-80.922,43.398
			c0,59.062,153.658,61.712,155.213,61.712c25.91,0,157.512-10.727,157.512-61.712C646.473,259.022,613.199,241.172,565.551,241.172
			z"/>
		<path fill="#991B1E" d="M0,97.792v464.315h1008V97.792H0z M487.792,522.672c-93.384,0-359.97-36.858-359.97-200.602
			c0-88.179,88.346-152.159,210.101-152.159c36.596,0,63.772,8.616,87.76,16.228c21.602,6.846,40.25,12.759,64.428,12.759
			c24.248,0,42.896-5.913,64.498-12.779c23.967-7.609,51.142-16.229,87.688-16.229c121.732,0.021,210.102,64.021,210.102,152.18
			C852.398,486.972,560.137,522.672,487.792,522.672z"/>
		<path display="none" fill="#010101" d="M642.297,169.891c-36.546,0-63.721,8.62-87.688,16.229
			c-21.602,6.866-40.25,12.779-64.498,12.779c-24.178,0-42.826-5.913-64.428-12.759c-23.988-7.612-51.165-16.228-87.76-16.228
			c-121.755,0-210.101,63.98-210.101,152.159c0,163.743,266.585,200.602,359.97,200.602c72.345,0,364.606-35.7,364.606-200.602
			C852.398,233.911,764.029,169.911,642.297,169.891z M487.792,485.365c-3.14,0-313.115-7.013-313.115-163.295
			c0-67.621,67.123-114.854,163.247-114.834c27.599,0,48.403,6.586,70.424,13.579c23.872,7.575,48.59,15.408,81.764,15.408
			c33.243,0,57.938-7.852,81.857-15.425c21.997-6.976,42.754-13.581,70.328-13.581c96.124,0,163.247,47.232,163.247,114.854
			C805.544,456.975,540.062,485.365,487.792,485.365z"/>
	</g>
</g>
<g id="Text_samples">
	<g>
		<g id="White_text_2_">
			<path fill="#FFFFFF" d="M199.28,100.551c1.525,6.164,1.898,12.1,1.165,17.805c-0.733,5.706-2.448,10.896-5.13,15.583
				c-2.682,4.688-6.269,8.757-10.765,12.23c-4.497,3.475-9.804,6.074-15.961,7.833c-6.12,1.749-11.989,2.34-17.652,1.77
				s-10.88-2.124-15.666-4.677c-4.786-2.553-9.007-6.045-12.653-10.499c-3.647-4.454-6.469-9.689-8.431-15.728
				s-2.756-11.937-2.335-17.701c0.419-5.763,1.947-11.109,4.598-16.018c2.651-4.908,6.352-9.232,11.096-12.943
				c4.744-3.71,10.417-6.523,16.986-8.4c6.609-1.888,12.926-2.501,18.903-1.854c5.977,0.647,11.38,2.371,16.189,5.146
				c4.81,2.776,8.905,6.514,12.298,11.188C195.315,88.96,197.755,94.388,199.28,100.551z M185.068,104.157
				c-1.238-4.763-3.016-8.873-5.352-12.322c-2.336-3.451-5.112-6.167-8.336-8.141c-3.225-1.974-6.835-3.179-10.822-3.604
				c-3.988-0.425-8.236-0.004-12.722,1.277c-4.446,1.271-8.258,3.152-11.424,5.622c-3.167,2.47-5.611,5.403-7.332,8.791
				c-1.721,3.387-2.67,7.17-2.854,11.341c-0.184,4.169,0.467,8.603,1.932,13.301c1.477,4.736,3.464,8.771,5.946,12.114
				c2.481,3.344,5.333,5.943,8.552,7.803c3.219,1.861,6.736,2.974,10.564,3.35c3.827,0.376,7.842-0.041,12.065-1.248
				c4.261-1.217,7.905-2.988,10.952-5.328c3.046-2.339,5.429-5.141,7.153-8.415c1.723-3.273,2.746-6.979,3.063-11.123
				C186.773,113.431,186.317,108.958,185.068,104.157z"/>
			<path fill="#FFFFFF" d="M227.742,87.098c1.092-4.184,2.782-7.652,5.066-10.396s5.361-4.523,9.215-5.32
				c1.338-0.277,2.627-0.389,3.863-0.337c1.235,0.053,2.378,0.278,3.428,0.673c0.395,3.855,0.594,5.782,0.995,9.636
				c-0.028,0.695-0.187,1.202-0.477,1.523c-0.291,0.323-0.718,0.54-1.279,0.654c-0.602,0.123-1.488,0.192-2.655,0.21
				c-1.168,0.018-2.375,0.154-3.619,0.414c-1.807,0.377-3.349,0.968-4.625,1.767c-1.276,0.8-2.36,1.803-3.25,3.009
				c-0.891,1.208-1.602,2.602-2.134,4.18c-0.532,1.579-0.959,3.338-1.28,5.278c2.708,12.285,5.418,24.569,8.129,36.854
				c-4.964,1.095-7.445,1.655-12.4,2.804c-4.57-19.716-9.14-39.433-13.708-59.149c3.027-0.702,4.542-1.048,7.572-1.731
				c1.373-0.31,2.377-0.277,3.011,0.09c0.633,0.367,1.183,1.128,1.651,2.284C226.246,82.563,226.746,84.074,227.742,87.098z"/>
			<path fill="#FFFFFF" d="M316.923,61.616c0.273,1.885,0.41,2.828,0.683,4.713c0.228,1.571-0.608,2.674-2.501,3.314
				c-2.421,0.765-3.629,1.149-6.045,1.926c1.398,2.116,2.303,4.569,2.724,7.354c0.444,2.943,0.252,5.7-0.561,8.272
				c-0.814,2.573-2.125,4.863-3.926,6.872c-1.802,2.009-4.052,3.692-6.755,5.057c-2.703,1.365-5.707,2.326-9.023,2.892
				c-1.264,0.216-2.511,0.359-3.737,0.432c-1.227,0.073-2.907-0.189-3.622,0.062c-0.817,0.287-1.75,1.723-2.168,2.564
				c-0.419,0.841-0.557,1.652-0.417,2.433c0.232,1.289,0.973,2.143,2.223,2.565c1.249,0.422,2.83,0.606,4.739,0.555
				c1.909-0.051,4.066-0.242,6.473-0.568c2.405-0.326,4.861-0.592,7.365-0.798s4.99-0.271,7.454-0.194
				c2.462,0.077,4.706,0.498,6.723,1.257c2.018,0.759,3.724,1.938,5.118,3.539c1.392,1.6,2.29,3.817,2.701,6.645
				c0.377,2.592,0.104,5.218-0.805,7.878s-2.419,5.131-4.523,7.418c-2.104,2.287-4.781,4.277-8.03,5.982
				c-3.25,1.704-7.058,2.92-11.434,3.665c-4.339,0.738-8.185,0.975-11.555,0.695c-3.371-0.279-6.269-0.943-8.696-2.002
				c-2.428-1.058-4.354-2.438-5.772-4.146c-1.42-1.708-2.331-3.592-2.73-5.657c-0.542-2.806-0.131-5.373,1.251-7.696
				c1.382-2.325,6.31-6.03,6.31-6.03c-0.02-0.145-3.289-1.306-4.54-2.484c-1.25-1.178-2.09-2.876-2.511-5.099
				c-0.332-1.755-0.033-3.71,0.907-5.865s4.957-5.943,4.957-5.943c-0.066-0.396-6.084-2.82-8.343-5.201
				c-2.259-2.38-3.743-5.379-4.435-9.005c-0.565-2.962-0.486-5.746,0.252-8.35c0.737-2.603,2.022-4.944,3.859-7.02
				c1.835-2.075,4.151-3.831,6.94-5.257c2.788-1.426,5.938-2.441,9.444-3.04c5.38-0.918,10.253-0.607,14.586,0.913
				C306.464,63.154,309.95,62.625,316.923,61.616z M313.169,124.36c-0.208-1.333-0.752-2.346-1.635-3.03s-2.002-1.153-3.356-1.399
				c-1.354-0.246-2.906-0.337-4.651-0.274c-1.747,0.063-3.592,0.207-5.534,0.432c-1.941,0.226-3.922,0.464-5.94,0.712
				c-2.019,0.249-4.66,0.017-5.899,0.461c-1.392,0.5-3.003,2.755-3.935,4.336c-0.933,1.582-1.232,3.271-0.902,5.066
				c0.215,1.172,0.714,2.209,1.496,3.115c0.782,0.905,1.864,1.616,3.246,2.133c1.38,0.516,3.078,0.818,5.09,0.907
				c2.011,0.089,4.377-0.102,7.101-0.564c5.446-0.926,9.394-2.446,11.853-4.605C312.561,129.491,313.59,127.065,313.169,124.36z
				 M290.115,93.802c3.975-0.679,6.792-2.167,8.462-4.49c1.668-2.322,2.252-5.087,1.736-8.301c-0.528-3.292-1.953-5.739-4.286-7.328
				c-2.334-1.589-5.532-2.049-9.578-1.358c-4.006,0.684-6.863,2.178-8.558,4.455c-1.696,2.277-2.24,5.059-1.646,8.34
				c0.283,1.563,0.807,2.96,1.564,4.194c0.758,1.234,1.719,2.24,2.886,3.02c1.166,0.78,2.541,1.302,4.124,1.569
				S288.167,94.135,290.115,93.802z"/>
			<path fill="#FFFFFF" d="M332.738,65.737c6.19-7.264,14.264-11.495,24.068-12.589c3.609-0.403,6.883-0.186,9.807,0.647
				c2.923,0.833,5.438,2.189,7.538,4.056s3.781,4.17,5.042,6.899c1.262,2.73,2.049,5.816,2.37,9.254
				c1.196,12.802,2.39,25.604,3.585,38.407c-2.249,0.21-3.374,0.317-5.622,0.538c-1.21,0.119-2.146,0.023-2.807-0.29
				c-0.662-0.313-1.267-1.019-1.813-2.12c-0.693-1.916-1.04-2.873-1.736-4.788c-1.389,1.54-2.77,2.933-4.142,4.176
				c-1.373,1.245-2.808,2.328-4.305,3.251c-1.498,0.924-3.13,1.676-4.899,2.259c-1.769,0.583-3.743,1.005-5.923,1.267
				c-2.415,0.29-4.703,0.231-6.87-0.176c-2.167-0.407-4.102-1.188-5.801-2.347c-1.7-1.159-3.123-2.68-4.272-4.569
				c-1.15-1.888-1.911-4.188-2.276-6.902c-0.313-2.321,0.002-4.664,0.958-7.034s2.761-4.622,5.427-6.744
				c2.666-2.12,6.301-4.046,10.91-5.751c4.609-1.704,10.407-3.023,17.375-3.907c-0.167-1.61-0.251-2.415-0.418-4.025
				c-0.451-4.342-1.737-7.481-3.871-9.409c-2.135-1.929-5.061-2.692-8.762-2.274c-2.522,0.285-4.601,0.836-6.235,1.649
				c-1.634,0.813-3.037,1.652-4.207,2.514c-1.171,0.862-2.202,1.66-3.098,2.392c-0.895,0.732-1.888,1.166-2.979,1.304
				c-0.89,0.113-1.679-0.016-2.363-0.388c-0.685-0.372-1.274-0.865-1.766-1.481C334.49,68.027,333.907,67.264,332.738,65.737z
				 M370.174,87.209c-4.569,0.634-8.399,1.427-11.479,2.355c-3.081,0.929-5.542,1.959-7.381,3.079
				c-1.841,1.12-3.11,2.347-3.811,3.672c-0.702,1.326-0.958,2.718-0.776,4.174c0.176,1.418,0.555,2.602,1.132,3.549
				c0.576,0.948,1.307,1.697,2.192,2.249c0.884,0.552,1.883,0.91,2.999,1.077c1.114,0.167,2.318,0.171,3.613,0.02
				c3.296-0.385,6.06-1.323,8.303-2.826c2.243-1.503,4.365-3.556,6.371-6.158C370.872,93.924,370.638,91.686,370.174,87.209z"/>
			<path fill="#FFFFFF" d="M414.029,57.267c1.258-1.435,2.582-2.743,3.968-3.924c1.385-1.18,2.876-2.214,4.472-3.104
				c1.595-0.889,3.307-1.603,5.134-2.141c1.827-0.537,3.831-0.861,6.012-0.97c3.457-0.172,6.521,0.245,9.177,1.244
				c2.657,0.999,4.918,2.479,6.775,4.436c1.857,1.956,3.281,4.34,4.273,7.145c0.992,2.806,1.539,5.916,1.651,9.327
				c0.424,12.871,0.849,25.741,1.274,38.611c-5.027,0.166-7.54,0.263-12.565,0.482c-0.561-12.866-1.118-25.731-1.681-38.597
				c-0.178-4.083-1.278-7.215-3.315-9.386c-2.038-2.172-5.044-3.164-9.003-2.954c-2.939,0.156-5.628,0.965-8.056,2.421
				c-2.428,1.457-4.666,3.386-6.708,5.787c0.961,14.711,1.922,29.423,2.882,44.135c-5.044,0.33-7.565,0.508-12.606,0.891
				c-1.535-20.181-3.064-40.362-4.599-60.543c3.203-0.243,4.807-0.36,8.012-0.583c1.808-0.125,3.011,0.61,3.611,2.2
				C413.256,53.953,413.514,55.058,414.029,57.267z"/>
			<path fill="#FFFFFF" d="M597.854,68.584c-0.523,6.328-2.055,12.075-4.557,17.248c-2.502,5.174-5.765,9.546-9.775,13.134
				c-4.01,3.587-8.674,6.3-14.001,8.158c-5.327,1.859-11.135,2.628-17.47,2.33c-6.296-0.296-11.986-1.608-17.112-3.958
				c-5.127-2.35-9.521-5.489-13.194-9.436c-3.674-3.948-6.521-8.605-8.525-13.991s-2.989-11.252-2.916-17.601
				s1.197-12.19,3.412-17.517s5.331-9.901,9.367-13.706c4.034-3.803,8.868-6.721,14.49-8.722c5.621-2.001,11.833-2.856,18.592-2.538
				c6.8,0.32,12.924,1.754,18.335,4.274s9.942,5.877,13.584,10.041c3.643,4.165,6.311,9.012,8.018,14.523
				C597.808,56.333,598.377,62.256,597.854,68.584z M583.342,67.471c0.348-4.909-0.02-9.372-1.119-13.386
				c-1.101-4.015-2.852-7.474-5.255-10.373c-2.404-2.898-5.413-5.193-9.022-6.869c-3.61-1.675-7.729-2.631-12.345-2.848
				c-4.575-0.215-8.748,0.35-12.497,1.679c-3.751,1.329-6.972,3.331-9.656,5.991s-4.772,5.94-6.264,9.833
				c-1.491,3.893-2.282,8.3-2.396,13.22c-0.115,4.959,0.468,9.417,1.734,13.379c1.266,3.961,3.117,7.336,5.543,10.127
				c2.426,2.792,5.371,4.972,8.842,6.55c3.469,1.578,7.364,2.462,11.71,2.667c4.385,0.206,8.367-0.308,11.97-1.553
				c3.602-1.246,6.731-3.14,9.391-5.693c2.658-2.552,4.797-5.738,6.41-9.564C581.999,76.804,582.991,72.419,583.342,67.471z"/>
			<path fill="#FFFFFF" d="M670.742,58.754c-2.821,20.042-5.643,40.083-8.464,60.125c-3.033-0.427-4.551-0.634-7.586-1.042
				c-1.673-0.225-2.638-1.171-2.893-2.846c-0.08-2.292-0.119-3.438-0.203-5.73c-1.43,1.174-2.906,2.224-4.434,3.149
				c-1.528,0.927-3.122,1.687-4.778,2.281c-1.658,0.596-3.398,1.003-5.223,1.225c-1.825,0.222-3.748,0.219-5.772-0.013
				c-3.272-0.374-6.095-1.243-8.474-2.614c-2.381-1.371-4.318-3.148-5.819-5.335c-1.5-2.186-2.548-4.734-3.138-7.642
				c-0.59-2.908-0.725-6.06-0.395-9.458c1.246-12.817,2.486-25.636,3.735-38.453c5.291,0.514,7.936,0.785,13.224,1.355
				c-1.384,12.804-2.764,25.607-4.144,38.412c-0.438,4.064,0.162,7.321,1.785,9.775c1.623,2.454,4.335,3.895,8.145,4.342
				c2.788,0.328,5.464,0.002,8.041-0.978c2.576-0.979,5.074-2.452,7.496-4.419c1.901-14.64,3.801-29.28,5.706-43.919
				C662.83,57.656,665.47,58.013,670.742,58.754z"/>
			<path fill="#FFFFFF" d="M702.225,126.16c-4.915-0.863-8.461-2.898-10.66-6.138s-2.904-7.4-2.078-12.493
				c1.896-11.633,3.776-23.269,5.665-34.903c-2.718-0.441-4.077-0.657-6.797-1.083c-0.728-0.114-1.325-0.438-1.78-0.97
				c-0.456-0.532-0.616-1.25-0.477-2.152c0.316-2.048,0.475-3.07,0.79-5.118c4.12,0.058,6.183,0.095,10.309,0.187
				c2.276-6.746,3.422-10.117,5.73-16.855c0.316-0.631,0.76-1.112,1.323-1.441c0.564-0.329,1.261-0.424,2.088-0.286
				c2.729,0.458,4.094,0.69,6.822,1.162c-1.36,7.859-2.042,11.79-3.402,19.649c6.909,1.196,10.36,1.818,17.256,3.112
				c-0.681,3.628-1.02,5.442-1.7,9.07c-6.845-1.284-10.271-1.902-17.129-3.089c-1.961,11.32-3.921,22.64-5.88,33.96
				c-0.372,2.151-0.125,3.885,0.731,5.202c0.857,1.318,2.162,2.13,3.919,2.443c0.975,0.174,1.834,0.199,2.583,0.071
				c0.748-0.127,1.405-0.292,1.966-0.493c0.56-0.2,1.05-0.392,1.469-0.579c0.418-0.186,0.8-0.246,1.151-0.181
				c0.703,0.129,1.198,0.624,1.482,1.483c1.043,2.736,1.561,4.105,2.587,6.843c-2.266,1.349-4.795,2.241-7.594,2.676
				C707.799,126.675,705.011,126.649,702.225,126.16z"/>
			<path fill="#FFFFFF" d="M762.619,47.184c-6.114,28.723-12.222,57.447-18.334,86.17c-4.97-1.058-7.456-1.571-12.435-2.575
				c5.806-28.787,11.605-57.575,17.413-86.362C754.609,45.495,757.282,46.048,762.619,47.184z"/>
			<path fill="#FFFFFF" d="M781.234,111.63c-0.648,3.395-0.816,6.425-0.51,9.091c0.306,2.667,1.007,4.99,2.104,6.975
				c1.097,1.983,2.58,3.625,4.448,4.93c1.869,1.305,4.075,2.28,6.619,2.931c2.428,0.621,4.6,0.887,6.518,0.794
				c1.916-0.093,3.618-0.298,5.108-0.621c1.489-0.323,2.773-0.638,3.849-0.945c1.076-0.306,2.002-0.353,2.775-0.143
				c1.003,0.272,1.672,0.865,2.004,1.778c0.915,2.2,1.367,3.3,2.271,5.502c-1.936,1.317-3.98,2.32-6.141,3.007
				c-2.16,0.688-4.369,1.129-6.633,1.328c-2.263,0.197-4.525,0.177-6.789-0.065c-2.263-0.242-4.421-0.625-6.486-1.151
				c-4.053-1.033-7.639-2.65-10.776-4.867s-5.674-4.956-7.612-8.228c-1.939-3.272-3.189-7.044-3.741-11.326
				s-0.249-8.995,0.929-14.141c0.938-4.099,2.476-7.778,4.63-11.029c2.153-3.25,4.788-5.898,7.914-7.935
				c3.123-2.036,6.676-3.384,10.647-4.03c3.97-0.646,8.242-0.396,12.79,0.761c3.781,0.961,7.132,2.457,10.033,4.473
				c2.9,2.016,5.204,4.472,6.904,7.358c1.701,2.886,2.742,6.145,3.127,9.771c0.385,3.625-0.008,7.522-1.164,11.69
				c-0.53,1.912-1.102,3.134-1.711,3.665c-0.61,0.531-1.479,0.641-2.611,0.33C806.953,118.022,794.119,114.72,781.234,111.63z
				 M813.432,111.686c0.553-2.071,0.762-4.08,0.623-6.026c-0.139-1.947-0.626-3.74-1.469-5.378s-2.054-3.064-3.633-4.274
				c-1.579-1.209-3.529-2.111-5.846-2.701c-4.673-1.189-8.677-0.809-11.98,1.12c-3.305,1.929-5.869,5.151-7.703,9.649
				C793.457,106.488,803.462,109.021,813.432,111.686z"/>
			<path fill="#FFFFFF" d="M849.789,161.893c-4.802-1.492-8.088-3.967-9.877-7.466c-1.789-3.499-1.966-7.719-0.5-12.666
				c3.348-11.301,6.698-22.603,10.051-33.902c-2.659-0.788-3.99-1.178-6.652-1.951c-0.713-0.207-1.265-0.606-1.652-1.192
				c-0.389-0.587-0.458-1.318-0.205-2.196c0.573-1.991,0.859-2.987,1.433-4.978c4.106,0.588,6.161,0.891,10.27,1.514
				c3.123-6.4,4.691-9.597,7.845-15.984c0.395-0.585,0.896-1.005,1.5-1.259c0.605-0.253,1.313-0.257,2.123-0.013
				c2.669,0.806,4.002,1.211,6.668,2.033c-2.348,7.623-3.52,11.435-5.868,19.058c6.751,2.08,10.121,3.145,16.85,5.322
				c-1.136,3.512-1.704,5.268-2.841,8.779c-6.68-2.162-10.024-3.218-16.727-5.283c-3.382,10.979-6.766,21.958-10.148,32.937
				c-0.643,2.087-0.613,3.839,0.077,5.257c0.69,1.419,1.892,2.396,3.607,2.933c0.952,0.298,1.809,0.433,2.573,0.403
				c0.764-0.029,1.44-0.105,2.025-0.231c0.584-0.126,1.098-0.256,1.539-0.387c0.44-0.13,0.831-0.139,1.175-0.029
				c0.687,0.219,1.117,0.775,1.294,1.665c0.698,2.851,1.043,4.275,1.725,7.126c-2.434,1.045-5.073,1.602-7.926,1.671
				C855.293,163.125,852.512,162.739,849.789,161.893z"/>
		</g>
	</g>
</g>
</svg>
