<?xml version="1.0" encoding="utf-8"?>
<!-- Generator: Adobe Illustrator 22.1.0, SVG Export Plug-In . SVG Version: 6.00 Build 0)  -->
<svg version="1.1" id="Layer_1" xmlns="http://www.w3.org/2000/svg" xmlns:xlink="http://www.w3.org/1999/xlink" x="0px" y="0px"
	 viewBox="0 0 64 44" style="enable-background:new 0 0 64 44;" xml:space="preserve">
<style type="text/css">
	.st0{opacity:0.75;fill:#FFFFFF;}
</style>
<title>delivery_9</title>
<path class="st0" d="M63.7,20l-6-10c-0.4-0.6-1-1-1.7-1H42V2c0-1.1-0.9-2-2-2H2.5C1.1,0,0,1.1,0,2.5l0,0C0,3.9,1.1,5,2.5,5h10.4
	c1,0,1.9,0.7,2.1,1.7c0.2,1.1-0.5,2.1-1.6,2.3c-0.1,0-0.2,0-0.4,0H1.5C0.7,9,0,9.7,0,10.5l0,0C0,11.3,0.7,12,1.5,12h8
	c1,0,1.9,0.7,2.1,1.7c0.2,1.1-0.5,2.1-1.6,2.3c-0.1,0-0.2,0-0.3,0H1.5C0.7,16,0,16.7,0,17.5l0,0C0,18.3,0.7,19,1.5,19l0,0h6
	c1,0,1.9,0.7,2.1,1.7C9.8,21.7,9,22.8,7.9,23c-0.1,0-0.2,0-0.3,0H1.5C0.7,23,0,23.7,0,24.5l0,0C0,25.3,0.7,26,1.5,26h2.6
	c1,0,1.9,0.7,2.1,1.7c0.2,1.1-0.5,2.1-1.6,2.3c-0.1,0-0.2,0-0.3,0H2c-1.1,0-2,0.9-2,2v5c0,1.1,0.9,2,2,2h5.3c1.1,3.7,5,5.8,8.7,4.7
	c2.3-0.7,4-2.4,4.7-4.7h23.6c1.1,3.7,5,5.8,8.7,4.7c2.3-0.7,4-2.4,4.7-4.7H62c1.1,0,2-0.9,2-2V21C64,20.6,63.9,20.3,63.7,20z M14,40
	c-1.7,0-3-1.3-3-3s1.3-3,3-3s3,1.3,3,3S15.7,40,14,40z M51,40c-1.7,0-3-1.3-3-3s1.3-3,3-3s3,1.3,3,3S52.7,40,51,40z M42,21v-8h12.9
	l4.8,8H42z"/>
</svg>
