<?xml version="1.0" encoding="utf-8"?>
<!-- Generator: Adobe Illustrator 22.1.0, SVG Export Plug-In . SVG Version: 6.00 Build 0)  -->
<svg version="1.1"
	 id="Layer_1" xmlns:cc="http://creativecommons.org/ns#" xmlns:dc="http://purl.org/dc/elements/1.1/" xmlns:inkscape="http://www.inkscape.org/namespaces/inkscape" xmlns:rdf="http://www.w3.org/1999/02/22-rdf-syntax-ns#" xmlns:sodipodi="http://sodipodi.sourceforge.net/DTD/sodipodi-0.dtd" xmlns:svg="http://www.w3.org/2000/svg"
	 xmlns="http://www.w3.org/2000/svg" xmlns:xlink="http://www.w3.org/1999/xlink" x="0px" y="0px" viewBox="0 0 88 62"
	 style="enable-background:new 0 0 88 62;" xml:space="preserve">
<style type="text/css">
	.st0{opacity:0.75;}
	.st1{fill:#FFFFFF;}
</style>
<g transform="translate(0,-952.36218)" class="st0">
	<path class="st1" d="M4.6,952.4c-2.5,0-4.6,2-4.6,4.5v46c0,2.5,2.1,4.6,4.6,4.6h78.8c2.5,0,4.6-2.1,4.6-4.6v-46
		c0-2.5-2.1-4.5-4.6-4.5L4.6,952.4L4.6,952.4z M29.8,964c0.1,0,0.1,0,0.2,0c0.4,0,0.7,0.1,1,0.2l14,7l14,7c1,0.5,1.4,1.7,0.8,2.6
		c-0.2,0.3-0.5,0.5-0.8,0.7l-14,7l-14,7c-1,0.5-2.3,0.2-2.9-0.7c-0.2-0.3-0.3-0.6-0.3-1v-14v-14C27.9,964.9,28.7,964.1,29.8,964z"/>
	<path class="st1" d="M21.8,1010.4c-1.1,0.1-2,1-1.9,2.1s1,2,2.1,1.9H66c1.1,0,2-0.9,2-2c0-1.1-0.9-2-2-2c0,0,0,0-0.1,0H21.9
		C21.9,1010.4,21.8,1010.4,21.8,1010.4z"/>
</g>
</svg>
