<?xml version="1.0" encoding="utf-8"?>
<!-- Generator: Adobe Illustrator 22.1.0, SVG Export Plug-In . SVG Version: 6.00 Build 0)  -->
<svg version="1.1" id="Layer_1" xmlns="http://www.w3.org/2000/svg" xmlns:xlink="http://www.w3.org/1999/xlink" x="0px" y="0px"
	 viewBox="0 0 56.3 100" style="enable-background:new 0 0 56.3 100;" xml:space="preserve">
<style type="text/css">
	.st0{fill:none;}
	.st1{opacity:0.75;fill:#FFFFFF;}
</style>
<title>iphone</title>
<rect x="6.1" y="14.4" class="st0" width="44.1" height="65.5"/>
<path class="st1" d="M56.3,9.1c0.1-4.9-3.7-8.9-8.6-9.1c-0.2,0-0.3,0-0.5,0H9.3C3.7,0,0,3.7,0,9.3v40.6l0,0C0,63.6,0,77.3,0,91
	c-0.2,4.8,3.6,8.8,8.4,9c0.2,0,0.4,0,0.6,0c12.7,0,25.3,0,37.9,0c5.7,0,9.4-3.7,9.4-9.4C56.3,63.4,56.3,36.2,56.3,9.1z M28.2,95.5
	c-2.9,0-5.2-2.3-5.2-5.2s2.3-5.2,5.2-5.2c2.9,0,5.2,2.3,5.2,5.2c0,0,0,0,0,0C33.4,93.2,31,95.5,28.2,95.5z M50.2,79.9h-44V14.4h44
	V79.9L50.2,79.9z"/>
<circle class="st1" cx="28.2" cy="90.3" r="3.6"/>
</svg>
