<svg xmlns="http://www.w3.org/2000/svg" xmlns:xlink="http://www.w3.org/1999/xlink" xml:space="preserve" version="1.1" style="shape-rendering:geometricPrecision;text-rendering:geometricPrecision;image-rendering:optimizeQuality;" viewBox="0 0 0.943 1.0875" x="0px" y="0px" fill-rule="evenodd" fill-opacity="0.75" clip-rule="evenodd"><defs><style type="text/css">
   
    .fil0 {fill:white}
   
  </style></defs><g><path class="fil0" d="M0.563 0.688l0 0.182 0.144 0 0 -0.537 0 -0.152 -0.464 0 0 0.689 0.144 0 0 -0.182c0,-0.011 0.009,-0.021 0.021,-0.021l0.134 0c0.012,0 0.021,0.01 0.021,0.021zm0.289 -0.525l0.013 0.044 0.044 0c0.003,0 0.005,0.002 0.005,0.005 0,0.001 -0.001,0.003 -0.002,0.004l-0.036 0.027 0.014 0.044c0.001,0.002 -0.001,0.005 -0.003,0.006 -0.002,0.001 -0.004,0 -0.005,-0.001l-0.035 -0.027 -0.035 0.027c-0.003,0.002 -0.006,0.002 -0.008,-0.001 -0.001,-0.001 -0.001,-0.003 0,-0.004l0.013 -0.044 -0.035 -0.027c-0.003,-0.002 -0.003,-0.005 -0.001,-0.007 0.001,-0.002 0.002,-0.003 0.004,-0.002l0.043 0 0.014 -0.044c0.001,-0.003 0.004,-0.004 0.006,-0.004 0.002,0.001 0.003,0.002 0.004,0.004zm-0.744 0l0.013 0.044 0.044 0c0.002,0 0.005,0.002 0.005,0.005 0,0.001 -0.001,0.003 -0.002,0.004l-0.036 0.027 0.014 0.044c0.001,0.002 -0.001,0.005 -0.004,0.006 -0.001,0.001 -0.003,0 -0.004,-0.001l-0.035 -0.027 -0.035 0.027c-0.003,0.002 -0.006,0.002 -0.008,-0.001 -0.001,-0.001 -0.001,-0.003 0,-0.004l0.013 -0.044 -0.035 -0.027c-0.003,-0.002 -0.003,-0.005 -0.001,-0.007 0.001,-0.002 0.002,-0.003 0.004,-0.002l0.043 0 0.014 -0.044c0.001,-0.003 0.003,-0.004 0.006,-0.004 0.002,0.001 0.003,0.002 0.004,0.004zm0.372 -0.159l0.013 0.043 0.044 0c0.002,0 0.005,0.003 0.005,0.005 0,0.002 -0.001,0.004 -0.002,0.005l-0.036 0.027 0.014 0.043c0.001,0.003 -0.001,0.006 -0.003,0.007 -0.002,0 -0.004,0 -0.005,-0.001l-0.035 -0.027 -0.035 0.027c-0.003,0.002 -0.006,0.001 -0.008,-0.001 -0.001,-0.001 -0.001,-0.003 0,-0.005l0.013 -0.043 -0.035 -0.027c-0.003,-0.002 -0.003,-0.005 -0.001,-0.008 0.001,-0.001 0.002,-0.002 0.004,-0.002l0.043 0 0.014 -0.043c0.001,-0.003 0.004,-0.005 0.006,-0.004 0.002,0.001 0.003,0.002 0.004,0.004zm0.17 0l0.013 0.043 0.044 0c0.003,0 0.005,0.003 0.005,0.005 0,0.002 -0.001,0.004 -0.002,0.005l-0.035 0.027 0.013 0.043c0.001,0.003 0,0.006 -0.003,0.007 -0.002,0 -0.004,0 -0.005,-0.001l-0.035 -0.027 -0.035 0.027c-0.002,0.002 -0.006,0.001 -0.007,-0.001 -0.001,-0.001 -0.002,-0.003 -0.001,-0.005l0.013 -0.043 -0.035 -0.027c-0.002,-0.002 -0.003,-0.005 -0.001,-0.008 0.001,-0.001 0.003,-0.002 0.004,-0.002l0.044 0 0.013 -0.043c0.001,-0.003 0.004,-0.005 0.007,-0.004 0.001,0.001 0.002,0.002 0.003,0.004zm-0.341 0l0.014 0.043 0.043 0c0.003,0 0.006,0.003 0.006,0.005 0,0.002 -0.001,0.004 -0.002,0.005l-0.036 0.027 0.014 0.043c0.001,0.003 -0.001,0.006 -0.004,0.007 -0.001,0 -0.003,0 -0.005,-0.001l-0.035 -0.027 -0.035 0.027c-0.002,0.002 -0.005,0.001 -0.007,-0.001 -0.001,-0.001 -0.001,-0.003 -0.001,-0.005l0.014 -0.043 -0.036 -0.027c-0.002,-0.002 -0.002,-0.005 -0.001,-0.008 0.002,-0.001 0.003,-0.002 0.005,-0.002l0.043 0 0.014 -0.043c0,-0.003 0.003,-0.005 0.006,-0.004 0.002,0.001 0.003,0.002 0.003,0.004zm0.44 0.35l0 0.516 0.194 0 0 -0.516 -0.194 0zm0.131 0.401l-0.068 0 0 -0.068 0.068 0 0 0.068zm0 -0.135l-0.068 0 0 -0.067 0.068 0 0 0.067zm0 -0.135l-0.068 0 0 -0.067 0.068 0 0 0.067zm-0.685 0.385l0 -0.516 -0.195 0 0 0.516 0.195 0zm-0.064 -0.115l-0.067 0 0 -0.068 0.067 0 0 0.068zm0 -0.135l-0.067 0 0 -0.067 0.067 0 0 0.067zm0 -0.135l-0.067 0 0 -0.067 0.067 0 0 0.067zm0.391 0.385l0 -0.161 -0.094 0 0 0.161 0.094 0zm-0.013 -0.294l-0.068 0 0 -0.068 0.068 0 0 0.068zm0 -0.135l-0.068 0 0 -0.068 0.068 0 0 0.068zm0 -0.135l-0.068 0 0 -0.067 0.068 0 0 0.067zm0.135 0.27l-0.068 0 0 -0.068 0.068 0 0 0.068zm0 -0.135l-0.068 0 0 -0.068 0.068 0 0 0.068zm0 -0.135l-0.068 0 0 -0.067 0.068 0 0 0.067zm-0.27 0l-0.068 0 0 -0.067 0.068 0 0 0.067zm0 0.135l-0.068 0 0 -0.068 0.068 0 0 0.068zm0 0.135l-0.068 0 0 -0.068 0.068 0 0 0.068z"/></g></svg>