<svg xmlns="http://www.w3.org/2000/svg" viewBox="0 0 265 291"><defs><style>.cls-1{isolation:isolate;}.cls-2,.cls-3{fill:#6aa6d5;}.cls-3{mix-blend-mode:multiply;}.cls-4{fill:#f7e9d9;}.cls-5,.cls-8{fill:#99402d;}.cls-5{opacity:0.15;}.cls-6{fill:#c8e8e5;}.cls-7{fill:#fff;}.cls-9{fill:#f6a85a;}.cls-10{fill:none;}</style></defs><title>(15) Buyer Persona 4</title><g class="cls-1"><g id="Layer_1" data-name="Layer 1"><rect class="cls-2" x="-4.7" y="-20.12" width="283.96" height="315.92"/><path class="cls-3" d="M274.48,121V303.48h-284V136.41a153.88,153.88,0,0,0,284-15.39Z"/><path class="cls-4" d="M67.94,177.47c1.89-13,7.2-23.74,13.68-35C88.85,129.94,89,114.52,97,102.19a2.11,2.11,0,0,1,3.59.2,20.71,20.71,0,0,1,17.22-5.91,27.76,27.76,0,0,1,16,2c6.86.66,13.69,2.74,19.18,7,6,4.74,9,11.87,10.69,19.19,2,9.15,2.14,18.67,4.23,27.77,3.68,16,8.75,33.15,4.5,49.58-3.65,14.14-14.78,24.66-29.29,26.88-11,1.67-22.54.37-33.36-2.69-11.87,1-22.72-6-30.17-14.76A69.39,69.39,0,0,1,69.4,196.24C66.64,190.28,67,183.83,67.94,177.47Z"/><path class="cls-5" d="M107.36,168.1c1.31-3,2.68-5.39,3.42-8.75,1-4.54,1.61-9.78,5.32-12a2.21,2.21,0,0,1,1.16-.37,2.54,2.54,0,0,1,1.74,1.34c2,3,1.55,6.9,1.44,10.53A45.51,45.51,0,0,0,121.59,169c.87,4.77.14,9.17-3.6,11.17-3.2,1.72-7.39,1.94-9.85-1.69A11.11,11.11,0,0,1,107.36,168.1Z"/><path class="cls-4" d="M107.91,243q3.23-16.64,7.69-33c.74-2.72,3.52-4,6.09-4.11,3.48-.11,6.91-.49,10.32.27a5.16,5.16,0,0,1,3.16,2.48,3.09,3.09,0,0,1,2.05,2.53c1.41,11.38.63,23.15.92,34.61.09,3.3-3.17,5.31-6.07,5.41-6.26.21-12.54-.09-18.79-.43C109,250.53,107.18,246.71,107.91,243Z"/><path class="cls-6" d="M177,296.62c-1.76,3.83-5.27,6-9.3,7.18a114.23,114.23,0,0,1-19.56,3.73q-11.18.89-22.55.69c-4.27-.4-8.51-.92-12.7-1.62-20-3.31-39.35-9.23-58.12-16.67,14.72-24.38,32-52.27,61-57.81.33,7.31.44,19.16,9.53,19.16,4,0,6.69-3.22,7-7,.33-4.13,1.23-8.18,1.75-12.29,11,2.2,20.85,8.51,28.56,17,10.94,12,19.5,28.51,16.39,45A3.84,3.84,0,0,1,177,296.62Z"/><path class="cls-7" d="M149,157.8c-8.32,2.57-17.28-4.72-14.62-13.56a11.45,11.45,0,0,1,1-2.31c1,0,2.09.1,3.14.17,5.28.37,10.6,1.14,15.85,1a17.5,17.5,0,0,1,1.16,3.9C156.33,152,153.88,156.28,149,157.8Z"/><path class="cls-8" d="M139.2,143.79a1.09,1.09,0,0,1,.13-.17c.52-.62,2-1.43,2.47-.32a4.54,4.54,0,0,1,.16.75,1.6,1.6,0,0,0,1,1,2.09,2.09,0,0,0,2.31-.39,1.4,1.4,0,0,0,.32-1.31,2.91,2.91,0,0,0-.41-.73c-.23-.37-.52-1.51.25-1.5a1.06,1.06,0,0,1,.35.09c1.43.56,3.1,1,4.08,2.29a6.81,6.81,0,0,1,1.27,4.14,5.29,5.29,0,0,1-4.35,5,6.66,6.66,0,0,1-8.09-6.16,6.85,6.85,0,0,1,0-1.28A3.17,3.17,0,0,1,139.2,143.79Z"/><path class="cls-9" d="M140.07,123.22A21.27,21.27,0,0,1,149,126c2.51,1.51,4.2,3.85,6,6.1s-1.26,4.78-3.36,3.22a43.3,43.3,0,0,0-5.25-3.71c-2.29-1.2-4.7-1.12-7.18-1.58A3.43,3.43,0,0,1,140.07,123.22Z"/><path class="cls-7" d="M90.21,157.16c-9,1.53-13.5-8.78-10.15-15.64a99.53,99.53,0,0,0,17.86,1.38C99.55,148.41,96.69,156.06,90.21,157.16Z"/><path class="cls-8" d="M83,144.41a1.9,1.9,0,0,1,1.78-1.08.92.92,0,0,1,.85.75,1.65,1.65,0,0,0,1.06,1.61c1,.39,3-.21,2.73-1.53-.08-.44-1.52-2.15-.35-2.35a1.21,1.21,0,0,1,.59.1,11,11,0,0,1,3,1.36A4.49,4.49,0,0,1,94,144.66a7.16,7.16,0,0,1,.93,3.62,5.29,5.29,0,0,1-4.35,5c-4.23,1.05-8.26-2.63-8.07-6.87a4.48,4.48,0,0,1,.1-.81A3.93,3.93,0,0,1,83,144.41Z"/><path class="cls-9" d="M81.85,132.25c5.25-3.22,14-2.53,18,2.44,1.4,1.73-.2,4.93-2.57,3.9-4.52-2-7.83-2.79-12.54-.78A3.14,3.14,0,0,1,81.85,132.25Z"/><path class="cls-8" d="M143.39,193.15a37,37,0,0,1-4,6.78c-6.62,9.4-18.06,14.34-29.33,10.74-5.19-1.66-12.53-5.33-13.35-11.44a6.6,6.6,0,0,1,0-2c5.74-.05,11.49.59,17.22.28,6.62-.35,13.1-2,19.66-2.92C136.83,194.12,140.16,193.78,143.39,193.15Z"/><path class="cls-9" d="M76.08,74.16c4.34-3.87,11.85-4.82,16.69-1.25,2.16,1.59,2.49,2,4.91,2.59-.7-.19,1.73.17,2,.19a6.76,6.76,0,0,1,.73,0l.76-.13c1.22-.26,2.41-.55,3.6-.93.25-.1.85-.32,1.1-.43,2.18-1,4.34-2,6.48-3,10.48-5.19,20.85-9.62,32.73-6.87a30.35,30.35,0,0,1,3.44,1c2.86-1.38,5.42-3,8.66-3.58a31,31,0,0,1,12.25.34,45,45,0,0,1,18.3,9c6.57,5.24,12.48,11.85,14.38,20.29a27,27,0,0,1-5.9,24.13,50.24,50.24,0,0,1-8.3,7c-.25.19-1.2.92-2.07,1.62l.31.32a38.18,38.18,0,0,1,6.23,8.13c7.79,15-3.89,39-19.76,43.32-9.07,2.46-16.63-7.07-14-15.45.19-.61.42-1.21.65-1.8.48-1.78,1.19-3.48,1.69-5.32a42.77,42.77,0,0,0,1.31-9.42,46.06,46.06,0,0,0-.38-7.15,23.47,23.47,0,0,1-3.73-8.8,20.15,20.15,0,0,1,0-7,11.56,11.56,0,0,1-7.87-.26c-13.34-5.76-29.26-3-44.08-6.07-13.66-2.84-27.65-10.81-33.11-24.26C70.77,84.78,71.27,78.45,76.08,74.16Z"/><path class="cls-5" d="M159,72.09a4.82,4.82,0,0,1,9.46-.77c2,7.49,8.88,10.41,12.59,16.89,3.32,5.78,2.67,12.94-2.34,17.48-1.71,1.56-4.91.24-4.66-2.2.31-3,1.29-6.48.15-9.36-1.21-3-4.45-5.25-6.84-7.28C163,83.16,158.34,78.25,159,72.09Z"/><path class="cls-5" d="M97.25,84.8c3.89,1.06,7.23,2.86,11.36,3.09a31.17,31.17,0,0,0,9.87-1.34c7-1.87,13.64-4.74,21-5.06,12.46-.55,26.52,8.77,25.27,22.41-.39,4.24-6.72,3.92-6.67-.35.08-6.77-7.46-11.9-13.53-12.64-6.29-.77-12.75,2.16-18.52,4.25-10.92,4-24.61,6.22-34.15-2.16C87.69,89.36,92.84,83.6,97.25,84.8Z"/><path class="cls-9" d="M84.7,197.19a3.3,3.3,0,0,1-1-2.46c0-.47,0-.93.06-1.4a3.19,3.19,0,0,1,2.83-2.88c.13-.2.26-.42.38-.64a8.32,8.32,0,0,1,9.47-6,3.44,3.44,0,0,1,1.52-.08,112.52,112.52,0,0,0,20.13,1.44,3.45,3.45,0,0,1,2.07-.68,6.62,6.62,0,0,1,2.71.44c1-.25,2.06-.51,3.1-.8a2.3,2.3,0,0,1,2.18.39,2.45,2.45,0,0,1,2.09.79c2.46,2.47,8.72,5.34,4.83,9.87-2.54,3-5,1.39-7.34-.28-1.34,2.85-3.76,4.93-7.43,3.58a7.24,7.24,0,0,1-2.36-1.76,7.38,7.38,0,0,1-2.31,3.17c-1.56,1.33-4.45,1.1-5.34-1-.16-.38-.34-.74-.51-1.11-.15.22-.31.43-.47.63a3.76,3.76,0,0,1-4.15,1.42,5.44,5.44,0,0,1-3-2.66,5.6,5.6,0,0,1-.42.62A5.47,5.47,0,0,1,97.16,200a3.21,3.21,0,0,1-2.43-1.1,15.25,15.25,0,0,1-6.35,2.67c-1.87.39-4.15-1.15-3.87-3.24C84.56,197.91,84.64,197.55,84.7,197.19Z"/><path class="cls-10" d="M80.06,141.52a99.53,99.53,0,0,0,17.86,1.38"/><path class="cls-10" d="M135.33,141.93c1,0,2.09.1,3.14.17,5.28.37,10.6,1.14,15.85,1"/><path class="cls-5" d="M154.1,187.39c-1.8-3.06-6.24-2.84-9.27-2.66-1.28.08-1.29,2.08,0,2,2.91-.18,7.5-.64,7.87,3.36.23,2.42-.55,5.15-1.24,7.44a1,1,0,0,0,1.93.54C154.26,195.17,155.77,190.23,154.1,187.39Z"/></g></g></svg>