<svg xmlns="http://www.w3.org/2000/svg" xmlns:xlink="http://www.w3.org/1999/xlink" viewBox="0 0 265 291"><defs><style>.cls-1{fill:none;}.cls-2{isolation:isolate;}.cls-3,.cls-4{fill:#f48457;}.cls-4{mix-blend-mode:multiply;}.cls-5{fill:#f7e9d9;}.cls-6,.cls-9{fill:#99402d;}.cls-12,.cls-6{opacity:0.15;}.cls-7{fill:#c8e8e5;}.cls-8{fill:#fff;}.cls-10{fill:#f6a85a;}.cls-11{clip-path:url(#clip-path);}.cls-12{fill:#9db2d7;}</style><clipPath id="clip-path"><path class="cls-1" d="M184.94,301.33c-1.76,4.49-5.27,7-9.3,8.42a98.84,98.84,0,0,1-19.56,4.37,196.74,196.74,0,0,1-22.56.81c-4.26-.46-8.5-1.08-12.7-1.9-20-3.89-39.34-10.82-58.12-19.55,14.73-28.58,32-61.29,61-67.8.33,8.58.44,22.48,9.53,22.48,4,0,6.68-3.78,7-8.2.33-4.84,1.23-9.6,1.74-14.41,11,2.58,20.86,10,28.57,19.89,10.94,14.06,19.5,33.43,16.39,52.7A4.55,4.55,0,0,1,184.94,301.33Z"/></clipPath></defs><title>(13) Buyer Persona 2</title><g class="cls-2"><g id="Layer_1" data-name="Layer 1"><rect class="cls-3" x="-6.47" y="-20.12" width="283.96" height="315.92"/><path class="cls-4" d="M-2.87,263.76c8.23-12.81,23.1-19.62,33.65-30.6A58.1,58.1,0,0,0,46.71,197c.72-11.1-1.79-22.23-.92-33.31,1.59-20.14,15.27-38.84,34-46.46C95,111,112.4,111.83,127.19,104.77,147,95.33,158.3,72.85,158.83,51c.15-6.07-.41-12.2.63-18.18,2.13-12.25,10.74-22.44,20.48-30.16s20.84-13.57,30.7-21.15a109.79,109.79,0,0,0,37.46-53.4q8.86,4.28,17.69,8.59c4.57,2.23,9.28,4.59,12.48,8.54,5,6.2,5.23,14.85,5.22,22.82q-.15,180.93-.31,361.87c0,3.75-.16,7.89-2.74,10.61-1.93,2-4.8,2.8-7.52,3.48C212.65,359.07,148.77,374.11,89.32,356c-28.42-8.63-53.84-24.39-81.08-35.89-10.37-4.39-17-5.14-18.11-17.5C-11.09,289.54-10.16,275.11-2.87,263.76Z"/><path class="cls-5" d="M75.91,171C77.8,158,83.1,147.28,89.59,136c7.22-12.54,7.36-28,15.38-40.28a2.1,2.1,0,0,1,3.59.2A20.69,20.69,0,0,1,125.78,90a27.77,27.77,0,0,1,16,2c6.86.66,13.69,2.73,19.17,7,6.06,4.73,9,11.86,10.69,19.19,2.06,9.14,2.15,18.66,4.23,27.76,3.68,16,8.75,33.15,4.51,49.58-3.65,14.15-14.78,24.67-29.3,26.88-11,1.68-22.53.37-33.35-2.69-11.87,1-22.72-6-30.17-14.75a69.25,69.25,0,0,1-10.17-15.2C74.61,183.82,75,177.37,75.91,171Z"/><path class="cls-6" d="M116.43,163.14c.58-3.19,1.34-5.87,1.27-9.31-.09-4.65-.73-9.89,2.36-12.88a2.1,2.1,0,0,1,1-.63,2.52,2.52,0,0,1,2,.89c2.62,2.45,3.13,6.35,3.88,9.9a45.07,45.07,0,0,0,3.51,9.6c2,4.43,2.29,8.87-.87,11.7-2.71,2.42-6.73,3.62-10,.67A11.09,11.09,0,0,1,116.43,163.14Z"/><path class="cls-5" d="M115.87,236.51q3.24-16.62,7.7-33c.74-2.73,3.52-4,6.09-4.11,3.48-.12,6.9-.49,10.32.27a5.12,5.12,0,0,1,3.16,2.48,3.11,3.11,0,0,1,2.05,2.52c1.41,11.38.63,23.16.92,34.61.09,3.31-3.18,5.32-6.07,5.42-6.26.2-12.54-.09-18.79-.43C117,244.08,115.15,240.26,115.87,236.51Z"/><path class="cls-7" d="M184.94,300.17c-1.76,3.83-5.27,6-9.3,7.18a114.41,114.41,0,0,1-19.56,3.73c-7.46.58-15,.83-22.56.69-4.26-.4-8.5-.93-12.7-1.62A283.82,283.82,0,0,1,62.7,293.47c14.73-24.37,32-62.26,61-67.81.33,7.31.44,19.17,9.53,19.17,4,0,6.68-3.22,7-7,.33-4.13,1.23-8.19,1.74-12.29,11,2.2,20.86,8.5,28.57,17,10.94,12,19.5,38.51,16.39,54.94A3.87,3.87,0,0,1,184.94,300.17Z"/><path class="cls-8" d="M142.3,142.42c1.44-3.19,6.5-6.08,11.66-5.67a10.5,10.5,0,0,1,9.49,7.49c.85,3.38-1.6,6.25-6.53,7.28C148.59,153.24,139.64,148.35,142.3,142.42Z"/><path class="cls-9" d="M147.16,137.29a2.09,2.09,0,0,1,.14-.17c.52-.61,2-1.41,2.46-.32a3.88,3.88,0,0,1,.17.75,1.59,1.59,0,0,0,1,1,2.11,2.11,0,0,0,2.3-.39,1.34,1.34,0,0,0,.33-1.29,3.36,3.36,0,0,0-.41-.71c-.23-.37-.52-1.49.25-1.47a1.11,1.11,0,0,1,.35.08c1.43.55,3.1,1,4.08,2.26a6.62,6.62,0,0,1,1.27,4.06c0,2.51-1.95,4.33-4.35,4.91a6.66,6.66,0,0,1-8.1-6.05,7.58,7.58,0,0,1,0-1.26A3.29,3.29,0,0,1,147.16,137.29Z"/><path class="cls-10" d="M143.9,117.56a21.08,21.08,0,0,1,9.28-.45c2.88.55,5.28,2.17,7.75,3.66s.46,4.93-2.05,4.18a42.23,42.23,0,0,0-6.21-1.68c-2.56-.34-4.8.56-7.28,1A3.43,3.43,0,0,1,143.9,117.56Z"/><path class="cls-8" d="M106.84,133.27a9.2,9.2,0,0,1,2.38,9.82C107.91,151,94,153.28,89.8,145.2,84.57,135.05,99,126.08,106.84,133.27Z"/><path class="cls-9" d="M99.78,134.51a1.88,1.88,0,0,1,1.56,1.37.92.92,0,0,1-.46,1,1.65,1.65,0,0,0-1.21,1.49c-.08,1,1.1,2.76,2.29,2.14.39-.21,1.58-2.09,2.13-1a1.18,1.18,0,0,1,.08.59,10.86,10.86,0,0,1-.37,3.32,4.63,4.63,0,0,1-1,1.58,7.25,7.25,0,0,1-3.17,2,5.29,5.29,0,0,1-6.09-2.63c-2.28-3.72,0-8.67,4.11-9.77a5.24,5.24,0,0,1,.79-.15A4.11,4.11,0,0,1,99.78,134.51Z"/><path class="cls-10" d="M89.82,123.49c5.25-3.21,14-2.52,18,2.45,1.4,1.73-.2,4.92-2.58,3.89-4.51-2-7.82-2.78-12.53-.78A3.14,3.14,0,0,1,89.82,123.49Z"/><path class="cls-10" d="M84.05,67.7c4.33-3.87,11.85-4.81,16.68-1.25,2.17,1.6,2.49,2,4.92,2.6-.71-.2,1.73.17,2,.18h.73l.75-.12c1.22-.27,2.42-.56,3.61-.93.25-.1.85-.32,1.1-.44,2.18-1,4.34-2,6.48-3,10.48-5.18,20.84-9.61,32.73-6.87a33.27,33.27,0,0,1,3.44,1c2.86-1.37,5.41-3,8.66-3.57a31,31,0,0,1,12.25.34,45,45,0,0,1,18.3,9c6.57,5.25,12.48,11.86,14.37,20.3a27,27,0,0,1-5.89,24.13,50.66,50.66,0,0,1-8.3,7c-.25.18-1.2.92-2.07,1.61l.31.32a37.63,37.63,0,0,1,6.22,8.14c7.8,15-3.88,39-19.75,43.31-9.08,2.46-16.63-7.06-14-15.44.19-.62.41-1.21.65-1.81.47-1.77,1.19-3.48,1.69-5.32a42.69,42.69,0,0,0,1.31-9.42,47.19,47.19,0,0,0-.38-7.14,23.62,23.62,0,0,1-3.74-8.8,20.15,20.15,0,0,1,0-7,11.56,11.56,0,0,1-7.87-.27c-13.34-5.76-29.26-3-44.09-6.06C100.5,105.43,86.51,97.46,81.05,84,78.74,78.32,79.24,72,84.05,67.7Z"/><path class="cls-6" d="M167,65.63a4.81,4.81,0,0,1,9.45-.77c2,7.5,8.88,10.42,12.6,16.89,3.31,5.79,2.67,12.94-2.34,17.49-1.71,1.55-4.91.23-4.66-2.2.3-3,1.28-6.48.14-9.36-1.2-3.05-4.44-5.26-6.83-7.28C171,76.71,166.31,71.79,167,65.63Z"/><path class="cls-6" d="M105.21,78.35c3.9,1.06,7.24,2.86,11.37,3.09a31.36,31.36,0,0,0,9.86-1.34c7-1.87,13.65-4.75,20.95-5.07,12.46-.54,26.53,8.77,25.28,22.41-.39,4.25-6.73,3.92-6.67-.35.08-6.76-7.47-11.89-13.53-12.63-6.29-.77-12.75,2.15-18.52,4.24-10.92,4-24.62,6.22-34.15-2.16C95.65,82.9,100.81,77.15,105.21,78.35Z"/><path class="cls-9" d="M87.73,196.08c3.13,5,6.13,8.35,12.26,6.11,2.91-1.07,4.75-2.67,8-2.12,2.58.45,3.42,1.47,5.14,3.29,1.33,1.4,2.72,3,4.63,3.6,6.17,1.93,11.39-5,16.86-6.43,6.39-1.63,10.85,6.64,17.43,2,2.37-1.66,5.52-6.67,2.19-8.87-2.07-1.38-4.78-.92-7.23.23-5-3.07-10.5-6.06-15.72-3.84s-9.4,6.93-15.1,2c-2.14-1.86-3.66-3.38-6.71-3.08-3.45.34-5.68,2.9-8.54,4.54-3.64,2.09-7.13-.05-10.11-2.41-.48-.38-1.26-1.25-1.92-1.35C84.58,189.12,86.71,194.46,87.73,196.08Z"/><path class="cls-10" d="M92.67,190.73a3.28,3.28,0,0,1-1-2.45q0-.71.06-1.41A3.18,3.18,0,0,1,94.53,184c.13-.2.25-.41.37-.63a8.33,8.33,0,0,1,9.48-6,3.17,3.17,0,0,1,1.52-.08A112.44,112.44,0,0,0,126,178.68a3.43,3.43,0,0,1,2.06-.67,6.65,6.65,0,0,1,2.72.43c1-.24,2.06-.51,3.1-.8a2.3,2.3,0,0,1,2.17.39,2.5,2.5,0,0,1,2.1.79c2.45,2.48,8.72,5.34,4.82,9.88-2.53,3-5,1.38-7.33-.29-1.34,2.85-3.76,4.94-7.43,3.58a7.22,7.22,0,0,1-2.37-1.76,7.27,7.27,0,0,1-2.3,3.17c-1.56,1.34-4.45,1.11-5.35-1-.16-.37-.33-.73-.5-1.1-.15.21-.31.43-.47.62a3.78,3.78,0,0,1-4.15,1.43,5.44,5.44,0,0,1-3-2.66,4.67,4.67,0,0,1-.42.61,5.52,5.52,0,0,1-4.55,2.17,3.29,3.29,0,0,1-2.44-1.11,15.35,15.35,0,0,1-6.34,2.68c-1.87.39-4.16-1.16-3.87-3.25C92.53,191.45,92.6,191.09,92.67,190.73Z"/><path class="cls-6" d="M104.12,206.07c6.1-3.37,8.07,3,13.62,4.33,7.22,1.72,11.47-5.48,18.19-6.11,1.29-.12,1.28,1.88,0,2-5.65.53-9.08,6-14.86,6.36a12.86,12.86,0,0,1-5.49-.84c-3.22-1.26-6.51-6.19-10.45-4C104,208.42,103,206.7,104.12,206.07Z"/><g class="cls-11"><path class="cls-12" d="M78.21,255.24l5.59-10.56a1.29,1.29,0,0,1,.51-.61c.42-.17.83.26,1.12.66,2.67,3.79,4.48,8.29,6.42,12.64a192.46,192.46,0,0,0,9.28,18.23c2.15,3.71,4.44,7.38,5.91,11.52,1.59,4.52,2.17,9.47,3.87,13.93,1.77,4.67,4.79,8.9,5.08,14a76.88,76.88,0,0,1-17-5.16,8.08,8.08,0,0,1-1.9-1.06A9.77,9.77,0,0,1,95,306c-4.68-8.32-8.25-17.41-11.7-26.52A81.79,81.79,0,0,1,79.05,266a30.14,30.14,0,0,1,.31-14.2"/><path class="cls-12" d="M182.72,252.16a112,112,0,0,1,7.86,16.18c-5.46,8.92-8,19.79-10.1,30.49q-1.83,9.36-3.32,18.8c-4.4-2.11-10.45,5.24-14.14,2.12-2.7-2.29-.24-10.56.26-13.55a162.94,162.94,0,0,1,10.35-35.86C174.41,268.48,183,252.71,182.72,252.16Z"/></g><path class="cls-7" d="M78.49,245.66c-3.6-4-8.26-6.77-12.85-9.52A254,254,0,0,0,46,265.82a31,31,0,0,1,12.29,5.59l6.7-5.84q7.74,21.63,13.38,43.93c4-.94,17.61-1.11,20.08-4.17,3-3.69-2.88-14.44-4.27-18.47q-3.6-10.41-7.5-20.72C84.48,260.5,82.52,250.1,78.49,245.66Z"/><path class="cls-5" d="M57.26,234.58A257.58,257.58,0,0,1,37.75,209a8.35,8.35,0,0,0-2.24,10.43l-6.32-4.76A9,9,0,0,0,26.25,213a8.49,8.49,0,0,0-3.14-.11,63.25,63.25,0,0,0-15,3.35,4.59,4.59,0,0,0-1.79,1c-1.74,1.78.12,4.87-.7,7.21,6.93,1,13.24,4.57,18.72,8.91s10.3,9.46,15.57,14.06a29.43,29.43,0,0,0,8.19,5.47c3.89,1.55,13.62,2.24,16.27-2.24C67.26,245.69,60.06,237.81,57.26,234.58Z"/><path class="cls-7" d="M189.68,248c3.6-4,8.26-6.77,12.86-9.52a255.39,255.39,0,0,1,19.69,29.69,30.93,30.93,0,0,0-12.29,5.58l-6.71-5.84q-7.72,21.63-13.38,43.93c-4-.94-17.61-1.1-20.08-4.17-3-3.68,2.89-14.44,4.27-18.46q3.6-10.43,7.51-20.73C183.69,262.79,185.65,252.4,189.68,248Z"/><path class="cls-5" d="M217.91,236a256.82,256.82,0,0,0,31.32-7.43,8.35,8.35,0,0,1-4.88,9.49l7.9.33a9.21,9.21,0,0,1,3.35.55,8.9,8.9,0,0,1,2.5,1.91,63.38,63.38,0,0,1,9.47,12.1,4.69,4.69,0,0,1,.77,1.88c.22,2.48-3.18,3.69-4,6-6-3.67-13.13-4.87-20.12-5s-14,.79-21,1a29.66,29.66,0,0,1-9.81-1c-4-1.27-11.95-6.91-11.15-12.06C203.13,238.29,213.7,236.76,217.91,236Z"/><path class="cls-6" d="M152.2,155.76a10.26,10.26,0,0,1-7.39-3.31c-1.82-1.81-3.57-3.7-5.35-5.54-.89-.93-2.3.48-1.41,1.41,2.32,2.41,4.54,5.15,7.17,7.22,2.11,1.65,4.37,2.05,7,2.22C153.49,157.84,153.48,155.84,152.2,155.76Z"/><path class="cls-6" d="M110.41,145.39a22,22,0,0,1-17.09,8.27,1,1,0,0,0,0,2,24,24,0,0,0,18.5-8.85C112.63,145.82,111.22,144.39,110.41,145.39Z"/></g></g></svg>