<svg xmlns="http://www.w3.org/2000/svg" xmlns:xlink="http://www.w3.org/1999/xlink" viewBox="0 0 265 291"><defs><style>.cls-1{fill:none;}.cls-2{isolation:isolate;}.cls-3,.cls-4{fill:#ce506b;}.cls-4,.cls-6{mix-blend-mode:multiply;}.cls-5{clip-path:url(#clip-path);}.cls-10,.cls-6{fill:#f6a85a;}.cls-6{opacity:0.3;}.cls-7{fill:#f7e9d9;}.cls-11,.cls-8{fill:#99402d;}.cls-8{opacity:0.15;}.cls-9{fill:#c8e8e5;}</style><clipPath id="clip-path"><rect class="cls-1" x="-1273" width="1248" height="890.78"/></clipPath></defs><title>(12) Buyer Persona 1</title><g class="cls-2"><g id="Layer_1" data-name="Layer 1"><rect class="cls-3" x="-7.35" y="-20.12" width="283.96" height="315.92"/><path class="cls-4" d="M34.37,252c-10.58-21.42-12.31-46-12.57-69.91-.26-23.24.73-46.79,7.24-69.1s19-43.52,38.09-56.83c10-7,21.39-11.57,32.86-15.62,10.14-3.58,20.62-6.82,31.37-6.71,8.45.08,16.74,2.22,24.72,5,25.71,8.91,49.7,25.25,63.13,48.91,12,21.23,14.71,46.43,15.3,70.83s-.6,49.1,4.66,72.93c2.42,11,6.2,21.67,7.59,32.83s.07,23.23-6.75,32.16c-5.85,7.68-15.12,12.15-24.58,14.08s-19.2,1.57-28.84,1.2l-95.27-3.62c-11.62-.45-21.9-13.55-29.86-21.13C50.73,276.82,41,265.38,34.37,252Z"/><g class="cls-5"><path class="cls-6" d="M59.58,331.62c-6.83-16.83-22.44-22.44-38.78-23.37-19.64-14.08-39.18-24.93-64.47-23.73-24.35,1.16-48,13.62-60.35,35.05-23.15,40.17,5.3,101.14,56.8,83.11,11.49-4,20.47-12.55,31.48-17.4,11.89-5.24,23.2-4,35.81-4.55C44.67,379.73,70.54,358.66,59.58,331.62Z"/></g><path class="cls-7" d="M74.6,205.43c-2.1-13-.22-24.81,2.61-37.49,3.15-14.12-1.32-28.88,2.65-43a2.1,2.1,0,0,1,3.48-.88A20.77,20.77,0,0,1,98,113.23a27.85,27.85,0,0,1,15.83-2.88c6.75-1.43,13.89-1.48,20.4,1,7.19,2.71,12.17,8.63,15.93,15.13,4.69,8.11,7.62,17.17,12.33,25.23,8.29,14.2,18.24,29,19.09,46,.74,14.6-6.74,28-19.93,34.4-10,4.88-21.4,7.09-32.64,7.39-11,4.48-23.47,1.08-33.2-5.07A69.32,69.32,0,0,1,81.59,222.9C77.18,218,75.61,211.76,74.6,205.43Z"/><path class="cls-8" d="M109.42,184.71c.36-3.22,1-6,.65-9.37-.39-4.63-1.38-9.82,1.51-13a2.13,2.13,0,0,1,1-.7,2.52,2.52,0,0,1,2,.76c2.77,2.26,3.55,6.12,4.52,9.62a45.35,45.35,0,0,0,4.14,9.34c2.25,4.29,2.86,8.71-.11,11.74-2.54,2.6-6.47,4.05-9.91,1.32A11.12,11.12,0,0,1,109.42,184.71Z"/><path class="cls-7" d="M132.29,256c-1.26-11.22-2.07-22.47-2.5-33.75-.1-2.83,2.16-4.89,4.59-5.74,3.28-1.15,6.44-2.53,9.93-2.83a5.09,5.09,0,0,1,3.75,1.43,3.1,3.1,0,0,1,2.72,1.79c4.74,10.44,7.51,21.91,11.21,32.76,1.06,3.13-1.45,6-4.18,7-5.92,2.06-12,3.66-18.07,5.2C135.61,262.89,132.71,259.79,132.29,256Z"/><path class="cls-9" d="M214.22,286.6c-.54,4.17-3.24,7.27-6.73,9.63a114.09,114.09,0,0,1-17.55,9.39c-6.95,2.79-14,5.26-21.33,7.39-4.19.9-8.39,1.66-12.6,2.25a282.91,282.91,0,0,1-60.45,1.43c6.78-27.65,14.92-59.42,41-73.38,2.5,6.88,6.14,18.16,14.81,15.45,3.85-1.2,5.42-5.07,4.59-8.76-.92-4-1.27-8.18-2-12.25,11.16-1.19,22.44,1.89,32.32,7.66,14,8.18,27.12,21.39,29.06,38A3.86,3.86,0,0,1,214.22,286.6Z"/><path class="cls-10" d="M119.1,141.48a21,21,0,0,1,7.23-5.85c2.65-1.25,5.53-1.36,8.41-1.62,2.73-.23,3.28,3.71.82,4.58a41.78,41.78,0,0,0-6,2.31c-2.28,1.24-3.55,3.29-5.3,5.1A3.43,3.43,0,0,1,119.1,141.48Z"/><path class="cls-10" d="M75.81,148.91c5-3.63,13.73-3.65,18.15,1,1.54,1.61.2,4.93-2.25,4.1-4.66-1.59-8-2.15-12.56.23A3.13,3.13,0,0,1,75.81,148.91Z"/><path class="cls-11" d="M117.73,225.63c2.66,2.24,6-1.2,8.7-2.64a33.27,33.27,0,0,1,12-3.72c4.62-.49,9.92.9,14-1.88a6.69,6.69,0,0,0,2.31-8.91c-2-3.84-6.56-5.43-10.42-6.61-9.18-2.82-19.25-.23-24.85,7.91-2.58,3.75-5.54,9.93-3,14.38A5.57,5.57,0,0,0,117.73,225.63Z"/><path class="cls-10" d="M51.52,104.39c3-5,9.88-8.14,15.56-6.17,2.54.87,3,1.17,5.46,1-.73,0,1.7-.36,2-.44s.6-.19.7-.21l.69-.34c1.08-.62,2.14-1.25,3.16-2,.21-.17.71-.56.92-.74,1.79-1.57,3.55-3.17,5.28-4.82,8.46-8.07,17-15.4,29.19-16.32a30.75,30.75,0,0,1,3.59,0c2.32-2.16,4.27-4.48,7.19-6A31,31,0,0,1,137.07,65a45.13,45.13,0,0,1,20.16,3.15c7.84,3,15.44,7.58,19.78,15.08A27,27,0,0,1,178.58,108a50.83,50.83,0,0,1-5.82,9.18c-.19.25-.88,1.24-1.5,2.16l.39.21a38,38,0,0,1,8.37,5.91c11.91,12,7.94,38.39-5.92,47.23-7.93,5.06-18-1.77-18-10.54,0-.65,0-1.29.09-1.92-.08-1.84.1-3.68,0-5.58a42,42,0,0,0-1.56-9.38,47.29,47.29,0,0,0-2.49-6.71A23.56,23.56,0,0,1,146,131.3a20,20,0,0,1-2.11-6.65,11.55,11.55,0,0,1-7.59,2.1c-14.45-1.52-28.82,5.88-43.88,7.37-13.88,1.36-29.62-2.06-38.85-13.28C49.63,116.11,48.21,109.92,51.52,104.39Z"/><path class="cls-8" d="M130.06,77.66a4.82,4.82,0,0,1,8.79-3.56c4.17,6.55,11.58,7.29,17.06,12.36,4.89,4.54,6.41,11.56,3,17.39-1.17,2-4.62,1.69-5.11-.71-.59-2.93-.7-6.57-2.65-9s-5.81-3.69-8.7-4.9C137.18,87,131.26,83.74,130.06,77.66Z"/><path class="cls-8" d="M74.9,108.23c4-.15,7.76.57,11.77-.44a31.26,31.26,0,0,0,9-4.23c6.09-3.86,11.61-8.6,18.48-11.08,11.73-4.24,27.93.45,30.81,13.84.9,4.17-5.25,5.75-6.47,1.66-1.94-6.48-10.67-9.12-16.68-8-6.24,1.14-11.53,5.86-16.41,9.58-9.24,7-21.64,13.28-33.24,8.13C67.14,115.43,70.34,108.4,74.9,108.23Z"/><path class="cls-10" d="M96.48,219.24a3.31,3.31,0,0,1-1.72-2c-.13-.45-.25-.9-.36-1.36a3.17,3.17,0,0,1,1.84-3.59c.07-.23.12-.47.17-.72a8.32,8.32,0,0,1,7.24-8.58,3.29,3.29,0,0,1,1.43-.53,112,112,0,0,0,19.64-4.64,3.37,3.37,0,0,1,1.77-1.26,6.66,6.66,0,0,1,2.72-.4c.91-.54,1.81-1.1,2.72-1.69a2.3,2.3,0,0,1,2.19-.27,2.47,2.47,0,0,1,2.23.12c3.09,1.63,9.92,2.5,7.56,8-1.54,3.58-4.37,2.82-7.09,1.92-.42,3.12-2.11,5.83-6,5.63a7.12,7.12,0,0,1-2.78-1,7.23,7.23,0,0,1-1.26,3.71c-1.09,1.74-3.91,2.39-5.38.67-.27-.31-.55-.6-.82-.9-.08.25-.16.5-.26.74a3.76,3.76,0,0,1-3.54,2.59A5.49,5.49,0,0,1,113.1,214a3.91,3.91,0,0,1-.21.71,5.5,5.5,0,0,1-3.7,3.43,3.22,3.22,0,0,1-2.65-.33,15.37,15.37,0,0,1-5.26,4.45c-1.66.93-4.31.14-4.66-1.95C96.56,220,96.52,219.6,96.48,219.24Z"/><path class="cls-11" d="M122.15,153.21A166.08,166.08,0,0,1,143.29,146a1,1,0,0,1,1.13,1.53,1,1,0,0,1-.65.92c-5.56,2.24-11.39,3.63-17,5.72,2.67,1.29,5.57,1.9,8.42,2.86,3,1,5.72,2.88,8.92,3.28,1.28.16.82,2.11-.45,1.95l-.4-.07c1.18.43.74,2.36-.47,1.94A145,145,0,0,1,122,155.05,1,1,0,0,1,122.15,153.21Z"/><path class="cls-11" d="M79.77,177.14c3.78-5.08,8.49-9.36,12.48-14.26-1.15.06-2.31,0-3.56,0-2.25-.1-4.31.89-6.56.61-1-.12-.93-1.32-.26-1.77a1,1,0,0,1,.82-1.51l14-1.31a1,1,0,0,1,.92,1.46A139.84,139.84,0,0,1,82.4,179a1,1,0,0,1-1.59-.2A1.07,1.07,0,0,1,79.77,177.14Z"/></g></g></svg>