<svg xmlns="http://www.w3.org/2000/svg" viewBox="0 0 265 291"><defs><style>.cls-1{fill:#6aa6d5;}.cls-1,.cls-3{opacity:0.15;}.cls-2{fill:#f7e9d9;}.cls-3,.cls-6{fill:#99402d;}.cls-4{fill:#c8e8e5;}.cls-5{fill:#fff;}.cls-7{fill:#f6a85a;}</style></defs><title>(14) Buyer Persona 3</title><g id="Layer_1" data-name="Layer 1"><rect class="cls-1" x="-5.58" y="-20.12" width="283.96" height="315.92"/><path class="cls-2" d="M71.63,169.88c1.89-13,7.2-23.74,13.69-35,7.22-12.53,7.36-27.95,15.37-40.28a2.1,2.1,0,0,1,3.59.2,20.72,20.72,0,0,1,17.22-5.92,27.77,27.77,0,0,1,16,2c6.87.66,13.7,2.74,19.18,7,6,4.74,9,11.87,10.69,19.19,2,9.15,2.14,18.67,4.23,27.77,3.68,16,8.75,33.14,4.5,49.57-3.65,14.15-14.77,24.67-29.29,26.88-11,1.68-22.54.38-33.36-2.68-11.87,1-22.72-6-30.17-14.76a69.39,69.39,0,0,1-10.16-15.19C70.34,182.69,70.71,176.24,71.63,169.88Z"/><path class="cls-3" d="M111.05,160.51c1.31-3,2.68-5.4,3.43-8.75,1-4.54,1.61-9.78,5.32-12a2.07,2.07,0,0,1,1.15-.37,2.5,2.5,0,0,1,1.74,1.34c2,3,1.55,6.9,1.44,10.53a45.52,45.52,0,0,0,1.16,10.15c.87,4.77.14,9.16-3.6,11.17-3.2,1.72-7.39,1.93-9.86-1.69A11.14,11.14,0,0,1,111.05,160.51Z"/><path class="cls-2" d="M111.6,235.38q3.23-16.63,7.69-33c.74-2.72,3.52-4,6.09-4.11,3.48-.11,6.91-.49,10.32.27a5.1,5.1,0,0,1,3.16,2.48,3.1,3.1,0,0,1,2.06,2.52c1.4,11.39.62,23.16.92,34.62.08,3.3-3.18,5.31-6.08,5.41-6.26.21-12.54-.09-18.79-.43C112.72,242.94,110.87,239.12,111.6,235.38Z"/><path class="cls-4" d="M180.66,289c-1.76,3.83-5.27,6-9.29,7.18a114.41,114.41,0,0,1-19.56,3.73c-7.46.58-15,.83-22.56.69-4.27-.4-8.51-.93-12.7-1.62-20-3.32-11.62,2.22-30.39-5.23,14.72-24.37,4.25-63.71,33.26-69.25.34,7.31.45,19.16,9.53,19.16,4,0,6.69-3.22,7-7,.34-4.13,1.23-8.18,1.75-12.29,11,2.2,20.85,8.51,28.56,17,10.94,12,19.5,28.51,16.39,44.94A3.81,3.81,0,0,1,180.66,289Z"/><path class="cls-5" d="M138,138.2c1.43-2.09,6.49-4,11.66-3.72,5.36.28,8.65,2.75,9.48,4.92s-1.6,4.1-6.53,4.77C144.32,145.3,135.36,142.09,138,138.2Z"/><path class="cls-6" d="M142.89,136.44l.13-.17c.53-.62,2-1.43,2.47-.32a5.86,5.86,0,0,1,.17.75,1.55,1.55,0,0,0,1,1.05,2.08,2.08,0,0,0,2.3-.39,1.35,1.35,0,0,0,.32-1.31,2.91,2.91,0,0,0-.41-.73c-.23-.37-.52-1.51.25-1.5a1.06,1.06,0,0,1,.35.09c1.44.56,3.11,1,4.08,2.3a6.7,6.7,0,0,1,1.27,4.13,5.29,5.29,0,0,1-4.35,5,6.66,6.66,0,0,1-8.09-6.15,6.93,6.93,0,0,1,0-1.29A3.17,3.17,0,0,1,142.89,136.44Z"/><path class="cls-5" d="M87.7,135.26a19.45,19.45,0,0,1,10.07.3c7.12,1.61,5.09,7.77-3.87,8.44C82.65,144.84,78.47,137.58,87.7,135.26Z"/><path class="cls-6" d="M86.73,137.06A1.9,1.9,0,0,1,88.51,136a.91.91,0,0,1,.85.75,1.65,1.65,0,0,0,1.06,1.61c1,.39,3-.21,2.73-1.53-.08-.44-1.52-2.15-.34-2.35a1.21,1.21,0,0,1,.59.1,11.29,11.29,0,0,1,3,1.36,4.9,4.9,0,0,1,1.21,1.39,7.25,7.25,0,0,1,.92,3.62,5.29,5.29,0,0,1-4.35,5c-4.23,1-8.26-2.63-8.07-6.87a5.3,5.3,0,0,1,.1-.8A3.89,3.89,0,0,1,86.73,137.06Z"/><path class="cls-6" d="M107.21,198.8c2.76.92,6.47-.44,9.39-1a85.38,85.38,0,0,1,13-1.42c5-.16,10.55.43,15-.66,3.32-.8,4.5-2.23,2.81-3.55-2-1.55-6.78-2.21-10.86-2.71-9.68-1.19-20.53-.22-26.83,3-2.89,1.48-6.29,3.93-3.72,5.73A4.62,4.62,0,0,0,107.21,198.8Z"/><path class="cls-7" d="M79.77,66.56c4.34-3.86,11.86-4.81,16.69-1.24,2.16,1.59,2.49,2,4.92,2.59-.71-.19,1.73.17,2,.18h.73l.76-.12c1.22-.27,2.42-.56,3.61-.93l1.1-.43c2.18-1,4.33-2,6.47-3,10.49-5.18,20.85-9.61,32.73-6.86a29.14,29.14,0,0,1,3.45,1c2.85-1.38,5.41-3,8.65-3.58a31,31,0,0,1,12.26.34,44.93,44.93,0,0,1,18.29,9c6.58,5.24,12.48,11.85,14.38,20.29A27,27,0,0,1,200,108a50.59,50.59,0,0,1-8.29,7c-.26.18-1.21.92-2.08,1.61l.31.32a37.92,37.92,0,0,1,6.23,8.14c7.8,15-3.88,39-19.75,43.31-9.08,2.47-16.64-7.06-14.05-15.44.19-.62.42-1.21.66-1.81.47-1.77,1.19-3.48,1.68-5.31a42.27,42.27,0,0,0,1.31-9.42,46.06,46.06,0,0,0-.38-7.15,23.47,23.47,0,0,1-3.73-8.8,20.15,20.15,0,0,1,0-7,11.53,11.53,0,0,1-7.86-.26c-13.34-5.77-29.27-3-44.09-6.07-13.65-2.84-27.65-10.81-33.11-24.27C74.47,77.18,75,70.85,79.77,66.56Z"/><path class="cls-3" d="M162.71,64.49a4.81,4.81,0,0,1,9.45-.76c2,7.49,8.88,10.41,12.59,16.88,3.32,5.79,2.67,13-2.34,17.49-1.71,1.55-4.91.24-4.66-2.2.31-3,1.29-6.48.15-9.36-1.21-3-4.45-5.26-6.84-7.28C166.7,75.57,162,70.66,162.71,64.49Z"/><path class="cls-3" d="M100.94,77.21c3.9,1.06,7.23,2.86,11.37,3.09A31.15,31.15,0,0,0,122.17,79c7-1.87,13.65-4.74,21-5.06,12.46-.55,26.52,8.76,25.27,22.41-.39,4.24-6.72,3.91-6.67-.35.09-6.77-7.46-11.9-13.53-12.64-6.29-.77-12.75,2.15-18.52,4.24-10.91,4-24.61,6.23-34.15-2.15C91.38,81.76,96.53,76,100.94,77.21Z"/><path class="cls-7" d="M101.08,188.47a2.45,2.45,0,0,1-.78-1.85c0-.35,0-.71,0-1.06a2.38,2.38,0,0,1,2.13-2.17,5.5,5.5,0,0,0,.28-.48,6.29,6.29,0,0,1,7.15-4.55,2.54,2.54,0,0,1,1.15-.06,85,85,0,0,0,15.17,1.09,2.54,2.54,0,0,1,1.56-.51,5.11,5.11,0,0,1,2,.32q1.16-.27,2.34-.6a1.75,1.75,0,0,1,1.64.29,1.88,1.88,0,0,1,1.58.6c1.85,1.87,6.57,4,3.64,7.45-1.92,2.22-3.78,1-5.54-.22-1,2.15-2.83,3.73-5.6,2.7a5.32,5.32,0,0,1-1.78-1.33,5.48,5.48,0,0,1-1.74,2.39,2.62,2.62,0,0,1-4-.73c-.12-.28-.25-.55-.38-.83-.12.16-.23.32-.36.47a2.85,2.85,0,0,1-3.13,1.08,4.12,4.12,0,0,1-2.26-2,3.13,3.13,0,0,1-.32.46,4.12,4.12,0,0,1-3.43,1.64,2.43,2.43,0,0,1-1.83-.84,11.55,11.55,0,0,1-4.79,2,2.42,2.42,0,0,1-2.92-2.45C101,189,101,188.74,101.08,188.47Z"/><path class="cls-7" d="M103.41,126.14c-5.08-2.52-12-.57-17,1.13a1,1,0,0,0-.59.52h-.08a1,1,0,0,0-.6,1.43c-.52,1,0,2.18,2,3.11,4.27,2,10.87-.21,15-1.54C104.68,130,106.73,127.79,103.41,126.14Z"/><path class="cls-7" d="M161.23,130.36c-2.19-3.79-7.95-3.56-11.8-3.69-1.23,0-3.18-.38-5.05-.41-2.81-.21-5.71,0-7.11,1.91a1,1,0,0,0,0,1,1,1,0,0,0,.08.14,1.73,1.73,0,0,0-.15.47c-1,5.53,20.56,2.26,23.17,2.08A1,1,0,0,0,161.23,130.36Z"/><path class="cls-3" d="M132.75,199.07l-7.25.76c-1.27.14-1.28,2.14,0,2l7.25-.76C134,200.93,134,198.93,132.75,199.07Z"/><path class="cls-1" d="M83.12,243c-1.47-3.39-3.93-6.24-6.32-9.06q-9.54-11.32-18.19-23.35C54,204.11,49.42,197.26,48,189.45c-1.31-7,0-14.2,1.71-21.09A158.23,158.23,0,0,1,59,141.67c4.55-10,10.29-20.07,9.89-31-.26-7.09-3.09-13.8-4.44-20.76a51,51,0,0,1,9.56-40.37c2.86-3.7,6.37-7.09,10.76-8.72,7.06-2.64,15.08-.24,21.59,3.57s12.15,9,18.76,12.63c14.44,7.91,31.88,7.61,48.27,6,10.45-1,21.42-2.38,31.11,1.67,10.71,4.48,18,15.12,20.71,26.4s1.5,23.16-.94,34.51C216,164.31,194.22,200,191.89,239.47c-.88,14.94,1.09,29.87,2.29,44.79,1,12.18,1,25.78-7.14,34.91-6.6,7.41-16.95,10-26.66,12-13.83,2.94-27.88,5.66-42,4.86-16.26-.92-43.53-9.08-45.27-28.77C71.29,286.65,91.65,262.55,83.12,243Z"/></g></svg>