<svg xmlns="http://www.w3.org/2000/svg" viewBox="0 0 200 200"><defs><style>.cls-1{fill:#b3b3b3;}.cls-2{fill:#fff;}.cls-3{fill:#f48b76;}.cls-4{fill:#b14e6c;}</style></defs><title>(16) Seller Pic Opt 2</title><g id="Layer_1" data-name="Layer 1"><rect class="cls-1" width="200" height="200"/><path class="cls-2" d="M152.07,151.6c-1-.85-1.93-1.85-2.89-2.84-4.46-12.89-11-24.84-18.58-36.18-5.42-8.14-11.23-19.54-20.82-23.35a3.21,3.21,0,0,1-1.29-.75,3,3,0,0,1-.47-1.91c0-2.54-.92-6.86-.09-9.23.89-2.54,2.79-2.78,5.11-4.53,6.72-5,9.22-14.15,10.71-22,1.6-8.46,1.52-17-1.62-25.13C113.18,2.51,81.73-1.39,71.5,23,65.74,36.71,67,54.58,76.17,66.52A26.31,26.31,0,0,0,81.69,72c1.78,1.28,4.83,2,5.56,4.25a9.62,9.62,0,0,1,.19,3.63c-.36,4.61-.71,7.14-4.57,9.34-4.06,2.3-7.38,4.2-10.33,8-3.83,3.21-6.22,7.75-8.46,12.21a99.05,99.05,0,0,0-6.22,15.17c-1.07,3.47-1.84,7.08-2.6,10.7q-3,8.32-5.76,16.75c-2.93,1.68-5.27,5.47-6.62,8.09s.1,6.95,3.46,7.3C60.21,168.81,61.5,152,65.18,143.07c.09-.23.18-.45.28-.68,1.78-4.07,3.72-8,5.25-12.23.27-.74.52-1.48.78-2.23-.7,3.25-1.44,6.5-2.23,9.78a113.17,113.17,0,0,0-2.53,14c-.44,4.21-1.2,10,1,13.85,1.62,2.86,5.05,4.4,8.3,5.24-2,25.1-3.92,50.21-5.39,75.35,0,.17,0,.33,0,.5a39.06,39.06,0,0,0-3.23,3.75,9.64,9.64,0,0,0-1.75,8.77c2.71,8.17,13.26,4.84,17.73.36,5.13-5.15,6.94-12.17,7.07-19.26q.06-3.28,0-6.59c3-18.63,5.82-37.28,8.86-55.9,1.27,8.36,2.69,16.72,3.74,25.11,1,7.9,1.91,15.81,2.7,23.73,0,.57,0,1.15,0,1.72.11,5-.37,10.71,1.58,15.46,2.24,5.46,9.46,9.35,14.37,12.35,4.3,2.62,12,.11,10-6.18a37.36,37.36,0,0,0-4-8.85c-1.5-2.32-3.22-4.89-5.51-6.54.71-22.09,1-44.23,0-66.31,4.27-1.73,6.45-5,5.82-9.88-1.18-9-2.33-18-3.51-27,1.1,1.44,2.18,2.9,3.2,4.41,4.43,6.53,7.26,14,11.91,20.32,3.18,4.33,14.42,15.59,17.74,5C158.73,156.63,155,154.08,152.07,151.6Z"/><path class="cls-3" d="M92.9,135.73c.14,3.81-2.57,5.66-4.12,7s-2.35,2.07-2.06,3.68a8.52,8.52,0,0,1-.47,4.93c-.25.83,1.87,3,2.91,4.2s3.46,6.8-.32,9.85-11.29,2.7-14.85-2.3-6.18-10.42-4.67-18.87,6.18-14.67,14.92-15.35C90.35,128.49,92.78,132.76,92.9,135.73Z"/><path class="cls-4" d="M109.37,128.83h-.27a10.05,10.05,0,0,0-1.72.19.5.5,0,0,0,.1,1h.09a9.4,9.4,0,0,1,1.8-.17.5.5,0,0,0,0-1Zm-5.22,1.79a.5.5,0,0,0-.33.12l-.06.06h0l0,0h-.77v0h0l0,0h0c-.13.17-.25.35-.36.52a.51.51,0,0,0,.42.77.51.51,0,0,0,.43-.23,6,6,0,0,1,1.1-1.31.49.49,0,0,0-.33-.87Zm-2.23,4.93h0a.5.5,0,0,0-.5.5,6.68,6.68,0,0,0,.29,2,.5.5,0,0,0,.48.35l.15,0a.51.51,0,0,0,.33-.63,5.4,5.4,0,0,1-.25-1.67.5.5,0,0,0-.5-.5Zm2.33,4.9a.51.51,0,0,0-.37.15.5.5,0,0,0,0,.71l.24.22h0c.42.38.84.71,1.2,1h0l0,0a.51.51,0,0,0,.32.12.53.53,0,0,0,.39-.18.51.51,0,0,0-.07-.71l-.32-.26c-.38-.31-.77-.63-1.15-1a.5.5,0,0,0-.34-.13Zm3.91,4.81h0a.49.49,0,0,0-.49.5v0h0v0h0c0,.1,0,.2,0,.31h0v0h0v0h-.05v0h0v0h0a10.74,10.74,0,0,0-.12,1.11.5.5,0,0,0,.48.52h0a.5.5,0,0,0,.5-.48,9.94,9.94,0,0,1,.14-1.22,4.83,4.83,0,0,0,.08-.82.51.51,0,0,0-.5-.49Zm.39,6a.51.51,0,0,0-.49.39,5.13,5.13,0,0,1-1,1.69.5.5,0,1,0,.78.63,5.78,5.78,0,0,0,1.24-2.09.5.5,0,0,0-.38-.6l-.11,0ZM105,156.21a.5.5,0,0,0-.45.27c-.13.25-.26.54-.38.84h0a7.8,7.8,0,0,0-.32.93.49.49,0,0,0,.34.62.32.32,0,0,0,.14,0,.51.51,0,0,0,.48-.36,9.58,9.58,0,0,1,.66-1.68.49.49,0,0,0-.22-.67.46.46,0,0,0-.22-.06Zm-.93,5.48H104a.49.49,0,0,0-.38.59,5.56,5.56,0,0,0,.53,1.46h.11l.12.2a.51.51,0,0,0,.42.23.46.46,0,0,0,.27-.09.5.5,0,0,0,.15-.69,4.27,4.27,0,0,1-.63-1.5.49.49,0,0,0-.48-.39Zm3.58,3.89a.49.49,0,0,0-.46.31.51.51,0,0,0,.27.65l.17.07h.24a10.13,10.13,0,0,0,1.51.41h.09a.49.49,0,0,0,.49-.4.51.51,0,0,0-.39-.59,9.06,9.06,0,0,1-1.72-.51.48.48,0,0,0-.2,0Zm7.49.17a.41.41,0,0,0-.16,0,10.49,10.49,0,0,1-1.78.42.51.51,0,0,0-.42.57.51.51,0,0,0,.5.43h.07a11.28,11.28,0,0,0,1.26-.26h.27l.42-.13a.5.5,0,0,0,.31-.64.49.49,0,0,0-.47-.34Zm4.6-3.22a.53.53,0,0,0-.4.19,8,8,0,0,1-1.23,1.3.51.51,0,0,0,0,.71.52.52,0,0,0,.38.17.49.49,0,0,0,.32-.12c.18-.15.34-.3.51-.46h0v0h0v0h.51v0h0l0,0h0l0,0h0l.23-.3a.49.49,0,0,0-.39-.8Zm3.08-5a.49.49,0,0,0-.45.28c-.27.55-.57,1.13-.91,1.7a.51.51,0,0,0,.19.68.45.45,0,0,0,.25.07.5.5,0,0,0,.43-.25c.18-.31.35-.62.52-.93h0l0,0h0v0h0v0h0l0,0h0l0,0h.19v0h0v0h0v0h0v0h0l0,0h0v0h0v0a.49.49,0,0,0-.23-.66.44.44,0,0,0-.22-.05Zm1.81-5.56a.5.5,0,0,0-.49.42c-.11.62-.25,1.25-.42,1.85a.51.51,0,0,0,.35.62l.14,0a.5.5,0,0,0,.48-.37l0-.11h0v0h0v0h0v0h0v0h0l.06-.22h0v0h0v0h0v0h0v0h0v0h0v0h0c.07-.33.14-.67.2-1a.51.51,0,0,0-.41-.58Zm.19-5.84h0a.49.49,0,0,0-.45.54c.06.65.09,1.3.1,1.92a.49.49,0,0,0,.5.49h0a.5.5,0,0,0,.49-.5c0-.28,0-.57,0-.86h0v0h0v0h0v0h0c0-.33-.05-.66-.08-1a.49.49,0,0,0-.5-.45Zm-1.15-5.77-.16,0a.51.51,0,0,0-.32.63q.28.9.51,1.86a.49.49,0,0,0,.48.38h.12a.5.5,0,0,0,.37-.6l0-.13h0v0h0v0h0v0h0v0h0v0h0v0h0v0h0v0h0v0h0v0h0v0h0v0h0v0h0v0h0v-.05h0c-.1-.38-.21-.76-.33-1.13a.5.5,0,0,0-.47-.35Zm-2.51-5.27a.47.47,0,0,0-.28.09.5.5,0,0,0-.13.7,16,16,0,0,1,1,1.61.5.5,0,0,0,.44.27.46.46,0,0,0,.23-.06.5.5,0,0,0,.21-.68l-.48-.85h0l0,0h0v0h-.2v0h0l0,0h0v0h0v0h0v0h0l0,0h0v0h0v0h0l0,0h0v0h0v0h0l0,0h-.08a.49.49,0,0,0-.41-.22Zm-4.12-4a.5.5,0,0,0-.27.92,13.31,13.31,0,0,1,1.49,1.1.52.52,0,0,0,.33.12.5.5,0,0,0,.32-.88,13.67,13.67,0,0,0-1.61-1.19h0a.48.48,0,0,0-.26-.07Zm-5.41-2a.5.5,0,0,0-.08,1,14.81,14.81,0,0,1,1.83.42l.14,0a.49.49,0,0,0,.48-.36.5.5,0,0,0-.33-.62c-.56-.16-1.13-.3-1.73-.41h-.31Z"/></g></svg>