<svg id="Layer_1" data-name="Layer 1" xmlns="http://www.w3.org/2000/svg" viewBox="0 0 100 100"><defs><style>.cls-1{fill:#6aa6d5;opacity:0.3;}.cls-2,.cls-4,.cls-5{fill:#99402d;}.cls-2{opacity:0.6;}.cls-3{fill:#f7e9d9;}.cls-4{opacity:0.45;}.cls-5{opacity:0.15;}.cls-6{fill:#ce506b;}.cls-7{fill:#f6a85a;}</style></defs><title> Artboard 1</title><path class="cls-1" d="M84.47,28.65C79.8,19.35,70,14.31,60,13.47a37.27,37.27,0,0,0-14.86,1.81C36.42,15.32,28,20.11,22.54,27,15.42,35.9,15.63,45.8,20.11,55.8c2.64,5.88,2.36,9,.17,15.08-1.65,4.54-2.74,9.55-1.08,14.27,3.69,10.45,15.53,9.62,23.91,6.53,3-1.12,5.81-2.34,9.11-2.14,2.75.17,5.38.82,8.15.49a17,17,0,0,0,11.34-6.8,24.59,24.59,0,0,0,4.8-13c.46-5.77.78-9.14,4-14C86.36,47.48,89.54,38.75,84.47,28.65Z"/><path class="cls-1" d="M84.75,69.19A7.54,7.54,0,0,0,82.14,68a3.62,3.62,0,0,0-.48-.31c-2.82-1.46-5.81-.82-8.44.6a40.57,40.57,0,0,0-10.6,5.33c-3.33,2.59-2.71,6-2.69,9.12,0,3-.75,6.52,2.55,8.92,2.85,2.08,7.42,2.68,11.49,1.94,11.22-2,13.23-9.4,13-15.76C86.86,75.13,87.71,71.41,84.75,69.19Z"/><path class="cls-2" d="M54.29,70.49q-.95-4.86-2.25-9.63a1.79,1.79,0,0,0-1.78-1.2,11.66,11.66,0,0,0-3,.07,1.54,1.54,0,0,0-.93.73.93.93,0,0,0-.6.74c-.41,3.32-.18,6.76-.26,10.11a1.69,1.69,0,0,0,1.77,1.58c1.83.06,3.67,0,5.49-.12A1.76,1.76,0,0,0,54.29,70.49Z"/><path class="cls-3" d="M61,40.38a4.89,4.89,0,0,1-1.53-3.63,17.16,17.16,0,0,0-1.11-5.09c-1.27-3-3.89-4.65-6.76-4.3a8.13,8.13,0,0,0-4.67.58,10.59,10.59,0,0,0-5.6,2,9.44,9.44,0,0,0-3.13,5.61c-.57,2.56-.73,5.2-1.18,7.78-.32,1.77-1.13,3.59-1.39,5.4a1.9,1.9,0,0,0-.24.67c-.33,2.29-.6,4.87.49,6.88,0,.2.11.4.17.61,2.45,7.57,10.59,9.12,16.87,7.52a15.62,15.62,0,0,0,11.81-14.9A13.06,13.06,0,0,0,61,40.38Z"/><path class="cls-4" d="M61,40.38a4.89,4.89,0,0,1-1.53-3.63,17.16,17.16,0,0,0-1.11-5.09c-1.27-3-3.89-4.65-6.76-4.3a8.13,8.13,0,0,0-4.67.58,10.59,10.59,0,0,0-5.6,2,9.44,9.44,0,0,0-3.13,5.61c-.57,2.56-.73,5.2-1.18,7.78-.32,1.77-1.13,3.59-1.39,5.4a1.9,1.9,0,0,0-.24.67c-.33,2.29-.6,4.87.49,6.88,0,.2.11.4.17.61,2.45,7.57,10.59,9.12,16.87,7.52a15.62,15.62,0,0,0,11.81-14.9A13.06,13.06,0,0,0,61,40.38Z"/><path class="cls-5" d="M61,40.38a4.89,4.89,0,0,1-1.53-3.63,17.16,17.16,0,0,0-1.11-5.09c-1.27-3-3.89-4.65-6.76-4.3a8.21,8.21,0,0,0-2.71,0A41.59,41.59,0,0,1,50.46,38,39.72,39.72,0,0,0,50.85,45a53,53,0,0,0,1.94,5.42c1.53,4.59,1,9.57-.57,14.17l.68-.15a15.62,15.62,0,0,0,11.81-14.9A13.06,13.06,0,0,0,61,40.38Z"/><path class="cls-6" d="M69.32,45.31c-.59-2.43-1.75-4.65-2.42-7-.74-2.64-.57-5.41-1.31-8a12.24,12.24,0,0,0-6.91-8,10.7,10.7,0,0,0-5.54-.71c-2.39.33-4.47,2.22-7,1.46a1,1,0,0,0-.75.05,7,7,0,0,0-.89-.18c-5-.72-11.5,2.16-14.77,6-3.84,4.51-3.52,12.09-3.36,17.64S28,58.15,34.49,58.94a1.69,1.69,0,0,0,1.77-2.53c-3.3-5.84.55-13.61,5.47-17.31C44.57,37,48,36.22,50,33.31a1.3,1.3,0,0,0,1-.88,7.41,7.41,0,0,0,.35-1.3A4.58,4.58,0,0,1,58,33.89c.78,2.49.73,4.74,2.37,6.9,1.92,2.51,3.43,4.7,3.74,8a18,18,0,0,1-1.86,9.33.4.4,0,0,0,.48.55,7.12,7.12,0,0,0,3.76-2.17.28.28,0,0,0,.13-.11,1.49,1.49,0,0,0,.15-.2,1.63,1.63,0,0,0,.72-.56C69.92,52.53,70.21,49,69.32,45.31Z"/><path class="cls-7" d="M71.27,86.59C66.63,79,61.45,69.12,52,67.32c-.1,2.14-.13,5.6-2.79,5.6a2.08,2.08,0,0,1-2-2c-.1-1.21-.36-2.39-.51-3.59a15.57,15.57,0,0,0-8.35,4.95c-3.2,3.51-5.7,8.34-4.79,13.14a1.1,1.1,0,0,0,.58.79,4.06,4.06,0,0,0,2.71,2.1A50.36,50.36,0,0,0,47,89.77,175.26,175.26,0,0,0,67.85,90a1.8,1.8,0,0,0,.78-.2,3.86,3.86,0,0,0,.49.06h.46C71.28,89.94,72.07,87.88,71.27,86.59Z"/></svg>