<svg id="Layer_1" data-name="Layer 1" xmlns="http://www.w3.org/2000/svg" viewBox="0 0 100 100"><defs><style>.cls-1,.cls-5{fill:#6aa6d5;}.cls-1{opacity:0.3;}.cls-2{fill:#f27783;}.cls-3{fill:#f7e9d9;}.cls-4{fill:#f6a85a;}.cls-6{fill:#ce506b;}</style></defs><title> Artboard 3</title><path class="cls-1" d="M84.06,23.05c-2.92-3.69-7.13-6.68-11.26-5.67-4.13-.42-8.07,1.7-11,4.92-3.45,3.72-7.32,10-5.93,15.26,1.78,6.68,8.92,8.53,15,7.33,2.92-.57,5.65.49,8.56-.21a10.82,10.82,0,0,0,6.83-4.84C89.59,34.39,87.83,27.82,84.06,23.05Z"/><path class="cls-1" d="M63.6,24.71C59.66,18,52.35,14.3,45.31,11.66,39.53,9.5,35,9.92,31.14,12.57a18.55,18.55,0,0,0-8.41,3.87C16.3,21.63,14.66,30.6,12.36,38.1,10.13,45.4,10,55,19.2,57.32c4.26,1.08,7.55-.56,11.52-1.86s8.41-1,12.6-1.25c7.07-.5,14.52-2.59,19.24-8.24C67.66,39.86,67.53,31.41,63.6,24.71Z"/><path class="cls-1" d="M68.24,48.88C63.65,50,59.64,52.67,56,55.57c-.46.38-.94.75-1.42,1.13a5.14,5.14,0,0,0-3.39-.25c-1.76.43-3.74.09-5.64.59a55.87,55.87,0,0,0-6.94,2.41c-4,1.65-8.29,3.35-11.74,6.06-6.7,5.26-9.7,15.75-2.85,22.3,7.28,7,15.49,2.46,23-.77,4-1.74,7.38-.64,11.55-.19a25.65,25.65,0,0,0,13.61-2.12A25.16,25.16,0,0,0,86.84,62.27C87.07,51.82,77.85,46.57,68.24,48.88Z"/><path class="cls-2" d="M46.51,28.76c-2.07-1-5.93,0-7.56-1.22-1.36-1-1.43-4.67-2.79-6.18A8.89,8.89,0,0,0,34.6,20a5.8,5.8,0,0,0-.68-.82,4.83,4.83,0,0,0-3.61-1.4,1.54,1.54,0,0,0-1.47-.45c-11,2-9.46,17-4.29,23.9C30.82,49.67,45,50.62,49.67,40,51.42,36,50.7,30.86,46.51,28.76Z"/><path class="cls-2" d="M72.47,54.67c-4.7-.56-8.24,3.06-8.56,7.59C63.53,67.82,67,74.42,70,79.07a1.77,1.77,0,0,0,2.76,1.42c2-1.39,2-3.13,2.68-5.3,1.09-3.37,3.15-6.36,3.73-9.9C80,60.47,77.81,55.29,72.47,54.67Z"/><path class="cls-3" d="M74.43,64.22a3.12,3.12,0,0,0-1.06-2.77,3.4,3.4,0,0,0-5.23,3.09,2.71,2.71,0,0,0,2,2.37,7,7,0,0,0,1.28.24,2.74,2.74,0,0,0,1.92-.35,2.54,2.54,0,0,0,1-1.25A2.4,2.4,0,0,0,74.43,64.22Z"/><path class="cls-3" d="M43.43,42.45a13,13,0,0,1-8.57,1.93.52.52,0,0,0-.22,1,12.55,12.55,0,0,0,9.7-1.57C45.25,43.27,44.33,41.88,43.43,42.45Z"/><path class="cls-3" d="M45.54,40.14a3.41,3.41,0,0,0-.6,1.09c-.2.7.77,1.11,1.22.62a3.17,3.17,0,0,0,.58-1A.7.7,0,0,0,45.54,40.14Z"/><path class="cls-3" d="M24.91,22.2a8.3,8.3,0,0,0-2.34,7.22c.16,1,1.72.95,1.6-.09a9.64,9.64,0,0,1,1.59-6.55C26.09,22.24,25.31,21.83,24.91,22.2Z"/><path class="cls-3" d="M24.08,31.5h0a.67.67,0,0,0-1.08.36c0,.22,0,.45-.06.67a.75.75,0,0,0,1.16.58,2.66,2.66,0,0,1,.45-.29C25.2,32.44,24.75,31.51,24.08,31.5Z"/><path class="cls-4" d="M26.91,46.73a5.28,5.28,0,0,0-1.22,3.81c.09.68,1.24.9,1.33.1A10.53,10.53,0,0,1,27.2,49a8.68,8.68,0,0,1,.62-1.63A.55.55,0,0,0,26.91,46.73Z"/><path class="cls-4" d="M29.87,57c-.3-.52-.78-.91-1.09-1.44a8.66,8.66,0,0,1-.69-1.7.53.53,0,0,0-1,.19,5.17,5.17,0,0,0,.44,2.12A4.13,4.13,0,0,0,28.7,58,.78.78,0,0,0,29.87,57Z"/><path class="cls-4" d="M38,63.23c-.9-.54-2-.83-2.87-1.36a11.54,11.54,0,0,0-2.54-1.5.54.54,0,0,0-.62.68,5.35,5.35,0,0,0,2.26,2.18,8.55,8.55,0,0,0,3.22,1.5A.81.81,0,0,0,38,63.23Z"/><path class="cls-4" d="M47.7,66.22c-2,.08-3.69-.53-5.62-.79-.49-.07-.91.54-.47.91C43.25,67.72,45.73,68,47.8,68,48.94,68,48.86,66.18,47.7,66.22Z"/><path class="cls-4" d="M58.9,68.64A5.79,5.79,0,0,0,56,67.53a8.35,8.35,0,0,0-3.07-.06A.6.6,0,0,0,53,68.62c.89.14,1.79.18,2.67.4s1.69.75,2.58.88A.74.74,0,0,0,58.9,68.64Z"/><path class="cls-4" d="M65.75,74.89c-1-1.29-2.17-2.89-3.74-3.45-.51-.19-.79.47-.59.85a11.22,11.22,0,0,0,1.41,1.76,18.67,18.67,0,0,1,1.37,1.84C64.85,76.88,66.46,75.83,65.75,74.89Z"/><path class="cls-4" d="M76.85,79.06c-.9-.5-1.57.85-.72,1.39,2,1.23-.52,3.28-1.39,3.8a6.3,6.3,0,0,1-2.88.78c-2.43.08-7.61-1.39-4-5.08a.53.53,0,0,0-.68-.79c-1.56,1.1-2.9,3.11-1.64,5s4.38,2.39,6.38,2.33a7.17,7.17,0,0,0,5.63-2.79C78.7,82,78.71,80.07,76.85,79.06Z"/><path class="cls-4" d="M80.33,77.09a.82.82,0,0,0-.76,1.45c6.22,3.81,1.67,9.75-3.72,11-4,.93-17.73-.55-12-8.24.39-.52-.32-1.19-.76-.69-7.18,8.19,7,11.94,13.19,10.55,3.37-.76,7.15-2.67,8-6.32A6.77,6.77,0,0,0,80.33,77.09Z"/><path class="cls-5" d="M38.32,19.3a11.22,11.22,0,0,0-5.89,3.22c-.39.45.15,1.27.67.87a10,10,0,0,1,5.45-2.45A.83.83,0,1,0,38.32,19.3Z"/><path class="cls-6" d="M39.34,21.79a17.52,17.52,0,0,0-5.94,2.76.69.69,0,0,0,.7,1.19,23.54,23.54,0,0,1,5.7-2.32C40.85,23.17,40.39,21.5,39.34,21.79Z"/></svg>