<svg id="Layer_1" data-name="Layer 1" xmlns="http://www.w3.org/2000/svg" viewBox="0 0 100 100"><defs><style>.cls-1,.cls-5{fill:#6aa6d5;}.cls-1{opacity:0.3;}.cls-2{fill:#f27783;}.cls-3{fill:#f7e9d9;}.cls-4{fill:#99402d;opacity:0.15;}.cls-6{fill:#ce506b;}</style></defs><title> Artboard 4</title><path class="cls-1" d="M82.74,56.45c-4.19-1.45-10.6.62-9.79,6,0,.24.07.48.09.71a30.54,30.54,0,0,1-2.5,3.68c-2.48,3.06-6.31,4.59-9.39,7-3.59,2.79-5.6,7.39-2.9,11.47,2.51,3.79,7.12,4.35,11.44,4.55,8.63.38,17.94-3.38,20.88-11.66C93.07,71.11,91.07,59.33,82.74,56.45Z"/><path class="cls-2" d="M58.93,31.73c-4.71-.48-7.77,3.46-9.84,7.11-.66,1.15-1.55,3.26-2.84,3.87-1.06.51-2.58,0-3.68-.12-2.07-.31-4.24-.42-6.11.67A5.36,5.36,0,0,0,34.13,46,7.84,7.84,0,0,0,32.59,51c.11,4.12,3.16,7.81,6.74,9.58,8,4,19.76,0,24.42-7.36a18,18,0,0,0,2.53-12.14C65.7,37.11,63.43,32.18,58.93,31.73Z"/><path class="cls-3" d="M42.47,58.5c-3.71-.88-5.81-3.91-7.74-7a.3.3,0,0,0-.53.3c1.76,3.41,3.93,6.88,7.94,7.77C42.86,59.76,43.2,58.67,42.47,58.5Z"/><path class="cls-3" d="M46.94,59.68c-.4-.11-.83-.09-1.24-.18s-.8-.31-1.15-.19c-.13,0-.27.19-.21.35.14.43.65.59,1,.74a3.25,3.25,0,0,0,1.4.31C47.33,60.66,47.56,59.86,46.94,59.68Z"/><path class="cls-3" d="M61.15,35c-3.13-2.17-7.3-.33-8.83,2.84-.18.37.34.7.55.33,1.75-3.12,4.82-3.47,7.87-2.23C61.31,36.18,61.61,35.33,61.15,35Z"/><path class="cls-3" d="M62.53,36.17c-.35-.2-.81.21-.59.57s.5.71.73,1.07a8.15,8.15,0,0,0,.68,1.08c.35.4.9,0,.84-.47A3.66,3.66,0,0,0,62.53,36.17Z"/><path class="cls-3" d="M78.54,29.93c-1.81-1.52-3.58-3.11-5.39-4.62C68.59,21.49,62.62,19.54,56.82,22a17.67,17.67,0,0,0-4.38,1.83l-2,.7c-2.68.9-5.33,2-8.21,1.78-.68-.06-1.05,1-.39,1.33a9,9,0,0,0,5.67.21c-2.07,2.18-4.28,5.2-4.17,8a1,1,0,0,0,1.71.73c2.23-2,3.42-5,5.69-7.08.33-.3.68-.59,1-.87a11.57,11.57,0,0,0-1.59,2.77,28,28,0,0,0-2.07,4c-.52,1.22,1.28,1.7,1.95.83,2.9-3.77,6.39-9.31,12-7.06,4.28,1.72,7,6.13,7.48,10.58S68.45,48.14,66.34,52c-1.87,3.39-3.43,7-2.11,10.86a2.07,2.07,0,0,0,3,1.29c.78-.39,1.3.25,1.7-1,.12-.39-.17-1-.1-1.39A6.22,6.22,0,0,1,69.62,60c2.69-4.79,8.68-10.64,14.15-11.79,1.42-.3,2.88-.31,4.31-.53,1.86-.28,4.58-1,3.87-3.43a2.26,2.26,0,0,0,.19-2.07c-.77-1.72-1.71-4.39-3.25-5.54s-3.85-1.83-5.55-3A57.13,57.13,0,0,1,78.54,29.93Z"/><path class="cls-4" d="M78.54,29.93c-1.81-1.52-3.58-3.11-5.39-4.62C68.59,21.49,62.62,19.54,56.82,22a17.67,17.67,0,0,0-4.38,1.83l-2,.7c-2.68.9-5.33,2-8.21,1.78-.68-.06-1.05,1-.39,1.33a9,9,0,0,0,5.67.21c-2.07,2.18-4.28,5.2-4.17,8a1,1,0,0,0,1.71.73c2.23-2,3.42-5,5.69-7.08.33-.3.68-.59,1-.87a11.57,11.57,0,0,0-1.59,2.77,28,28,0,0,0-2.07,4c-.52,1.22,1.28,1.7,1.95.83,2.9-3.77,6.39-9.31,12-7.06,4.28,1.72,7,6.13,7.48,10.58S68.45,48.14,66.34,52c-1.87,3.39-3.43,7-2.11,10.86a2.07,2.07,0,0,0,3,1.29c.78-.39,1.3.25,1.7-1,.12-.39-.17-1-.1-1.39A6.22,6.22,0,0,1,69.62,60c2.69-4.79,8.68-10.64,14.15-11.79,1.42-.3,2.88-.31,4.31-.53,1.86-.28,4.58-1,3.87-3.43a2.26,2.26,0,0,0,.19-2.07c-.77-1.72-1.71-4.39-3.25-5.54s-3.85-1.83-5.55-3A57.13,57.13,0,0,1,78.54,29.93Z"/><path class="cls-4" d="M66,28.33c-6.56-6.21-13,.23-17.5,6.06-.15.33-.3.66-.44,1-.52,1.22,1.28,1.7,1.95.83,2.9-3.77,6.39-9.31,12-7.06,4.28,1.72,7,6.13,7.48,10.58S68.45,48.14,66.34,52c-1.87,3.39-3.43,7-2.11,10.86a2.25,2.25,0,0,0,.67,1,45.45,45.45,0,0,1,9.64-18.56C73.31,39,70.76,32.82,66,28.33Z"/><path class="cls-3" d="M46.55,28c.48-.46,1-.9,1.49-1.31a2.34,2.34,0,0,1,1.49-.55,29.38,29.38,0,0,1,2.76-2.29l-1.87.65c-2.68.9-5.33,2-8.21,1.78-.68-.06-1.05,1-.39,1.33A8.08,8.08,0,0,0,46.55,28Z"/><path class="cls-3" d="M31.7,84.6C33.49,78.2,39.09,74,45.27,72.23c3.06-.88,6.07-.58,9.16-1a2.76,2.76,0,0,0,2.41-1.57A10.14,10.14,0,0,0,52,65.34c-3-1.21-6-.54-9-1.08a14.34,14.34,0,0,1-7.41-3.72c-3.47-3.29-5.88-8.37-4.81-13.21a9,9,0,0,1,3.65-5.61c2.16-1.42,4.31-1.17,6.72-1a1.16,1.16,0,0,0,.63-2.13c-3.91-2.63-9.56-.19-12.22,3.12a12.44,12.44,0,0,0-2.31,4.5,6.94,6.94,0,0,1,.41-2.28c.07-.19.15-.37.23-.55s.14-.32.22-.47c2-3.55,5.86-6.57,10-6.48,2.12,0,2.23-3.27.09-3.3a13.67,13.67,0,0,0-8.09,2.65,19.89,19.89,0,0,0,.5-4,.72.72,0,0,0-1.4-.21c-1.49,3.91-3.3,7.7-4.77,11.61-1.74,4.61-1.95,9.56-3.12,14.29-1.53,6.17,3.46,12,2.06,18a14.73,14.73,0,0,1-1.51,3.57,4.38,4.38,0,0,0-.73,2.26c.08,1.46,1.94,2.18,3,2.74a10.66,10.66,0,0,0,4.54.87c-.07,1.29,1.68,2.25,2.41.88.16-.3.34-.6.51-.88C31.65,84.82,31.67,84.71,31.7,84.6Z"/><path class="cls-4" d="M31.7,84.6C33.49,78.2,39.09,74,45.27,72.23c3.06-.88,6.07-.58,9.16-1a2.76,2.76,0,0,0,2.41-1.57A10.14,10.14,0,0,0,52,65.34c-3-1.21-6-.54-9-1.08a14.34,14.34,0,0,1-7.41-3.72c-3.47-3.29-5.88-8.37-4.81-13.21a9,9,0,0,1,3.65-5.61c2.16-1.42,4.31-1.17,6.72-1a1.16,1.16,0,0,0,.63-2.13c-3.91-2.63-9.56-.19-12.22,3.12a12.44,12.44,0,0,0-2.31,4.5,6.94,6.94,0,0,1,.41-2.28c.07-.19.15-.37.23-.55s.14-.32.22-.47c2-3.55,5.86-6.57,10-6.48,2.12,0,2.23-3.27.09-3.3a13.67,13.67,0,0,0-8.09,2.65,19.89,19.89,0,0,0,.5-4,.72.72,0,0,0-1.4-.21c-1.49,3.91-3.3,7.7-4.77,11.61-1.74,4.61-1.95,9.56-3.12,14.29-1.53,6.17,3.46,12,2.06,18a14.73,14.73,0,0,1-1.51,3.57,4.38,4.38,0,0,0-.73,2.26c.08,1.46,1.94,2.18,3,2.74a10.66,10.66,0,0,0,4.54.87c-.07,1.29,1.68,2.25,2.41.88.16-.3.34-.6.51-.88C31.65,84.82,31.67,84.71,31.7,84.6Z"/><path class="cls-3" d="M30.16,35.75a19.89,19.89,0,0,0,.5-4,.64.64,0,0,0-.14-.45,84.11,84.11,0,0,0-1.81,10.62c2.11-3.13,5.64-5.62,9.45-5.54,2.12,0,2.23-3.27.09-3.3A13.67,13.67,0,0,0,30.16,35.75Z"/><path class="cls-4" d="M30.84,66.17A21.52,21.52,0,0,1,44,66.23c3.25.91,8,2.58,11.58,1.63A10.21,10.21,0,0,0,52,65.34c-3-1.21-6-.54-9-1.08a14.34,14.34,0,0,1-7.41-3.72c-3.47-3.29-5.88-8.37-4.81-13.21a9,9,0,0,1,3.65-5.61c2.16-1.42,4.31-1.17,6.72-1a1.16,1.16,0,0,0,.63-2.13c-3.91-2.63-9.56-.19-12.22,3.12a11,11,0,0,0-1,1.41,59.09,59.09,0,0,0,0,10.13c.35,3.76,1.42,7.34,2,11C30.69,64.9,30.77,65.54,30.84,66.17Z"/><path class="cls-5" d="M65.75,47.59a7.28,7.28,0,0,0-2-.57,6.3,6.3,0,0,1-1.7-.8c-1.13-.76-2.09-1.61-3.53-1.58a1.2,1.2,0,0,0-.65,2.21c1.24.76,2.07,2,3.27,2.81s3.09,1.48,4.55.82A1.67,1.67,0,0,0,65.75,47.59Z"/><path class="cls-6" d="M66,41.74c-.88-.24-1.77-.68-2.62-1A10.23,10.23,0,0,0,60.07,40a1.27,1.27,0,0,0-.94,2.13c1.21,1.25,3.15,1.91,4.72,2.6a5.45,5.45,0,0,0,2.3.73,2.1,2.1,0,0,0,2.07-2A1.77,1.77,0,0,0,66,41.74Z"/><path class="cls-4" d="M46.55,28c.48-.46,1-.9,1.49-1.31a2.34,2.34,0,0,1,1.49-.55,29.38,29.38,0,0,1,2.76-2.29l-1.87.65c-2.68.9-5.33,2-8.21,1.78-.68-.06-1.05,1-.39,1.33A8.08,8.08,0,0,0,46.55,28Z"/><path class="cls-4" d="M30.16,35.75a19.89,19.89,0,0,0,.5-4,.64.64,0,0,0-.14-.45,84.11,84.11,0,0,0-1.81,10.62c2.11-3.13,5.64-5.62,9.45-5.54,2.12,0,2.23-3.27.09-3.3A13.67,13.67,0,0,0,30.16,35.75Z"/><path class="cls-1" d="M54,16c-.24-4.51-4.84-6.71-8.83-7-5.17-.44-10.77.45-15.93.87-4.6.38-9.07.88-12.55,4.23s-4.56,8.1-4.6,12.66a82.47,82.47,0,0,0,.12,8.66l-.36.84c-1.42,3.21.38,5.79,2.95,6.87a3.11,3.11,0,0,0,3.83.43A5.44,5.44,0,0,0,22.81,40c1.71-4.3,3.08-11.39,6.84-14.4S40.38,23.83,45,23.16C49,22.59,54.31,21,54,16Z"/><path class="cls-1" d="M57,73.93a7.83,7.83,0,0,0-7.21,2.37,6.37,6.37,0,0,0-3.56,5.38,8.35,8.35,0,0,0,3.08,6.84c4.23,3.68,11.39,3.21,14.07-2.1A8.74,8.74,0,0,0,57,73.93Z"/></svg>