<svg id="Layer_1" data-name="Layer 1" xmlns="http://www.w3.org/2000/svg" viewBox="0 0 100 100"><defs><style>.cls-1,.cls-4{fill:#6aa6d5;}.cls-1{opacity:0.3;}.cls-2{fill:#f27783;}.cls-3{fill:#f7e9d9;}.cls-5{fill:#ce506b;}</style></defs><title> Artboard 2</title><path class="cls-1" d="M54.25,67.07A12.29,12.29,0,0,0,52.14,69c-10.68,4.8-9.55,24.91,5.27,23.43a66,66,0,0,0,21.94-6.35C85.08,83.18,92,77,91.91,70,91.64,52.24,62.21,61.42,54.25,67.07Z"/><path class="cls-1" d="M79.43,25.43c-8.2-18.43-39-18.65-56.5-7.71A26.75,26.75,0,0,0,20,19.82c-5.23,3.19-9,7.4-9.57,12.11-.51,3.89,1.26,7.22,2.88,10.76A3.72,3.72,0,0,0,13.87,44c1.67,4.19-.54,8.44,2.07,12.47,5.42,8.36,18.66,7.71,28.24,4.52A85,85,0,0,1,62,56.8C67.5,56.15,73,55.49,76.86,52,83.87,45.66,82.66,32.7,79.43,25.43Z"/><path class="cls-2" d="M86,43.52a30.92,30.92,0,0,0-31.84-16.8C44.88,27.19,35.56,34,38,44.26a11.19,11.19,0,0,0,9.38,8.86C53.63,54,62,51.26,64.14,59.36c1.35,5,.17,11,4.15,15a10.38,10.38,0,0,0,13.63,1C91.09,68.34,90.44,52.84,86,43.52Z"/><path class="cls-2" d="M57.86,60.37C55.75,59,53.2,58.8,50.75,58.83c-3.73,0-7.27.27-10.8-1.23C33.88,55,30,48.38,32,42a15.1,15.1,0,0,0-.52-2.21c-1.62-2.24-5.08-2.09-7.38-.51-3.7,2.54-6,7.33-7,11.58C14.77,61,20.16,70.93,28.4,76.58c7.37,5,17.55,7,25.73,2.68,3.87-2,7.19-5.58,7.57-10.09C62,65.86,60.72,62.25,57.86,60.37Z"/><path class="cls-3" d="M21.59,45.3c-2,2.38-3.57,6.1-3.4,9.23a.7.7,0,0,0,1.37.11,42.8,42.8,0,0,1,.84-4.35,22.82,22.82,0,0,1,2.08-4.38A.55.55,0,0,0,21.59,45.3Z"/><path class="cls-3" d="M19.59,58.89a2.89,2.89,0,0,1,.07-1.24.66.66,0,0,0-1.22-.44,3.19,3.19,0,0,0-.32,1.87A2.12,2.12,0,0,0,19,60.77a.7.7,0,0,0,1-.64C20,59.67,19.68,59.33,19.59,58.89Z"/><path class="cls-3" d="M58.87,65.81a.5.5,0,0,0,0-.68l-.37-.47a.63.63,0,0,0-1.13.37c.21,3.16,0,5.54-2.13,8.09a.86.86,0,0,0,1.29,1.14A9.75,9.75,0,0,0,58.87,65.81Z"/><path class="cls-3" d="M53,75.46a5.62,5.62,0,0,0-2,.83c-.69.44-.13,1.36.59,1.2a5.2,5.2,0,0,0,1.82-.75C53.89,76.37,53.7,75.34,53,75.46Z"/><path class="cls-3" d="M61.54,30.09a26.55,26.55,0,0,0-9.77.38c-1.69.4-5.44,1-5.66,3.22a.57.57,0,0,0,1.12.24c.58-1.75,5.84-2.32,7.25-2.49a23.65,23.65,0,0,1,6.72.18C62.2,31.78,62.54,30.23,61.54,30.09Z"/><path class="cls-3" d="M66.66,30.87a2.18,2.18,0,0,0-1.83-.37.53.53,0,0,0,0,1,1.45,1.45,0,0,1,.87.36A.7.7,0,1,0,66.66,30.87Z"/><path class="cls-3" d="M86.91,54.8c-.15-.77-1.2-.4-1.25.24a68.83,68.83,0,0,1-1.78,11.07.9.9,0,0,0,1.67.6A21.12,21.12,0,0,0,86.91,54.8Z"/><path class="cls-3" d="M83,69.34a3.44,3.44,0,0,0-1.19,2c0,.69.81.93,1.32.65s1-1.35,1.2-2S83.5,68.84,83,69.34Z"/><path class="cls-3" d="M66.93,54.3a.63.63,0,0,0-1.21.23c.13,1.88.36,3.8.57,5.67.08.73,1.29.93,1.37.11A12.83,12.83,0,0,0,66.93,54.3Z"/><path class="cls-3" d="M42.66,61.45A10.94,10.94,0,0,1,40.12,61c-.36-.12-1.93-.61-1.9-1.06s-.43-.57-.75-.5l-.14,0a.66.66,0,0,0-.45.49c-.18,1.13.93,1.71,1.8,2.13a8.61,8.61,0,0,0,3.86.86C43.37,62.91,43.52,61.53,42.66,61.45Z"/><path class="cls-4" d="M21.39,59A53.47,53.47,0,0,0,13.14,62c-2.34,1-4.25,2.44-3.62,5.25a2.56,2.56,0,0,0,3.81,1.31c.57-.43,1-1,1.49-1.43a17.51,17.51,0,0,1,2.56-1.47,44.12,44.12,0,0,0,5.53-3.61A1.75,1.75,0,0,0,21.39,59Z"/><path class="cls-5" d="M28.11,64.3c-2.6-.73-6.23,1.59-8.5,2.8-2.51,1.32-5.24,3.42-6.18,6.16C12.85,75,15,76.65,16.52,76c2.47-1,4-3.43,6.36-4.77,2.09-1.2,5.43-2.11,6.4-4.48A1.75,1.75,0,0,0,28.11,64.3Z"/><path class="cls-4" d="M91.24,34.45a2.65,2.65,0,0,0-2.91-1l-.32.12a2.35,2.35,0,0,0-1.35,3.24c-1.19,5.21-6,8.69-8.55,13.08a1.81,1.81,0,0,0,2.17,2.51c3.47-1.35,6.17-4.95,8.13-8C89.83,42.21,93.43,37,91.24,34.45Z"/><path class="cls-5" d="M80,31.26a27.79,27.79,0,0,1-2,7.16,59.72,59.72,0,0,1-3.9,5.91c-1,1.51,1.08,2.79,2.36,2.1,4.84-2.62,8-9.46,8.06-14.8C84.54,29,80.49,28.77,80,31.26Z"/></svg>