<svg xmlns="http://www.w3.org/2000/svg" viewBox="0 0 239 239"><defs><style>.cls-1{fill:#b24e6c;}.cls-2{fill:#f8eada;}.cls-3,.cls-6{fill:#9a402d;}.cls-3{opacity:0.15;}.cls-4{fill:#c9e9e6;}.cls-5{fill:#fff;}.cls-7{fill:#ffdb63;}</style></defs><title>Artboard 5 copy 2</title><g id="S_-_Face" data-name="S - Face"><path class="cls-1" d="M42,146.7a.13.13,0,0,1,0,.06l0,0Z"/><path class="cls-1" d="M207.09,71.42a52.12,52.12,0,0,0-13.8-22.56c-9.79-9.07-23-13.21-35.33-18.42C147.87,26.17,138.1,21,127.55,18c-19-5.36-33.6,2-51.24,8.11-15.9,8.76-28,23-36.37,38.89a104.14,104.14,0,0,0-11.41,43.63c-.77,16.12,5.87,29.71,8.77,45.22,1.27,6.79,1.48,13.78,3.44,20.4,3.61,12.17,13,22.06,23.95,28.52C81.89,213,107,219.22,127,217.4a78.42,78.42,0,0,0,25.54-7.07c14.88-6.75,30.29-14.22,41-27.05,6.4-7.69,11.54-16.76,13.58-26.63a50.94,50.94,0,0,0,.85-16c-2.05-17.71,3.86-35.06,2.35-53A74,74,0,0,0,207.09,71.42Z"/><path class="cls-2" d="M161.78,123c-1.41-9.78-5.39-17.8-10.26-26.24-5.41-9.4-5.52-21-11.53-30.2a1.58,1.58,0,0,0-2.69.14,15.52,15.52,0,0,0-12.91-4.43,20.74,20.74,0,0,0-12,1.48A27.39,27.39,0,0,0,98,69c-4.54,3.55-6.78,8.89-8,14.39-1.55,6.85-1.61,14-3.18,20.81-2.76,12-6.56,24.86-3.37,37.18a26.76,26.76,0,0,0,22,20.15,59.8,59.8,0,0,0,25-2c8.9.73,17-4.48,22.62-11.06a52.11,52.11,0,0,0,7.62-11.39C162.76,132.61,162.47,127.77,161.78,123Z"/><path class="cls-3" d="M132.23,116a33.15,33.15,0,0,1-2.57-6.56c-.75-3.4-1.21-7.33-4-9a1.56,1.56,0,0,0-.87-.27,1.91,1.91,0,0,0-1.3,1c-1.47,2.24-1.16,5.17-1.08,7.9a33.7,33.7,0,0,1-.87,7.61c-.65,3.57-.1,6.87,2.7,8.37,2.4,1.29,5.55,1.45,7.39-1.27A8.34,8.34,0,0,0,132.23,116Z"/><path class="cls-2" d="M131.82,172.12q-2.43-12.48-5.77-24.72c-.56-2-2.64-3-4.57-3.08-2.61-.09-5.17-.37-7.74.2a3.82,3.82,0,0,0-2.36,1.86,2.3,2.3,0,0,0-1.54,1.89c-1.06,8.54-.47,17.36-.69,25.95-.07,2.48,2.38,4,4.55,4.06,4.69.16,9.4-.06,14.09-.32C131,177.79,132.36,174.92,131.82,172.12Z"/><path class="cls-4" d="M80,212.35c1.32,2.86,4,4.48,7,5.38a85.16,85.16,0,0,0,14.66,2.79c5.59.44,11.23.63,16.91.52,3.2-.3,6.38-.69,9.53-1.21a212.25,212.25,0,0,0,43.57-12.51c-11-18.27-24-39.18-45.73-43.34-.25,5.48-.33,14.37-7.14,14.37a5.34,5.34,0,0,1-5.24-5.24c-.25-3.1-.93-6.14-1.31-9.22-8.26,1.65-15.64,6.38-21.42,12.72-8.2,9-14.62,21.38-12.29,33.7A2.91,2.91,0,0,0,80,212.35Z"/><path class="cls-5" d="M112,98.09c-1.07-3.57-4.87-6.81-8.74-6.34-4,.48-6.48,4.69-7.11,8.38a6.87,6.87,0,0,0,4.9,8.13C107.29,110.18,114,104.72,112,98.09Z"/><path class="cls-6" d="M108.36,97.76a1.47,1.47,0,0,0-.1-.13c-.4-.47-1.49-1.08-1.85-.25a3.63,3.63,0,0,0-.13.57,1.16,1.16,0,0,1-.72.79,1.56,1.56,0,0,1-1.72-.3,1,1,0,0,1-.25-1,3,3,0,0,1,.31-.55c.18-.28.39-1.13-.19-1.12a.63.63,0,0,0-.26.07,6.65,6.65,0,0,0-3.06,1.72,5,5,0,0,0-1,3.1,4,4,0,0,0,3.26,3.75,5,5,0,0,0,6.07-4.62,5.13,5.13,0,0,0,0-1A2.47,2.47,0,0,0,108.36,97.76Z"/><path class="cls-7" d="M109,85.2a15.9,15.9,0,0,0-7-.34,18.14,18.14,0,0,0-5.81,2.75c-1.76,1.06-.35,3.69,1.53,3.13a31.79,31.79,0,0,1,4.66-1.26c1.92-.26,3.6.42,5.46.74A2.57,2.57,0,0,0,109,85.2Z"/><path class="cls-5" d="M149.74,92.89a6.91,6.91,0,0,0-7.55.52c-5.34,2.73-3.82,13.23,2.9,14.37C153.52,109.21,156.66,96.85,149.74,92.89Z"/><path class="cls-6" d="M150.46,98.22a1.41,1.41,0,0,0-1.33-.81.68.68,0,0,0-.64.56,1.23,1.23,0,0,1-.79,1.21c-.73.29-2.22-.16-2-1.15.06-.33,1.14-1.61.26-1.76a.84.84,0,0,0-.44.07,8.46,8.46,0,0,0-2.29,1,3.59,3.59,0,0,0-.91,1,5.5,5.5,0,0,0-.69,2.72,4,4,0,0,0,3.26,3.75,5,5,0,0,0,6-5.15,4.22,4.22,0,0,0-.07-.61A3.47,3.47,0,0,0,150.46,98.22Z"/><path class="cls-7" d="M152.48,84.19C148.55,81.78,142,82.3,139,86c-1,1.3.15,3.69,1.93,2.92,3.39-1.46,5.87-2.09,9.4-.58A2.35,2.35,0,0,0,152.48,84.19Z"/><path class="cls-6" d="M138.43,141.41c-.66-3.06-4.94-2.46-7.63-2.92a29.39,29.39,0,0,1-10.58-4c-3.55-2.19-6.55-6.09-11-6.37a6,6,0,0,0-6.54,5c-.7,3.82,1.67,7.46,3.76,10.43,5,7,13.54,10.75,22,8.05,3.9-1.25,9.39-4,10-8.58A5,5,0,0,0,138.43,141.41Z"/><path class="cls-7" d="M155.68,45.54c-3.25-2.9-8.89-3.61-12.51-.93-1.62,1.2-1.87,1.5-3.69,2,.53-.15-1.29.12-1.53.13h-.55l-.57-.09c-.91-.2-1.81-.42-2.7-.7-.19-.07-.64-.24-.83-.33q-2.45-1.08-4.85-2.26c-7.86-3.89-15.63-7.21-24.54-5.15a22.55,22.55,0,0,0-2.58.77c-2.15-1-4.06-2.25-6.49-2.68a23.3,23.3,0,0,0-9.19.25,33.84,33.84,0,0,0-13.72,6.76C67,47.21,62.57,52.16,61.15,58.49a20.27,20.27,0,0,0,4.42,18.09,37.66,37.66,0,0,0,6.22,5.26c.19.14.91.7,1.56,1.22a2.23,2.23,0,0,0-.23.24,28.24,28.24,0,0,0-4.67,6.1c-5.85,11.21,2.91,29.24,14.81,32.47,6.8,1.85,12.47-5.29,10.53-11.58-.14-.46-.32-.91-.49-1.35-.36-1.33-.9-2.61-1.27-4a32.29,32.29,0,0,1-1-7.06,35.39,35.39,0,0,1,.28-5.36,17.47,17.47,0,0,0,2.8-6.6,14.77,14.77,0,0,0,0-5.22,8.67,8.67,0,0,0,5.9-.2c10-4.32,22-2.24,33.06-4.55,10.23-2.13,20.73-8.1,24.82-18.19C159.66,53.51,159.29,48.76,155.68,45.54Z"/><path class="cls-3" d="M93.5,44a3.61,3.61,0,0,0-7.09-.57C84.89,49,79.75,51.23,77,56.08a10.43,10.43,0,0,0,1.75,13.11,2.12,2.12,0,0,0,3.5-1.65c-.23-2.23-1-4.86-.11-7s3.33-3.94,5.12-5.45C90.5,52.3,94,48.61,93.5,44Z"/><path class="cls-3" d="M139.81,53.53c-2.92.79-5.42,2.14-8.52,2.31a23.24,23.24,0,0,1-7.4-1c-5.23-1.4-10.23-3.56-15.7-3.8-9.35-.41-19.89,6.58-19,16.8a2.51,2.51,0,0,0,5-.26c-.07-5.07,5.59-8.92,10.14-9.47,4.72-.58,9.56,1.61,13.89,3.18,8.18,3,18.45,4.66,25.6-1.62C147,56.94,143.11,52.63,139.81,53.53Z"/><path class="cls-7" d="M149.22,137.79A2.5,2.5,0,0,0,150,136c0-.35,0-.7-.05-1a2.38,2.38,0,0,0-2.12-2.16,5.5,5.5,0,0,1-.28-.48,6.24,6.24,0,0,0-7.1-4.52,2.55,2.55,0,0,0-1.15-.06,85,85,0,0,1-15.09,1.08,2.48,2.48,0,0,0-1.54-.51,4.91,4.91,0,0,0-2,.33l-2.33-.6a1.71,1.71,0,0,0-1.63.29,1.84,1.84,0,0,0-1.56.59c-1.85,1.86-6.54,4-3.62,7.4,1.9,2.22,3.75,1,5.5-.21,1,2.14,2.81,3.7,5.57,2.68a5.2,5.2,0,0,0,1.77-1.32,5.48,5.48,0,0,0,1.73,2.38,2.61,2.61,0,0,0,4-.73c.12-.28.25-.55.38-.82a4,4,0,0,0,.35.46,2.81,2.81,0,0,0,3.11,1.07,4.1,4.1,0,0,0,2.25-2,5.27,5.27,0,0,0,.31.46,4.12,4.12,0,0,0,3.42,1.62,2.38,2.38,0,0,0,1.82-.83,11.49,11.49,0,0,0,4.76,2,2.4,2.4,0,0,0,2.9-2.43C149.32,138.33,149.27,138.06,149.22,137.79Z"/></g></svg>