<svg xmlns="http://www.w3.org/2000/svg" viewBox="0 0 528 408"><defs><style>.cls-1,.cls-13,.cls-3{opacity:0.15;}.cls-19,.cls-2{fill:#6aa6d5;}.cls-3,.cls-7{fill:#9db2d7;}.cls-4{fill:#fff;}.cls-11,.cls-19,.cls-5{opacity:0.6;}.cls-6{fill:#f27783;}.cls-8{fill:#f7e9d9;}.cls-11,.cls-13,.cls-14,.cls-9{fill:#99402d;}.cls-9{opacity:0.3;}.cls-10{fill:#f6a85a;}.cls-12{fill:#f59691;}.cls-15{fill:#b14e6c;}.cls-16{fill:#231f20;}.cls-17{fill:#ce506b;}.cls-18{opacity:0.5;}</style></defs><title>Artboard 1 copy</title><g id="Layer_1" data-name="Layer 1"><g class="cls-1"><path class="cls-2" d="M79.88,354.79c3.25-2,6.9-5.32,11-4.42,5,1.09,8.73,4.78,14.07,5,4.39.15,8.55-1.58,12.2-3.88,3.83-2.42,7.22-4.6,6.77-9.59-.16-1.83-2.24-3.19-3.92-3.3a4.19,4.19,0,0,0-3.13,1.11,3.61,3.61,0,0,0-.81,1.11,4.94,4.94,0,0,1-2.19,1.92,24.74,24.74,0,0,1-4.67,2.24c-4.54,1.45-7.71-1.33-11.57-3.3-8.54-4.35-16.76-1.42-24,4.13C68.75,349.56,74.56,358.06,79.88,354.79Z"/><path class="cls-2" d="M50,334.87c-.07,6,9.63,8.59,11.15,2.38a7.26,7.26,0,0,1,1.4.3,25.47,25.47,0,0,0,5.05.76,16.58,16.58,0,0,0,7.79-2.25c1.74-1,3.69-2.84,5.65-3.3,2.52-.59,5.21,1.59,7.51,2.45a32.14,32.14,0,0,0,18.72,1c4.91-1.23,12.49-5.44,7.7-11.24a3.43,3.43,0,0,0-5.77,1.17c-.43,1.4-7.58,1.1-8.74,1a24.37,24.37,0,0,1-8-1.95c-3.27-1.44-6.12-3.62-9.84-3.82a15,15,0,0,0-7,1.44c-1.91.85-3.61,2.1-5.46,3.08-2.43,1.3-3.75.72-6.39.18C57.64,324.84,50.08,327.58,50,334.87Z"/><path class="cls-2" d="M54.94,308.15c-1.47,5.07,3.28,8,7.24,6.68l.21,0a10.09,10.09,0,0,0,1.62.4,11.48,11.48,0,0,0,4.67.12,18.06,18.06,0,0,0,6.07-2.64c1.89-1.2,3.9-3,6.23-3.17s4.85,1.07,7,1.92c5.42,2.18,10.53,4,16.47,3.54,5.3-.41,12.42-2.29,15.39-7.1a4.5,4.5,0,0,0-4.72-6.76l0-.05c-2.8.7-5.13,2.43-7.94,3.13a17,17,0,0,1-8,.08c-5.92-1.43-10.81-5.5-17-6-5.79-.47-10.24,2.57-14.92,5.46a1.4,1.4,0,0,1-.54.25L66,303.9a21.45,21.45,0,0,0-4-.78A6.93,6.93,0,0,0,54.94,308.15Z"/><path class="cls-2" d="M46.94,357.47c1.83,2.35,5.17,3.47,8.05,3.6,2.09.09,5.3-.31,6.72-2.16,2.29-1.45,1.13-4.65-1.16-5.4a22.64,22.64,0,0,0-3.72-1,4.14,4.14,0,0,1-1.32-.66c-.78-.48-1.47-1.09-2.26-1.56A4.85,4.85,0,0,0,46.94,357.47Z"/></g><path class="cls-3" d="M478,166.57c-3.06-21.35-16-40.29-37.51-46.14-5.18-1.41-10.7-1.65-16-1.92-2.31-.12-4.62-.17-6.93-.27-.33,0-2.6-.2-3.29-.23-.84-.13-2.54-.38-2.8-.43-.84-.16-1.66-.35-2.49-.55-.12,0-1.61-.48-2-.67-.87-.4-1.72-.83-2.56-1.29l-1.14-.67c-.6-.46-2.08-1.49-2.08-1.49-.76-.6-1.5-1.22-2.22-1.85-1.67-1.44-3.26-3-4.83-4.51-6.22-6.12-12-12.62-19.18-17.7-9.52-6.76-20.08-11-31.31-14.15a334.94,334.94,0,0,0-63.77-11c-21.54-1.62-44.09.53-64,9.42-19.18,8.57-35.5,21.22-51.71,34.38-.58.46-1.16.94-1.73,1.41a209,209,0,0,0-46.2,31.46c-27.88,25.3-55.77,73.49-24.61,106.94,13,14,32.82,19.36,51.19,21.27,11.27,1.18,22.64,1.5,33.77,3.73,2.22.45,4.38,1,6.57,1.59.11,0,1.28.39,1.44.41.74.29,1.49.6,2.21.93a33.78,33.78,0,0,1,5,2.69c-.81-.45,3.49,3.64,2.55,2.35a8.26,8.26,0,0,1,2.17,4,29.56,29.56,0,0,1,.86,3l.05.2c0,.14,0,.34.07.65.58,4.84.63,9.71,1,14.56.86,10.41,3.27,20.89,9.8,29.3,13.1,16.84,34.83,24.16,55.7,21.63,22.47-2.72,42.53-14.75,61.75-23.86,19.05-9,40-11.57,59.51-19.05,36.82-14.08,61.26-46.42,77.49-81.09C471.77,210.37,481.12,188.3,478,166.57Z"/><path class="cls-3" d="M503.57,210a2.85,2.85,0,0,0,0-.5,59.14,59.14,0,0,0-21.4-36.55c-13.27-10.41-28.33-12.35-44.63-9.8-8.79,1.37-17.6,3.36-26.55,2.71s-17.34-3.57-25.28-7.37C372,151.9,358,138.54,341.78,140.15c-7.67.76-14.47,4.54-21.22,8a173.08,173.08,0,0,1-25.06,10.74c-16.49,5.36-33.75,6.12-50.38.9a77.54,77.54,0,0,1-22.1-11c-6.35-4.59-12-10-18.49-14.5-12.78-8.8-26.8-10-41.26-4.56-18,6.81-34.61,18.74-50.57,29.28C95.46,170.35,79.22,182.88,63,195.67a1.92,1.92,0,0,0-.46.54c-.45.38-.88.78-1.32,1.17a22.86,22.86,0,0,0-8.26,8.5,2.9,2.9,0,0,0,1,4,2.19,2.19,0,0,0,2.69,1.88c28.53-4.5,57.22.55,85.73,2.73s57.32,2.81,86,2.57c58.15-.5,116.21-4.37,174.35-5.22,32.62-.48,65.25,0,97.79,2.52C503.31,214.52,504.24,212.06,503.57,210Z"/><path class="cls-4" d="M215.58,199.94c-.33-3.25-.09-7.43-2.19-10.29-5-6.88-16.82,0-22.35-7.15-4.7-6-1.85-15.37-10.51-19.28-3.53-1.61-7.59-1-11.28-.4a123.94,123.94,0,0,0-12.3,2.74c0-.29,0-.58.05-.87q.36-6.36.63-12.73c.12-3,.92-7-.27-9.79s-3.62-2.73-6.06-2.73c-4,0-8,.14-11.94.21l-46.08.84c-8,.15-16,.51-23.93,0-5.23-.35-10.48-1.58-15.73-1-4.14.43-6.86,3.39-7.1,8.33-.17,3.39.83,6.69,1.73,9.92,1.23,4.44,2.3,8.95,3.2,13.5.32,1.59.62,3.19.9,4.79.36,2.1.68,4.21,1,6.33.22,1.64.43,3.29.62,4.94,0,.14,0,.28,0,.43.28,2.56.51,5.14.69,7.71.1,1.52.19,3.05.26,4.57,0,1.14.09,2.29.12,3.43.12,4.38-.67,9.43.38,13.65,1.49,6,5.07,6.17,9.63,5.53,1.72-.23,3.44-.45,5.16-.64-.89,4.39,0,9.21,2.79,12.23C76.52,238,84,240.64,89.4,240.71c5.95.07,9.71-3.94,12.3-8.33a18.27,18.27,0,0,0,2.61-12c15.11,0,30.23.57,45.44.13a2.63,2.63,0,0,0,1.84-1c6.36-.07,12.76.36,19.13.68-1.58,4.8-.81,10.56,2.31,14,3.49,3.84,10.93,6.49,16.37,6.56,5.95.07,9.71-3.94,12.3-8.33a18.09,18.09,0,0,0,2.54-12.4q4.71-.27,9.41-.69c1.81-.17,3.72-1.36,3.54-3.22Q216.4,208,215.58,199.94Z"/><g class="cls-5"><path class="cls-6" d="M91.88,209.26c-6-.94-12.33.7-16.21,4.23C69,217.67,68.13,228.77,73,234.15,76.52,238,84,240.64,89.4,240.71c5.95.07,9.71-3.94,12.3-8.33C107.26,222.94,104.82,211.29,91.88,209.26Z"/><path class="cls-7" d="M217.19,216.07q-.8-8.07-1.61-16.13c-.33-3.25-.09-7.43-2.19-10.29-5-6.88-16.82,0-22.35-7.15-4.7-6-1.85-15.37-10.51-19.28-3.53-1.61-7.59-1-11.28-.4a107.91,107.91,0,0,0-17.6,4.41,2,2,0,0,0-.9.59,6.27,6.27,0,0,0-2.38,1.36c-3.29,3.15-3.43,9.72-4.31,13.78-2.45,11.34-4.58,22.71-9.38,33.47-1.15,2.58,2.24,4.34,4.59,4,12.36-1.91,24.95-.37,37.39,0a314.72,314.72,0,0,0,37-1.12C215.46,219.12,217.37,217.93,217.19,216.07Z"/><path class="cls-8" d="M182.44,179.09c-.46-2.41-.91-4.82-1.37-7.24-.29-1.51-.37-3.65-1.58-4.77-2.24-2.07-6.73-.66-9.22.13-2.08.66-4.15,1.4-6.23,2.09a6.26,6.26,0,0,0-3,1.51c-1,1.2-.94,3.66-1.12,5.16-.21,1.67-.36,3.36-.43,5.05-.07.3-.14.59-.2.89a2.51,2.51,0,0,0,.17,1.62,1.49,1.49,0,0,0,1.28,1.24,2.55,2.55,0,0,0,1.77.13,67.74,67.74,0,0,1,17.78-2.57C182,182.31,182.72,180.59,182.44,179.09Z"/><path class="cls-8" d="M173.7,192.28c-3.43-.64-7.63.38-10.7,1.94-2.23,1.13-.35,4.27,1.81,3.7a26.34,26.34,0,0,1,4.22-.87c1.45-.13,2.81.15,4.26.14C176.11,197.16,176.48,192.8,173.7,192.28Z"/><path class="cls-2" d="M157.36,142.17c-1.22-2.88-3.62-2.73-6.06-2.73-4,0-8,.14-11.94.21l-46.08.84c-8,.15-16,.51-23.93,0-5.23-.35-10.48-1.58-15.73-1-4.14.43-6.86,3.39-7.1,8.33-.17,3.39.83,6.69,1.73,9.92,1.23,4.44,2.3,8.95,3.2,13.5,7.31-2.15,15.17-2.94,22.51-4.07q7.1-1.08,14.21-1.93c4.33-.52,8.93-1.61,13.26-.8,2.51.47,2.58,4.72.25,5.56-4.16,1.51-8.89,1.24-13.22,1.64s-8.93.88-13.39,1.38c-7.48.85-15.15,2.51-22.72,3,.36,2.1.68,4.21,1,6.33,5.85-1.56,11.81-2.71,17.7-3.86,8.72-1.71,18-3.87,26.81-3.84,3.65,0,3.73,5.59.29,6.28-8.53,1.7-17.39,1.94-26,3.19C66.05,185,60,186.17,54,187.24c0,.14,0,.28,0,.43.28,2.56.51,5.14.69,7.71,5.9-2.74,12.48-3.7,18.7-5.08,9.21-2,18.86-4.58,28.24-5,3-.13,4.19,5.45,1,6.19-8.46,2-17.28,2.62-25.83,4-4.45.73-8.89,1.5-13.33,2.35A49.78,49.78,0,0,0,55,200c0,1.14.09,2.29.12,3.43.12,4.38-.67,9.43.38,13.65,1.49,6,5.07,6.17,9.63,5.53,28.28-3.91,56.32-1.24,84.67-2.06a2.77,2.77,0,0,0,2.42-2.33q3.3-26.62,4.83-53.48.36-6.36.63-12.73C157.75,149,158.55,145,157.36,142.17Z"/><path class="cls-8" d="M88.46,171.58c4.33-.4,9.06-.13,13.22-1.64,2.33-.84,2.26-5.09-.25-5.56-4.33-.81-8.93.28-13.26.8Q81,166,74,167.11c-7.34,1.13-15.2,1.92-22.51,4.07.32,1.59.62,3.19.9,4.79,7.57-.5,15.24-2.16,22.72-3C79.53,172.46,84,172,88.46,171.58Z"/><path class="cls-8" d="M98.13,180.88c3.44-.69,3.36-6.27-.29-6.28-8.86,0-18.09,2.13-26.81,3.84-5.89,1.15-11.85,2.3-17.7,3.86.22,1.64.43,3.29.62,4.94,6.06-1.07,12.1-2.29,18.18-3.17C80.74,182.82,89.6,182.58,98.13,180.88Z"/><path class="cls-8" d="M76.83,195.52c8.55-1.39,17.37-2,25.83-4,3.16-.74,2-6.32-1-6.19-9.38.4-19,2.94-28.24,5-6.22,1.38-12.8,2.34-18.7,5.08.1,1.52.19,3.05.26,4.57a49.78,49.78,0,0,1,8.55-2.08C67.94,197,72.38,196.25,76.83,195.52Z"/><path class="cls-8" d="M133.57,169.44a2.39,2.39,0,0,0-.43-.48c-3.45-3-5.46-7.14-7.66-11.29-.85-1.61-2.81-1.22-3.58.22-.92,1.74-2.44,6.32-3.52,7.15a16.62,16.62,0,0,1-2.92.1c-1.32.05-2.62,0-3.94.14a1.43,1.43,0,0,0-.64.21,1.36,1.36,0,0,0-1.13.95c-1.8,3.58-3.26,7.38-4.82,11.1-.58,1.39.3,3.49,1.83,3.21,2.52-.46,5-.88,7.58-1.26-.39.88-.78,1.76-1.16,2.64-1,2.24,1.23,4.14,3,3.05,6-3.74,11.92-7.65,17.79-11.65C135.57,172.42,134.9,170.14,133.57,169.44Z"/><path class="cls-6" d="M191.88,209.26c-6-.94-12.33.7-16.21,4.23-6.66,4.18-7.54,15.28-2.64,20.66,3.49,3.84,10.93,6.49,16.37,6.56,5.95.07,9.71-3.94,12.3-8.33C207.26,222.94,204.82,211.29,191.88,209.26Z"/></g><path class="cls-3" d="M167.85,60.41C164.49,49.66,156,40.72,146,35.8c-22.38-11-47.56-.79-60.86,19.06l-.67,1c-7.56,5.57-13.59,13.13-14.19,23-.74,12.07,7.46,21.89,18.4,25.93,12.37,4.57,24.62,1.78,37.09-.89,12.31-2.63,25.49-1.1,35.23-10.56C169.54,85.06,171.28,71.37,167.85,60.41Z"/><path class="cls-9" d="M420.62,295.56a3.71,3.71,0,0,0-3.4-4.64,330.93,330.93,0,0,0-77.24.63c-28.26,3.64-38.12,5.59-65.38,24.67-8.63,6-60,20.9-9.81,46.32,16.51,8.36,37,12.48,55.24,14.56,21.73,2.47,45.44,7.46,67.24,5.45,24.12-2.23,68.53-28.29,86.31-45.43C482.21,328.79,422,289.32,420.62,295.56Z"/><path class="cls-10" d="M458.1,220.91c-2-4.39-7.85-4.79-12.05-5.57a176.54,176.54,0,0,0-19.31-2.29c-13.9-1-27.85-.65-41.77-1.05-7.14-.21-14.27-.61-21.36-1.46-6.5-.77-13.39-3.19-19.93-2.76-6,.39-12,3.62-17.52,5.75q-10.25,3.94-20.38,8.13c-14.54,6-29.35,12-43.25,19.38-1,.56-1.63,4.08-1.41,5,.05.22.11.43.16.64,19.33,8,71.17,29,89.57,31.51C350.85,278.19,431.12,238.73,458.1,220.91Z"/><path class="cls-11" d="M458.1,220.91c-2-4.39-7.85-4.79-12.05-5.57a176.54,176.54,0,0,0-19.31-2.29c-13.9-1-27.85-.65-41.77-1.05-7.14-.21-14.27-.61-21.36-1.46-6.5-.77-13.39-3.19-19.93-2.76-6,.39-12,3.62-17.52,5.75q-10.25,3.94-20.38,8.13c-14.54,6-29.35,12-43.25,19.38-1,.56-1.63,4.08-1.41,5,.05.22.11.43.16.64,19.33,8,71.17,29,89.57,31.51C350.85,278.19,431.12,238.73,458.1,220.91Z"/><path class="cls-12" d="M426.74,160.05c-.95-4-3.52-7.64-8.2-6.86-3.23.54-6.71,3.38-8.5,6.59a14.5,14.5,0,0,0-3.91-.25c-3.87.24-5.89,5.28-2.83,7.92a22.55,22.55,0,0,0,8.72,4.74,172.63,172.63,0,0,1-11.61,20.39c-3.84,5.77-12.29,13.08-12.09,20.32a2.78,2.78,0,0,0,2.92,2.61c7.51-1.26,12.15-10.64,16.1-16.6a189.48,189.48,0,0,0,13.27-24,4,4,0,0,0,1.46-.68,3.56,3.56,0,0,0,.6-.34,10,10,0,0,0,3.7-4.83,9,9,0,0,0,1.3-2.95A8.27,8.27,0,0,0,426.74,160.05Z"/><path class="cls-6" d="M329.78,328.51a31.22,31.22,0,0,0-5.57-6,26.33,26.33,0,0,1,1.34-3.49q3.24-6.18,6.95-12.1c4.64-7.38,10.77-14.06,14.78-21.77,1.24-2.37-1.66-5.45-4-3.76C336.78,286,332,293,327.41,299.45c-4.71,6.73-10.26,14.35-13.1,22.12-3.05,8.35,8.95,21.11,15.63,11.48A4.41,4.41,0,0,0,329.78,328.51Z"/><path class="cls-6" d="M386.59,307.46a14.41,14.41,0,0,1,.32-4.77c.85-4.13,1.79-8.25,2.68-12.38,1.54-7.2,4.64-15.41,3.44-22.76a2.32,2.32,0,0,0-4.06-1.1c-3.19,4.23-4.11,9.47-5.44,14.54q-2.68,10.23-5,20.55c-2.18,9.7-.14,16.25,9.81,19.56,3,1,5.28-.51,6.08-3.4C395.82,312.61,390.34,309.77,386.59,307.46Z"/><path class="cls-6" d="M410.26,229.19c-1.5-9.23-5.13-18.05-11.82-24.72-3.71-3.69-7.95-6-8.44-11.58-.43-4.85.83-9.09-1.34-13.7-2.26-4.79-8.05-6.85-7.61-12.62.37-5,2.05-9.56,1.32-14.67-1.21-8.44-6.94-15.47-14-19.92-16.21-10.28-37.62-5-51.53,6.75-26.74,22.58-27.78,62.54-18.87,93.55,6.9,24,19.23,51.35,45.33,59A53.1,53.1,0,0,0,394.22,279C407.27,266.39,413.14,246.93,410.26,229.19Z"/><path class="cls-13" d="M399.61,272c-3.68,1.63-6.19,5.61-9.12,8.25-6.47,5.82-14.36,8.15-22.39,3.76-3.8-2.06-6.68-5.94-10.75-7.43-5.08-1.88-10.74.75-16-1.4-8.21-3.33-11.1-12.27-12.91-20.16-.88-3.82-1.11-8.52-3.14-11.95s-6.11-5.55-9-8.21a62.37,62.37,0,0,1-15-22.22,97.33,97.33,0,0,1-6.87-32.45c-3,17.3-1.06,35.89,3.59,52.05,6.9,24,19.22,51.35,45.32,59A53.09,53.09,0,0,0,394.21,279a50.65,50.65,0,0,0,6.19-7.22C400.14,271.83,399.87,271.92,399.61,272Z"/><path class="cls-14" d="M382.84,184.36c-3.2-5.14-7.19-.79-11.63,1.49a13.71,13.71,0,0,1-3.06,1.38c-4.64,1.14-11-1.39-13.6,1.84-3,3.7,0,8.68,2.78,11.49,7.45,7.48,21.3,8.63,25.9-2.32C385,194,385.36,188.38,382.84,184.36Z"/><path class="cls-15" d="M383.24,198.24a17.81,17.81,0,0,0,1.25-9.23,13.18,13.18,0,0,0-6.18,1.13c-1.63.72-3,1.93-4.59,2.69-1.77.84-3.61.84-5.51,1a17.26,17.26,0,0,0-11.46,6.05q.3.33.6.63C364.8,208,378.65,209.19,383.24,198.24Z"/><circle class="cls-16" cx="344.92" cy="174.69" r="7.89"/><circle class="cls-4" cx="347.01" cy="170.45" r="2.18"/><circle class="cls-16" cx="378.58" cy="167.71" r="7.89"/><circle class="cls-4" cx="380.67" cy="163.46" r="2.18"/><path class="cls-2" d="M312.35,182.3a15.74,15.74,0,0,0,5.48.51c1.79-.24,3.51-1.22,4-2.78,1.56-5-6.86-7-10.58-8-6.22-1.62-12.5-2.93-18.68-4.73a11.64,11.64,0,0,0-4.22-.69c-3.57.34-3.72,4.42-2.47,6.9,1.09,2.16,3.35,3.57,5.64,4.57,5.43,2.36,11.6,2.82,17.36,3.62C310.22,181.92,311.4,182.1,312.35,182.3Z"/><path class="cls-17" d="M319,190.42c-2.14-3-7.91-3.43-11.71-4.22l-13-2.72c-4.59-1-15.11-2.8-9.66,5,4.41,6.33,13.49,7.61,20.73,8.81,3.59.59,10.84,1.91,13.3.34C320.57,196.45,320.4,192.36,319,190.42Z"/><path class="cls-8" d="M405.84,243.27c-.3-2.33-4-2.15-3.69.2.43,3.33-.82,7.29-1.52,10.56-.84,3.89-2.69,6.71-5.24,9.7-1.55,1.81,1.21,4.25,2.75,2.45,2.72-3.19,4.89-6.32,5.9-10.45C405,251.92,406.36,247.18,405.84,243.27Z"/><path class="cls-8" d="M392.32,268.17c-2.89,0-2.65,4.45.23,4.45S395.2,268.17,392.32,268.17Z"/><path class="cls-8" d="M374.94,144a26.43,26.43,0,0,0-10.34-10c-2.53-1.37-4.6,2.57-2.06,3.95a22.12,22.12,0,0,1,8.64,8.47C372.62,149,376.38,146.52,374.94,144Z"/><path class="cls-8" d="M357.6,130.86c-2.89,0-2.65,4.44.23,4.44S360.48,130.86,357.6,130.86Z"/><path class="cls-10" d="M458.19,220.48c-27.05,17.72-107.47,56.86-107.47,56.86-18.39-2.62-70.15-23.79-89.45-31.87,3.72,15.89,9,31.54,13.7,47.17q3.67,12.25,7.37,24.51L286,329.41c.8,2.67.79,5.66,1.86,8.25s3.47,4.14,5.78,5.53a142.58,142.58,0,0,0,33.09,15.06,124.07,124.07,0,0,0,40.08,5.11c1.38-.06,24.32-15.94,35-23.16,11.72-7.94,23.48-16,34.66-24.69a1.75,1.75,0,0,0,.38-.39,13.94,13.94,0,0,0,5.05-5.22c2-3.58,2.78-7.84,3.8-11.76q2-7.62,3.66-15.3c4.33-19.62,7.6-39.71,8.6-59.81a1.92,1.92,0,0,0,.42-2A4.77,4.77,0,0,0,458.19,220.48Z"/><path class="cls-9" d="M458.19,220.48c-27.05,17.72-107.47,56.86-107.47,56.86-18.39-2.62-70.15-23.79-89.45-31.87,3.72,15.89,9,31.54,13.7,47.17q3.67,12.25,7.37,24.51L286,329.41c.8,2.67.79,5.66,1.86,8.25s3.47,4.14,5.78,5.53a142.58,142.58,0,0,0,33.09,15.06,124.07,124.07,0,0,0,40.08,5.11c1.38-.06,24.32-15.94,35-23.16,11.72-7.94,23.48-16,34.66-24.69a1.75,1.75,0,0,0,.38-.39,13.94,13.94,0,0,0,5.05-5.22c2-3.58,2.78-7.84,3.8-11.76q2-7.62,3.66-15.3c4.33-19.62,7.6-39.71,8.6-59.81a1.92,1.92,0,0,0,.42-2A4.77,4.77,0,0,0,458.19,220.48Z"/><path class="cls-8" d="M392.45,314.77l-1,3.86-2-1.93-1,3.87-2-1.94-1,3.87-2-1.93-1,3.86-2-1.93-1,3.86-2-1.93a76,76,0,0,1,0,16.43A171.88,171.88,0,0,1,374,359c5.34-3.5,12.75-8.56,19.23-13,.35-2.83.77-6.33,1.19-10C395.45,327.33,392.45,314.77,392.45,314.77Z"/><path class="cls-13" d="M351.26,277.08l-.54.26c-18.39-2.62-70.15-23.79-89.45-31.87,3.72,15.89,9,31.54,13.7,47.17q3.67,12.25,7.37,24.51L286,329.41c.8,2.67.79,5.66,1.86,8.25s3.47,4.14,5.78,5.53a142.58,142.58,0,0,0,33.09,15.06,124.07,124.07,0,0,0,40.08,5.11,1.24,1.24,0,0,0,.37-.13c-2.24-8.75-5.1-20-7.54-29.75C356.36,320.24,353,293.14,351.26,277.08Z"/><path class="cls-10" d="M489.17,248.48c-1.31-5.23-12.3-14.76-14.52-16.7a73.9,73.9,0,0,0-8.21-6.2c-1.45-1-2.94-1.86-4.46-2.7-.76-.42-3.09-1.24-4.47-2.08l-.17-.1-.13-.11C430.6,238,353.4,275.64,350,277.28c5.86,2.72,10.76,7.65,15.56,11.82a146.59,146.59,0,0,1,14.07,14.57c3.27,3.76,6.22,1.5,9.59-.67,2.2-1.42,4.33-2.93,6.44-4.47,4.12-3,8.15-6.13,12.43-8.91,7.77-5,15.77-9.75,23.92-14.15,6.52-3.51,13.2-6.69,20-9.66,11.56-5.07,23.4-9.53,35.2-14a4,4,0,0,0,1.54-.86A2.47,2.47,0,0,0,489.17,248.48Z"/><path class="cls-15" d="M330.62,321.73q-6.28-6.12-12.32-12.48a1.76,1.76,0,0,0-2.09-.16L306,314.2c-2.41,1.21-6.29,2.32-8.05,4.38-.3.35,3.06,5.32,4.66,6.69s3,2.58,4.55,3.87c.89.75,2.14,2.3,3.3,2.64,2.46.72,5.44-1.78,7.54-2.72a90.21,90.21,0,0,1,11-4.06l.25-.11A1.86,1.86,0,0,0,330.62,321.73Z"/><path class="cls-14" d="M317,338.77q4.83,2.18,9.58,4.55a1.06,1.06,0,0,0,1.22-.35l4.73-5c1.12-1.18,3.09-2.62,3.67-4.15.1-.26-2.84-2.39-4-2.84l-3.39-1.26a7.38,7.38,0,0,0-2.42-.82c-1.55.1-2.73,2.14-3.73,3.11a53,53,0,0,1-5.44,4.59l-.12.12A1.13,1.13,0,0,0,317,338.77Z"/><path class="cls-10" d="M350.8,276.49l-.08,0c-18.39-2.63-70.14-23.79-89.44-31.87,0-.1-.07-.21-.11-.32-2.75,1.83-3.41,5.74-4.95,8.47-2.09,3.69-4.23,7.34-6.53,10.9-2.07,3.21-4.22,6.36-6.48,9.43-2,2.75-4,5.88-6.42,8.28a3.32,3.32,0,0,0-.74.89c-1.46,2.88,6.44,4.13,8,4.67q6.06,2,12,4.27,10.83,4.08,21.36,8.9l2.18,1q9.92,4.59,19.51,9.83c5.92,3.22,11.76,7.37,18.47,8.72a1.76,1.76,0,0,0,.38,0,1.31,1.31,0,0,0,1.84-.21c5.1-6.21,9.26-13.36,13.72-20,2.3-3.45,4.58-6.92,6.91-10.35,1.39-2,2.38-4.4,4.36-6s4.36-2.15,5.49-4.37A4.39,4.39,0,0,0,350.8,276.49Z"/><g class="cls-18"><path class="cls-19" d="M441.07,49.29c-23.24,22.5-43.35,47-62.42,73.05-2.07,2.83,2.67,5.49,4.7,2.71,17-23.15,36.75-44.78,57.38-64.82a3.45,3.45,0,0,0,3.89-.72,8.15,8.15,0,0,0,3-7.5C447.31,48.79,443.66,46.79,441.07,49.29Z"/><path class="cls-19" d="M466.33,83c-26,10.18-48,27.16-67.52,46.72-2.38,2.38,1.32,6,3.7,3.65,18.44-18.46,41.09-31.69,64.57-42.58a3.65,3.65,0,0,0,.79-.3l1.29-.67C472.85,87.88,470.32,81.41,466.33,83Z"/><path class="cls-19" d="M483.56,112.27A137.5,137.5,0,0,0,428,137.1c-2.36,1.77-.37,5.53,2.35,4a249.09,249.09,0,0,1,27.11-13.29c9.14-3.66,18.48-5.94,28-8.43C490.12,118.18,488.22,111.4,483.56,112.27Z"/></g><g class="cls-18"><path class="cls-19" d="M331.12,102.34a188.87,188.87,0,0,0-19.43-33.67c-3.67-5-7.62-9.86-11.76-14.52s-8.59-10.36-14-13.6c-3-1.76-6.61,2.21-4.54,5,3.52,4.68,8.6,8.35,12.66,12.59a165.16,165.16,0,0,1,12.11,14.17,181.39,181.39,0,0,1,19.54,31.85C327.23,107.36,332.64,105.72,331.12,102.34Z"/><path class="cls-19" d="M316.39,117.22c-4-4.18-7.5-8.7-11.77-12.65A152.93,152.93,0,0,0,292,94.21c-8.11-6-17.67-13.59-27.46-16.47-3.49-1-6.27,4.13-3.31,6.37,3.88,3,8.56,4.87,12.78,7.34,4.93,2.87,9.76,5.93,14.4,9.25,8.46,6,17.56,12.6,24.82,20C315.34,122.89,318.49,119.42,316.39,117.22Z"/><path class="cls-19" d="M297.42,132.19c-3.59-4.91-9.87-8.18-15.13-11-5.62-3-12.36-6.4-18.74-7.31-4-.56-6.7,5.12-2.55,7,5.81,2.61,12.08,4.11,17.92,6.78,5.4,2.47,10.41,6.27,16,8.09C296.89,136.35,298.57,133.76,297.42,132.19Z"/></g><path class="cls-3" d="M175.73,347.85c7.61-8.74,8.41-22.37-.17-30.59a33,33,0,0,0-6.67-4.8c-7.1-6.59-13.49-13.74-21.53-19.36a62.46,62.46,0,0,0-28-11.08c-11.2-1.35-24.18,2-29.75,12.27a18.16,18.16,0,0,0-1.11,15.78c1.81,4.62,5.47,8.22,9.05,11.66a58.87,58.87,0,0,1,9,11.15,76,76,0,0,0,9.47,12.8,46,46,0,0,0,28.23,13.94C155.94,360.77,168.1,356.62,175.73,347.85ZM108.62,313a2.59,2.59,0,0,0-.14.29l-1.07-1Z"/><path class="cls-13" d="M300,266.49a5.71,5.71,0,0,0-6.83-.51,5.27,5.27,0,0,0-1.11,1c-3.15.2-5.75,2.23-8.1,4.22s-4.41,4.1-5.05,7.19c-1.42,6.89,5.09,12.74,11.7,12.1C301.82,289.38,308.22,274.71,300,266.49Z"/></g></svg>