<svg xmlns="http://www.w3.org/2000/svg" viewBox="0 0 528 408"><defs><style>.cls-1{isolation:isolate;}.cls-2,.cls-3,.cls-7{fill:#f6a85a;}.cls-10,.cls-17,.cls-2,.cls-4{opacity:0.15;}.cls-2,.cls-3,.cls-6{mix-blend-mode:multiply;}.cls-3{opacity:0.2;}.cls-4,.cls-9{fill:#f27783;}.cls-10,.cls-11,.cls-5{fill:#99402d;}.cls-5,.cls-6{opacity:0.3;}.cls-8{fill:#f59691;}.cls-12{fill:#b14e6c;}.cls-13,.cls-17{fill:#6aa6d5;}.cls-14{fill:#ce506b;}.cls-15{fill:#231f20;}.cls-16{fill:#f7e9d9;}</style></defs><title>Artboard 1</title><g class="cls-1"><g id="Layer_1" data-name="Layer 1"><path class="cls-2" d="M446,234.32a76.06,76.06,0,0,0,0-19.54,94.48,94.48,0,0,0-11.51-34.86c-3.71-6.68-9-12.25-14.23-17.83.91-9.7,1.24-19.16-2.68-28.71-5.6-13.69-15-23.7-27.44-31.41-21.24-13.15-46.34-10-69.47-5.32A778.4,778.4,0,0,0,212.05,127a33.44,33.44,0,0,0-11.4,7c-6.06.84-12.13,2.13-18,3.25-3.17.6-6.34,1.23-9.5,1.92-1.67.37-3.36.7-5,1.15l-1.67.4q9.18-1.53-3.37.72c-6.59,1.73-13.15,3.93-19.53,6.31C116.39,157.89,91.1,174,74.09,197.87,64.76,211,57.44,225,54,240.9c-3.44,15.66-2.62,31.1,1.14,46.57,7,28.88,29.1,51.76,56.68,61.4,1.38.76,2.77,1.5,4.19,2.19,17.57,8.47,36.91,13.32,55.74,18.05,21.69,5.45,44.3,8.34,66.58,9.75,22.44,1.43,45.7.92,67.25-6a29.42,29.42,0,0,0,11.75-7.16c.59,0,1.18.06,1.77.07,36.75.78,75.32-9.49,101.63-36.37C444.48,305.06,455.84,267.28,446,234.32Z"/><path class="cls-3" d="M151.84,34C131.78,29.34,110,40.22,100.05,57.9,87.79,65.81,82.7,82.78,87,96.62c4.93,15.74,20.84,25,36.87,23.64a39.11,39.11,0,0,0,17.49-5.86,37.25,37.25,0,0,0,17.82-1.93c12.74-4.66,21-15,25.09-27.66C191.81,61.48,174,39.17,151.84,34Z"/><path class="cls-4" d="M459.26,97.37A55.91,55.91,0,0,0,434.1,76.24a61,61,0,0,0-22.32-4.82c-8.55-.42-15.69,2.14-23.23,6C383,80.35,379,86.76,377,92.36c-2.21,6-2.89,13.29-.5,19.47a31.38,31.38,0,0,0,10.15,13.79c5,8.43,13.34,15.17,22.91,17.5a36.52,36.52,0,0,0,20.22-.84,29.4,29.4,0,0,0,29.49-44.91Z"/><path class="cls-5" d="M341.64,288c-7.33-9.14-17.64-12.38-28.48-13.16.33-1.75-.44-3.73-2.53-4a213.22,213.22,0,0,0-57.43.54c-16.84,2.5-35,5.86-49.41,15.53-11.27,7.58-22.58,22.74-15.62,36.81,3.34,6.75,10.14,9.95,17.18,11.44,8.83,1.88,17.92,3,26.86,4.19,18.47,2.49,37.27,4.11,55.87,2.13C304.46,339.72,323,335.87,336,325,347.29,315.61,351.41,300.15,341.64,288Z"/><g class="cls-6"><path class="cls-7" d="M459.45,329.38c-2.9-.05-6,2.16-6.3,5.26a.14.14,0,0,0,0,.06l-.07,0a6.25,6.25,0,0,1-2.88-1.87c-2.94-2.83-4.86-6.61-7.72-9.56-4.95-5.1-11.4-6.75-18.33-6-5.31.54-10.69,2.62-16.06,2.12-7.81-.72-11.53-10.05-19.32-10.52-2.52-.16-4.83,2.1-3.82,4.71,1.68,4.31,5.74,8,9.14,11.08a24,24,0,0,0,12.2,6.14c7.19,1.09,14-1.94,21.13-1.55,3.79.21,5.86,2.38,8,5.38,3,4.24,5.74,8.52,10.37,11.15a14.08,14.08,0,0,0,13.34.71c4.27-2.09,7.44-6.68,6.33-11.56C464.76,331.82,462.8,329.45,459.45,329.38Z"/><path class="cls-7" d="M464.11,307.93c-12.64,1.67-17.34-11.11-27.42-15.93a18,18,0,0,0-8.89-1.83c-3.26.25-5.71,1.79-8.61,3.11-4.69,2.14-8.93-1.45-13.09-3.29-5.37-2.36-8.59,4.54-5,8.26,4.06,4.24,10.49,7.52,16.45,7.31,3.07-.1,5.43-1.25,8.17-2.44,3.15-1.37,5.28-.51,7.88,1.65,5.28,4.38,8.93,9.64,15.07,13,5.52,3,12.23,4.4,18.31,2.29C473.65,317.76,471.27,307,464.11,307.93Z"/><path class="cls-7" d="M471.82,283.15c-4.79,0-9,0-12.58-3.84-4.29-4.58-7.05-9-13.39-10.95-5.58-1.75-11.21-1.52-17-1.26a36.89,36.89,0,0,1-7.65-.21c-2.84-.45-5.25-2-8.07-2.43-3.53-.58-5.88,3-5,6.11,1.91,6.4,10.63,8.11,16.38,8.47s12.55-.79,18,1.64c3.06,1.38,4.37,4.21,6.46,6.68a26.31,26.31,0,0,0,7.18,5.94c5.3,3,12.68,4.45,18.5,2.22C481.9,292.75,478.8,283.19,471.82,283.15Z"/></g><g class="cls-6"><path class="cls-7" d="M77.82,62.05c-2.32,3-4.52,7.45-8.68,8.09-5,.77-9.87-1.32-14.91.43-4.15,1.44-7.42,4.56-10,8-2.7,3.63-5.08,6.88-2.87,11.38.82,1.65,3.25,2.16,4.85,1.66a4.1,4.1,0,0,0,2.52-2.16,3.59,3.59,0,0,0,.36-1.32,5,5,0,0,1,1.35-2.58A24.39,24.39,0,0,1,54,81.8c3.72-3,7.67-1.54,12-1.09,9.54,1,16.15-4.72,20.87-12.48C90.08,62.91,81.6,57.08,77.82,62.05Z"/><path class="cls-7" d="M112.87,69.87c-2.08-5.61-12.07-4.55-11.26,1.79a8.29,8.29,0,0,1-1.41.23,24.09,24.09,0,0,0-5,1.11,16.49,16.49,0,0,0-6.46,4.9c-1.28,1.53-2.42,4-4.08,5.12-2.14,1.45-5.44.38-7.89.41A32.07,32.07,0,0,0,59,89.22c-4.14,2.91-9.7,9.57-3.14,13.26a3.43,3.43,0,0,0,5-3.17c-.1-1.47,6.68-3.75,7.79-4.09a24.37,24.37,0,0,1,8.18-1.07c3.57.17,7,1.17,10.55,0a15.17,15.17,0,0,0,6-3.86c1.48-1.48,2.62-3.26,4-4.84,1.8-2.09,3.24-2,5.9-2.47C109.35,82,115.41,76.7,112.87,69.87Z"/><path class="cls-7" d="M117.88,96.57c-.45-5.25-5.95-6.31-9.16-3.62l-.21,0a9.31,9.31,0,0,0-1.66.21,11.4,11.4,0,0,0-4.4,1.57,17.8,17.8,0,0,0-4.71,4.65c-1.33,1.8-2.56,4.2-4.67,5.2s-4.91.74-7.18.71c-5.84-.08-11.26,0-16.64,2.62-4.79,2.3-10.75,6.61-11.79,12.18a4.5,4.5,0,0,0,6.83,4.6v0c2.36-1.65,3.91-4.11,6.28-5.77A16.84,16.84,0,0,1,78,116c6-.8,12.07,1.23,18-.55,5.57-1.65,8.63-6.08,12-10.47a1.4,1.4,0,0,1,.42-.42l.65-.08a20.63,20.63,0,0,0,4-.71A6.93,6.93,0,0,0,117.88,96.57Z"/><path class="cls-7" d="M107.58,47.68c-2.56-1.53-6.07-1.37-8.8-.45-2,.66-4.84,2.2-5.49,4.43-1.62,2.18.61,4.75,3,4.62a23.13,23.13,0,0,0,3.84-.38,4.49,4.49,0,0,1,1.47.13c.91.18,1.77.5,2.67.66A4.85,4.85,0,0,0,107.58,47.68Z"/></g><g class="cls-6"><path class="cls-7" d="M124.2,317.28c-1.52-6-8.06-10.87-13-14.19-3.9-2.62-10.62-5.19-12.14-10.07-1-3.17.32-6.92.53-10.17a18.89,18.89,0,0,0-1.27-8.52c-2.46-5.91-8.37-9.9-14.49-6.69-4.25,2.23-2.62,7.65.52,9.8,2,1.35,2.4.41,3.22,2.75s-.12,5.56-.29,8.08c-.41,5.81,1.09,11,5.26,15.19,3.56,3.55,8.29,5.62,12.6,8.06,5,2.81,9,7.65,14.23,9.85A3.46,3.46,0,0,0,124.2,317.28Z"/><path class="cls-7" d="M128.33,281.51c-4.51-1.58-8.08-3.13-10.05-7.79-1.81-4.29-.84-8-.4-12.46.28-2.78-2.69-5.7-5.41-3.69-8.06,6-6.33,18.94-1.17,26.24,3.34,4.75,7.8,6.71,12.92,9,5.59,2.47,6.34,6.33,6.78,12,.42,5.45,8.71,7.91,11.1,2.36C146.88,296,138.67,285.11,128.33,281.51Z"/></g><path class="cls-8" d="M357.06,106.42c-1.19-4.92-4.41-9.47-10.21-8.48-4,.68-8.34,4.23-10.54,8.23a18.66,18.66,0,0,0-4.86-.3c-4.81.32-7.3,6.6-3.49,9.86a28,28,0,0,0,10.87,5.85A215.59,215.59,0,0,1,324.51,147c-4.75,7.2-15.22,16.33-14.94,25.33.05,1.71,1.84,3.53,3.64,3.22,9.34-1.6,15.05-13.28,19.93-20.71a236.83,236.83,0,0,0,16.39-29.9,5.13,5.13,0,0,0,1.81-.85,5,5,0,0,0,.74-.42,12.32,12.32,0,0,0,4.57-6,11.11,11.11,0,0,0,1.6-3.67A10.22,10.22,0,0,0,357.06,106.42Z"/><path class="cls-9" d="M237.38,316.3a39.14,39.14,0,0,0-6.95-7.48,31.67,31.67,0,0,1,1.65-4.34q4-7.69,8.58-15.06c5.73-9.2,13.31-17.54,18.26-27.15,1.52-2.94-2.09-6.75-5-4.64-8,5.82-14,14.46-19.63,22.56-5.82,8.39-12.68,17.88-16.17,27.55-3.76,10.4,11.22,26.2,19.48,14.2A5.47,5.47,0,0,0,237.38,316.3Z"/><path class="cls-9" d="M307.89,289.85a18,18,0,0,1,.37-5.93c1.05-5.14,2.19-10.26,3.27-15.4,1.89-9,5.69-19.18,4.17-28.31a2.88,2.88,0,0,0-5.06-1.35c-3.94,5.27-5.06,11.8-6.69,18.1q-3.29,12.74-6.12,25.57c-2.66,12.08-.1,20.21,12.29,24.26,3.68,1.2,6.56-.66,7.54-4.25C319.39,296.2,312.56,292.7,307.89,289.85Z"/><path class="cls-9" d="M336.92,192.44C335,181,330.46,170,322.11,161.78c-4.63-4.58-9.91-7.41-10.55-14.36-.55-6,1-11.29-1.73-17-2.83-5.94-10-8.48-9.53-15.64.45-6.25,2.51-11.9,1.58-18.24-1.55-10.49-8.71-19.2-17.49-24.7-20.2-12.69-46.79-6-64,8.65-33.12,28.2-34.22,77.87-23,116.37,8.69,29.81,24.15,63.73,56.63,73.16,21.93,6.35,46.84.25,63.22-15.63C333.4,238.69,340.59,214.48,336.92,192.44Z"/><path class="cls-10" d="M323.9,245.75c-4.57,2.05-7.66,7-11.3,10.31-8,7.27-17.8,10.2-27.81,4.79-4.73-2.55-8.33-7.35-13.39-9.19-6.33-2.31-13.35,1-19.94-1.66-10.22-4.1-13.85-15.2-16.15-25-1.11-4.75-1.41-10.59-4-14.84s-7.61-6.87-11.23-10.17c-8.31-7.57-14.44-17.22-18.76-27.54-5.35-12.76-8-26.46-8.7-40.29-3.63,21.51-1.14,44.6,4.71,64.67,8.7,29.81,24.16,63.73,56.64,73.16,21.93,6.35,46.84.25,63.22-15.63a64.24,64.24,0,0,0,7.65-9C324.55,245.49,324.23,245.61,323.9,245.75Z"/><path class="cls-8" d="M217.78,193.43c2.31,1.38,2.14,5.48-.8,6-10.83,2.07-22.38-3.92-31.51-9.22-10.42-6.05-21.94-13.79-30.14-22.64a4.4,4.4,0,0,1-.43-.56c-5.48-1.44-11.67-3.77-14.88-7.68-3.84-4.69-.45-13.37,3.27-17.26s10.62-5.3,15-1.44a10.63,10.63,0,0,1,2.78,4.18,4,4,0,0,1,.45-.15,7.15,7.15,0,0,1,7.07,2.39c4.07,4.86-.07,10.21-3.55,14.39,7.91,5.79,15,12.73,23.28,18.08C197.66,185.54,208.46,187.89,217.78,193.43Z"/><path class="cls-11" d="M302.62,136.85c-4-6.36-8.94-.94-14.44,1.92a17.7,17.7,0,0,1-3.8,1.73c-5.77,1.44-13.66-1.67-16.91,2.36-3.7,4.6,0,10.78,3.52,14.27,9.29,9.25,26.52,10.62,32.18-3C305.36,148.83,305.77,141.85,302.62,136.85Z"/><path class="cls-12" d="M303.19,154.11a22.2,22.2,0,0,0,1.5-11.48,16.4,16.4,0,0,0-7.67,1.43c-2,.91-3.68,2.42-5.69,3.37-2.2,1-4.48,1.06-6.84,1.34a21.43,21.43,0,0,0-14.22,7.57c.25.27.5.54.74.78C280.31,166.38,297.54,167.74,303.19,154.11Z"/><path class="cls-13" d="M215,134.65a20.07,20.07,0,0,0,6.82.61c2.22-.31,4.36-1.54,4.95-3.48,1.92-6.25-8.56-8.67-13.19-9.85-7.74-2-15.54-3.58-23.24-5.79a14.23,14.23,0,0,0-5.24-.83c-4.44.44-4.61,5.5-3,8.58,1.37,2.68,4.18,4.42,7,5.65,6.75,2.9,14.43,3.45,21.59,4.42C212.34,134.18,213.81,134.4,215,134.65Z"/><path class="cls-14" d="M223.31,144.7c-2.67-3.71-9.84-4.21-14.58-5.19L192.6,136.2c-5.72-1.16-18.79-3.41-12,6.29,5.51,7.84,16.81,9.4,25.8,10.84,4.48.72,13.5,2.33,16.55.36C225.28,152.2,225.05,147.1,223.31,144.7Z"/><path class="cls-15" d="M244.6,124.33c1.33-5,5.61-10.27,10.81-11.47,5.53-1.28,11,2.69,14.9,6.16,1.21,1.09-.4,2.76-1.69,2.1-3.7-1.88-8.52-5.76-12.82-3.56-3.54,1.8-4.58,5.77-6.88,8.66C247.33,128.21,243.85,127.13,244.6,124.33Z"/><path class="cls-15" d="M307.62,112.8c-2.18-3.11-7.22-7.31-11.26-7.24-4.77.07-9.1,6.67-11.73,9.89-.92,1.13.54,3.06,1.77,2,2.75-2.31,6-6.83,9.6-6.81s5.68,3.82,8.75,5.32C306.68,116.93,308.94,114.66,307.62,112.8Z"/><path class="cls-16" d="M331.51,210c-.39-2.89-5-2.65-4.6.26.56,4.14-1,9.07-1.84,13.13-1,4.85-3.3,8.36-6.46,12.09-1.92,2.26,1.53,5.28,3.43,3,3.37-4,6.06-7.88,7.29-13C330.46,220.72,332.16,214.83,331.51,210Z"/><path class="cls-16" d="M314.82,241c-3.59,0-3.27,5.53.31,5.52S318.4,241,314.82,241Z"/><path class="cls-16" d="M293.63,89.07a32.85,32.85,0,0,0-12.9-12.34C277.58,75,275,80,278.18,81.65A27.32,27.32,0,0,1,289,92.13C290.77,95.2,295.43,92.16,293.63,89.07Z"/><path class="cls-16" d="M272,72.79c-3.59,0-3.27,5.53.31,5.52S275.59,72.78,272,72.79Z"/><path class="cls-17" d="M490.07,164.66c-.47-6.65-6.8-11.48-13.24-11.45a14.52,14.52,0,0,0-5.19,1l-.58-.16a14.36,14.36,0,0,0-13.88,4.71,5.68,5.68,0,0,0-1.1.47A9,9,0,0,0,453,171.47,13.7,13.7,0,0,0,466,184a18,18,0,0,0,14.93-6.88C486.62,176.17,490.46,170.32,490.07,164.66Z"/><path class="cls-17" d="M122.9,181.17c-1.93-10.69-8.05-20.68-18.33-25.1a25.76,25.76,0,0,0-15.09-1.87c-6.1,1.19-11,5.74-17.29,6s-12.28-.57-17.57,3.6a20.31,20.31,0,0,0-3.93,4.2c-.43.34-.85.69-1.25,1-7.84,7-12.12,18.64-8.82,28.9A23.65,23.65,0,0,0,49.53,210c4.77,3.32,9.92,3.51,15.5,4.16,2.91.34,5.52,1,7.77,3,2,1.78,3.64,4,5.53,5.86A20.81,20.81,0,0,0,92,229.18C116.67,230.78,126.5,201.1,122.9,181.17Z"/><path class="cls-4" d="M132.7,324.71c-4.58-2.2-9.88,1.17-14.47,1.91a38.32,38.32,0,0,1-15.23-.68c-4.79-1.2-10-4.74-15.21-6.49a13.14,13.14,0,0,0-5.63-1.9c-8.73-.73-14.7,6.92-16.72,14.59-4.29,16.22,5,33.31,19.56,40.65,14.89,7.48,34,5.45,46.18-6.16A32,32,0,0,0,141,345.27C141.43,338.6,139.47,328,132.7,324.71Z"/></g></g></svg>