<svg xmlns="http://www.w3.org/2000/svg" viewBox="0 0 528 408"><defs><style>.cls-1{isolation:isolate;}.cls-2,.cls-8{fill:#f27783;}.cls-2,.cls-20,.cls-3,.cls-9{opacity:0.15;}.cls-3,.cls-6{fill:#f6a85a;}.cls-3,.cls-5{mix-blend-mode:multiply;}.cls-10,.cls-17,.cls-4,.cls-9{fill:#99402d;}.cls-4,.cls-5{opacity:0.3;}.cls-7{fill:#f59691;}.cls-11{fill:#b14e6c;}.cls-12,.cls-18{fill:#231f20;}.cls-13{fill:#fff;}.cls-14{fill:#6aa6d5;}.cls-15{fill:#ce506b;}.cls-16{fill:#f7e9d9;}.cls-17,.cls-19{opacity:0.6;}.cls-18{opacity:0.4;}</style></defs><title>Artboard 1 copy 2</title><g class="cls-1"><g id="Layer_1" data-name="Layer 1"><path class="cls-2" d="M149.06,89.92c-31.91-7.42-66.64,9.89-82.41,38C47.14,140.54,39,167.54,45.93,189.56c7.84,25,33.16,39.82,58.68,37.62a62.18,62.18,0,0,0,27.83-9.32,59.62,59.62,0,0,0,28.36-3.07c20.27-7.43,33.45-23.91,39.92-44C212.67,133.64,184.38,98.13,149.06,89.92Z"/><path class="cls-2" d="M212.6,42.5c-16.35-4.31-34.15,5.75-42.23,22.1-10,7.32-14.15,23-10.62,35.8,4,14.56,17,23.15,30.07,21.87a29.35,29.35,0,0,0,14.26-5.42,27.19,27.19,0,0,0,14.54-1.78c10.39-4.32,17.14-13.9,20.45-25.58C245.2,67.91,230.7,47.27,212.6,42.5Z"/><path class="cls-3" d="M476.84,75.24c-.44-10.3-9.51-18.85-20.49-20.61-6.06-4.5-16-4.09-22.77.28-7.75,5-10.41,14.07-7.3,21.46A18,18,0,0,0,432,83.7a16.58,16.58,0,0,0,3.66,8.14c4.39,5.27,11.19,7.47,18.59,7.3C467.92,98.81,477.33,86.64,476.84,75.24Z"/><path class="cls-3" d="M477.05,234.32a77.9,77.9,0,0,0,0-19.54,96.39,96.39,0,0,0-11.17-34.86c-3.58-6.68-8.74-12.25-13.79-17.83.88-9.7,1.2-19.16-2.6-28.71-5.43-13.69-14.53-23.7-26.61-31.41-20.6-13.15-44.94-10-67.36-5.32A737,737,0,0,0,250.2,127a32.22,32.22,0,0,0-11,7c-5.89.84-11.77,2.13-17.46,3.25-3.08.6-6.15,1.23-9.21,1.92-1.62.37-3.27.7-4.87,1.15l-1.62.4q8.89-1.53-3.27.72a195.52,195.52,0,0,0-18.94,6.31c-26.35,10.15-50.87,26.21-67.36,50.13-9,13.13-16.15,27.14-19.54,43C93.55,256.56,94.34,272,98,287.47a86.93,86.93,0,0,0,55,61.4c1.34.76,2.69,1.5,4.07,2.19,17,8.47,35.79,13.32,54,18.05,21,5.45,43,8.34,64.56,9.75,21.77,1.43,44.32.92,65.22-6a28.38,28.38,0,0,0,11.39-7.16c.58,0,1.15.06,1.72.07,35.64.78,73-9.49,98.55-36.37C475.6,305.06,486.61,267.28,477.05,234.32Z"/><path class="cls-4" d="M301.5,289.5c5.47-7.51,32.85-15.89,41.8-17.28a2.42,2.42,0,0,1,1.83-3.22,193.62,193.62,0,0,1,47.73-3.8c14.15.67,29.47,1.91,42.07,8.23,9.87,4.95,20.28,15.68,15.44,26.92-2.31,5.39-7.74,8.33-13.49,10-7.2,2.08-14.68,3.59-22,5.16-15.17,3.25-30.67,5.87-46.25,5.72-13.72-.12-29.39-1.7-40.9-9C317.71,305.85,294.21,299.51,301.5,289.5Z"/><path class="cls-4" d="M228.36,304.55c-4.66-9.23-28.93-18.85-36.91-20.3.39-1.65,0-3.6-1.54-4A123.47,123.47,0,0,0,147.26,277c-12.7,1.29-26.47,3.31-38,11.63-9,6.51-18.67,20.27-14.69,34.19,1.9,6.67,6.68,10.18,11.77,12.07,6.4,2.37,13,4,19.57,5.76,13.49,3.59,27.31,6.38,41.27,5.71,12.3-.6,26.39-3.07,36.94-12.59C213.32,325.52,234.58,316.86,228.36,304.55Z"/><g class="cls-5"><path class="cls-6" d="M479.45,361.38c-2.9-.05-6,2.16-6.3,5.26a.14.14,0,0,0,0,.06l-.07,0a6.25,6.25,0,0,1-2.88-1.87c-2.94-2.83-4.86-6.61-7.72-9.56-4.95-5.1-11.4-6.75-18.33-6-5.31.54-10.69,2.62-16.06,2.12-7.81-.72-11.53-10.05-19.32-10.52-2.52-.16-4.83,2.1-3.82,4.71,1.68,4.31,5.74,8,9.14,11.08a24,24,0,0,0,12.2,6.14c7.19,1.09,14-1.94,21.13-1.55,3.79.21,5.86,2.38,8,5.38,3,4.24,5.74,8.52,10.37,11.15a14.08,14.08,0,0,0,13.34.71c4.27-2.09,7.44-6.68,6.33-11.56C484.76,363.82,482.8,361.45,479.45,361.38Z"/><path class="cls-6" d="M484.11,339.93c-12.64,1.67-17.34-11.11-27.42-15.93a18,18,0,0,0-8.89-1.83c-3.26.25-5.71,1.79-8.61,3.11-4.69,2.14-8.93-1.45-13.09-3.29-5.37-2.36-8.59,4.54-5,8.26,4.06,4.24,10.49,7.52,16.45,7.31,3.07-.1,5.43-1.25,8.17-2.44,3.15-1.37,5.28-.51,7.88,1.65,5.28,4.38,8.93,9.64,15.07,13,5.52,3,12.23,4.4,18.31,2.29C493.65,349.76,491.27,339,484.11,339.93Z"/><path class="cls-6" d="M491.82,315.15c-4.79,0-9,0-12.58-3.84-4.29-4.58-7.05-9-13.39-10.95-5.58-1.75-11.21-1.52-17-1.26a36.89,36.89,0,0,1-7.65-.21c-2.84-.45-5.25-2-8.07-2.43-3.53-.58-5.88,3-5,6.11,1.91,6.4,10.63,8.11,16.38,8.47s12.55-.79,18,1.64c3.06,1.38,4.37,4.21,6.46,6.68a26.31,26.31,0,0,0,7.18,5.94c5.3,3,12.68,4.45,18.5,2.22C501.9,324.75,498.8,315.19,491.82,315.15Z"/></g><path class="cls-7" d="M272.92,189.32c-3.71-2.4-6.54-6.35-4.06-10.85,1.72-3.12,5.88-5.66,9.81-6.32a16,16,0,0,1,1.15-4.09c1.64-3.88,7.52-4.12,9.12-.05a24.34,24.34,0,0,1,1.7,10.63,188.83,188.83,0,0,0,25-4.51c7.28-1.85,17.81-7.86,25.15-5a3,3,0,0,1,1.6,3.93c-4,7.23-15.25,8.59-22.77,10.48a206.53,206.53,0,0,1-29.34,4.92,17.8,17.8,0,0,1-1.77,1.74,10.78,10.78,0,0,1-6.28,2,9.69,9.69,0,0,1-3.49.27A9,9,0,0,1,272.92,189.32Z"/><path class="cls-8" d="M405.72,289.44a34,34,0,0,1,6.94-5.58,28.06,28.06,0,0,0-.87-3.95q-2.48-7.16-5.5-14.09C402.51,257.15,397,249,394,240.08c-.94-2.74,2.66-5.57,4.91-3.38,6.21,6,10.26,14.25,14.08,22,4,8,8.69,17,10.48,25.83,1.92,9.45-13,21.19-18.62,9.78A4.77,4.77,0,0,1,405.72,289.44Z"/><path class="cls-8" d="M354.15,283a15.53,15.53,0,0,0,1.28-5c.51-4.55.93-9.11,1.41-13.66.83-7.95.4-17.45,4.11-24.63a2.52,2.52,0,0,1,4.56.23c1.86,5.44,1.05,11.16.71,16.83q-.68,11.44-1.75,22.86c-1,10.74-5.33,16.81-16.7,16.86-3.38,0-5.27-2.3-5.12-5.54C342.91,285.24,349.51,284.16,354.15,283Z"/><path class="cls-8" d="M328.07,206.53c-2.15-9.9-2-20.24,2.11-29.63,2.28-5.2,5.64-9.2,3.92-15-1.5-5.06-4.45-8.83-4.09-14.35.37-5.73,5.4-10.11,2.67-15.76-2.38-4.91-5.87-8.83-7.17-14.27-2.13-9,.86-18.37,6.2-25.66,12.28-16.81,36-20,54.69-13.66,35.94,12.17,52.87,52.08,56.19,86.9,2.57,27,1,59.45-22.29,77.58A57.59,57.59,0,0,1,364,250.37C345.86,242.89,332.21,225.58,328.07,206.53Z"/><path class="cls-9" d="M355.83,245.54c4.36.19,8.48,3.21,12.48,4.71,8.84,3.3,17.73,2.51,24.09-5.1,3-3.59,4.38-8.64,7.89-11.77,4.39-3.91,11.14-3.51,15.62-7.77,7-6.62,6.32-16.8,5-25.48-.63-4.2-2.27-9-1.58-13.3s4-8,5.82-11.86a67.51,67.51,0,0,0,6.32-28.38,105.28,105.28,0,0,0-6-35.47c9.89,16.27,15.33,35.79,17.06,53.94,2.57,27,1,59.45-22.29,77.58A57.59,57.59,0,0,1,364,250.37a54.7,54.7,0,0,1-9.11-4.82C355.22,245.54,355.52,245.53,355.83,245.54Z"/><path class="cls-7" d="M392,184.35c2.85-1,6.66,1.27,5.27,3.77-5.13,9.19-18.47,14.69-29.55,18.74-12.65,4.62-27.65,9.17-41.52,10.66a7.86,7.86,0,0,1-.83,0c-5,3.35-11.28,6.75-17.14,7.1-7,.4-13.12-6.7-14.41-11.53s1.9-10.73,8.51-12a15.51,15.51,0,0,1,5.83.11c.06-.14.08-.28.15-.41a8.27,8.27,0,0,1,6.95-4c7.33-.49,9.74,5.42,11.46,10.22,10.75-2.87,22.05-4.5,32.64-7.91C371.25,195.26,380.6,188.4,392,184.35Z"/><path class="cls-10" d="M338.28,154.52c.36-6.56,6.42-4.52,11.83-4.67a16.14,16.14,0,0,0,3.63-.29c5-1.35,9.7-7.08,13.88-5.38,4.78,1.94,4.57,8.22,3.38,12.36-3.16,11-15.71,19.35-25.81,11.36C341.28,164.8,338,159.66,338.28,154.52Z"/><path class="cls-11" d="M345.17,167.91a19.4,19.4,0,0,1-6-8.11,14.31,14.31,0,0,1,6.46-2.17c1.92-.17,3.83.29,5.76.16,2.12-.14,3.87-1.1,5.79-1.89a18.7,18.7,0,0,1,14-.26c-.07.31-.15.62-.23.91C367.82,167.55,355.27,175.9,345.17,167.91Z"/><circle class="cls-12" cx="372.35" cy="125.6" r="8.55"/><circle class="cls-13" cx="367.68" cy="127.71" r="2.37"/><circle class="cls-12" cx="335.61" cy="131.92" r="8.55"/><circle class="cls-13" cx="330.91" cy="133.96" r="2.37"/><path class="cls-14" d="M408.24,120.34a17.42,17.42,0,0,1-5.33,2.7c-1.9.46-4,.16-5.14-1.22-3.57-4.46,4.15-9.8,7.51-12.25,5.64-4.1,11.45-7.92,17-12.19a12.89,12.89,0,0,1,4-2.37c3.74-1.07,5.51,3,5.23,6-.24,2.61-2,4.93-3.87,6.85-4.54,4.53-10.59,7.46-16.08,10.55C410.24,119.11,409.12,119.76,408.24,120.34Z"/><path class="cls-15" d="M404.74,131.18c1-3.88,6.62-6.6,10.14-8.91q6-3.94,12-7.89c4.26-2.79,14.13-8.83,11.74,1.23-1.93,8.13-10.59,13-17.42,17.11-3.39,2-10.18,6.24-13.29,5.63C405.56,137.89,404.11,133.68,404.74,131.18Z"/><path class="cls-16" d="M338.12,219c-.62-2.47,3.18-3.77,3.81-1.28.88,3.53,3.71,7,5.72,10.05,2.4,3.6,5.38,5.71,9.14,7.71,2.28,1.22.47,4.78-1.8,3.57-4-2.14-7.45-4.44-10.11-8.2C342.44,227.37,339.15,223.14,338.12,219Z"/><path class="cls-16" d="M361.65,238.75c2.92-1.15,4.44,3.43,1.53,4.57S358.74,239.9,361.65,238.75Z"/><path class="cls-16" d="M329.89,106.58a28.61,28.61,0,0,1,6.47-14.16c2-2.39,5.67.77,3.65,3.17a23.92,23.92,0,0,0-5.36,12C334.18,110.63,329.42,109.67,329.89,106.58Z"/><path class="cls-16" d="M342.15,86.41c2.92-1.15,4.44,3.43,1.53,4.58S339.24,87.56,342.15,86.41Z"/><path class="cls-10" d="M251.83,298.78c-3.47-.46-7,2.74-9.67,5.52-8.93-3-18.22-5.18-27.17-8.2-8.33-2.82-16.22-6.67-24.41-9.66a2.59,2.59,0,0,0-3.22,3.5c3.21,8.11,15.27,11.44,22.59,14.3a213.9,213.9,0,0,0,21.65,7.45c4.45,1.84,11,4.28,15.78,3.51,3.93-.63,8.2-4.67,9.24-8.52C257.55,303.24,255.57,299.28,251.83,298.78Z"/><path class="cls-7" d="M154.79,227.75c-2.51.08-4.67,3.09-2.79,4.66,6.94,5.78,18.92,6.05,28.71,5.85,11.17-.22,24.11-1.22,35.18-4.34a6,6,0,0,0,.64-.23c4.9,1.14,10.83,1.91,15.41.37,5.49-1.86,7.81-9.44,7.21-13.71a8.64,8.64,0,0,0-10.44-7,12,12,0,0,0-4.41,1.9c-.09-.1-.16-.2-.25-.29a6.8,6.8,0,0,0-6.63-1.08c-5.75,1.88-5.65,7.37-5.38,11.76-9.15,1-18.31,3.23-27.51,3.78C174.23,230.05,164.85,227.45,154.79,227.75Z"/><path class="cls-8" d="M210,286.27a76.34,76.34,0,0,0-8.12-29.21c-4-8-10.92-15.13-9.82-24.59,1.15-9.86,3.94-18.7,3.06-28.78a39.22,39.22,0,0,0-11.25-24.81c-3.35-3.34-5.1-5.35-5.9-10.1-.86-5.21-2.19-10.13-5.67-14.27-14.43-17.19-44.74-9.09-59.43,3.2a43.56,43.56,0,0,0-9.26,10.66,57.46,57.46,0,0,0-6.93,9.52c-9.54,16.61-9.7,38.29-2.21,55.81a42.4,42.4,0,0,0,7.46,11.05c2.73,3.11,6.19,6.19,7.67,10.16,3.21,8.65-1.57,19.08-1.86,27.94-.66,20.27,14.52,36.27,33.59,40.95,18.58,4.57,40.65,1.82,55.87-10.45C205.71,306.45,210.65,297.37,210,286.27Z"/><path class="cls-17" d="M212,287.27a76.34,76.34,0,0,0-8.12-29.21c-4-8-10.92-15.13-9.82-24.59,1.15-9.86,3.94-18.7,3.06-28.78a39.22,39.22,0,0,0-11.25-24.81c-3.35-3.34-5.1-5.35-5.9-10.1-.86-5.21-2.19-10.13-5.67-14.27-14.43-17.19-44.74-9.09-59.43,3.2a43.56,43.56,0,0,0-9.26,10.66,57.46,57.46,0,0,0-6.93,9.52c-9.54,16.61-9.7,38.29-2.21,55.81a42.4,42.4,0,0,0,7.46,11.05c2.73,3.11,6.19,6.19,7.67,10.16,3.21,8.65-1.57,19.08-1.86,27.94-.66,20.27,14.52,36.27,33.59,40.95,18.58,4.57,40.65,1.82,55.87-10.45C207.71,307.45,212.65,298.37,212,287.27Z"/><path class="cls-17" d="M202.93,305.77c-4,2.06-6.7,1-10-1.36-4-2.85-6.11,1.41-9,4.08-2.51,2.3-5.48,3.85-9,3.43a14,14,0,0,1-8.38-4.79c-2-2.26-3.29-5.46-6.47-6.28-7.66-2-14.75,5.31-21.62-1.37-7.46-7.24-3.19-15.32-.84-23.57,1.83-6.42-3.12-8.36-5.81-13.27-2-3.7-2.07-7.77-2-11.88.1-11.15-5.74-17.29-13.3-24.62-6.66-6.45-12-13.85-14.53-22.88-3.17-11.45-1.5-23.17,1.41-34.58a56.08,56.08,0,0,0-6.67,9.21c-9.54,16.61-9.7,38.29-2.21,55.81a42.4,42.4,0,0,0,7.46,11.05c2.73,3.11,6.19,6.19,7.67,10.16,3.21,8.65-1.57,19.08-1.86,27.94-.66,20.27,14.52,36.27,33.59,40.95,18.58,4.57,40.65,1.82,55.87-10.45a37.23,37.23,0,0,0,8.46-9.45A19.84,19.84,0,0,1,202.93,305.77Z"/><path class="cls-12" d="M152.42,187.19a8.53,8.53,0,0,0-6.76-4.23,24.2,24.2,0,0,0,3.06-4.26c1.32-2.37-2.19-4.79-3.49-2.42-2.77,5-9,12-15.41,11.36a1.3,1.3,0,0,0-.56,2.51c2.27,1,5,.35,7.47-.75a8.55,8.55,0,1,0,15.69-2.21Z"/><circle class="cls-13" cx="150.14" cy="191.13" r="2.37"/><path class="cls-12" d="M187.72,175.28a8.75,8.75,0,0,0-2-2.29c2.33-.81,1.34-4.89-1.19-4.15a20.65,20.65,0,0,1-12.32-.48c-1.38-.44-2.58,1.5-1.23,2.33a18,18,0,0,0,4.53,2,8.55,8.55,0,1,0,12.23,2.6Z"/><circle class="cls-13" cx="185.49" cy="179.26" r="2.37"/><path class="cls-10" d="M185.34,204.4c-3.62.3-7.26,4.33-10.7,5.61a23.32,23.32,0,0,1-11.52,1.13,6.18,6.18,0,0,0-1.49-.24l-.79-.14a.85.85,0,0,0-.81.26H160a2,2,0,0,0-1.39,1.75,2.4,2.4,0,0,0,.19,1.26,2.24,2.24,0,0,0,.86,2c1.39,3.67,7.44,6.85,10,7.54,7.08,1.91,14.31-1.21,18.76-7.31C191.05,212.57,191.69,203.87,185.34,204.4Z"/><path class="cls-18" d="M185.34,204.4c-3.62.3-7.26,4.33-10.7,5.61a23.32,23.32,0,0,1-11.52,1.13,6.18,6.18,0,0,0-1.49-.24l-.79-.14a.85.85,0,0,0-.81.26H160a2,2,0,0,0-1.39,1.75,2.4,2.4,0,0,0,.19,1.26,2.24,2.24,0,0,0,.86,2c1.39,3.67,7.44,6.85,10,7.54,7.08,1.91,14.31-1.21,18.76-7.31C191.05,212.57,191.69,203.87,185.34,204.4Z"/><g class="cls-19"><path class="cls-16" d="M105.46,216.12c-3-6.53-.34-11.85-.82-18.61-.22-3-1-5.9-.58-9,.45-3.74,2.42-6.68,3.74-10.09.58-1.52-1.24-2.45-2.4-1.66-7.12,4.81-6.1,13.74-5.87,21.11.21,7-4.26,15.83,2.35,21.25C103.82,220.71,106.42,218.2,105.46,216.12Z"/><path class="cls-16" d="M109.79,232.39c-.65-1.12-1.49-2.1-2.14-3.22a28.73,28.73,0,0,1-1.54-3.51,1.74,1.74,0,0,0-3.27.59,10.76,10.76,0,0,0,3.71,8.85C108.23,236.38,110.89,234.31,109.79,232.39Z"/></g><g class="cls-19"><path class="cls-16" d="M146.08,316.93c1.58-.22,2.22-2.69.35-3.07a26.08,26.08,0,0,1-6.26-1.79c-2.95-1.45-3-3.38-4.8-5.67a17.65,17.65,0,0,0-4.26-3.37,28.86,28.86,0,0,1-6.77-6.6c-2.27-3-7.22-.1-5,3.09,3.73,5.46,9.7,8.11,13.32,13.4C135.74,317.47,141.12,317.62,146.08,316.93Z"/><path class="cls-16" d="M118.47,291.66a2.54,2.54,0,0,0,1.12-3.57c-1-2.16-1.33-4.55-2.31-6.7-.65-1.4-2.93-.93-3.22.48-.56,2.72.25,5.63,1,8.22A2.48,2.48,0,0,0,118.47,291.66Z"/></g><path class="cls-7" d="M224.18,279c4.77-1.79,8.91-5.39,7.18-10.61-1.2-3.61-5.3-7.1-9.58-8.58a16.14,16.14,0,0,0-.32-4.52c-.93-4.4-7.52-5.82-10.3-1.85a25.53,25.53,0,0,0-4.46,10.84,223.86,223.86,0,0,1-27.22-9.69c-7.79-3.38-18.26-11.77-27.22-10.26-1.7.28-3.29,2.18-2.75,3.8,2.78,8.39,15.19,12,23.24,15.51a244.39,244.39,0,0,0,32,11,4.49,4.49,0,0,0,1.09,1.55,4.27,4.27,0,0,0,.51.63,12.48,12.48,0,0,0,6.61,3.38,11.72,11.72,0,0,0,3.87,1A11.14,11.14,0,0,0,224.18,279Z"/><path class="cls-10" d="M220.72,325.44c-1.94-.62-3.82-.28-5.8,0-1.62.22-3.26.41-4.88.65A186.72,186.72,0,0,0,197.27,308c-3.8-4.73-8.08-10.94-13.46-14-11.81-6.68-19.55,7.79-22.56,17.19-1.07,3.34,4.12,5.73,6.11,3,2.56-3.54,4.28-8.86,7.53-11.75,4.22-3.74,7.91,2.5,10.54,5.7A194,194,0,0,1,202,331.91a4.69,4.69,0,0,0,1.17,1.34c1.92,3.41,4.49,5.61,8.54,4.92,2.31-.39,4.61-.9,6.91-1.38,1.81-.38,3.69-.65,5-2.12C226.51,331.47,224.53,326.63,220.72,325.44Z"/><path class="cls-14" d="M83.46,233a18.83,18.83,0,0,1-5.56,1.49c-1.87.1-3.73-.51-4.39-1.88-2.1-4.43,6.33-7.83,10-9.42,6.22-2.66,12.52-5,18.67-7.87a13.63,13.63,0,0,1,4.26-1.42c3.7-.34,4.26,3.46,3.23,6-.9,2.22-3.07,4-5.32,5.32C99.07,228.42,92.78,230,87,231.8,85.61,232.22,84.41,232.6,83.46,233Z"/><path class="cls-15" d="M77.45,241.81c1.89-3.21,7.76-4.67,11.58-6.11l13-4.93c4.62-1.74,15.21-5.41,10.41,2.94-3.87,6.74-13.06,9.62-20.35,12.06-3.63,1.22-10.93,3.79-13.61,2.77C76.46,247.76,76.22,243.88,77.45,241.81Z"/><g class="cls-20"><path class="cls-10" d="M83.46,233a18.83,18.83,0,0,1-5.56,1.49c-1.87.1-3.73-.51-4.39-1.88-2.1-4.43,6.33-7.83,10-9.42,6.22-2.66,12.52-5,18.67-7.87a13.63,13.63,0,0,1,4.26-1.42c3.7-.34,4.26,3.46,3.23,6-.9,2.22-3.07,4-5.32,5.32C99.07,228.42,92.78,230,87,231.8,85.61,232.22,84.41,232.6,83.46,233Z"/><path class="cls-10" d="M77.45,241.81c1.89-3.21,7.76-4.67,11.58-6.11l13-4.93c4.62-1.74,15.21-5.41,10.41,2.94-3.87,6.74-13.06,9.62-20.35,12.06-3.63,1.22-10.93,3.79-13.61,2.77C76.46,247.76,76.22,243.88,77.45,241.81Z"/></g><path class="cls-2" d="M129.26,316.37a55.91,55.91,0,0,0-25.16-21.13,61,61,0,0,0-22.32-4.82c-8.55-.42-15.69,2.14-23.23,6C53,299.35,49,305.76,47,311.36c-2.21,6-2.89,13.29-.5,19.47a31.38,31.38,0,0,0,10.15,13.79c5,8.43,13.34,15.17,22.91,17.5a36.52,36.52,0,0,0,20.22-.84,29.4,29.4,0,0,0,29.49-44.91Z"/><g class="cls-20"><path class="cls-8" d="M93.82,49.05c-2.32,3-4.52,7.45-8.68,8.09-5,.77-9.87-1.32-14.91.43-4.15,1.44-7.42,4.56-10,8-2.7,3.63-5.08,6.88-2.87,11.38.82,1.65,3.25,2.16,4.85,1.66a4.1,4.1,0,0,0,2.52-2.16,3.59,3.59,0,0,0,.36-1.32,5,5,0,0,1,1.35-2.58A24.39,24.39,0,0,1,70,68.8c3.72-3,7.67-1.54,12-1.09,9.54,1,16.15-4.72,20.87-12.48C106.08,49.91,97.6,44.08,93.82,49.05Z"/><path class="cls-8" d="M128.87,56.87c-2.08-5.61-12.07-4.55-11.26,1.79a8.29,8.29,0,0,1-1.41.23,24.09,24.09,0,0,0-5,1.11,16.49,16.49,0,0,0-6.46,4.9c-1.28,1.53-2.42,4-4.08,5.12-2.14,1.45-5.44.38-7.89.41A32.07,32.07,0,0,0,75,76.22c-4.14,2.91-9.7,9.57-3.14,13.26a3.43,3.43,0,0,0,5-3.17c-.1-1.47,6.68-3.75,7.79-4.09a24.37,24.37,0,0,1,8.18-1.07c3.57.17,7,1.17,10.55,0a15.17,15.17,0,0,0,6-3.86c1.48-1.48,2.62-3.26,4-4.84,1.8-2.09,3.24-2,5.9-2.47C125.35,69,131.41,63.7,128.87,56.87Z"/><path class="cls-8" d="M133.88,83.57c-.45-5.25-5.95-6.31-9.16-3.62l-.21,0a9.31,9.31,0,0,0-1.66.21,11.4,11.4,0,0,0-4.4,1.57,17.8,17.8,0,0,0-4.71,4.65c-1.33,1.8-2.56,4.2-4.67,5.2s-4.91.74-7.18.71c-5.84-.08-11.26,0-16.64,2.62-4.79,2.3-10.75,6.61-11.79,12.18a4.5,4.5,0,0,0,6.83,4.6v0c2.36-1.65,3.91-4.11,6.28-5.77A16.84,16.84,0,0,1,94,103c6-.8,12.07,1.23,18-.55,5.57-1.65,8.63-6.08,12-10.47a1.4,1.4,0,0,1,.42-.42l.65-.08a20.63,20.63,0,0,0,4-.71A6.93,6.93,0,0,0,133.88,83.57Z"/><path class="cls-8" d="M123.58,34.68c-2.56-1.53-6.07-1.37-8.8-.45-2,.66-4.84,2.2-5.49,4.43-1.62,2.18.61,4.75,3,4.62a23.13,23.13,0,0,0,3.84-.38,4.49,4.49,0,0,1,1.47.13c.91.18,1.77.5,2.67.66A4.85,4.85,0,0,0,123.58,34.68Z"/></g></g></g></svg>