<svg xmlns="http://www.w3.org/2000/svg" viewBox="0 0 528 408"><defs><style>.cls-1,.cls-5{fill:#f27783;}.cls-1,.cls-13,.cls-2,.cls-21,.cls-22,.cls-7{opacity:0.15;}.cls-2,.cls-3{fill:#f6a85a;}.cls-22,.cls-4{fill:#fff;}.cls-6{fill:#9db2d7;}.cls-11,.cls-7{fill:#6aa6d5;}.cls-8{fill:#f7e9d9;}.cls-9{fill:#f48457;}.cls-10,.cls-21{fill:#b14e6c;}.cls-12{fill:#f59691;}.cls-13,.cls-15,.cls-17,.cls-19,.cls-23,.cls-24,.cls-25{fill:#99402d;}.cls-14{fill:#231f20;}.cls-16{fill:#ce506b;}.cls-17{opacity:0.2;}.cls-18{fill:#f48b76;}.cls-19{opacity:0.3;}.cls-20{fill:#ffda63;}.cls-23{opacity:0.08;}.cls-24{opacity:0.5;}.cls-25{opacity:0.35;}</style></defs><title>Artboard 1 copy 4</title><g id="Layer_1" data-name="Layer 1"><path class="cls-1" d="M439.88,182.53c-7.07-5.33-14.85-6-23.42-6.25-.17,0-1.52-.15-1.79-.16-1.55-.24-3.09-.59-4.61-1-3-.7-5.87-1.6-8.81-2.41-7-1.92-14.85-3.83-22-1.46A20.61,20.61,0,0,0,369,178.91c-13.73,9.59-21.35,26.51-16.58,44.24,3.83,14.25,16.49,21.95,30.12,24.9,12.73,2.77,26.72,3.59,39.51.75C449.57,242.7,464.44,201.05,439.88,182.53Z"/><path class="cls-1" d="M403.88,273.53c-7.07-5.33-14.85-6-23.42-6.25-.17,0-1.52-.15-1.79-.16-1.55-.24-3.09-.59-4.61-1-3-.7-5.87-1.6-8.81-2.41-7-1.92-14.85-3.83-22-1.46A20.61,20.61,0,0,0,333,269.91c-13.73,9.59-21.35,26.51-16.58,44.24,3.83,14.25,16.49,22,30.12,24.9,12.73,2.77,26.72,3.59,39.51.75C413.57,333.7,428.44,292.05,403.88,273.53Z"/><path class="cls-2" d="M300.44,83.32c-3.54-11-17.32-15.49-29.41-13.27-10.45,1.91-20.52,8.47-27.8,15a44.27,44.27,0,0,0-5.92,6.47c-7.5,6.53-13.76,14.53-11.25,24.2,2.35,9,12.18,16.09,20.9,20.82a39,39,0,0,0,14.15,4.82,30.67,30.67,0,0,0,19.3-4.64c9-5.57,14.66-13.84,17.82-22.84a61.23,61.23,0,0,0,2.84-15.47C301.48,93.43,302,88.18,300.44,83.32Z"/><path class="cls-2" d="M400.79,41.45c-2.37-8.59-11.6-12.12-19.7-10.39-7,1.5-13.74,6.63-18.62,11.73a33.48,33.48,0,0,0-4,5.05c-5,5.12-9.21,11.38-7.53,18.94,1.58,7.08,8.16,12.59,14,16.29a23.6,23.6,0,0,0,9.48,3.77,18.27,18.27,0,0,0,12.92-3.63c6.05-4.36,9.83-10.82,11.94-17.87a55.59,55.59,0,0,0,1.91-12.1C401.49,49.36,401.84,45.25,400.79,41.45Z"/><path class="cls-3" d="M494.06,264c-6.39-4.1-15.63-5.62-22.92-7.64-8-2.21-16.06-4.18-24.2-5.81s-16.27-3.14-24.48-4c-12.65-1.32-19.95,1.3-23.61,14.11-10,34.85-20.71,69.54-28.46,105-.47,2.15,1,5,3.39,5.25A489.15,489.15,0,0,1,457.29,387a4.87,4.87,0,0,0,5.76-3.64A588.81,588.81,0,0,1,491.2,279.93a36.68,36.68,0,0,1,2.25-5.18C495.3,271.43,498.42,266.84,494.06,264Z"/><path class="cls-4" d="M484.5,272.5c-13.34-7.28-30.7-11.16-45.63-12.49-7.05-.63-25.22-2.84-26.37-2.51-6.15,1.77-16.22,35.85-18.94,44.7a344.26,344.26,0,0,0-11.94,54.28c-1,7.14,4.06,6.63,9.58,7.6l20,3.46c13.07,2.25,43.26,9,43.26,9s4.63-21.53,6.32-28.17q2.74-10.79,5.78-21.47C469.58,316.3,485.36,273,484.5,272.5Z"/><path class="cls-5" d="M466.22,259.47c-1.09-.47-2.18-.91-3.28-1.32.26-1.51,1.36-4.43,1.39-5.28a4.33,4.33,0,0,0-.49-2.94c-1.72-2.57-7.3-2.65-10-3-3.39-.47-8.55-1.72-11.89-.79-2.81.78-3.65,4-4.56,6.49a.61.61,0,0,0-.05.18c-2.84-.59-6.41-1.48-8.18,1.47-1.14,1.89-.23,3.79,1.53,4.84,3.91,2.32,10.54,2.05,14.95,2.63a100.36,100.36,0,0,1,18.19,3.72,1.88,1.88,0,0,0,2.09-1L467,262A1.89,1.89,0,0,0,466.22,259.47Z"/><path class="cls-6" d="M418.93,291.5c-2.35-.78-5.65-2.72-8-1.29a.93.93,0,0,0-.44,1.15,25.65,25.65,0,0,0-3.07,8.33,1,1,0,0,0,.75,1.16c1.81.38,3.63.7,5.45,1,1,.19,2.64.81,3.7.53s1.27-1.08,1.71-2a58.67,58.67,0,0,0,2.24-5.53C422,292.62,421,292.18,418.93,291.5Zm-.13,3.66a15.66,15.66,0,0,1-1,2.56,12.19,12.19,0,0,1-1,2.56,5.86,5.86,0,0,1-1.82-.23c-1.82-.32-3.65-.65-5.48-.95a33.35,33.35,0,0,1,2.27-6.94l.11,0c1.71-.44,4.12.77,5.76,1.27C419.05,293.85,419.08,293.75,418.8,295.16Z"/><path class="cls-6" d="M413.91,312.08a42.46,42.46,0,0,0-7.84-1.36.56.56,0,0,0-.94,0,19.56,19.56,0,0,0-2.11,4.54,13.31,13.31,0,0,0-1.33,3.91.94.94,0,0,0,.54.82,17.08,17.08,0,0,0,4.08,1l5.14,1.15a1.1,1.1,0,0,0,1.3-.83,27,27,0,0,1,1.92-7.61A1.13,1.13,0,0,0,413.91,312.08Zm-10.16,6.36a28.33,28.33,0,0,1,1.38-3.5c.25-.67.52-1.34.74-2,2.11.34,4.21.63,6.3,1.07a27.88,27.88,0,0,0-1.41,5.78l-3.21-.65A35.42,35.42,0,0,1,403.75,318.44Z"/><path class="cls-6" d="M409.4,331.15a24.17,24.17,0,0,0-9.36-3c-.89-.1-1.91.88-1.23,1.76l.27.34a1.51,1.51,0,0,0,.42.35c-.32.94-.62,1.89-.88,2.85-.31,1.18-1,2.78-.86,4,.32,2.28,3.17,1.5,4.77,1.93s4.11,2.51,5.42.83c.56-.71.65-2.26.86-3.12.39-1.58.78-3.17,1.16-4.75A1.12,1.12,0,0,0,409.4,331.15ZM406.59,337c-.29,1.22,0,1.62-1.22,1.17-.67-.25-1.33-.53-2-.73a10.71,10.71,0,0,0-2.1-.42,8,8,0,0,0-1.47,0,8.73,8.73,0,0,0,.28-1.12c.4-1.75.81-3.51,1.19-5.27a20.85,20.85,0,0,1,6.36,2.09Z"/><path class="cls-6" d="M431.36,277.11a4.52,4.52,0,0,0-6-1.13,1.18,1.18,0,0,0-.59-1.86,42.74,42.74,0,0,0-5.16-.74h0a5.82,5.82,0,0,0,0-.59c-.06-.59-.94-1.06-1.35-.47a6.4,6.4,0,0,0-.52.92,16.22,16.22,0,0,1-2.82-.33c-.25-.81-1.66-.59-1.52.29.26,1.64,2,1.71,3.38,2l.24,0c-.14.44-.27.87-.42,1.3-.57,1.67-1.54,3.36-1.81,5.1-.15.93,1.14,1.82,1.8.91a16.2,16.2,0,0,0,1.91-4.57c.24-.74.52-1.53.75-2.33a40.79,40.79,0,0,0,5.35.69.93.93,0,0,0,.42-.06,3.81,3.81,0,0,0-.32.24,1.13,1.13,0,0,0-.28.39,4.21,4.21,0,0,0-.79,1.17,4.3,4.3,0,0,0,0,3.61,4.51,4.51,0,1,0,7.76-4.54Zm-2.71,4.43a2.27,2.27,0,0,1-3-.89,2.48,2.48,0,0,1,0-2.19,1.1,1.1,0,0,0,.55-.19,2.25,2.25,0,0,1,3.1.33A2.19,2.19,0,0,1,428.65,281.54Z"/><path class="cls-6" d="M439.09,280.39a6.61,6.61,0,0,0-3.58-.19c-1.16.23-.79,2.19.38,2a5.72,5.72,0,0,1,2.72.29,1.13,1.13,0,0,0,1.32-.83A1.12,1.12,0,0,0,439.09,280.39Z"/><path class="cls-6" d="M444.11,277.7a1,1,0,0,0-.16,1.93l.25.05c-.37.95-.71,1.9-1,2.89-.16.55-.31,1.1-.46,1.65,0,.15-.24,1.23-.31,1.66a1,1,0,0,0-.52.52,1.11,1.11,0,0,0,.07,2c3.35,1.25,8.19.28,8.93-3.74S447.87,277.53,444.11,277.7Zm4.33,6.71c-.52,1.83-2.15,1.93-3.77,1.85.13-.54.21-1.1.31-1.56a43.92,43.92,0,0,0,.87-4.52C447.6,280.9,449.06,282.23,448.44,284.41Z"/><path class="cls-6" d="M460,282.8a5.68,5.68,0,0,0-7.2-1,1.1,1.1,0,0,0-.39,1.6,3.93,3.93,0,0,0-.22,2.23,4.89,4.89,0,0,0,6.26,3.57A4,4,0,0,0,460,282.8Zm-2.19,3.92c-2,1.23-3.9-1.68-2.89-3.07a3.38,3.38,0,0,1,2.3.22C458.35,284.42,459.17,285.9,457.84,286.72Z"/><path class="cls-6" d="M465.46,285.18a1.4,1.4,0,0,0-.47-.68,1.07,1.07,0,0,0-1.39,0,1,1,0,0,0-.21,1.36,1.67,1.67,0,0,0,.89.62C465,286.73,465.68,285.85,465.46,285.18Z"/><path class="cls-6" d="M463.52,290.44a1.1,1.1,0,0,0-1-1,1.09,1.09,0,0,0-1.15.84,1.87,1.87,0,0,0,.17,1.48,1.1,1.1,0,0,0,1.86-.09A1.57,1.57,0,0,0,463.52,290.44Z"/><path class="cls-6" d="M452.74,303.69c-8.38-2.54-16.91-4.66-25.44-6.69a.87.87,0,0,0-.84-.66l-1.71.1a1.18,1.18,0,0,0-.19,2.33c9.25,2.35,18.4,5,27.61,7.51C453.83,306.73,454.37,304.19,452.74,303.69Z"/><path class="cls-6" d="M441.11,305.56c-5.67-1.09-11.37-2.39-17.06-3.37-1-.18-1.75,1.38-.67,1.83a58.45,58.45,0,0,0,17.19,4C442.12,308.12,442.75,305.88,441.11,305.56Z"/><path class="cls-6" d="M448.21,321.84a1.31,1.31,0,0,0-1-.89,2.31,2.31,0,0,0-2.31.88c-2.42-1.91-9.76-2.82-11.93-3.42-4.51-1.25-9.06-2.35-13.56-3.63-1.1-.32-1.47,1.4-.38,1.72,7.79,2.28,15.53,4.8,23.31,7.14C444.17,324.2,449.52,326,448.21,321.84Z"/><path class="cls-6" d="M442.79,325.89c-7.93-1.66-15.85-4.47-23.84-5.66-.86-.13-1.4,1.06-.54,1.48,7.22,3.53,16,5.11,23.79,6.82A1.35,1.35,0,0,0,442.79,325.89Z"/><path class="cls-6" d="M429.28,336.74a30,30,0,0,0-13.15-2.53A.89.89,0,0,0,416,336c2.08.51,4.22.73,6.31,1.21s4.11,1.24,6.2,1.7C429.75,339.16,430.5,337.29,429.28,336.74Z"/><path class="cls-6" d="M444.79,339.47c-2.25-.34-4.52-.59-6.77-.88-1.83-.22-3.67-.73-5.47-.26a.8.8,0,0,0-.12,1.45c1.61.92,3.71.92,5.52,1.18,2.1.31,4.2.64,6.31.89C445.8,342,446.37,339.71,444.79,339.47Z"/><path class="cls-6" d="M450.58,347.46c-4.7-2.91-10.5-3.18-15.8-4.25-6.91-1.38-13.66-3.32-20.47-5.09-1-.25-1.57,1.29-.61,1.66a125.26,125.26,0,0,0,17.71,5.31c5.9,1.37,12.62,1.64,17.86,4.87C450.83,350.92,452.13,348.41,450.58,347.46Z"/><path class="cls-5" d="M430.77,291.61a31.94,31.94,0,0,0-15.24,6.3c-.7-.7-1.39-1.4-2.1-2.09s-2.42.43-1.63,1.38,1.73,2,2.56,3a1.3,1.3,0,0,0,1.75.36,42.45,42.45,0,0,1,15.13-6.51A1.27,1.27,0,0,0,430.77,291.61Z"/><path class="cls-5" d="M426.39,309.62c-5.8.26-11.83,3.1-16.67,6.33a8.6,8.6,0,0,1-1.19-1.61.92.92,0,0,0-1.67.55,5.25,5.25,0,0,0,1.78,3.77,1.35,1.35,0,0,0,1.63.12c5.34-3.45,10.62-4.88,16.57-6.76A1.24,1.24,0,0,0,426.39,309.62Z"/><path class="cls-5" d="M421.78,328.05a29.05,29.05,0,0,0-16.43,7.06L404,333.64c-.82-.89-2.16.36-1.57,1.33s1.15,1.91,1.69,2.89a1.44,1.44,0,0,0,2,.4,32.26,32.26,0,0,1,15.86-7.37C423.68,330.56,423.68,327.9,421.78,328.05Z"/><path class="cls-6" d="M410.64,352c-1.23-.35-2.39.29-3.45.84a.44.44,0,0,0-.19.64.78.78,0,0,0,0,.21,14.42,14.42,0,0,1-.43,3.21c-.16.72,1,1.18,1.26.45a1.72,1.72,0,0,0,.07-.21c1.92.25,4.5-1,4.53-3A2.23,2.23,0,0,0,410.64,352Zm.17,2.59a2.84,2.84,0,0,1-2.64,1.1,7.57,7.57,0,0,0-.12-2.07,3.39,3.39,0,0,1,2-.49C410.78,353.25,411.28,353.86,410.81,354.58Z"/><path class="cls-6" d="M417.87,355.22a2.44,2.44,0,0,0-.9-1.15.47.47,0,0,0-.29-.42,2.47,2.47,0,0,0-3.36,1.91,2.27,2.27,0,0,0,2.53,2.46A2.13,2.13,0,0,0,417.87,355.22Zm-2.22,1.29c-.44,0-.91-.28-.86-.78a1.15,1.15,0,0,1,.16-.45.61.61,0,0,0,.27-.08,1,1,0,0,1,1.23.63C416.55,356.31,416.05,356.52,415.65,356.51Z"/><path class="cls-6" d="M423,353.84a18.85,18.85,0,0,0-.31,2.83,7.5,7.5,0,0,1-1.57-2,.84.84,0,0,1,.06-.14c.27-.58-.54-1.19-1-.65a4.07,4.07,0,0,0-.67,4.17c.32.64,1.24.21,1.24-.4s-.12-1-.08-1.46a7.74,7.74,0,0,0,2.27,2.33.67.67,0,0,0,.95-.45,33.64,33.64,0,0,0,.33-4.13A.64.64,0,0,0,423,353.84Z"/><path class="cls-6" d="M431.15,359.11a29.74,29.74,0,0,1-3.59.49c0-.51.07-1,.1-1.52a.58.58,0,0,0,.14,0,11,11,0,0,0,3.24-.33c.55-.19.59-1.13-.06-1.2a10.74,10.74,0,0,0-3.27.4c0-.44,0-.88,0-1.32a.5.5,0,0,0,0-.13,5.78,5.78,0,0,0,3.68.46c.79-.16.52-1.4-.25-1.36a9.74,9.74,0,0,1-3.6-.43c-.6-.18-.82.6-.44,1a.52.52,0,0,0-.46.41c-.29,1.53-.43,3.09-.62,4.64a.77.77,0,0,0,.79.91,9.94,9.94,0,0,0,4.62-.59C432.11,360.22,432,359,431.15,359.11Z"/><path class="cls-6" d="M435,354.55c-.35,1.43-.63,2.9-.86,4.35-.15,1,1.3,1.26,1.46.32.25-1.51.44-3.05.57-4.57C436.27,354,435.2,353.94,435,354.55Z"/><path class="cls-6" d="M434.89,362.21c-.15-.71-1.26-.57-1.39.07a1.64,1.64,0,0,0,0,.73c.16.74,1.29.59,1.43-.08A1.59,1.59,0,0,0,434.89,362.21Z"/><path class="cls-3" d="M386.88,237.15c-7.57.51-15.9,4.79-23,7.51-7.73,3-15.39,6.21-22.9,9.75s-14.94,7.16-22,11.36c-11,6.47-15.25,12.92-10.56,25.39,12.75,33.93,24.77,68.21,39.63,101.27.91,2,3.78,3.43,5.85,2.2a489.22,489.22,0,0,1,76.68-36.79,4.87,4.87,0,0,0,2.46-6.36,589,589,0,0,1-39-99.85,37.18,37.18,0,0,1-1.28-5.5C392.29,242.36,392.06,236.81,386.88,237.15Z"/><path class="cls-4" d="M384.25,249.65c-15.05,2.09-31.31,9.31-44.1,17.14-6,3.69-21.95,12.73-22.68,13.68-3.89,5.09,8.32,38.46,11.41,47.19a343.14,343.14,0,0,0,22.72,50.71c3.47,6.32,7.22,2.92,12.23.41L382,369.63c11.84-6,40.1-18.57,40.1-18.57S413,331,410.38,324.67q-4.22-10.29-8.14-20.7C398.34,293.73,385.22,249.51,384.25,249.65Z"/><path class="cls-5" d="M361.8,250.06c-1.15.27-2.29.57-3.42.91-.69-1.38-1.54-4.37-2-5.08a4.33,4.33,0,0,0-2.15-2.07c-2.92-1-7.44,2.22-9.8,3.51-3,1.65-7.89,3.72-10,6.45-1.8,2.3-.54,5.41.2,7.94a1.15,1.15,0,0,0,.06.17c-2.63,1.22-6,2.63-5.7,6.05.22,2.2,2.08,3.18,4.11,3,4.53-.46,9.7-4.63,13.59-6.79a98.62,98.62,0,0,1,16.83-7.84,1.92,1.92,0,0,0,1.1-2l-.61-2.65A1.91,1.91,0,0,0,361.8,250.06Z"/><path class="cls-6" d="M342.88,304c-2.35.77-6.15,1.17-7.2,3.74a.94.94,0,0,0,.32,1.19,25.71,25.71,0,0,0,2.5,8.52,1,1,0,0,0,1.29.49c1.68-.78,3.34-1.61,5-2.42.93-.45,2.6-.92,3.28-1.78s.39-1.62.18-2.64a59.58,59.58,0,0,0-1.5-5.77C346,303,344.92,303.3,342.88,304Zm2.08,3a16,16,0,0,1,.71,2.66,12.48,12.48,0,0,1,.72,2.65c-.12.26-1.18.69-1.6.9-1.66.83-3.32,1.65-5,2.5a33,33,0,0,1-2.31-6.93l.07-.08c1.12-1.37,3.78-1.83,5.39-2.41C344.38,305.77,344.35,305.68,345,307Z"/><path class="cls-6" d="M351.11,323.48a42.64,42.64,0,0,0-7.11,3.58c-.37-.1-.78,0-.78.53a19.34,19.34,0,0,0,1,4.9,12.83,12.83,0,0,0,1.26,3.93.94.94,0,0,0,.92.34,17.06,17.06,0,0,0,3.89-1.6l4.81-2.14a1.1,1.1,0,0,0,.56-1.44,26.62,26.62,0,0,1-3-7.26A1.13,1.13,0,0,0,351.11,323.48Zm-4.37,11.16a26.2,26.2,0,0,1-1-3.63c-.2-.69-.38-1.39-.61-2.06,1.9-1,3.76-2,5.7-2.89a28,28,0,0,0,2.31,5.48l-3,1.39A35.9,35.9,0,0,1,346.74,334.64Z"/><path class="cls-6" d="M358.84,341.49a24,24,0,0,0-9.29,3.19c-.78.45-1,1.84.06,2.14l.42.11a1.11,1.11,0,0,0,.54,0c.31,1,.63,1.89,1,2.82.45,1.13.82,2.85,1.69,3.73,1.61,1.63,3.44-.69,5-1.3s4.79-.43,4.85-2.56c0-.9-.83-2.2-1.17-3-.63-1.51-1.26-3-1.9-4.52A1.11,1.11,0,0,0,358.84,341.49Zm1.24,6.39c.49,1.15,1,1.29-.29,1.66-.69.2-1.38.37-2.06.62a11,11,0,0,0-1.93.91,7.75,7.75,0,0,0-1.21.85,7.08,7.08,0,0,0-.44-1.07c-.72-1.64-1.44-3.3-2.18-4.94a20.54,20.54,0,0,1,6.36-2.11C358.91,345.16,359.49,346.52,360.08,347.88Z"/><path class="cls-6" d="M344.3,285a4.52,4.52,0,0,0-5.49,2.66,1.18,1.18,0,0,0-1.58-1.15,44,44,0,0,0-4.58,2.48h0c-.12-.16-.24-.31-.37-.46-.4-.44-1.38-.29-1.36.42A7.48,7.48,0,0,0,331,290a16.12,16.12,0,0,1-2.46,1.41c-.68-.51-1.68.51-1.05,1.13,1.19,1.17,2.61.2,3.89-.43l.21-.11c.16.43.31.86.44,1.29a32.65,32.65,0,0,0,1.58,5.18c.44.83,2,.78,2-.34a16,16,0,0,0-1.2-4.81c-.24-.74-.48-1.54-.78-2.32a41.61,41.61,0,0,0,4.72-2.63,1,1,0,0,0,.29-.3c0,.13-.09.25-.12.38a1.08,1.08,0,0,0,0,.48,4,4,0,0,0,.06,1.41,4.24,4.24,0,0,0,2.13,2.91A4.51,4.51,0,1,0,344.3,285Zm.47,5.17a2.28,2.28,0,0,1-2.92,1.05,2.47,2.47,0,0,1-1.3-1.77,1.19,1.19,0,0,0,.34-.47,2.24,2.24,0,0,1,2.68-1.59A2.2,2.2,0,0,1,344.77,290.17Z"/><path class="cls-6" d="M352.46,283a6.64,6.64,0,0,0-3,2c-.79.87.68,2.23,1.52,1.4a5.71,5.71,0,0,1,2.36-1.39,1.09,1.09,0,1,0-.89-2Z"/><path class="cls-6" d="M354.9,277.88a1,1,0,0,0,1,1.64l.23-.1c.27,1,.57,1.94.93,2.91.2.53.41,1.06.62,1.59.05.15.53,1.14.73,1.52a1,1,0,0,0-.11.73c-.24.78.29,1.81,1.24,1.54,3.43-1,6.74-4.65,4.95-8.32S357.82,275.5,354.9,277.88Zm7.47,2.81c.67,1.78-.58,2.83-1.92,3.73-.22-.51-.5-1-.68-1.44-.61-1.41-1.25-2.8-2-4.15C359.6,278.37,361.57,278.57,362.37,280.69Z"/><path class="cls-6" d="M370.72,272.5a5.66,5.66,0,0,0-6.36,3.5,1.09,1.09,0,0,0,.64,1.51,3.8,3.8,0,0,0,1.14,1.92,4.89,4.89,0,0,0,7.16-.86A4,4,0,0,0,370.72,272.5Zm.58,4.45c-.88,2.19-4.14,1-4.15-.75a3.32,3.32,0,0,1,2-1.19C370.34,274.79,371.88,275.5,371.3,277Z"/><path class="cls-6" d="M376.5,271.18a1.39,1.39,0,0,0-.78-.27,1.09,1.09,0,0,0-1.13.82,1,1,0,0,0,.65,1.22,1.76,1.76,0,0,0,1.09,0A1,1,0,0,0,376.5,271.18Z"/><path class="cls-6" d="M378.08,276.56a1.09,1.09,0,0,0-1.4-.22,1.07,1.07,0,0,0-.43,1.36c.26.49.45.88,1,1.09a1.09,1.09,0,0,0,1.43-1.19A1.54,1.54,0,0,0,378.08,276.56Z"/><path class="cls-6" d="M377.31,293.62c-8.25,2.95-16.37,6.33-24.43,9.77a.87.87,0,0,0-1.07,0l-1.31,1.09a1.18,1.18,0,0,0,1.23,2c8.83-3.63,17.76-6.95,26.66-10.41C380,295.41,378.91,293.05,377.31,293.62Z"/><path class="cls-6" d="M369.08,302.05c-5.21,2.5-10.57,4.85-15.71,7.45-.95.48-.59,2.15.55,1.87a58.8,58.8,0,0,0,16.17-7.05C371.41,303.5,370.58,301.33,369.08,302.05Z"/><path class="cls-6" d="M384.48,310.9a1.3,1.3,0,0,0-1.34-.12,2.32,2.32,0,0,0-1.33,2.08c-3.08-.09-9.52,3.54-11.62,4.35-4.37,1.68-8.68,3.52-13.06,5.16-1.07.41-.35,2,.72,1.62,7.62-2.82,15.34-5.39,23-8.15C382.63,315.19,388,313.46,384.48,310.9Z"/><path class="cls-6" d="M382.53,317.38c-7.36,3.39-15.4,5.85-22.52,9.65a.8.8,0,0,0,.45,1.51c7.9-1.46,15.87-5.41,23.17-8.69A1.35,1.35,0,0,0,382.53,317.38Z"/><path class="cls-6" d="M378.13,334.14a30,30,0,0,0-12.07,5.8.89.89,0,0,0,.93,1.5c2-.82,3.83-1.92,5.79-2.78s4.05-1.46,6-2.33A1.16,1.16,0,0,0,378.13,334.14Z"/><path class="cls-6" d="M392.22,327.1c-2,1.07-4,2.21-6,3.33-1.6.9-3.38,1.59-4.55,3-.46.56.14,1.3.77,1.23,1.84-.21,3.52-1.46,5.14-2.33,1.87-1,3.75-2,5.59-3C394.57,328.56,393.63,326.35,392.22,327.1Z"/><path class="cls-6" d="M401.63,330.06c-5.5.47-10.33,3.71-15.22,6-6.37,3-13,5.46-19.48,8.09-.92.37-.49,2,.51,1.7a124.69,124.69,0,0,0,17.38-6.28c5.56-2.41,11.12-6.2,17.25-6.72C403.89,332.7,403.45,329.91,401.63,330.06Z"/><path class="cls-5" d="M352.47,297a31.78,31.78,0,0,0-8.5,14.13L341,310.7c-1.17-.16-1.68,1.79-.48,2.08l3.87.91a1.27,1.27,0,0,0,1.61-.75,42.62,42.62,0,0,1,8.28-14.24C355.23,297.59,353.52,296,352.47,297Z"/><path class="cls-5" d="M359.67,314.08c-4.51,3.66-7.66,9.53-9.63,15a8.53,8.53,0,0,1-1.9-.59.93.93,0,0,0-1,1.44,5.23,5.23,0,0,0,3.68,2,1.34,1.34,0,0,0,1.38-.87c2.24-5.95,5.63-10.24,9.29-15.3A1.23,1.23,0,0,0,359.67,314.08Z"/><path class="cls-5" d="M366.94,331.62a29.09,29.09,0,0,0-9,15.46l-2-.36c-1.19-.22-1.52,1.58-.46,2s2.05.85,3.07,1.32a1.45,1.45,0,0,0,1.84-.86,32.22,32.22,0,0,1,8.35-15.37C370,332.51,368.38,330.38,366.94,331.62Z"/><path class="cls-6" d="M372.24,357.49a4.76,4.76,0,0,0-2.26,2.73.43.43,0,0,0,.23.63.37.37,0,0,0,.09.19,14.81,14.81,0,0,1,1.56,2.84c.3.67,1.48.36,1.28-.39a1.72,1.72,0,0,0-.07-.21c1.7-.95,3-3.48,1.83-5.14A2.23,2.23,0,0,0,372.24,357.49Zm1.69,2a2.84,2.84,0,0,1-1.47,2.45,7.75,7.75,0,0,0-1.34-1.58,3.42,3.42,0,0,1,1.3-1.57C373.1,358.42,373.88,358.61,373.93,359.47Z"/><path class="cls-6" d="M380,355.78a2.53,2.53,0,0,0-1.41-.39.47.47,0,0,0-.49-.16,2.47,2.47,0,0,0-1.56,3.53,2.27,2.27,0,0,0,3.5.47A2.13,2.13,0,0,0,380,355.78Zm-1,2.36a.78.78,0,0,1-1.15-.11,1,1,0,0,1-.14-.47.62.62,0,0,0,.17-.22.94.94,0,0,1,1.36-.22C379.56,357.44,379.29,357.91,379,358.14Z"/><path class="cls-6" d="M383.25,351.65a19,19,0,0,0,1.43,2.45,7.54,7.54,0,0,1-2.45-.66l0-.15c-.12-.63-1.15-.64-1.17,0a4.1,4.1,0,0,0,2,3.76c.64.31,1.12-.58.75-1.07s-.66-.7-.93-1.12a7.91,7.91,0,0,0,3.21.52.67.67,0,0,0,.5-.92,32.62,32.62,0,0,0-2.2-3.53A.64.64,0,0,0,383.25,351.65Z"/><path class="cls-6" d="M393,351a30.85,30.85,0,0,1-2.59,2.53c-.27-.43-.55-.85-.83-1.28a.52.52,0,0,0,.13-.06,10.72,10.72,0,0,0,2.41-2.19c.33-.48-.2-1.26-.76-.93a10.93,10.93,0,0,0-2.39,2.27c-.25-.37-.51-.73-.77-1.08l-.1-.08a5.85,5.85,0,0,0,3.23-1.83c.54-.6-.42-1.43-1-.94a9.45,9.45,0,0,1-3.14,1.8c-.6.21-.3,1,.22,1a.5.5,0,0,0-.13.6c.68,1.41,1.5,2.74,2.26,4.1a.78.78,0,0,0,1.18.27A10,10,0,0,0,394,352C394.39,351.32,393.59,350.35,393,351Z"/><path class="cls-6" d="M393.38,345c.57,1.36,1.21,2.7,1.89,4,.44.84,1.8.24,1.37-.62-.7-1.36-1.46-2.71-2.27-4C394,343.82,393.13,344.43,393.38,345Z"/><path class="cls-6" d="M397.81,351.26c-.54-.48-1.35.29-1.07.89a1.63,1.63,0,0,0,.43.58c.57.5,1.38-.29,1.11-.91A1.7,1.7,0,0,0,397.81,351.26Z"/><path class="cls-7" d="M312,160.94c-5.41-4.08-11.36-4.62-17.91-4.78-.14,0-1.16-.11-1.37-.12-1.19-.19-2.37-.46-3.53-.73-2.27-.54-4.49-1.23-6.74-1.85-5.37-1.47-11.36-2.93-16.84-1.12a15.77,15.77,0,0,0-7.85,5.83c-10.51,7.34-16.33,20.28-12.69,33.84,2.93,10.9,12.62,16.79,23,19.05,9.74,2.12,20.44,2.74,30.22.58C319.39,207,330.77,175.11,312,160.94Z"/><path class="cls-7" d="M462.94,67.93c-8.26-6.23-17.35-7.06-27.38-7.31-.21,0-1.77-.17-2.09-.19-1.82-.28-3.62-.69-5.4-1.11-3.46-.83-6.86-1.88-10.3-2.82C409.56,54.25,400.4,52,392,54.78a24.15,24.15,0,0,0-12,8.92c-16.06,11.22-25,31-19.39,51.74,4.48,16.66,19.29,25.66,35.22,29.12,14.89,3.23,31.25,4.19,46.2.87C474.27,138.29,491.67,89.59,462.94,67.93Z"/><path class="cls-8" d="M199.41,83.3c-4.12-9.47-11.79-17.46-18.14-25.46-6.9-8.72-13.54-18-22.42-24.94C140.51,18.63,118,23.11,97.76,30.33c-16.62,6-34.38,14.57-43,30.86C48,74,47.54,89.32,51.51,104.14c1.12,19.44,12.12,39.48,26.93,52.68,35.36,31.5,79.72,14.86,104.7-20.62C193.61,121.33,207.58,102,199.41,83.3Z"/><path class="cls-9" d="M128.76,140.12a24.77,24.77,0,0,1-5.07-2,3.75,3.75,0,0,0-2.3-2.56,4.29,4.29,0,0,0-2.37-.16c-1.93-1.21-3.85-2.43-5.9-3.47-4.72-2.38-11-2.76-15-6.3-2.16-1.91-4.61-.78-5.72,1.2a4.88,4.88,0,0,0-2.13,1.36l-.05,0a9.15,9.15,0,0,0-1.59,1.86,4,4,0,0,0-.56,1.15c-2.86,4.3,1.2,9,5.2,10.72a5.36,5.36,0,0,0,5.78-.89c.34,2.25,1.19,4.64,3.36,5.7a5.24,5.24,0,0,0,5.71-.44c.61,2.57,2.52,5.58,5.11,6.24A5.35,5.35,0,0,0,118.4,151c1.38,2.14,3.31,3.8,5.91,3.52,4.47-.47,6.35-6.47,7-10.12A4,4,0,0,0,128.76,140.12Z"/><path class="cls-3" d="M156.62,111.35c-3.2-3-15.46-10.63-17.79-12.44A5.76,5.76,0,0,0,138.7,92c-2.15-3.12-5.69-5.72-8.26-8.54a95.6,95.6,0,0,0-6.65-7.29c-8.5-7.62-18.48-.88-23.75,7.63a74.94,74.94,0,0,1-9.38-13,4.16,4.16,0,0,0-7-.76c-2,2.35-5.73,6.86-7.27,11.08a49.46,49.46,0,0,0-6.52,13.75c-1.4,2-1.26,5,1.71,5.88a74.38,74.38,0,0,1,8.65,3.36,3.45,3.45,0,0,0,1,.57c.39.13.75.29,1.13.43,1.24.6,2.48,1.22,3.71,1.84a24.84,24.84,0,0,1,2.23,1.5,13.75,13.75,0,0,0-.93,11c1.88,5,6.5,7.53,11.14,9.48q4.48,1.88,9,3.7a4.16,4.16,0,0,0,1.13,1.44,70.76,70.76,0,0,0,14.78,9.21c3.54,1.72,9.42,5.89,13.21,2.87,1.84-1.46,2.19-3.78,1.79-6.11a14.52,14.52,0,0,0,2.8-.05c3.31-.4,5.07-3.63,5.28-6.7a7.43,7.43,0,0,0,0-1.25,11.59,11.59,0,0,0,5.62-1,4,4,0,0,0,2.41-3.23,14.2,14.2,0,0,0-.28-2.95,8.77,8.77,0,0,0,4-1.85C162.65,119.45,160,114.5,156.62,111.35Z"/><path class="cls-9" d="M167,97c-4.27-4.18-7.55-9.43-11.07-14.23a5.06,5.06,0,0,0-.41-.49c.16-.12.33-.24.49-.38,4.12-3.29-1-9.59-5.12-6.31a39.72,39.72,0,0,1-6.68,4.36,24,24,0,0,0-4.34,2.7c-2.16-2.7-3.71-6-7-7.84a6.44,6.44,0,0,0-8.6,1.29L114.18,87.23c-2.25,2.46-1.19,6.66,1.27,8.51,2.85,2.14,6.38,1.14,8.59-1.29l5.18-5.68c.26.42.52.84.8,1.25,2.58,3.82,12.88,12.65,18.58,16,9.83,5.74,6.56,6.56,10.75,2,2-2.17,4.67-3.57,7-5.3C168,101.47,168.56,98.46,167,97Z"/><path class="cls-10" d="M96.77,67.72C90.48,65,85.4,60,79.52,56.42c-7.71-4.68-16.13-13.52-24.41-1.7-5.22,7.45-28,29.77-16,37a138.21,138.21,0,0,0,19.72,9.9c6.16,2.5,14.4,11.71,18.5,1.06C82.19,90.06,109.27,73.22,96.77,67.72Z"/><path class="cls-10" d="M173,97.2c-1.39-4-4-7.39-5.8-11.18L161,73.34c-.93-2-2.46-3.35-4.75-2.72-3.16.86-7.46,3.95-9.5,6.35-2.63,3.07,3.5,8.54,5.32,10.75,3.8,4.62,6,10.26,8.13,15.78a20.21,20.21,0,0,0,1.06,2.2c2.86,5.31,8-2.12,10.28-4.14a6.46,6.46,0,0,0,1.29-1.47A3.55,3.55,0,0,0,173,97.2Z"/><path class="cls-11" d="M200.66,79.21a107.28,107.28,0,0,0-7.44-12,99.55,99.55,0,0,0-8.84-10.73c-4.08-4.3-8.21-9.16-14.21-4.68a44.47,44.47,0,0,0-4.61,4.39,86.29,86.29,0,0,1-9.76,8c-4.73,3.5-8.32,5.94-3.84,11.49,6.66,8.26,15.06,15.57,19,25.32a10.15,10.15,0,0,0,1.57,3,4.12,4.12,0,0,0,5.39.39c4.33-3.1,8.79-6,13.43-8.69,2-1.18,4.14-2.3,6.25-3.39,1.71-.87,3.77-1.58,5-3.12C205,86,202.2,82.12,200.66,79.21Z"/><path class="cls-11" d="M82.68,66.75a3.65,3.65,0,0,0-4.61,3.14,5.93,5.93,0,0,0,2,5c1.4,1.37,3.73,3.27,5.68,1.76a2.92,2.92,0,0,0,.67-.78,3.29,3.29,0,0,0,.48-.44C90.09,71.94,86.1,67.83,82.68,66.75Z"/><path class="cls-12" d="M433.29,90.25c-2.73-2.58-6.14-2.34-9.05-.83A2.73,2.73,0,0,0,422.36,88a2.64,2.64,0,0,0-3,1.7c-.68,1.77-1.17,3.75-.31,5.54a7.94,7.94,0,0,0,1.09,4.15c.15.28.28.6.42.94-8.55,7.59-17,15.24-27.54,20-1.59.72-1.14,3.56.72,3.45,6.28-.37,12.13-5,17.18-8.47a98.09,98.09,0,0,0,15.56-12.57c2.2.6,4.3-.58,5.72-2.41C435.89,98.84,436.06,92.86,433.29,90.25Z"/><path class="cls-12" d="M325.29,47.46c3.75,0,6.07,2.5,7.15,5.59a2.74,2.74,0,0,1,2.35.26,2.64,2.64,0,0,1,1,3.29c-.72,1.75-1.71,3.53-3.57,4.25a8,8,0,0,1-3.63,2.27,9.4,9.4,0,0,0-.95.41c1,11.38,1.93,22.73,6.34,33.46.66,1.61-1.61,3.38-2.89,2-4.33-4.57-5.39-12-6.72-17.93a98.45,98.45,0,0,1-2.73-19.81c-2-1.07-2.74-3.38-2.52-5.68C317.5,51.94,321.48,47.47,325.29,47.46Z"/><path class="cls-5" d="M398.39,144.48a34.17,34.17,0,0,0-.16-12,23.27,23.27,0,0,1-.71-4.89,18.57,18.57,0,0,1,.73-4.1c4.63-18.19,12.11-50.34-5.52-64.27a24.15,24.15,0,0,0-15.66-4.82c-8.85.28-16.95,4.44-23.3,10.44-7.84,7.4-9.33,17.5-16,25.33-2.43,2.87-5.75,4.81-8.76,7.07-22.63,17-27.92,57.82-.92,73.62,14.51,8.49,34.64,13.05,51.69,1.8C389.4,166.36,396.57,155.85,398.39,144.48Z"/><path class="cls-13" d="M398.23,132.51c0-.22-.09-.45-.14-.68-1.91,2.21-3.67,4.62-5.47,7.12-4.24,5.9-9.38,10-14.59,14.94-6.91,6.59-13.59,18.2-24.32,10.48-3.06-2.2-5.49-5-9.22-6.1-2.77-.85-5.73-.45-8.51-1.17-4.65-1.22-7.15-5.39-7.86-9.9-.49-3.1-.18-6.28-.74-9.36-.6-3.29-2.48-5.85-4.25-8.6A17.59,17.59,0,0,1,320.25,117c.86-8.3,5.57-14.51,10.28-20.8-.5.35-1,.71-1.49,1.08-22.63,17-27.92,57.82-.92,73.62,14.51,8.49,34.64,13.05,51.69,1.8,9.59-6.33,16.76-16.84,18.58-28.21A34.17,34.17,0,0,0,398.23,132.51Z"/><path class="cls-14" d="M368.26,87.89c.23-3-.89-9-3.83-10.63s-7.66-.33-10.69.64-2,6,1.12,5c1.58-.52,5.91-2.16,7.38-1.15.81.55,1.22,2.59,1.6,3.49a12,12,0,0,0,1.92,3.54A1.44,1.44,0,0,0,368.26,87.89Z"/><path class="cls-14" d="M379.78,91.15c2-2.29,7.06-5.67,10.27-4.69s5.59,5.23,7,8.08-2.92,5.63-4.35,2.69c-.74-1.5-2.59-5.73-4.33-6.08-1-.19-2.72.94-3.62,1.3a12.3,12.3,0,0,1-3.88,1.1A1.44,1.44,0,0,1,379.78,91.15Z"/><path class="cls-10" d="M383.16,108c-.13-4.33-3.91-5-7.4-5.13A14.84,14.84,0,0,1,367.6,100a15.91,15.91,0,0,0-5.29-2.86c-3.27-.76-6.46.68-7.45,3.93a1,1,0,0,0-.31.59,15.75,15.75,0,0,0,2.39,11.24c2.29,3.08,6.25,4.73,9.82,5.77,3.85,1.12,7.63.82,10.88-1.67C380.27,115,383.27,111.49,383.16,108Z"/><path class="cls-15" d="M354.55,101.66a10.89,10.89,0,0,0-.18,1.44c2.7-.23,5.41-.4,7.83,1,1.81,1,3.1,2.73,4.93,3.71a13.39,13.39,0,0,0,4.62,1.17c3.73.51,8,1.18,9.79,3.92a8.65,8.65,0,0,0,1.62-4.91c-.13-4.33-3.91-5-7.4-5.13A14.84,14.84,0,0,1,367.6,100a15.91,15.91,0,0,0-5.29-2.86c-3.27-.76-6.46.68-7.45,3.93A1,1,0,0,0,354.55,101.66Z"/><path class="cls-5" d="M329.58,148.37c-9,.85-17.33,7.07-23.79,13-3.57,3.28-6.49,7.45-10.16,10.56-2.14,1.81-5.21,1.44-7.79,2.22a27,27,0,0,0-6.22,2.81,3.26,3.26,0,0,0,.67,5.93c6.07,1.9,13.8.88,17.57-4.69a2.35,2.35,0,0,0,.43-1.62c2.6-2.38,4.81-5.72,7-8a86.27,86.27,0,0,1,10.23-9.45c4-3,8.44-5,12.91-7.22C332.07,151.07,331.48,148.19,329.58,148.37Z"/><path class="cls-8" d="M317.52,138.7a78.54,78.54,0,0,1,2.61-20.46.93.93,0,0,0-1.76-.59,42.12,42.12,0,0,0-3.63,21.24C314.87,140.46,317.54,140.28,317.52,138.7Z"/><path class="cls-8" d="M325.24,110.14a1.15,1.15,0,0,0-1.82-1.21,5.33,5.33,0,0,0-1.27,1.76c-.37.63-.75,1.25-1.12,1.89a1.07,1.07,0,0,0,1.77,1.19c.45-.59.87-1.18,1.31-1.77A5.26,5.26,0,0,0,325.24,110.14Z"/><path class="cls-8" d="M373.93,169.64a27.15,27.15,0,0,1-20.78,2.93,1,1,0,0,0-.64,1.89,25.2,25.2,0,0,0,22.64-2.38C376.61,171.15,375.46,168.74,373.93,169.64Z"/><path class="cls-8" d="M383.48,163.27a19.17,19.17,0,0,0-5,4.2c-.95,1.08.78,2.33,1.79,1.58a18.6,18.6,0,0,0,4.36-4.45A.92.92,0,0,0,383.48,163.27Z"/><path class="cls-8" d="M398,72.05c-.16-1.83-1.52-3.7-2.53-5.19a18.66,18.66,0,0,0-3.93-4.43c-.72-.55-1.89.39-1.38,1.19,1,1.58,2.18,3.05,3.12,4.69s1.43,3.44,2.56,4.8C396.69,74.16,398.08,73.2,398,72.05Z"/><path class="cls-8" d="M400,79.15a2.88,2.88,0,0,0-.77-2.18,1.23,1.23,0,0,0-1.7-.13,1.21,1.21,0,0,0-.11,1.69c-.07-.1,0,0,0,0l0,.08h0a.53.53,0,0,1,0,.11c0,.07,0,.48,0,.22a1.26,1.26,0,0,0,1.17,1.29A1.24,1.24,0,0,0,400,79.15Z"/><path class="cls-5" d="M385.66,207.78c-1.07-.68-3.54-1.28-4.18-2.34s-.43-4.4-.61-5.66a95,95,0,0,0-2.13-10.67c-1.65-6.38-4.15-15.09-9-19.8a1.78,1.78,0,0,0-2.92,1.46c.6,4,2.75,7.88,4,11.76a99.37,99.37,0,0,1,3.38,13.36c.5,2.84.42,6.12.84,9.11-1.57,5.88,3,10.77,8.76,12.18,2.42.59,5.19-.07,5.93-2.76C390.57,211.42,387.89,209.21,385.66,207.78Z"/><path class="cls-11" d="M351.59,70.88a4.27,4.27,0,0,0,2,1.24,3.69,3.69,0,0,0,2.92-.69c3-2.26.55-4.77-.5-5.92-1.74-1.93-3.65-3.72-5.3-5.73a2.85,2.85,0,0,0-1.37-1.11c-1.6-.47-3.59,1.57-4.26,3a3.71,3.71,0,0,0,.12,3.32c1.07,2.16,3.34,3.5,5.29,4.94A11.36,11.36,0,0,1,351.59,70.88Z"/><path class="cls-16" d="M350.44,76.17c.55-1.9-1.57-3.15-2.73-4.23-1.32-1.23-2.63-2.47-3.95-3.69s-4.77-4.12-6.27.8c-1.22,4,1.84,6.26,4.2,8.16,1.17.94,3.47,2.91,5.21,2.55C348.21,79.5,350.08,77.4,350.44,76.17Z"/><path class="cls-3" d="M503.07,142.05c-11.79-4.34-24.77-6.69-37-9.48-12.68-2.88-25.47-5.18-38.24-7.56-3-.55-3.33,4.11-.41,4.67,12.84,2.48,25.51,5.63,38.17,8.85,12.06,3.07,24,7.3,36.09,9.94C505.43,149.29,506.5,143.32,503.07,142.05Z"/><path class="cls-3" d="M481,170.91c-8.22-7.2-18.33-13-27.83-18.33-4.5-2.53-9.06-5-13.69-7.21s-9.73-5.36-14.76-6c-2.09-.27-2.64,2.37-1.27,3.52,3.77,3.19,9.21,5,13.56,7.3q7.18,3.83,14.14,8c9.08,5.53,17.39,12.09,26.28,17.86C480.9,178.33,484,173.53,481,170.91Z"/><path class="cls-3" d="M497.83,112.62c-10.18-1.25-21.05-.29-31.32-.33-9.89,0-20.46-1-30.25.53-2.6.4-2.2,4,.18,4.39,10.08,1.71,21,.91,31.25,1,10,.13,20.46,1.22,30.38.17C501.47,118.06,501,113,497.83,112.62Z"/><path class="cls-3" d="M302.12,92c-9.27-7.4-18.17-15.14-27.76-22.16q-6.86-5-13.85-9.89c-4.61-3.2-9.63-7.77-15-9.54a2.87,2.87,0,0,0-3,4.62c3.68,4,9.52,6.63,14,9.64q7.37,4.9,14.62,10c9.6,6.75,19.55,13.35,28.72,20.68C301.94,97,304.13,93.61,302.12,92Z"/><path class="cls-3" d="M292.65,99.43a229.77,229.77,0,0,0-32.71-14.84q-4-1.4-8.05-2.66c-2.57-.8-5.77-2.27-8.5-2.35-3.56-.1-6.4,4.2-3.36,6.91a3.72,3.72,0,0,0,4.51,0l.59.16,2.73.74c2,.56,4.08,1.15,6.11,1.77,4.29,1.3,8.53,2.71,12.75,4.2,8.13,2.88,16.44,5.88,24.29,9.44C293,103.73,294.57,100.45,292.65,99.43Z"/><path class="cls-3" d="M285,111.39a260.58,260.58,0,0,0-30.26-3.79c-4.88-.37-9.78-.73-14.68-.91-4-.15-8.82-.22-12.3,2.06-2.52,1.65-1.33,5.81,1.91,5.11,8.72-1.89,17.43-1.14,26.32-.65,9.46.53,18.91,1.29,28.37,1.67C286.26,115,287,111.79,285,111.39Z"/></g><g id="Layer_3" data-name="Layer 3"><path class="cls-17" d="M210.5,325.43c-1.26-4.58-6.25-8.18-15.25-7.27-2.31.23-4.53.87-6.86.91a22.06,22.06,0,0,1-5.07-.62c-7.87-1.67-15.22-4.51-23.26-5.74-14.24-2.18-33.22,6.11-31.86,17.36,1.92,15.77,39.77,16,54.67,12.15a37.36,37.36,0,0,1,5.5-1.19c1.81-.18,3.65,0,5.47-.11C204.7,340.52,212.53,332.81,210.5,325.43Z"/><path class="cls-17" d="M286.35,368.64c-9.44-12.7-28.78-14.11-43-17.55-9-2.17-15.29-1.66-23,3.68-2.61,1.82-5.45,3.82-8.8,3.58-1.79-.13-3.3-1.24-5.24-1.21a15.46,15.46,0,0,0-5.52,1.48,9.4,9.4,0,0,0-3.16,1.35,31.25,31.25,0,0,0-5.73,5.11c-2.87,3.08-1.75,7.68.2,10.76,4.86,7.68,13.62,5.65,20.56,2.76s14.11-1.89,21.28-.76c8.27,1.31,16.51,2.78,24.77,4.18s16.25,3.52,24.23.19C288.45,379.94,289.69,373.13,286.35,368.64Z"/><path class="cls-17" d="M120.82,347.37c-8.65-2.69-17.36-1.49-26.13-.16-4.92.75-9.84,1.58-14.76.3-4.44-1.15-8.46-3-13.15-2.94a5.68,5.68,0,0,0-.59,0,8.82,8.82,0,0,0-4.21-.26c-7.94,1.34-20,4.82-22.82,13.47s4,16.32,12.26,17.95c9.57,1.89,20.13,0,29.72-.92a102.6,102.6,0,0,1,15.07-.73c4.69.23,9.32,1.14,14,1.25,7.74.17,21-.33,24.57-8.86C138.62,357.32,128.35,349.7,120.82,347.37Z"/><path class="cls-8" d="M79,227c6.48-5,14.73-7.77,21-1.11A12,12,0,0,1,103.45,236c-.07.53-.13,1-.17,1.53.42,2.37,0,5.12,1.14,7.35,1.71,3.44,2.41,6.44-.19,9.65a37.64,37.64,0,0,1-4.28,3.89,19.26,19.26,0,0,0-4.88,7.4c-1.43,3.54-3.21,6.24-7.52,5.79-.87-.09-2-.8-1.8-1.84.27-1.74,1.64-5.7.69-7.33-1.09-1.89-4.52-2.52-6.25-3.76-3.17-2.27-4.48-5.8-5.81-9.31C71.31,241.27,71.65,232.64,79,227Z"/><path class="cls-13" d="M91.94,262.52c2.08-4.33,4.15-9,3.94-13.9-.23-5.6-3-10.74-4.56-16-1-3.48-1.44-7.13-3-10.34A11.67,11.67,0,0,1,100,225.86,12,12,0,0,1,103.45,236c-.07.53-.13,1-.17,1.53.42,2.37,0,5.12,1.14,7.35,1.71,3.44,2.41,6.44-.19,9.65a37.64,37.64,0,0,1-4.28,3.89,19.26,19.26,0,0,0-4.88,7.4c-1.4,3.46-3.14,6.12-7.27,5.8C89.37,268.7,90.51,265.51,91.94,262.52Z"/><path class="cls-3" d="M54.38,306.64a112.86,112.86,0,0,1,20.11-34.2c.73-.82,2.09.28,1.51,1.19L73.81,277c-2.92,6.39-5.84,12.76-8.88,19.08-1.77,3.66-3.67,11.38-8.35,12.37a1.44,1.44,0,0,1-.41,0C55.11,308.69,53.9,308,54.38,306.64Z"/><path class="cls-8" d="M131.68,236c-2.62-6.29-9.29-3.36-8.92,1.22-2-1.66-5.32.26-4,2.67,1.16,2.18-1.11,4.71-1.81,6.62a2.17,2.17,0,0,0-.12.88c-1.27,2.71-2.53,5.43-3.74,8.16-.29.66-.56,1.24-.79,1.8-2.16,3-4.56,5.55-1.51,9.2a2.42,2.42,0,0,0,2.25.9c1.28,1.21,3.71,1.37,4.23-.61.87-3.3,2.78-6,4.29-9,1.79-3.61,2-7.79,4.88-10.83C129.55,243.74,133.85,241.25,131.68,236Z"/><path class="cls-16" d="M119.54,260.49a4.46,4.46,0,0,0-.74-.34,30,30,0,0,0-3.62-1c-1.18-.26-2.62-1.21-3.79-.89-2.33.64-4.09,3.18-5.61,4.91a67.52,67.52,0,0,0-5.39,7.09,3.16,3.16,0,0,0-.74,2.38c.29,1.1,1.61,1.54,2.73,1.57-.81,0-3.29,5-3.62,5.67a2.08,2.08,0,0,0,1.58,2.77.84.84,0,0,0,.58.24c10.9.51,16.28-11.49,19.73-19.84A2,2,0,0,0,119.54,260.49Z"/><path class="cls-16" d="M76.1,329c-.79-5.37-1.36-10.78-2.22-16.15a2.08,2.08,0,0,1,1.77-2.34l6.12-.06a2.2,2.2,0,0,1,3.59,0c1.91,0,3.83,0,5.74,0,2.1-.06,4.18,0,6.25.09a1.76,1.76,0,0,1,.9-.46,50.79,50.79,0,0,1,6.64-.52,14.76,14.76,0,0,1,4.35.17c.4-1.86,3.36-1.5,3.06.45-.14.9-.29,1.81-.44,2.71a1.3,1.3,0,0,1,.07.79l-.76,3.32a.78.78,0,0,1,0,.14c-.22,9-1.82,17.88-2.66,26.88a60.23,60.23,0,0,1-1.61,10c-.59,2.18-1.81,7.46-4.36,8.21-3.85,1.12-3.79-5.19-4.09-7.54a149.34,149.34,0,0,0-3.78-18.59c-.35-1.32-.68-2.65-1-4-1-3.44-.35-.51-.49.71a37.64,37.64,0,0,1-2.14,7.6,62.43,62.43,0,0,1-7.15,14.2c-2.14,3.18-4.89,6.33-9.11,5.36-1-.23-2.2-1.19-1.88-2.4a96.08,96.08,0,0,0,3.35-22.68C76.21,332.93,76.18,331,76.1,329Z"/><path class="cls-15" d="M101.63,358.09a3.3,3.3,0,0,1,3.66-.51,15.9,15.9,0,0,1,1.51.73,4.5,4.5,0,0,1,3.87,3,2.52,2.52,0,0,1-1.28,3.21c-1.35.54-2.94-.39-4.18-.86s-2.77-.8-3.66-1.86A2.72,2.72,0,0,1,101.63,358.09Z"/><path class="cls-15" d="M80.18,359.12a3.26,3.26,0,0,1-.73,2.79,8.93,8.93,0,0,1-2.7,1.69c-.81.42-1.49,1-2.3,1.44-1.65.89-3.86,1.07-5.23-.23s-.66-3.26.9-4.35A37.28,37.28,0,0,1,76,356.91c1.8-.8,3.86-.31,4.21,1.59A1.85,1.85,0,0,1,80.18,359.12Z"/><path class="cls-10" d="M73.32,288.76c.07-2.32-.06-5.23,0-8.19.11-4.44.68-9,3-11.86a13,13,0,0,1,5.05-3.49c3.14-1.22,3.43.28,5.68,2.13a4.38,4.38,0,0,0,5.27.09,18,18,0,0,1,2-1.72,4,4,0,0,1,3.16-.17,14.48,14.48,0,0,1,7.87,6.69,46.78,46.78,0,0,1,5.94,20.29,94,94,0,0,1,.13,10.88c0,.35,0,.72,0,1.1,0,.15,0,.29,0,.44.1,1.84,1.05,5.41.16,7.07-.79,1.48-3.24,1.39-4.67,1.53a26.3,26.3,0,0,1-4,.15c-4.54.38-9.49-.33-13.72.37-3.35.55-6.55,1.75-9.89,2.38-3.82.73-5.36-1.41-5.61-4.93A224.53,224.53,0,0,1,73.32,288.76Z"/><path class="cls-3" d="M48,328.76c.58,5,8.39,5,12.19,5.81C66.57,336,72,337.75,78.62,336c3.78-1,3.91-3,4.5-6.56a71.85,71.85,0,0,0,1-10c.11-4.24-.36-7.36-4-10.13-5.08-3.9-13.78-6.82-20.23-6a10.15,10.15,0,0,0-6.06,3.48,20.05,20.05,0,0,0-2,2.67C48.29,315,47.26,322.39,48,328.76Z"/><path class="cls-18" d="M76.19,312.83c-2.76,2.13-3.41,5.3-4.37,8.43-1.78,5.86-7.91,3-12,1.32-3.9-1.55-7.81-2.86-11.15-5.34a25.49,25.49,0,0,1,3.18-7.81,20.05,20.05,0,0,1,2-2.67,10.15,10.15,0,0,1,6.06-3.48c6.45-.84,15.15,2.08,20.23,6a11.91,11.91,0,0,1,1.77,1.67A11,11,0,0,0,76.19,312.83Z"/><path class="cls-19" d="M76.19,312.83c-2.76,2.13-3.41,5.3-4.37,8.43-1.78,5.86-7.91,3-12,1.32-3.9-1.55-7.81-2.86-11.15-5.34a25.49,25.49,0,0,1,3.18-7.81,20.05,20.05,0,0,1,2-2.67,10.15,10.15,0,0,1,6.06-3.48c6.45-.84,15.15,2.08,20.23,6a11.91,11.91,0,0,1,1.77,1.67A11,11,0,0,0,76.19,312.83Z"/><path class="cls-3" d="M76.29,313.84c-.07-2.37.87-3.22,2.94-4.92,2.4-2,4.74-4.05,7-6.21,9.71-9.3,11.51-25.29,9.59-37.95a1.43,1.43,0,0,1,2-1.39,2.26,2.26,0,0,1,1.56,2.39,1,1,0,0,1,.47.58c2.47,7.83,1.5,16.53-1,24.22a55.73,55.73,0,0,1-8.18,16c-1.52,2-10.89,13.43-13.53,10.4a3.59,3.59,0,0,1-.72-1.93A11.71,11.71,0,0,1,76.29,313.84Z"/><path class="cls-8" d="M68.78,286.61c1.88-1.44,5.11.21,6.55,1.6,1.16-.45,2.85.1,2.65,1.61a42.78,42.78,0,0,0-.69,6.05c0,1.91.31,3.52,2.26,4.14l.46.12a2.67,2.67,0,0,1,.84-.5,7.74,7.74,0,0,1,2-.47,4.77,4.77,0,0,1,1.31,0h.07l.5.07a1.77,1.77,0,0,1,1.08,2.69,5.78,5.78,0,0,1,1.16,1.44,3.41,3.41,0,0,1,.56.63,5.33,5.33,0,0,1,.42,4.55,2.67,2.67,0,0,1-3.25,1.68,3,3,0,0,1-1.53-.63,4.6,4.6,0,0,1-.46-.43c-1.12-.73-1.62-2.22-2.59-3.33l-.32-.32a11.67,11.67,0,0,1-12.7-10.09C66.71,293,66.6,288.28,68.78,286.61Z"/><path class="cls-16" d="M77.06,293.41a1.92,1.92,0,0,0,2.32-1.24,159.25,159.25,0,0,0,3.41-19.59,6,6,0,0,0,0-3.88c-1.82-4-7.07.14-8.86,2.05a29.89,29.89,0,0,0-7.23,14.84C65.75,291.33,72.65,292.68,77.06,293.41Z"/><path class="cls-16" d="M56.11,319.3a2.4,2.4,0,0,1,2.6-.94,2.19,2.19,0,0,1,1.36,1.33,2.91,2.91,0,0,1,.53.63,2.35,2.35,0,0,1-.16,2.52c-1.31,1.82-3.88.72-4.6-1A2.53,2.53,0,0,1,56.11,319.3Z"/><path class="cls-20" d="M61.6,255.3a10.14,10.14,0,0,1,2-2.44l.08-.13A18.26,18.26,0,0,0,64.73,251c-1.41.36-3.37-1.08-2.18-2.56a30.29,30.29,0,0,0,4.14-7c0-.13,0-.26,0-.39A79.57,79.57,0,0,1,68,232.43c.21-1.12.43-2.26.69-3.37.21-.51.42-1,.66-1.5,3.13-6.34,9.67-8.74,16.39-9.4,3-.3,11.17-1.23,13.15,1.7a1.63,1.63,0,0,0,1.17.74c.35.37.68.75,1,1.13a37.74,37.74,0,0,1,1.91,4.25,1.43,1.43,0,0,0-.38,1.69c2.1,5.41,4.63,10.57,9.44,13.87a1.44,1.44,0,0,1-1,1,3.31,3.31,0,0,1-1.47,0c.9,2,1.79,4,2.69,6a.94.94,0,0,1,.06.15c.19.28.38.56.58.83,1,1.39-1.08,2.64-2.25,1.66l0,0-.2-.28,0,0-.13-.18,0,0-.17-.07a9.52,9.52,0,0,1-1.41-.87,1.46,1.46,0,0,1-.51,0c.53,2,1.28,4,.55,6.11-.43,1.29-2.61,1.84-3.23.36A29.77,29.77,0,0,1,103,246.8c-.28-3.69.46-7-.62-10.26a2.37,2.37,0,0,1-.14-.32l-.33-.88a12.58,12.58,0,0,0-.66-1.16,12.41,12.41,0,0,1-1.09,1.87,1.57,1.57,0,0,1-2.82-.41c-.13-.47-.25-.94-.38-1.41a31.57,31.57,0,0,1-3.15,6,1.6,1.6,0,0,1-2.86-.42c-.25-1.12-.47-2.23-.71-3.35a1.51,1.51,0,0,1-.66.58,37.19,37.19,0,0,1-5.19,5.31,1.69,1.69,0,0,1-2.83-1.22q-.12-2.19-.12-4.38a14.17,14.17,0,0,0-2.94,6.8c-.35,3.59,1.53,6.94,1.53,10.55,0,1.52-2.23,2.57-3.25,1.26-.87-1.1-1.7-2.22-2.52-3.35-.06,3.38-1.06,6.79-3.78,8.83a1.79,1.79,0,0,1-3-1.28,32.72,32.72,0,0,1-.08-4.2A12.54,12.54,0,0,1,64,257.72,1.76,1.76,0,0,1,61.6,255.3Z"/><path class="cls-8" d="M84.66,278.37l2.31-.58a1.73,1.73,0,0,1,.38-.05,1.31,1.31,0,0,1,1.63.77,6.55,6.55,0,0,1-.17,3.64,2.65,2.65,0,0,1-.93,1.57,5,5,0,0,1-.79.44c-.06.07-.11.15-.17.21a1.24,1.24,0,0,1-1.19.32,1.35,1.35,0,0,1-1.61-1l-.5-3.55A1.48,1.48,0,0,1,84.66,278.37Z"/><path class="cls-16" d="M66.23,219.66c3.1-5.59,9.52-7.85,15.51-8.68s12-1.09,16.71,3a17.67,17.67,0,0,1,5.75,12.56s0,0,0,.06a1.75,1.75,0,0,1,0,.85c0,.35,0,.71,0,1.06a1.22,1.22,0,0,1-2.28.53l-.19-.07a23.72,23.72,0,0,0-9.93-1.46,52.74,52.74,0,0,0-14.7,5.17,11.81,11.81,0,0,0-2.94,3.95c-.74,1.69-2.5,1.37-4.09,1.52-3.86.36-4.36-4.09-5-7.15C64.24,227.2,64.29,223.15,66.23,219.66Z"/><path class="cls-10" d="M74.07,237.76c1.58,4.37,8,3.42,11.33,2.16a2.33,2.33,0,0,0,.66-.38c1.74-.74,3.06-2.18,5-2.8,4.29-1.41,12.27-2.09,16.14.63.77.54,1.67-.33,1.5-1.09a1,1,0,0,0-.06-1.07c-1.83-2.63-3.53-6.15-6-8.19-1.74-1.4-4.18-1.67-6.31-2-5.18-.8-11.73-1.51-16.37,1.56C76.86,228.57,72.67,233.89,74.07,237.76Z"/><path class="cls-21" d="M74.07,237.76c1.58,4.37,8,3.42,11.33,2.16a2.33,2.33,0,0,0,.66-.38c1.74-.74,3.06-2.18,5-2.8,4.29-1.41,12.27-2.09,16.14.63.77.54,1.67-.33,1.5-1.09a1,1,0,0,0-.06-1.07c-1.83-2.63-3.53-6.15-6-8.19-1.74-1.4-4.18-1.67-6.31-2-5.18-.8-11.73-1.51-16.37,1.56C76.86,228.57,72.67,233.89,74.07,237.76Z"/><path class="cls-8" d="M83.23,216.25a10.45,10.45,0,0,1,3.09-.9,1.5,1.5,0,0,1,1.78,1.05.91.91,0,0,1,.28.35c.72,1.64.46,4-1.27,4.94-1.06.57-1.88-.13-2.48-.94s-1.26-1.83-1.9-2.74A1.29,1.29,0,0,1,83.23,216.25Z"/><path class="cls-8" d="M135.7,198.92c3.83-5.63,9.78-1.43,8.49,3,2.32-1.23,5.16,1.33,3.42,3.43-1.58,1.9.14,4.83.44,6.85a2.18,2.18,0,0,1-.06.89c.7,2.9,1.38,5.82,2,8.74.15.7.3,1.33.41,1.92,1.51,3.4,3.35,6.35-.37,9.31a2.4,2.4,0,0,1-2.39.43c-1.49.93-3.91.59-4-1.45-.18-3.41-1.52-6.4-2.38-9.68-1-3.9-.39-8-2.61-11.6C136.24,206.89,132.53,203.59,135.7,198.92Z"/><path class="cls-11" d="M142.68,225.31a5.32,5.32,0,0,1,.79-.18,27.75,27.75,0,0,1,3.76-.29c1.2,0,2.8-.66,3.88-.11,2.16,1.09,3.38,3.93,4.51,5.94a68.08,68.08,0,0,1,3.86,8,3.11,3.11,0,0,1,.24,2.48c-.5,1-1.88,1.18-3,1,.8.14,2.22,5.56,2.41,6.27a2.08,2.08,0,0,1-2.1,2.4.87.87,0,0,1-.63.12c-10.77-1.69-13.63-14.53-15.33-23.41C140.85,226.33,141.68,225.64,142.68,225.31Z"/><path class="cls-15" d="M157.33,327.83a3.32,3.32,0,0,0-3.66-.52c-.49.21-1,.46-1.51.74a4.52,4.52,0,0,0-3.88,3,2.52,2.52,0,0,0,1.29,3.21c1.34.55,2.93-.39,4.17-.85s2.78-.8,3.66-1.87A2.7,2.7,0,0,0,157.33,327.83Z"/><path class="cls-15" d="M178.78,328.86a3.23,3.23,0,0,0,.73,2.78,8.45,8.45,0,0,0,2.7,1.69c.81.43,1.49,1,2.3,1.45,1.65.88,3.86,1.06,5.22-.24s.67-3.25-.89-4.34a37.07,37.07,0,0,0-5.85-3.55c-1.8-.8-3.85-.32-4.2,1.59A1.62,1.62,0,0,0,178.78,328.86Z"/><path class="cls-8" d="M180,196.71c-6.48-5-14.74-7.78-21-1.12a12,12,0,0,0-3.47,10.16c.06.53.12,1,.17,1.53-.43,2.37,0,5.12-1.14,7.35-1.71,3.44-2.41,6.43.18,9.64a37.74,37.74,0,0,0,4.29,3.9,19.26,19.26,0,0,1,4.88,7.4c1.43,3.53,3.21,6.24,7.52,5.79.87-.1,2-.8,1.8-1.84-.27-1.74-1.64-5.7-.7-7.33,1.1-1.89,4.53-2.52,6.25-3.76,3.17-2.27,4.49-5.8,5.81-9.31C187.65,211,187.3,202.37,180,196.71Z"/><path class="cls-13" d="M167,232.26c-2.08-4.34-4.15-9-4-13.9.24-5.6,3-10.74,4.56-16,1-3.47,1.45-7.12,3.06-10.33A11.68,11.68,0,0,0,159,195.59a12,12,0,0,0-3.47,10.16c.06.53.12,1,.17,1.53-.43,2.37,0,5.12-1.14,7.35-1.71,3.44-2.41,6.43.18,9.64a37.74,37.74,0,0,0,4.29,3.9,19.26,19.26,0,0,1,4.88,7.4c1.4,3.46,3.14,6.12,7.26,5.8C169.58,238.44,168.45,235.24,167,232.26Z"/><path class="cls-11" d="M182.86,298.75c.78-5.37,1.36-10.78,2.22-16.15a2.07,2.07,0,0,0-1.78-2.34l-6.11-.06a2.2,2.2,0,0,0-3.59,0c-1.92,0-3.83,0-5.75,0-2.09-.07-4.18,0-6.24.09a1.76,1.76,0,0,0-.9-.46,50.79,50.79,0,0,0-6.64-.52,14.1,14.1,0,0,0-4.35.17c-.41-1.87-3.36-1.5-3.06.45.14.9.29,1.8.44,2.7a1.26,1.26,0,0,0-.07.8l.76,3.31a.66.66,0,0,0,.05.15c.22,9,1.81,17.88,2.66,26.87a59.32,59.32,0,0,0,1.61,10c.59,2.18,1.8,7.46,4.35,8.2,3.86,1.13,3.8-5.18,4.1-7.53a146.83,146.83,0,0,1,3.78-18.59c.35-1.32.68-2.65,1-4,1-3.44.35-.51.49.71a37.18,37.18,0,0,0,2.14,7.6,62.16,62.16,0,0,0,7.15,14.19c2.14,3.19,4.88,6.34,9.11,5.37,1-.24,2.2-1.19,1.87-2.4a97.2,97.2,0,0,1-3.35-22.68Q182.73,301.69,182.86,298.75Z"/><path class="cls-6" d="M185.64,258.49c-.07-2.32.05-5.22,0-8.18-.12-4.44-.69-9-3.05-11.86a12.91,12.91,0,0,0-5-3.49c-3.14-1.22-3.43.28-5.68,2.12a4.37,4.37,0,0,1-5.27.1,20.42,20.42,0,0,0-2-1.73,4,4,0,0,0-3.15-.16,14.46,14.46,0,0,0-7.87,6.68,47,47,0,0,0-6,20.3,94,94,0,0,0-.12,10.88c0,.35,0,.72,0,1.1,0,.15,0,.29,0,.44-.1,1.84-1.05,5.41-.17,7.07.79,1.48,3.25,1.39,4.67,1.53a25.15,25.15,0,0,0,4,.14c4.55.39,9.5-.32,13.72.37,3.35.55,6.56,1.76,9.89,2.39,3.83.73,5.36-1.42,5.62-4.94A227.36,227.36,0,0,0,185.64,258.49Z"/><path class="cls-3" d="M167.85,254.44l11.09,27.39,5.26,13a88,88,0,0,1,3.44,9,134.1,134.1,0,0,1,15.66,14.38c1.21,1.29-.68,3.11-2.06,2.17a51.71,51.71,0,0,1-6.74-5.63c.83,1.15,1.69,2.28,2.58,3.36l3.83,3.93c1.18,1.22-.77,3.3-2.06,2.17a34.89,34.89,0,0,1-3.56-3.63l-3.37-3.47a27.11,27.11,0,0,1,.37,7.11c-.15,2-3,1.62-3-.29a18.09,18.09,0,0,0-1.29-6.32,68.41,68.41,0,0,1-2.32,8.46c-.54,1.57-3.26,1-2.93-.68.28-1.51.57-3,.86-4.54q-1.19,2.28-2.46,4.5c-.9,1.57-3.1.12-2.66-1.41a48.26,48.26,0,0,1,7.22-14.8,1.43,1.43,0,0,1-.21-.65c0-.33-.07-.65-.12-1a1.33,1.33,0,0,1-.79-1.85c.11-.25.2-.44.29-.61a83.52,83.52,0,0,0-4-10.32l-5.26-13-10.53-26C164.37,253.89,167.13,252.64,167.85,254.44Z"/><path class="cls-13" d="M184.78,310.45c2-1.39,4.1-2.62,6.16-3.93a135.2,135.2,0,0,1,12.36,11.7c1.21,1.29-.68,3.11-2.06,2.17a51.71,51.71,0,0,1-6.74-5.63c.83,1.15,1.69,2.28,2.58,3.36l3.83,3.93c1.18,1.22-.77,3.3-2.06,2.17a34.89,34.89,0,0,1-3.56-3.63l-3.37-3.47a27.11,27.11,0,0,1,.37,7.11c-.15,2-3,1.62-3-.29a18.09,18.09,0,0,0-1.29-6.32,68.41,68.41,0,0,1-2.32,8.46c-.54,1.57-3.26,1-2.93-.68.28-1.51.57-3,.86-4.54q-1.19,2.28-2.46,4.5c-.9,1.57-3.1.12-2.66-1.41A48.61,48.61,0,0,1,184.78,310.45Z"/><path class="cls-13" d="M184.85,305.06q-.25-.94-.57-1.89c.89-.52,1.77-1.05,2.61-1.66.28.77.53,1.55.75,2.33l.47.38c-1.22.76-2.45,1.52-3.66,2.3a1.38,1.38,0,0,1,.11-.85C184.67,305.42,184.76,305.23,184.85,305.06Z"/><path class="cls-8" d="M190.18,256.35c-1.89-1.44-5.11.21-6.56,1.6-1.15-.45-2.84.1-2.64,1.61a42.61,42.61,0,0,1,.69,6.05c0,1.91-.32,3.51-2.27,4.14a3.84,3.84,0,0,1-.46.11,2.68,2.68,0,0,0-.83-.49,7.81,7.81,0,0,0-2-.47,5.09,5.09,0,0,0-1.3,0h-.07l-.51.07a1.77,1.77,0,0,0-1.07,2.69,5.6,5.6,0,0,0-1.17,1.44,3.65,3.65,0,0,0-.55.63,5.31,5.31,0,0,0-.42,4.54,2.67,2.67,0,0,0,3.25,1.69,3,3,0,0,0,1.53-.63,6.17,6.17,0,0,0,.46-.43c1.12-.73,1.62-2.22,2.59-3.33l.31-.32a11.67,11.67,0,0,0,12.7-10.09C192.25,262.78,192.36,258,190.18,256.35Z"/><path class="cls-11" d="M181.9,263.15a1.91,1.91,0,0,1-2.32-1.25,157.06,157.06,0,0,1-3.41-19.59,6.09,6.09,0,0,1,0-3.87c1.83-4,7.08.13,8.86,2.05a29.9,29.9,0,0,1,7.24,14.84C193.2,261.06,186.3,262.42,181.9,263.15Z"/><path class="cls-7" d="M181.9,263.15a1.91,1.91,0,0,1-2.32-1.25,157.06,157.06,0,0,1-3.41-19.59,6.09,6.09,0,0,1,0-3.87c1.83-4,7.08.13,8.86,2.05a29.9,29.9,0,0,1,7.24,14.84C193.2,261.06,186.3,262.42,181.9,263.15Z"/><path class="cls-11" d="M174.29,248.11l-2.3-.58a1.28,1.28,0,0,0-.38-.05,1.31,1.31,0,0,0-1.64.76,6.49,6.49,0,0,0,.18,3.65,2.62,2.62,0,0,0,.92,1.57,5.12,5.12,0,0,0,.8.44l.17.21a1.24,1.24,0,0,0,1.18.32,1.37,1.37,0,0,0,1.62-1l.5-3.55A1.47,1.47,0,0,0,174.29,248.11Z"/><path class="cls-15" d="M151.25,204.26l-.09,0a3.67,3.67,0,0,1-1.43-4.19,2.76,2.76,0,0,1,1.09-1.34,2.91,2.91,0,0,1-1.24-.71c-1.63-1.5-1.12-3.8-.38-5.73.82-2.11,2.11-3.58,4.06-4s3.73.41,5.25-1.19c1.32-1.38,2.34-3.15,4.15-3.64a3,3,0,0,1,1.47,0c2.87-2,6.65-1.84,9.8-.49a15.68,15.68,0,0,1,2,1.07,8.12,8.12,0,0,1,2.37.77,1.23,1.23,0,0,1,.67.34l.14.13a10.31,10.31,0,0,1,2.52,2.28,10.31,10.31,0,0,0,1.09.78c1.48.93,2.86.71,4.42,1.11,2.14.54,3.89,4.13,1.71,5.92a7.11,7.11,0,0,1,2.81,2.72c.81,1.54.73,3.5-.76,4.41a2.92,2.92,0,0,1-2.82,0,1.41,1.41,0,0,1-.81-.26c-.72-.51-1.43-1-2.13-1.58,1.83,2.71,4.47,4.85,5.08,8.57.36,2.16,0,5-2,5.94a2.25,2.25,0,0,1-1.19.21,13.24,13.24,0,0,0,.68,1.27,16.73,16.73,0,0,1,2.29,4.73c.44,1.74.36,4-.89,5.22a3.07,3.07,0,0,1-4.24-.05c-3.23-2.74-1.4-7.85-2-11.69-.64-4.29-2.94-7.35-4.58-11a4.79,4.79,0,0,1-4.69-1.9c-.65-.86-1.06-2.54-1.84-3.18.21.16-.26-.32-.1-.3-.13,0-.51.41-.64.51a4.42,4.42,0,0,1-1.33.85,2.67,2.67,0,0,1-2.75-.82,6,6,0,0,1-.93-1.32c-.17-.29-.33-.59-.47-.89-.21-.46-.25-.57-.47-.53-.42.09-.8.64-1.29.71l-.17,0c.62,4.18-2.44,7.72-4.74,10.57a9.45,9.45,0,0,0-2.29,6.45c0,2.39.36,4.75-.08,7.12-.4,2.16-1.54,4.4-3.4,5.06a3.3,3.3,0,0,1-4.22-2.86,4.52,4.52,0,0,1,.61-2.92c.6-1,1.83-1.48,2.29-2.58a4.38,4.38,0,0,0,.29-1.21,2.37,2.37,0,0,1-3.14-.74,4.12,4.12,0,0,1-.81-2.1,6.24,6.24,0,0,1-.41-1.49C147.3,208.64,149.37,206.54,151.25,204.26Z"/><path class="cls-22" d="M166.33,185.53a4.53,4.53,0,0,1,5.37-1.39c1.48.76,2.22,3.45,3.87,3.34a6.7,6.7,0,0,1,2.64-.1,5.32,5.32,0,0,1,2.37,1.82,8,8,0,0,0,2,2.14c1,.54,2.11.48,3.11,1,1.17.59,1.31,2.9-.14,3.18a6.58,6.58,0,0,1-5.12-1.37A11.59,11.59,0,0,1,178.6,192a2.22,2.22,0,0,0-2.62-1.07c-1.73.21-3-.52-4-2.1-.55-.8-.94-1.76-1.83-2s-2.22.4-3.24.49C166.06,187.37,165.86,186.09,166.33,185.53Z"/><path class="cls-22" d="M165.88,191.93c1.15-1.5,2.64-2.33,4.31-1.48,1.47.74,2,2.55,3.27,3.59.93.77,2,.38,3.07.5a5.13,5.13,0,0,1,2.51,1,9.58,9.58,0,0,1,3.52,5.77c.23,1.65-1.37,2.54-2.33,1.43-1.15-1.32-1.51-3.49-3-4.44s-3.07-.17-4.52-1a7.55,7.55,0,0,1-2.27-2.42c-1.06-1.53-1.85-2.06-3.53-1.21C165.94,194.19,165.18,192.85,165.88,191.93Z"/><path class="cls-22" d="M153.65,199.85a8.41,8.41,0,0,0,1.15-2.61,25.75,25.75,0,0,1,.65-3,6.29,6.29,0,0,1,2.68-3.52c1.08-.59,2.7-.85,3.47.45a1.11,1.11,0,0,1-.45,1.68c-1,.34-1.9,0-2.62,1.18a8.94,8.94,0,0,0-.84,3.55,10.18,10.18,0,0,1-.73,3c-.39.89-1.24,1.87-1.16,2.95.14,1.81-2,3.15-2.73,1.18A5.45,5.45,0,0,1,153.65,199.85Z"/><path class="cls-5" d="M251.67,362.76a4.64,4.64,0,0,1,5.09-.27l.3.18a1.2,1.2,0,0,1,.2,0,14.41,14.41,0,0,1,5.41,3.57c1.27,1.23,3,2.82,2.72,4.77-.67,5-8.18.42-10.45-.48-1.88-.75-4-1.38-4.58-3.57A4.14,4.14,0,0,1,251.67,362.76Z"/><path class="cls-5" d="M235.47,368.28c-.81,2.94-4.66,2.85-7.22,3.05s-6.22,1.12-8.32-.81-.71-4.51,1.55-5.42c2.69-1.07,5.3-3.4,8.33-3.52,2.59-.1,5.46,1.57,5.62,4.21a4,4,0,0,1,0,.6A3.1,3.1,0,0,1,235.47,368.28Z"/><path class="cls-8" d="M269.51,279.13c3-5.49,5.24-11.36,8.38-16.76,2.07-3.56,7.12-7.82,5.86-12.4-3.23-11.72-17.73,8.69-19.94,11.27-3.58,4.15-7.15,8.58-9.06,13.78a17.16,17.16,0,0,0-1.29,7c.07,1.19,2.33,4.76,2,5.42-.46.94.7,1.89,1.56,1.5a3.52,3.52,0,0,0,3.87.78C265,288.4,267.65,282.56,269.51,279.13Z"/><path class="cls-13" d="M269.51,279.13c3-5.49,5.24-11.36,8.38-16.76,2.07-3.56,7.12-7.82,5.86-12.4-3.23-11.72-17.73,8.69-19.94,11.27-3.58,4.15-7.15,8.58-9.06,13.78a17.16,17.16,0,0,0-1.29,7c.07,1.19,2.33,4.76,2,5.42-.46.94.7,1.89,1.56,1.5a3.52,3.52,0,0,0,3.87.78C265,288.4,267.65,282.56,269.51,279.13Z"/><path class="cls-3" d="M283.37,252.78c-1.72-.68-3.41-1.06-4.07-2.87a3.25,3.25,0,0,1-.79-1.28,8.42,8.42,0,0,1,.37-4.69,6.92,6.92,0,0,1,1.47-4.7c.7-1,2.28-.36,2.55.64a11.08,11.08,0,0,1,.36,2.31,19.22,19.22,0,0,1,1.34-1.63,4.93,4.93,0,0,1,2.41-1.31,3.44,3.44,0,0,1,4,2.13c.64,1.8-.32,3.93-1.11,5.53a16.62,16.62,0,0,1-4.45,5.54A1.86,1.86,0,0,1,283.37,252.78Z"/><path class="cls-8" d="M224.46,334.15a74.62,74.62,0,0,1,2.07-13.2c.8-3,1.77-6.38,5-7.67s7.74-.49,11.15-.4l15.09.37c2.63.06,6.6-.53,8.24,2.15,1.74,2.85,0,7.45-1.34,10.06a.86.86,0,0,1-.07.1c-.49,4.79-1.1,9.58-1.73,14.36-.23,3-.61,5.93-1.12,8.87-.12.91-.23,1.82-.34,2.73-.58,4.85-.27,17.29-8.36,15.77a1.86,1.86,0,0,1-1.61-1.49c-.44-5-1-9.9-1.71-14.82q-.48-3.33-1-6.63c-.32-1.9-.47-4.8-1.63-6.63-3.22,2.73-4,8.71-5.09,12.39l-4.65,15.38a2.09,2.09,0,0,1-2.11,1.29l-9.24-.51a2.13,2.13,0,0,1-1.87-2.27C223.91,354.08,223.72,344.05,224.46,334.15Z"/><path class="cls-6" d="M239.51,284.66c.52-4.85.66-10.54,2.17-15.19,1-3.23,5.37-3.09,8.22-3.68,1.17-.25,2.68.91,2.39,2.2-.87,3.89,1.08,8,2.07,12a89.73,89.73,0,0,1,5.94,25.88c.27,3.22,1.55,7.54-2,9-5.35,2.23-11.95,2.6-17.65,2.79-.95,0-2.24-.43-2.29-1.61A210,210,0,0,1,239.51,284.66Z"/><path class="cls-3" d="M231.45,251.65c1.05,6,4.9,9.84,10.15,11.8,0,.34,0,.68.05,1s0,.65,0,1c0,.87-.09,1.75-.12,2.62a1.84,1.84,0,0,0,1.67,1.88c.1.5.21,1,.34,1.49a1.72,1.72,0,0,0,3.27.33v0a1.67,1.67,0,0,0,2.44-1l1.33.24a1.65,1.65,0,0,0,1.8-1.46,22.87,22.87,0,0,1,1.52-7.08l.5-.21c2.77-1.11,5.6-1.93,7.36-4.55,2-2.92,1.59-6.54.5-9.7a36.78,36.78,0,0,1-1.75-7.13c.32-2.1.84-4.22,1.24-6.25.68-3.44-3.14-5.18-5.88-4.14-2.45-1.87-6.62-1.76-9.54-1.89-4.73-.21-8.74.53-11.65,4.59a16.6,16.6,0,0,0-2.94,7.91A22.58,22.58,0,0,0,231.45,251.65Z"/><path class="cls-13" d="M247.92,271.83a34.27,34.27,0,0,0-.23-3.79c-.06-1.13-.13-2.25-.2-3.38a48.83,48.83,0,0,0,1.16-8.57c.36-9.19-1.05-18.33-1.05-27.51,2.76.09,6.15.23,8.26,1.84,2.74-1,6.56.7,5.88,4.14-.4,2-.92,4.15-1.24,6.25a36.78,36.78,0,0,0,1.75,7.13c1.09,3.16,1.48,6.78-.5,9.7-1.76,2.62-4.59,3.44-7.36,4.55l-.5.21a22.87,22.87,0,0,0-1.52,7.08,1.65,1.65,0,0,1-1.8,1.46l-1.33-.24a1.58,1.58,0,0,1-1.33,1.21A.22.22,0,0,0,247.92,271.83Z"/><path class="cls-8" d="M249.58,330.45c-1.27.17-2.54.29-3.8.35-1,0-2-.06-2.95-.16q.67-15.83,1.33-31.67c.26-6.37.82-12.91.61-19.37a30.76,30.76,0,0,0,2.35,4.83c.61,1,2.21.56,2.59-.39,1.09-2.73,2-5.5,2.87-8.3a47,47,0,0,1,2.2,10.13c.45,4.76.93,9.49,1.54,14.23,1.21,9.21,2.73,18.35,5.75,27.14a1.26,1.26,0,0,0-.95.4C258.76,329.89,252.68,330,249.58,330.45Z"/><path class="cls-8" d="M264.51,296c-1.22-7.75-2.7-15.74-6.58-22.6a29.3,29.3,0,0,0-3-4.44,22.64,22.64,0,0,0-1.77-2.45c-2.71-3.27-3.82,3.52-4.21,5.52s-1.4,3.68-1.62,5.66c-1-1.25-1.27-3.23-1.81-4.73s-1.88-3.46-2.15-5.05a2,2,0,0,0-.8-1.22,1.53,1.53,0,0,0-.93-.38c-.64-.11-10.62,3.86-12.7,7.31-3.1,5.12-3.24,12.64-3,18.44a1.63,1.63,0,0,0,.16.64c-.44,3.9-.5,7.87-.59,11.8q-.12,6.25-.26,12.49c-.07,3.68-.7,7.85-.17,11.5.3,2.1,1.13,2.84,3.16,3.41,5.61,1.57,11.56,2,17.35,2.36,6.07.35,11.91-.78,17.91-1.65,2.45-.36,3.68-1.3,3.6-3.91-.3-10.15-.61-20.34-2.17-30.4C264.75,297.52,264.63,296.75,264.51,296Z"/><path class="cls-23" d="M246.24,275.49c-.27-.87-.48-1.77-.76-2.55-.57-1.57-1.88-3.46-2.15-5.05a2,2,0,0,0-.8-1.22,1.53,1.53,0,0,0-.93-.38c-.64-.11-10.62,3.86-12.7,7.31-3.1,5.12-3.24,12.64-3,18.44a1.63,1.63,0,0,0,.16.64c-.44,3.9-.5,7.87-.59,11.8q-.12,6.25-.26,12.49c-.07,3.68-.7,7.85-.17,11.5.3,2.1,1.13,2.84,3.16,3.41,5.61,1.57,11.56,2,17.35,2.36a47,47,0,0,0,7-.17C250.68,314.51,246.11,295.22,246.24,275.49Z"/><path class="cls-3" d="M208.3,244.64c-1.34-3.39-2.4-10,1.16-12.49,3.12-2.19,5.86,1.16,7.49,4.22a1,1,0,0,1,.39,0,3.55,3.55,0,0,1,3.26,2.76c.54,2.16-.82,3.82-1.52,5.73a1.36,1.36,0,0,1-.42.56,1.9,1.9,0,0,1-.18.42c-1,1.8-4.22,1.95-6,2.14C210.05,248.21,209.13,246.73,208.3,244.64Z"/><path class="cls-8" d="M230.53,272.48c-2.41-5.76-5.57-11.19-7.82-17-1.48-3.84-1.64-10.44-6-12.33-11.16-4.82-4.32,19.26-3.7,22.61,1,5.38,2.21,10.94,5.07,15.69,2.15,3.58,6,6.73,10.27,7.36a4.76,4.76,0,0,0,3.79-.9C236,284.56,232.05,276.12,230.53,272.48Z"/><path class="cls-24" d="M253.65,304.48c-1.92,0-2.32,3-.37,3S255.6,304.48,253.65,304.48Z"/><path class="cls-24" d="M254.22,315.3c-1.92,0-2.32,3-.37,3S256.17,315.3,254.22,315.3Z"/><path class="cls-24" d="M252.7,295c-1.92,0-2.32,3-.37,3S254.66,295,252.7,295Z"/><path class="cls-24" d="M251,284.18c-1.93,0-2.33,3-.37,3S253,284.18,251,284.18Z"/><path class="cls-20" d="M265.54,226.68a4.14,4.14,0,0,0-4.84-1.2,3.07,3.07,0,0,1-1.58.51c.22,0-.51,0-.61-.05l-.21,0-.22-.07c-.34-.14-.68-.29-1-.46l-.3-.18c-.59-.39-1.18-.79-1.75-1.21-2.82-2-5.65-3.86-9.27-3.65a9.47,9.47,0,0,0-1.07.13,9.77,9.77,0,0,0-2.36-1.48,9.25,9.25,0,0,0-3.61-.51,13.33,13.33,0,0,0-5.83,1.73,11.17,11.17,0,0,0-5.23,5.24,8.06,8.06,0,0,0,.52,7.38,15.08,15.08,0,0,0,2.09,2.48l.53.58-.11.08a11,11,0,0,0-2.23,2.08c-3,4-.81,11.64,3.64,13.7,2.54,1.18,5.23-1.24,4.89-3.83a5.67,5.67,0,0,0-.1-.57c0-.54-.18-1.08-.23-1.64a12.18,12.18,0,0,1,.09-2.83,14.25,14.25,0,0,1,.46-2.08,7.21,7.21,0,0,0,1.54-2.4,6.09,6.09,0,0,0,.35-2.05,3.44,3.44,0,0,0,2.33.32c4.2-1,8.74.58,13.25.42,4.15-.16,8.66-1.8,10.93-5.48A4.17,4.17,0,0,0,265.54,226.68Z"/><path class="cls-13" d="M241.28,221.93a1.44,1.44,0,0,0-2.74-.7c-1,2.1-3.12,2.62-4.54,4.33a4.14,4.14,0,0,0-.18,5.25.84.84,0,0,0,1.48-.41,6,6,0,0,1,.42-2.76,6.45,6.45,0,0,1,2.37-1.79C239.56,225,241.17,223.77,241.28,221.93Z"/><path class="cls-13" d="M258.79,228.75a17.09,17.09,0,0,1-3.5.34,9.52,9.52,0,0,1-2.83-.89c-2-.9-3.77-2.07-5.89-2.53-3.64-.78-8.23,1.25-8.55,5.32a1,1,0,0,0,2,.23c.31-2,2.79-3.12,4.6-3s3.64,1.27,5.23,2.17c3,1.71,6.92,3.06,10.14,1.07C261.37,230.56,260.14,228.61,258.79,228.75Z"/><path class="cls-8" d="M253.37,203.6c-2.28-1.94-5.66-4.87-8.93-3.67a7.7,7.7,0,0,0-3.2,2.52c-3.39-4.07-8.74-6.55-13.83-3.42a8.32,8.32,0,0,0-4,7.22,6.93,6.93,0,0,0,.79,3c-4.42.1-8.89,4.05-8.68,8.69.13,2.74,2.62,5.36,4.51,7.09a14.76,14.76,0,0,0,6.6,3.63,60.64,60.64,0,0,0,3.21,6.46,1.46,1.46,0,0,0,1.91.72l1.12-.64c1.8-.79,3.61-1.69,5.46-2.51a29.64,29.64,0,0,1,5.67-1.93c3.91-.83,8.11-.64,12.09-.82a1.84,1.84,0,0,0,1.62-1.78c-.8-3.26-1.27-7.1-2.25-10.52a10.37,10.37,0,0,0,2.42-5.69C258.06,208.54,255.83,205.7,253.37,203.6Z"/><path class="cls-23" d="M256.15,220.34c-5.15-.94-10.52-1.06-15.4.57-5.18,1.73-9.46,5.37-13.49,9.12.79,1.73,1.65,3.43,2.61,5.1a1.46,1.46,0,0,0,1.91.72l1.12-.64c1.8-.79,3.61-1.69,5.46-2.51a29.64,29.64,0,0,1,5.67-1.93c3.91-.83,8.11-.64,12.09-.82a1.84,1.84,0,0,0,1.62-1.78C257.14,225.74,256.73,223,256.15,220.34Z"/><path class="cls-6" d="M288.77,220.28c-2.21-.1-7.61-.36-8.84,2-.73,1.41-.18,4,0,5.4a30.07,30.07,0,0,0,1.23,5.47,1.06,1.06,0,0,0,.8.75,1.09,1.09,0,0,0,.88.19l2.66-.52a.81.81,0,0,0,0,.22c.23,1.77.42,3.54.58,5.31a.86.86,0,0,0,0,.28,34.08,34.08,0,0,1,0,5c-.16,1.59-.93,3.18-.79,4.79.17,1.82,1.8,3.4,3.68,2.73a1.18,1.18,0,0,0,.69-1.52,1,1,0,0,0-.09-.28c-1.16-2.61-.9-5.61-1.09-8.4-.17-2.63-.44-5.25-.77-7.87a1.23,1.23,0,0,0-.26-.59,2.66,2.66,0,0,0,1.78-1,4.25,4.25,0,0,0,.41-2.49c0-.92,0-1.84,0-2.76a42.7,42.7,0,0,0,.22-5.58A1.12,1.12,0,0,0,288.77,220.28Z"/><path class="cls-25" d="M97.3,252a1.57,1.57,0,0,0-.23-.09c-1-.29-1.73.34-2.64.51-.62.11-1.24-.43-1.9-.48a2.2,2.2,0,0,0-2.39,1.8,3.07,3.07,0,0,0,.6,2.06,4.17,4.17,0,0,0,7.17-.18,3.21,3.21,0,0,0,.54-1.94A2,2,0,0,0,97.3,252Z"/><path class="cls-25" d="M256.18,252l-.23-.09c-1-.29-1.73.34-2.65.51-.61.11-1.24-.43-1.89-.48a2.21,2.21,0,0,0-2.4,1.8,3.08,3.08,0,0,0,.61,2.06,4.17,4.17,0,0,0,7.17-.18,3.21,3.21,0,0,0,.54-1.94A2,2,0,0,0,256.18,252Z"/></g></svg>