<svg xmlns="http://www.w3.org/2000/svg" viewBox="0 0 528 408"><defs><style>.cls-1{isolation:isolate;}.cls-2,.cls-3,.cls-5{fill:#f6a85a;}.cls-18,.cls-2,.cls-4{opacity:0.15;}.cls-2,.cls-4{mix-blend-mode:multiply;}.cls-10,.cls-3,.cls-9{opacity:0.3;}.cls-6{fill:#fff;}.cls-7{opacity:0.7;}.cls-8{fill:#9db2d7;}.cls-13,.cls-15,.cls-18,.cls-22,.cls-24,.cls-9{fill:#99402d;}.cls-10,.cls-11{fill:#f7e9d9;}.cls-12{fill:#f48b76;}.cls-14{fill:#ce506b;}.cls-15{opacity:0.6;}.cls-16{fill:#f59691;}.cls-17{fill:#f27783;}.cls-19{fill:#b14e6c;}.cls-20{fill:#231f20;}.cls-21{fill:#6aa6d5;}.cls-22{opacity:0.1;}.cls-23{fill:#f48457;}.cls-24{opacity:0.3;}</style></defs><title>Artboard 1 copy 3</title><g class="cls-1"><g id="Layer_1" data-name="Layer 1"><path class="cls-2" d="M141.19,43.72a23.34,23.34,0,0,0-14.36-2.23A18.16,18.16,0,0,0,118.44,33a18.85,18.85,0,0,0-14.77-.47,18.94,18.94,0,0,0-20.5-6.33C74.77,28.91,70,35.69,68.62,43.47c-5.18.4-10.26,2-13.67,6.24-4.13,5.09-5.1,12.77-.81,18.05a13.08,13.08,0,0,0,11.68,4.55,17,17,0,0,0,13.65,6.6,20.25,20.25,0,0,0,11-3.38,22.17,22.17,0,0,0,14.72,4.67,23.26,23.26,0,0,0,14.55-6.63,20.38,20.38,0,0,0,9.82,4c9.15,1.06,17.19-4.67,19.91-13.35A17.4,17.4,0,0,0,141.19,43.72Z"/><path class="cls-3" d="M440.36,347.28Q413,342,385.58,336.86c-38.19-7.18-78.58-18.32-117.43-5.1a3.66,3.66,0,0,0-2.31,2.37c-7.2,2.85-11.94,7.93-9.74,16.68a17.6,17.6,0,0,0,1.24,9.68c3.07,7,10,9.78,15.54,12.63,16,8.19,32.44,14.42,50,15.91,17.87,1.51,36.06-.34,54-1.24,18.31-.92,36.63-1.78,54.94-2.75,11.36-.61,33.34.76,38.52-16.45C476.33,348.82,449.1,349,440.36,347.28Z"/><path class="cls-2" d="M233.65,61.06c-1.79-12.73-7.18-25.35-16.17-33.22C208.17,19.69,196,17,185.07,22.54a37.07,37.07,0,0,0-10.13,7.61c-7.74,3.25-13,10.63-16.9,19.46-1.91,4.36-3.52,8.9-5.61,13.15-.41.84-.85,1.65-1.3,2.46.88-1.6-.81,1.18-1.09,1.55-.44.59-.91,1.14-1.39,1.67.75-.92-2.23,1.44-1.36,1.09-4.28,2.15-9.91,1.33-15,2.08-6.37,1-12.8,3-18.21,7.17-9.77,7.59-15.86,22.43-10.74,35.67,5,12.91,16.64,19.85,28.48,19.62,12.66-.26,23.86-8.07,34.68-14.86,2.74-1.72,4.4-2.75,6.58-3.85a46.72,46.72,0,0,1,8.15-3.27c.16,0,1.43-.34,1.56-.39l.85-.16c1.2-.2,2.41-.37,3.61-.52,2.7-.32,5.41-.52,8.12-.79,11.21-1.08,23-3.84,30.66-14.36C233,86.37,235.38,73.25,233.65,61.06Z"/><g class="cls-4"><path class="cls-5" d="M347.31,227.27c1,.52,1.24.6,1.12.52l-1.06-.5Z"/><path class="cls-5" d="M507.13,126.83c-3.54-15.92-10.94-31.62-24.84-39.85-12.34-7.32-27.41-5.69-39.66,1.1A84.84,84.84,0,0,0,413,111.65c-5.33,6.6-9.65,14.06-14.15,21.29-.51.81-1,1.62-1.52,2.42l-.6.9q-1.47,2.15-3,4.22t-3.5,4.21c-.59.66-1.19,1.31-1.79,1.95l-1.4,1.41-1.18,1.06c-.67.56-1.36,1.1-2,1.63q-2.09,1.6-4.27,3c-.73.47-1.47.93-2.22,1.37l-1.1.63-1.36.68c-1,.45-2,.88-3,1.27-1.61.63-3.23,1.2-4.88,1.69-.44.13-4.15,1-3.39.93a73.89,73.89,0,0,1-12.15,1c-4.06,0-8.11-.14-12.16-.43l-3.05-.24h-.06l-.69-.07-9.16-.79a128.44,128.44,0,0,0-23.2-.3c-17.12,1.67-35.21,8.4-44.93,24.41a31,31,0,0,0-1.95,28.85,32.77,32.77,0,0,0,17.71,16.43c17.54,7.13,36.3,4.12,54-.57q2.94-.78,5.91-1.5l.7-.17c.91-.15,1.83-.3,2.75-.41a48.73,48.73,0,0,1,5-.28,12.09,12.09,0,0,1,1.37.1c1.24.26,2.42.56,3.64.89h.05l-.25-.13c.1.06.21.1.31.15a5.35,5.35,0,0,1,1.06.5l.88.4c1.31.66,2.58,1.39,3.83,2.16,1.41.86,2.77,1.81,4.14,2.74l0,0c.85.68,1.73,1.31,2.58,2,13.47,10.39,27.21,19.42,44.12,21.6,16.12,2.07,35.16.65,48.68-10,8.23-6.48,12.88-14.75,15.79-25.09.51-1.81.94-3.64,1.44-5.45.13-.47.26-1,.41-1.58.12-.23.23-.46.3-.61.73-1.59,1.49-3.13,2.28-4.69l.39-.77c.38-.52.8-1,1.19-1.51,1-1.3,2.18-2.43,3.27-3.66.62-.45,1.21-1,1.83-1.41,3-2.2,6.37-3.89,9.48-6a44.57,44.57,0,0,0,16.61-20C512,160.19,510.75,143.14,507.13,126.83Z"/></g><path class="cls-6" d="M435.77,172.52c-3.49-7-10.3-4-14.48.69a37.71,37.71,0,0,0-3.41,3.52c-2.13,2.46-5.91,6.05-5.69,9.64.27,4.34,4.76,4.52,8.06,5,.93.14,1.91.34,2.92.54a42.87,42.87,0,0,0-.69,7,60.26,60.26,0,0,0,0,11.86,2.31,2.31,0,0,0,3.67,1.6,2.36,2.36,0,0,0,3-2.27c-.41-5.67-.89-11.53-1-17.29a15,15,0,0,0,5.29-.17,6.75,6.75,0,0,0,5.23-6.76,30.77,30.77,0,0,0-1.15-6.84A28,28,0,0,0,435.77,172.52Z"/><path class="cls-6" d="M467.34,177.22c-.25-3.93-.57-8.12-4-10.61-3.28-2.35-7.69-2-11.24-.53-6.85-.11-8.74,10.82-9.51,16-.52,3.52-.1,7,2.93,9.24a14.41,14.41,0,0,0,5.25,2.23c-.52,2.4-.31,5.19-.4,7.45q-.27,6.09-.46,12.17a2,2,0,0,0,1,1.92,2.51,2.51,0,0,0,2.7,1.1l.54.37c1.57,1.06,3.52-.6,3.48-2.22-.11-4.07-.11-8.13-.08-12.2,0-2.46.21-5,.2-7.53l.24,0C468,195.78,467.79,184.23,467.34,177.22Z"/><path class="cls-6" d="M400.65,120.26a42,42,0,0,0-4.12-2.64,17.56,17.56,0,0,0,2.76-4.87c3.27-8.77,2.49-20.43-3.61-27.75a30.42,30.42,0,0,0-25.77-10.37c-12.91,1.26-23.38,12.58-24,24.72-10.25-2.23-21-3-30.4,1.39a1.16,1.16,0,0,0-.31,1.93.78.78,0,0,0-.34.82c3.14,23.52,6.64,47.1,10.43,70.6a11.93,11.93,0,0,0-18.45,8.13c-4.84-1.19-10-1.58-14.23,1.41a11.46,11.46,0,0,0-5,8.84,17,17,0,0,0-11,5.22c-3.53,3.68-6.58,10.61-1.66,14.54s13.74,1.07,19.17.66a237,237,0,0,1,28.33-.24c3.8.17,8.05.86,12.24,1.08,8.4.94,17.21.59,25.74.56l3,0c4.14.05,8.29.15,12.44.16a130.3,130.3,0,0,0,20.34-1.16,1.79,1.79,0,0,0,.35-.1l3.58-.13a1.66,1.66,0,0,0,1.54-1.29q2.4-26,3.34-52c.29-8.61.49-17.23.5-25.84C405.54,128.45,405.34,123.72,400.65,120.26Z"/><path class="cls-5" d="M249.67,96.06c-4.63-.35-9.33-.44-14-.49-3.08,0-3.59,5.1-.46,5.44,4.89.54,9.85,1,14.76,1.26C254.07,102.45,253.61,96.36,249.67,96.06Z"/><path class="cls-5" d="M277,91.88c-1.76.57-3.42,1.37-5.22,1.85s-3.6.67-5.39,1c-2.42.52-2.21,4.62.26,4.89A22.22,22.22,0,0,0,279.47,97C282.33,95.3,280,90.9,277,91.88Z"/><path class="cls-5" d="M306.39,74c-3.81,3.27-8.54,5.46-12.66,8.28-2.3,1.57-.55,5.61,2.2,4.5,5.18-2.1,9.61-5.46,14.44-8.19C314,76.56,309.93,71,306.39,74Z"/><path class="cls-5" d="M338.11,53.91c-2.2,1.83-5.14,2.93-7.62,4.35A77.67,77.67,0,0,0,323,63c-2.58,1.88-.07,5.43,2.67,4,4.73-2.42,9.91-6.41,15.14-7.46C345.41,58.6,341.77,50.88,338.11,53.91Z"/><path class="cls-5" d="M378.77,40.58c-5.76,2.42-12.38,3-18.36,4.89-2.36.73-1.72,4.62.82,4.31,6.19-.75,12.48-2.91,18.71-3.05C384.72,46.62,383,38.79,378.77,40.58Z"/><path class="cls-5" d="M421.31,38.25a50.06,50.06,0,0,0-9.45-1c-2.8,0-6.29-.24-8.59,1.56-1.22,1-1.5,3.18.21,3.9,2.45,1,4.93.49,7.54.54a41,41,0,0,1,8.88,1.31C424,45.54,425.41,39.09,421.31,38.25Z"/><path class="cls-5" d="M458.27,54.67c-1.1-2.79-4.15-4.7-6.53-6.42a29.8,29.8,0,0,0-7.89-4.52c-2.6-.86-4.19,2.86-2.35,4.53s4.34,3.15,6.39,4.85,3.78,4.27,6.09,5.2S459.32,57.35,458.27,54.67Z"/><path class="cls-5" d="M467.08,67.92c-2-2.81-5.92-.09-4.41,2.87a15.94,15.94,0,0,1,.41,14.3c-1.64,3.59,3.8,6.36,5.47,2.8A20.2,20.2,0,0,0,467.08,67.92Z"/><path class="cls-5" d="M457,104.63c-1.91,1.92-3.36,4.36-5.08,6.46a77.65,77.65,0,0,0-5.24,6.39c-1.82,2.81,2.25,6.27,4.83,4.31a29,29,0,0,0,5.92-6.93,27.27,27.27,0,0,0,4.14-7.9C462.29,104.26,458.76,102.88,457,104.63Z"/><path class="cls-5" d="M430.56,133.25c-1.73,1-3.26,2.18-4.89,3.35s-3.62,2.21-4.9,3.74c-1.94,2.31.28,6.19,3.34,5,2.14-.8,3.94-2.6,5.58-4.15a23.47,23.47,0,0,0,4.17-5.05C435.11,134.1,432.39,132.19,430.56,133.25Z"/><path class="cls-5" d="M386.33,226.4a2.45,2.45,0,0,0-3.9-2.9c-3.91,3.73-6.86,13.67-3.39,18.6,1.31,1.86,4.71,1.76,5.06-1,.31-2.52-.54-4.92-.25-7.49A22.87,22.87,0,0,1,386.33,226.4Z"/><path class="cls-5" d="M401.22,258.49c-5.46-.59-8.7-3.54-12.87-7.09a2,2,0,0,0-3.22,2.28c1.9,6.52,8.83,10.6,14.73,11.46C403.89,265.73,405.22,258.93,401.22,258.49Z"/><path class="cls-5" d="M432.51,259.65c-5.43.64-11,.32-16.32,1.59-2.17.52-1.91,4.36.23,4.7,5.43.85,10.95.08,16.41.3C436.74,266.39,436.47,259.19,432.51,259.65Z"/><path class="cls-5" d="M470.11,264.64c-6.77-3-15.58-6-22.95-4.69-1.65.29-2.81,3.12-.79,4,6.71,2.82,14,4.05,20.85,6.75C470.91,272.13,473.91,266.33,470.11,264.64Z"/><path class="cls-5" d="M491.45,293.64c-.91-6.25-2.6-16.12-7.34-20.35-1.34-1.19-3.16-.15-3.21,1.65-.08,3,1.23,6,2,8.95.85,3.34,1.42,6.71,2,10.13C485.53,298.49,492.12,298.21,491.45,293.64Z"/><path class="cls-5" d="M484.65,313.53c-2,2.86-3.51,6-5.67,8.73a33.05,33.05,0,0,1-3.22,3.56c-.65.61-1.33,1.19-2,1.73-.3.23-2.14,1.22-1.42,1.41-1.74-.47-3.16.87-3.68,2.54l-.12.37a3.74,3.74,0,0,0,2.62,4.42c4.3.83,8.37-4.19,10.91-7.41,2.87-3.63,5.77-8.47,6.21-13.35C488.42,313.54,486.05,311.53,484.65,313.53Z"/><path class="cls-5" d="M456.86,341.26c-3.75-.05-7.42,1.79-10.84,3.3s-7.09,2.72-9.75,5.43c-1.83,1.86-.14,5.95,2.42,5.47,3.76-.71,7.13-3.23,10.57-5,3.19-1.63,6.57-3,9.2-5.62C459.85,343.48,458.43,341.28,456.86,341.26Z"/><path class="cls-5" d="M421.25,355.51c-2.91.76-5.95,1.25-8.78-.09-2.55-1.21-4.08-3.84-6.42-5.38-3.69-2.41-6.84,3.66-3.17,6.07-1.55-1,1.39,1.75,1.65,2a23.39,23.39,0,0,0,2.37,1.95,14.45,14.45,0,0,0,5.57,2.37c4.1.76,8.32-.1,11.27-3.14C425.48,357.49,423.38,355,421.25,355.51Z"/><path class="cls-2" d="M109.37,110.9a16.4,16.4,0,0,0-10.07-1.56,12.69,12.69,0,0,0-5.89-5.93,13.22,13.22,0,0,0-10.35-.33,13.27,13.27,0,0,0-14.37-4.44c-5.89,1.88-9.23,6.64-10.2,12.09-3.63.28-7.19,1.42-9.58,4.37-2.9,3.57-3.58,9-.57,12.65a9.18,9.18,0,0,0,8.19,3.19,11.91,11.91,0,0,0,9.57,4.63,14.15,14.15,0,0,0,7.69-2.37,15.54,15.54,0,0,0,10.32,3.28,16.39,16.39,0,0,0,10.2-4.65,14.33,14.33,0,0,0,6.88,2.82,13,13,0,0,0,14-9.36A12.21,12.21,0,0,0,109.37,110.9Z"/><path class="cls-2" d="M274.3,38.79a17.82,17.82,0,0,0-11-1.79A13.8,13.8,0,0,0,257,30.48a14.45,14.45,0,0,0-11.3-.45,14.5,14.5,0,0,0-15.65-5c-6.45,2-10.13,7.17-11.23,13.11-4,.28-7.86,1.5-10.5,4.7-3.19,3.87-4,9.74-.72,13.8a10,10,0,0,0,8.91,3.55,13,13,0,0,0,10.41,5.13,15.47,15.47,0,0,0,8.41-2.52,17,17,0,0,0,11.24,3.66,17.83,17.83,0,0,0,11.17-5,15.68,15.68,0,0,0,7.49,3.13,14.23,14.23,0,0,0,15.32-10.1A13.33,13.33,0,0,0,274.3,38.79Z"/><path class="cls-6" d="M201.24,90.44l.34-.42.15-.19c.12-.15.23-.31.33-.46l.09-.14c.13-.19.25-.39.36-.59l.05-.12c.09-.16.17-.32.25-.49a1.22,1.22,0,0,1,.07-.17l.18-.47s0-.09.05-.14a6.89,6.89,0,0,0,.3-1.23.31.31,0,0,0,0-.1,4.6,4.6,0,0,0,.06-.52s0-.08,0-.12c0-.19,0-.39,0-.59h0a9.11,9.11,0,0,0-.13-1.27v0c0-.2-.09-.4-.14-.6v0a10.58,10.58,0,0,0-.71-1.89h0a18.19,18.19,0,0,0-4.1-5.22c-5.67-5.21-12-10.82-18.95-14.23a27.21,27.21,0,0,0-10.09-2.54,36.75,36.75,0,0,0,1.81-6.22c1.19-6.69-7.46-8.67-12.64-8.78-3.25-.07-5,1.6-7.26,3.71-2,1.89-4,3.77-5.88,5.69a73.58,73.58,0,0,0-7.33,6.9l-29.94,1.63c-.67-4.42-4.68-7.95-9.19-8.83-2.64-.51-5.71-.53-7.59,1.74l0,0c-3.14-4-7-6.63-10.92-3.2-6.78,5.84-2,18.32-2.53,25.81a1.41,1.41,0,0,0,0,.29,6.9,6.9,0,0,0-2.94,3.9C74.2,85.12,77.4,86.7,80.36,87c5.61.61,12.19-.94,16.64-4.73q5.44.88,10.83,2l-.57.41c.42,0,.84,0,1.26.07a50.63,50.63,0,0,0-6.06,5.36c-4.55,4.95,1.3,8.81,6.08,10.07a81.74,81.74,0,0,0,10.42,2.2c3.94.49,6.86-1,10.27-2.71,4-2,7.82-4.19,11.63-6.44,12.94,3.69,26.26,6.52,39.75,5,6.6-.76,15-2.15,19.92-7.05.2-.2.38-.39.55-.59Z"/><g class="cls-7"><path class="cls-8" d="M98.94,53c-2.64-.51-5.71-.53-7.59,1.74a4.2,4.2,0,0,0-.7,4.19,2.45,2.45,0,0,0-.08.39c0,.33,0,.65-.06,1h0c0,.4,0,.79,0,1.19a2.55,2.55,0,0,0,0,.55A16.28,16.28,0,0,0,90.94,65a3.05,3.05,0,0,0,1.65,2,4.49,4.49,0,0,0,1.49,1.22c2.86,1.44,7.52.69,10.53.14a3.71,3.71,0,0,0,3.24-2.72C109.71,59.56,104.71,54.09,98.94,53Z"/><path class="cls-8" d="M158.54,43.86c-3.25-.07-5,1.6-7.26,3.71-2,1.89-4,3.77-5.88,5.69a63.4,63.4,0,0,0-10.16,10.29,4.22,4.22,0,0,0-.45.76,3.82,3.82,0,0,0,2.57,6.76l13,.05c3.84,0,8.2.59,12-.09,3.37-.61,3.93-3.55,4.89-6.39,1.32-3.87,3.24-8,4-12C172.37,46,163.72,44,158.54,43.86Z"/><path class="cls-9" d="M98.94,53c-2.64-.51-5.71-.53-7.59,1.74a4.2,4.2,0,0,0-.7,4.19,2.45,2.45,0,0,0-.08.39c0,.33,0,.65-.06,1h0c0,.4,0,.79,0,1.19a2.55,2.55,0,0,0,0,.55A16.28,16.28,0,0,0,90.94,65a3.05,3.05,0,0,0,1.65,2,4.49,4.49,0,0,0,1.49,1.22c2.86,1.44,7.52.69,10.53.14a3.71,3.71,0,0,0,3.24-2.72C109.71,59.56,104.71,54.09,98.94,53Z"/><path class="cls-9" d="M158.54,43.86c-3.25-.07-5,1.6-7.26,3.71-2,1.89-4,3.77-5.88,5.69a63.4,63.4,0,0,0-10.16,10.29,4.22,4.22,0,0,0-.45.76,3.82,3.82,0,0,0,2.57,6.76l13,.05c3.84,0,8.2.59,12-.09,3.37-.61,3.93-3.55,4.89-6.39,1.32-3.87,3.24-8,4-12C172.37,46,163.72,44,158.54,43.86Z"/><path class="cls-8" d="M198.41,75.63c-5.67-5.21-12-10.82-18.95-14.23-7.47-3.64-15.63-2.64-23.66-2.2L96.22,62.44C92.78,56.21,86.79,46,80.41,51.53c-6.78,5.84-2,18.32-2.53,25.81a1.41,1.41,0,0,0,0,.29,6.9,6.9,0,0,0-2.94,3.9C74.2,85.12,77.4,86.7,80.36,87c5.61.61,12.19-.94,16.64-4.73q5.44.88,10.83,2l-.57.41c10.35.31,20.68,4.71,30.44,8.34l.83-.46c13.66,4,27.78,7.28,42.08,5.63,6.6-.76,15-2.15,19.92-7.05C205.9,85.87,203.27,80.09,198.41,75.63Z"/><path class="cls-10" d="M198.57,86.82c-1.88,1.93-4.41,3.82-7.2,4-2.2.15-4.17-.89-6.17-1.66-3.51-1.34-6.78-.89-10.28.22-4.46,1.43-8.74,2.75-13.33,1.08-3-1.07-5.44-3-8.67-3.32a56,56,0,0,0-7.32.33c-5.77.24-10.46-2.09-15.7-4.11-6.11-2.36-12.77-2.09-19-3.95-5.94-1.78-11.42-3.59-17.69-3.89A62.66,62.66,0,0,0,77.91,76.7l0,.64a1.41,1.41,0,0,0,0,.29,6.9,6.9,0,0,0-2.94,3.9C74.2,85.12,77.4,86.7,80.36,87c5.61.61,12.19-.94,16.64-4.73q5.44.88,10.83,2l-.57.41c10.35.31,20.68,4.71,30.44,8.34l.83-.46c13.66,4,27.78,7.28,42.08,5.63,6.6-.76,15-2.15,19.92-7.05,3.45-3.43,3.59-7,2-10.36A20,20,0,0,1,198.57,86.82Z"/><path class="cls-11" d="M103.42,75.08a4.21,4.21,0,0,1-.17-.83,21.37,21.37,0,0,1,0-2.4c0-1.69-2.55-2.63-3.57-1.24-1.41,1.92-2.49,5.61-.44,7.45a2.53,2.53,0,0,0,3.89-.71A3.14,3.14,0,0,0,103.42,75.08Z"/><path class="cls-11" d="M112.21,71.66a2,2,0,0,0-2.47-1.22c-1.59.55-2.45,2.23-3,3.73s-1,3.52.11,5c.89,1.12,3,1.73,4,.3a4.2,4.2,0,0,0,.92-2.22c0-.58,0-1.16.07-1.74C112,74.16,112.5,73,112.21,71.66Z"/><path class="cls-11" d="M121.81,75.36c-.09-1,.27-2.1.09-3.13-.24-1.43-1.85-2.68-3.25-1.63a5.9,5.9,0,0,0-2,4.63c-.11,1.66.08,3.77,1.53,4.83a2.48,2.48,0,0,0,4-1.28C122.42,77.56,121.91,76.56,121.81,75.36Z"/><path class="cls-11" d="M149.88,77.41c0-1,.11-1.94.11-2.91,0-2.45-3.36-2.84-4.46-1-1.32,2.29-1.57,6.07-.21,8.37a2.67,2.67,0,0,0,3,1,2.75,2.75,0,0,0,1.8-2.61C150.22,79.4,149.9,78.38,149.88,77.41Z"/><path class="cls-11" d="M160.19,77.84a15.76,15.76,0,0,0-.57-3.94,2.38,2.38,0,0,0-4.31-.33,10.33,10.33,0,0,0-.84,4.33c-.09,1.52-.31,3.24.72,4.48a2.84,2.84,0,0,0,4.8-.25C160.76,80.69,160.35,79.37,160.19,77.84Z"/><path class="cls-11" d="M189.34,70a15.92,15.92,0,0,0-3.07-2.11,2.91,2.91,0,0,0-2-.36,2.28,2.28,0,0,0-.6-.11c-7-.29-13.87,4-16,10.64a3.3,3.3,0,0,0,1.71,3.61c5.31,3,9.54-2.76,14.46-3.91,2.27-.53,4.45-.65,5.44-2.91A3.44,3.44,0,0,0,189.34,70Z"/><path class="cls-8" d="M112.63,81.55c-3.34,2.78-7.25,5.45-10.17,8.63-4.55,4.95,1.3,8.81,6.08,10.07a81.74,81.74,0,0,0,10.42,2.2c3.94.49,6.86-1,10.27-2.71,7-3.58,13.69-7.53,20.26-11.71-11.84-3.21-24.42-7.23-36.67-6.63Z"/><path class="cls-9" d="M112.63,81.55c-3.34,2.78-7.25,5.45-10.17,8.63-4.55,4.95,1.3,8.81,6.08,10.07a81.74,81.74,0,0,0,10.42,2.2c3.94.49,6.86-1,10.27-2.71,7-3.58,13.69-7.53,20.26-11.71-11.84-3.21-24.42-7.23-36.67-6.63Z"/><path class="cls-11" d="M134.7,89.58c-6.46,3.59-17,9.43-24.95,5.21-1.13-.59-2.35.41-1.44,1.19,7.21,6.21,22.26-.6,28.42-4.63C138.08,90.47,136.12,88.79,134.7,89.58Z"/></g><g class="cls-7"><path class="cls-12" d="M437.54,179a28,28,0,0,0-1.77-6.51c-3.49-7-10.3-4-14.48.69a37.71,37.71,0,0,0-3.41,3.52c-2.13,2.46-5.91,6.05-5.69,9.64.27,4.34,4.76,4.52,8.06,5,.93.14,1.91.34,2.92.54a42.87,42.87,0,0,0-.69,7,60.26,60.26,0,0,0,0,11.86,2.31,2.31,0,0,0,3.67,1.6,2.36,2.36,0,0,0,3-2.27c-.41-5.67-.89-11.53-1-17.29a15,15,0,0,0,5.29-.17,6.75,6.75,0,0,0,5.23-6.76A30.77,30.77,0,0,0,437.54,179Z"/><path class="cls-12" d="M467.34,177.22c-.25-3.93-.57-8.12-4-10.61-3.28-2.35-7.69-2-11.24-.53-6.85-.11-8.74,10.83-9.51,16-.52,3.52-.1,7,2.93,9.24a14.41,14.41,0,0,0,5.25,2.23c-.52,2.4-.31,5.19-.4,7.45q-.27,6.09-.46,12.17a2,2,0,0,0,1,1.92,2.51,2.51,0,0,0,2.7,1.1l.54.37c1.57,1.06,3.52-.6,3.48-2.22-.11-4.07-.11-8.13-.08-12.2,0-2.46.21-5,.2-7.53l.24,0C468,195.78,467.79,184.23,467.34,177.22Z"/><path class="cls-12" d="M352.33,200.39c-.84-3-3-3.83-5.13-5.67-2.68-2.3-3.33-6.44-5.71-9.13a18.81,18.81,0,0,0-10.27-5.94,1.44,1.44,0,0,0-.37-.71c-4.41-4.86-9.72-8.76-16.67-6a11.72,11.72,0,0,0-7.31,9.28c-4.84-1.19-10-1.58-14.23,1.41a11.46,11.46,0,0,0-5,8.84,17,17,0,0,0-11,5.22c-3.53,3.68-6.58,10.61-1.66,14.54s13.74,1.07,19.17.66a237,237,0,0,1,28.33-.24c7.15.32,15.94,2.48,22.84-.11C350.05,210.78,353.78,205.55,352.33,200.39Z"/><path class="cls-5" d="M400.65,120.26c-5.89-4.33-13.55-7.13-20.27-9.92a213.9,213.9,0,0,0-21.15-7.46c-13.58-4-30.12-8.53-43.69-2.14a1.16,1.16,0,0,0-.31,1.93.78.78,0,0,0-.34.82c4.79,35.9,10.42,71.92,16.64,107.6.09.53.63,2.33,1.38,2.43l1.06.13c9.94,1.22,20.47.52,30.47.66,10.58.14,21.28.6,31.78-1a1.79,1.79,0,0,0,.35-.1l3.58-.13a1.66,1.66,0,0,0,1.54-1.29q2.4-26,3.34-52c.29-8.61.49-17.23.5-25.84C405.54,128.45,405.34,123.72,400.65,120.26Z"/><path class="cls-11" d="M395.52,144.15a3.24,3.24,0,0,0-3.16-2.4c-8.88-.58-17.65-.36-26.54-.1l-1.77,0H361.4c-8.1-.08-16.43-.56-24.49.39a2.23,2.23,0,0,0-.39.09,1.89,1.89,0,0,0-2.61,1.3c-.75,2.83-1.25,8.89,1.68,10.81,1.53,1,3.83.75,5.56.82l10.77.49q20.57.91,41.13,1.77c1.81.08,2.92-1.72,3-3.29q.19-3.87.32-7.74A2.75,2.75,0,0,0,395.52,144.15Z"/><path class="cls-11" d="M392.35,164.88c-2.17-.82-5.34-.29-7.59-.31-2.93,0-5.85-.06-8.78-.07-11.94-.07-24.19-.83-36.08.43a2,2,0,0,0-1.42.86,2.39,2.39,0,0,0-2.72,2.31c.19,3.48-.82,9.54,2.85,11.58,3.85,2.15,10.74.41,14.89,0,12.51-1.15,24.88-3.31,37.48-2.33a2.45,2.45,0,0,0,2.45-1.15,3.37,3.37,0,0,0,1.55-2.68c0-.16,0-.29,0-.44a2.05,2.05,0,0,0,.09-.43C395.31,169.76,395.59,166.12,392.35,164.88Z"/><path class="cls-13" d="M363.44,214.31c8.19.11,16.45.4,24.63-.21,0,0,0-.06,0-.09-.34-6.46-.6-12.91-1.07-19.37-.08-1.1-1.28-1.9-2.87-2-11.51-.94-23.67-1.25-34.88.3a2.47,2.47,0,0,0-.41.09c-.75.08-1.39.45-1.37,1.08.18,5.17,1.29,10.37,1.7,15.54.13,1.59.22,3.17.3,4.76C354.16,214.35,358.85,214.25,363.44,214.31Z"/><path class="cls-11" d="M395.68,85a30.42,30.42,0,0,0-25.77-10.37c-14.24,1.39-25.51,15-23.84,28.49a24.83,24.83,0,0,0,5.76,14.49,26.58,26.58,0,0,0,23.68,9.53c9.48-1.18,20.16-4.68,23.78-14.39C402.56,104,401.78,92.32,395.68,85Z"/><path class="cls-14" d="M386.16,95.48A70,70,0,0,1,377.54,97c-.27-3.07-.56-6.14-1-9.2-.43-3.21-5.4-4.06-6-.49a58.34,58.34,0,0,0-.84,10.27c-2.78.1-5.57.1-8.39,0-3.92-.08-4.49,6.28-.57,6.88a65.08,65.08,0,0,0,9.32.7c.26,3,.65,6.07,1.11,9,.8,5.11,9,4.73,8.18-.43-.47-3-.8-6-1.09-8.92,3.53-.33,7-.87,10.56-1.54C394,102.38,391.46,94.14,386.16,95.48Z"/></g><path class="cls-9" d="M305.67,336.25A1.77,1.77,0,0,1,307.3,334a158.05,158.05,0,0,1,36.89.3c13.49,1.74,18.2,2.67,31.22,11.78,4.12,2.89,28.64,10,4.69,22.12-7.89,4-17.69,6-26.39,7-10.37,1.18-21.7,3.56-32.11,2.6-11.52-1.06-32.73-13.51-41.22-21.7C276.26,352.12,305,333.26,305.67,336.25Z"/><path class="cls-5" d="M287.77,300.59c.94-2.1,3.75-2.29,5.76-2.66a84,84,0,0,1,9.22-1.09c6.64-.46,13.3-.31,19.95-.51,3.41-.09,6.82-.28,10.2-.69,3.11-.37,6.4-1.52,9.52-1.32,2.85.18,5.74,1.73,8.37,2.75q4.89,1.88,9.73,3.88c7,2.86,14,5.72,20.66,9.26.5.26.78,1.94.67,2.39,0,.1-.05.2-.07.3-9.24,3.82-34,13.83-42.78,15.05C339,328,300.66,309.1,287.77,300.59Z"/><path class="cls-15" d="M287.77,300.59c.94-2.1,3.75-2.29,5.76-2.66a84,84,0,0,1,9.22-1.09c6.64-.46,13.3-.31,19.95-.51,3.41-.09,6.82-.28,10.2-.69,3.11-.37,6.4-1.52,9.52-1.32,2.85.18,5.74,1.73,8.37,2.75q4.89,1.88,9.73,3.88c7,2.86,14,5.72,20.66,9.26.5.26.78,1.94.67,2.39,0,.1-.05.2-.07.3-9.24,3.82-34,13.83-42.78,15.05C339,328,300.66,309.1,287.77,300.59Z"/><path class="cls-16" d="M302.75,271.52c.45-1.89,1.68-3.64,3.91-3.27a6.38,6.38,0,0,1,4.07,3.15,6.75,6.75,0,0,1,1.86-.13,2.2,2.2,0,0,1,1.36,3.79,10.89,10.89,0,0,1-4.17,2.26,82.8,82.8,0,0,0,5.54,9.74c1.84,2.76,5.87,6.25,5.78,9.71a1.32,1.32,0,0,1-1.39,1.24c-3.59-.6-5.81-5.08-7.69-7.93a90.75,90.75,0,0,1-6.35-11.46,1.75,1.75,0,0,1-.69-.33,1.59,1.59,0,0,1-.29-.15,4.79,4.79,0,0,1-1.76-2.31,4.16,4.16,0,0,1-.62-1.41A4,4,0,0,1,302.75,271.52Z"/><path class="cls-17" d="M349.06,352a15,15,0,0,1,2.66-2.88,12.45,12.45,0,0,0-.64-1.66q-1.54-3-3.32-5.78c-2.22-3.53-5.14-6.72-7.06-10.4-.59-1.13.79-2.6,1.92-1.8,3.1,2.23,5.4,5.54,7.57,8.64s4.9,6.86,6.26,10.57c1.46,4-4.28,10.08-7.47,5.48A2.11,2.11,0,0,1,349.06,352Z"/><path class="cls-17" d="M321.92,341.93a6.7,6.7,0,0,0-.15-2.28c-.41-2-.85-3.94-1.28-5.91-.74-3.44-2.21-7.36-1.64-10.87a1.11,1.11,0,0,1,1.94-.53c1.52,2,2,4.53,2.6,7q1.28,4.88,2.39,9.81c1,4.64.07,7.76-4.69,9.34a2.13,2.13,0,0,1-2.9-1.62C317.52,344.39,320.13,343,321.92,341.93Z"/><path class="cls-17" d="M310.62,304.54a21.16,21.16,0,0,1,5.65-11.8c1.77-1.77,3.79-2.86,4-5.53.2-2.32-.4-4.34.64-6.54s3.84-3.28,3.63-6c-.18-2.4-1-4.57-.63-7a14,14,0,0,1,6.68-9.51c7.75-4.91,18-2.39,24.62,3.22,12.77,10.79,13.26,29.87,9,44.68-3.3,11.47-9.19,24.53-21.65,28.2a25.37,25.37,0,0,1-24.32-5.91A27.5,27.5,0,0,1,310.62,304.54Z"/><path class="cls-18" d="M315.71,325c1.75.78,3,2.68,4.35,3.94,3.09,2.78,6.86,3.89,10.7,1.8,1.81-1,3.19-2.84,5.13-3.55,2.43-.9,5.13.36,7.66-.67,3.92-1.59,5.3-5.86,6.16-9.63.42-1.82.53-4.07,1.5-5.7s2.92-2.66,4.3-3.93a29.8,29.8,0,0,0,7.17-10.61,46.65,46.65,0,0,0,3.28-15.5A57,57,0,0,1,364.25,306c-3.3,11.47-9.18,24.53-21.65,28.2a25.37,25.37,0,0,1-24.32-5.91,24.8,24.8,0,0,1-2.95-3.44A3.57,3.57,0,0,1,315.71,325Z"/><path class="cls-13" d="M323.72,283.13c1.53-2.45,3.43-.37,5.55.72a7.05,7.05,0,0,0,1.46.66c2.22.54,5.25-.67,6.5.88,1.43,1.76,0,4.14-1.33,5.48-3.56,3.58-10.17,4.13-12.37-1.1A7.52,7.52,0,0,1,323.72,283.13Z"/><path class="cls-19" d="M323.52,289.76a8.52,8.52,0,0,1-.59-4.4,6.25,6.25,0,0,1,2.95.54c.78.34,1.42.92,2.19,1.28a7.87,7.87,0,0,0,2.63.5,8.29,8.29,0,0,1,5.48,2.89c-.1.11-.19.21-.29.3C332.33,294.44,325.72,295,323.52,289.76Z"/><circle class="cls-20" cx="341.83" cy="278.52" r="3.77"/><circle class="cls-6" cx="340.83" cy="276.49" r="1.04"/><circle class="cls-20" cx="325.75" cy="275.18" r="3.77"/><circle class="cls-6" cx="324.75" cy="273.15" r="1.04"/><path class="cls-21" d="M357.38,282.15a7.75,7.75,0,0,1-2.61.25,2.24,2.24,0,0,1-1.91-1.33c-.75-2.4,3.27-3.35,5.05-3.81,3-.77,6-1.4,8.92-2.26a5.62,5.62,0,0,1,2-.33c1.71.17,1.78,2.11,1.18,3.3a5.19,5.19,0,0,1-2.69,2.18c-2.59,1.13-5.54,1.35-8.29,1.73C358.4,282,357.84,282.05,357.38,282.15Z"/><path class="cls-14" d="M354.2,286c1-1.43,3.78-1.64,5.6-2l6.19-1.3c2.19-.45,7.22-1.33,4.61,2.4-2.1,3-6.44,3.64-9.9,4.21-1.71.28-5.18.91-6.35.16C353.46,288.91,353.54,287,354.2,286Z"/><path class="cls-11" d="M312.73,311.27c.14-1.11,1.91-1,1.77.09-.21,1.59.39,3.49.72,5.05a10.14,10.14,0,0,0,2.5,4.63c.74.87-.58,2-1.31,1.17a11.88,11.88,0,0,1-2.82-5C313.15,315.4,312.49,313.14,312.73,311.27Z"/><path class="cls-11" d="M319.19,323.17c1.38,0,1.26,2.12-.11,2.12S317.81,323.17,319.19,323.17Z"/><path class="cls-11" d="M327.49,263.87a12.63,12.63,0,0,1,4.94-4.76,1.06,1.06,0,0,1,1,1.89,10.46,10.46,0,0,0-4.12,4C328.6,266.22,326.8,265.06,327.49,263.87Z"/><path class="cls-11" d="M335.77,257.58c1.38,0,1.27,2.13-.11,2.13S334.4,257.58,335.77,257.58Z"/><path class="cls-5" d="M287.73,300.39c12.92,8.46,51.33,27.15,51.33,27.15,8.78-1.25,33.5-11.36,42.72-15.22-1.78,7.59-4.3,15.06-6.54,22.53l-3.52,11.71q-.89,2.93-1.76,5.85c-.39,1.28-.38,2.7-.89,3.94A6,6,0,0,1,366.3,359a67.77,67.77,0,0,1-15.8,7.2,59.28,59.28,0,0,1-19.14,2.44c-.66,0-11.62-7.62-16.72-11.07-5.6-3.78-11.21-7.63-16.55-11.79a.77.77,0,0,1-.18-.18,6.74,6.74,0,0,1-2.42-2.49,24.59,24.59,0,0,1-1.81-5.62c-.62-2.43-1.21-4.86-1.75-7.31a172.12,172.12,0,0,1-4.1-28.56.93.93,0,0,1-.21-1A2.56,2.56,0,0,1,287.73,300.39Z"/><path class="cls-9" d="M287.73,300.39c12.92,8.46,51.33,27.15,51.33,27.15,8.78-1.25,33.5-11.36,42.72-15.22-1.78,7.59-4.3,15.06-6.54,22.53l-3.52,11.71q-.89,2.93-1.76,5.85c-.39,1.28-.38,2.7-.89,3.94A6,6,0,0,1,366.3,359a67.77,67.77,0,0,1-15.8,7.2,59.28,59.28,0,0,1-19.14,2.44c-.66,0-11.62-7.62-16.72-11.07-5.6-3.78-11.21-7.63-16.55-11.79a.77.77,0,0,1-.18-.18,6.74,6.74,0,0,1-2.42-2.49,24.59,24.59,0,0,1-1.81-5.62c-.62-2.43-1.21-4.86-1.75-7.31a172.12,172.12,0,0,1-4.1-28.56.93.93,0,0,1-.21-1A2.56,2.56,0,0,1,287.73,300.39Z"/><path class="cls-11" d="M319.12,345.42l.48,1.85.95-.93.48,1.85,1-.92.48,1.84,1-.92.48,1.84.95-.92.48,1.85.95-.93a37,37,0,0,0,0,7.85,78.58,78.58,0,0,0,1.66,8.67c-2.55-1.67-6.1-4.09-9.19-6.2-.17-1.34-.37-3-.57-4.78C317.69,351.42,319.12,345.42,319.12,345.42Z"/><path class="cls-18" d="M338.8,327.42l.26.12c8.78-1.25,33.5-11.36,42.72-15.22-1.78,7.59-4.3,15.06-6.54,22.53l-3.52,11.71q-.89,2.93-1.76,5.85c-.39,1.28-.38,2.7-.89,3.94A6,6,0,0,1,366.3,359a67.77,67.77,0,0,1-15.8,7.2,59.28,59.28,0,0,1-19.14,2.44.62.62,0,0,1-.18-.07c1.07-4.18,2.44-9.53,3.6-14.2C336.37,348,338,335.09,338.8,327.42Z"/><path class="cls-5" d="M272.93,313.76c.63-2.5,5.88-7.05,6.94-8a35.32,35.32,0,0,1,3.92-3q1-.68,2.13-1.29c.36-.2,1.47-.59,2.13-1l.09-.05.06-.05c12.71,8.3,49.58,26.29,51.18,27.07-2.79,1.3-5.13,3.66-7.43,5.65a68.9,68.9,0,0,0-6.71,7c-1.57,1.79-3,.72-4.58-.32-1.05-.68-2.07-1.4-3.08-2.14-2-1.43-3.89-2.93-5.94-4.25-3.71-2.41-7.53-4.66-11.42-6.76-3.12-1.68-6.31-3.19-9.54-4.61-5.53-2.42-11.18-4.56-16.81-6.71a2,2,0,0,1-.74-.41A1.19,1.19,0,0,1,272.93,313.76Z"/><path class="cls-19" d="M348.66,348.74q3-2.91,5.88-6a.84.84,0,0,1,1-.07l4.86,2.44c1.15.58,3,1.11,3.84,2.09a10.74,10.74,0,0,1-2.22,3.2l-2.18,1.84c-.42.36-1,1.1-1.57,1.27-1.18.34-2.6-.86-3.61-1.31a44.3,44.3,0,0,0-5.27-1.94.43.43,0,0,1-.12-.05A.89.89,0,0,1,348.66,348.74Z"/><path class="cls-13" d="M355.17,356.88c-1.54.69-3.06,1.42-4.58,2.17a.5.5,0,0,1-.58-.16l-2.25-2.39c-.54-.57-1.48-1.25-1.76-2a6.55,6.55,0,0,1,1.93-1.35c.54-.21,1.08-.4,1.62-.6a3.43,3.43,0,0,1,1.15-.4c.74,0,1.3,1,1.78,1.49a27.13,27.13,0,0,0,2.6,2.19l.06.06A.54.54,0,0,1,355.17,356.88Z"/><path class="cls-5" d="M339,327.14l0,0c8.78-1.26,33.5-11.37,42.71-15.22a1,1,0,0,0,.06-.16c1.31.88,1.62,2.74,2.36,4.05,1,1.76,2,3.5,3.12,5.2,1,1.53,2,3,3.1,4.51a32.54,32.54,0,0,0,3.06,3.95,1.87,1.87,0,0,1,.36.43c.69,1.37-3.08,2-3.84,2.23-1.93.64-3.84,1.32-5.75,2-3.44,1.3-6.85,2.72-10.2,4.25l-1,.47q-4.74,2.19-9.32,4.7c-2.82,1.53-5.62,3.52-8.82,4.16l-.18,0a.64.64,0,0,1-.88-.1c-2.43-3-4.42-6.38-6.55-9.57-1.1-1.65-2.19-3.31-3.3-4.95a11.52,11.52,0,0,0-2.09-2.84c-.87-.7-2.08-1-2.62-2.09A2.09,2.09,0,0,1,339,327.14Z"/><path class="cls-9" d="M79.39,348.25c-.37-1,.5-2.08,2.84-2.22a481.13,481.13,0,0,1,64.44.3c23.57,1.74,31.8,2.67,54.54,11.78,7.2,2.89,50,10,8.19,22.12-13.77,4-30.9,6-46.09,7-18.12,1.18-37.9,3.56-56.09,2.6-20.13-1.06-57.18-13.51-72-21.7C28,364.12,78.26,345.26,79.39,348.25Z"/><path class="cls-8" d="M292.2,271.69c-7.92-3.88-16.44-6.06-25.31-5.41-2.62.19-2.28,3.76.21,3.94a81.57,81.57,0,0,1,23.45,4.63C292.64,275.64,294.32,272.74,292.2,271.69Z"/><path class="cls-8" d="M292.76,261a149.42,149.42,0,0,0-15.37-7.76c-2.24-.93-4,2.38-1.76,3.39,5.23,2.3,10.57,4.58,15.59,7.32C293.11,265,294.64,262.09,292.76,261Z"/><path class="cls-8" d="M300.13,257.25a47.74,47.74,0,0,0-12.74-8.95,2.07,2.07,0,0,0-1.92,3.67c4.36,2.45,8.67,5.13,12.85,7.88C299.89,260.88,301.37,258.47,300.13,257.25Z"/></g><g id="Layer_3" data-name="Layer 3"><path class="cls-13" d="M192.13,359.06a6.11,6.11,0,0,1,6.71-.35c.14.07.26.16.39.23a1.26,1.26,0,0,1,.27,0,19,19,0,0,1,7.13,4.71c1.66,1.61,3.92,3.71,3.58,6.28-.89,6.65-10.78.55-13.77-.64-2.47-1-5.29-1.81-6-4.7A5.49,5.49,0,0,1,192.13,359.06Z"/><path class="cls-13" d="M170.79,366.33c-1.07,3.87-6.14,3.76-9.51,4s-8.2,1.47-11-1.07-.93-5.94,2.05-7.13c3.54-1.42,7-4.48,11-4.64,3.4-.14,7.19,2.06,7.39,5.54a5.18,5.18,0,0,1,0,.79A4.12,4.12,0,0,1,170.79,366.33Z"/><path class="cls-11" d="M192.41,261.26c3.42,7.49,7.82,14.5,11,22.09,2.12,5,2.61,13.68,8.43,16,14.9,5.88,4.87-25.54,3.91-29.92-1.55-7-3.39-14.32-7.35-20.45a23,23,0,0,0-6.3-6.86c-1.32-.85-6.86-1.31-7.3-2.16a1.56,1.56,0,0,0-2.82.45,4.67,4.67,0,0,0-3.88,3.46C186.25,249.13,190.27,256.58,192.41,261.26Z"/><path class="cls-18" d="M192.41,261.26c3.42,7.49,7.82,14.5,11,22.09,2.12,5,2.61,13.68,8.43,16,14.9,5.88,4.87-25.54,3.91-29.92-1.55-7-3.39-14.32-7.35-20.45a23,23,0,0,0-6.3-6.86c-1.32-.85-6.86-1.31-7.3-2.16a1.56,1.56,0,0,0-2.82.45,4.67,4.67,0,0,0-3.88,3.46C186.25,249.13,190.27,256.58,192.41,261.26Z"/><path class="cls-5" d="M209.2,296.7c2.07-1.28,3.82-2.75,6.24-2a4.19,4.19,0,0,1,2,.19c1.83.63,3.34,2.36,4.64,4.09a9.15,9.15,0,0,1,3.79,5.27c.47,1.51-1.42,2.69-2.69,2.19a15.43,15.43,0,0,1-2.73-1.45,22.51,22.51,0,0,1,.67,2.7,6.61,6.61,0,0,1-.52,3.57,4.54,4.54,0,0,1-5.44,2.55c-2.4-.75-3.88-3.44-4.95-5.54a22.22,22.22,0,0,1-2.31-9.08A2.47,2.47,0,0,1,209.2,296.7Z"/><path class="cls-21" d="M156.28,321.36A98,98,0,0,1,159,304c1-4,2.32-8.42,6.53-10.12s10.2-.63,14.7-.52l19.88.48c3.47.09,8.69-.7,10.85,2.84,2.29,3.75.06,9.81-1.76,13.25l-.09.14c-.65,6.31-1.46,12.61-2.28,18.91-.3,3.91-.81,7.81-1.48,11.68-.15,1.2-.31,2.4-.45,3.6-.76,6.39-.35,22.78-11,20.78a2.46,2.46,0,0,1-2.14-2c-.57-6.53-1.3-13-2.24-19.52q-.63-4.38-1.38-8.74c-.43-2.5-.63-6.32-2.15-8.73-4.25,3.6-5.24,11.48-6.71,16.32q-3.06,10.14-6.13,20.27a2.72,2.72,0,0,1-2.77,1.69l-12.17-.67a2.81,2.81,0,0,1-2.48-3C155.56,347.62,155.31,334.42,156.28,321.36Z"/><path class="cls-8" d="M176.11,256.17c.69-6.39.87-13.89,2.86-20,1.38-4.25,7.08-4.06,10.83-4.84,1.55-.33,3.53,1.2,3.15,2.9-1.15,5.13,1.42,10.58,2.72,15.83a118.54,118.54,0,0,1,7.84,34.09c.34,4.23,2,9.93-2.67,11.88-7,2.93-15.74,3.43-23.25,3.67-1.25.05-3-.56-3-2.11A276.61,276.61,0,0,1,176.11,256.17Z"/><path class="cls-5" d="M165.49,212.69c1.38,7.9,6.46,13,13.38,15.54l.06,1.34c0,.42,0,.84,0,1.27-.05,1.15-.11,2.3-.16,3.45a2.44,2.44,0,0,0,2.21,2.48c.13.65.28,1.31.44,2a2.28,2.28,0,0,0,4.32.43v0a2.2,2.2,0,0,0,3.21-1.36l1.76.31a2.15,2.15,0,0,0,2.36-1.91,30.64,30.64,0,0,1,2-9.33l.67-.28c3.64-1.46,7.37-2.55,9.7-6,2.6-3.85,2.09-8.63.65-12.78a47.79,47.79,0,0,1-2.31-9.4c.42-2.76,1.12-5.56,1.64-8.22.89-4.54-4.14-6.83-7.74-5.46-3.24-2.46-8.73-2.32-12.57-2.49-6.23-.28-11.51.69-15.35,6a21.91,21.91,0,0,0-3.87,10.43C164.49,203,164.66,208,165.49,212.69Z"/><path class="cls-18" d="M187.19,239.27a43.86,43.86,0,0,0-.3-5c-.08-1.48-.17-3-.26-4.44a65.38,65.38,0,0,0,1.53-11.3c.47-12.11-1.39-24.15-1.4-36.24,3.64.12,8.11.31,10.9,2.43,3.6-1.37,8.63.92,7.74,5.46-.52,2.66-1.22,5.46-1.64,8.22a47.79,47.79,0,0,0,2.31,9.4c1.44,4.15,2,8.93-.65,12.78-2.33,3.44-6.06,4.53-9.7,6l-.67.28a30.64,30.64,0,0,0-2,9.33,2.15,2.15,0,0,1-2.36,1.91l-1.76-.31a2.06,2.06,0,0,1-1.74,1.59Z"/><path class="cls-11" d="M190.11,231.84c1-1.08,3.07-.66,3.94.39a29.5,29.5,0,0,1,2.32,3.23c8.18,9.84,10.61,23.32,12.64,35.62a250.77,250.77,0,0,1,3.05,45.63A2.63,2.63,0,0,1,209.2,319a19.31,19.31,0,0,0-8.51.67,2.74,2.74,0,0,1-3.81-2.7c.39-16.52-2.75-32.73-6.12-48.83-1.57-7.49-3.68-15.11-4.49-22.73C185.71,240.22,186.37,235.69,190.11,231.84Z"/><path class="cls-11" d="M162.13,241.6c2.74-4.54,8.84-8.94,14.31-9l0,0c1.57-1.31,4.5-.45,4.71,1.75,0,.1,0,.2,0,.31,3.13,13.14,1.6,27.07,1.05,40.43q-.9,21.75-1.83,43.5a2.79,2.79,0,0,1-3,2.47c-5.27-.85-11.05-1.17-16.18-2.61-2.68-.75-3.77-1.73-4.17-4.5-.7-4.8.13-10.29.23-15.15q.18-8.22.34-16.45c.11-5.17.2-10.4.77-15.54a2.26,2.26,0,0,1-.2-.85C157.87,258.25,158.05,248.34,162.13,241.6Z"/><path class="cls-5" d="M163.29,290.06c3.5,3.29,11.07,7.79,15.86,4.64,4.19-2.75,1.43-7.73-1.53-11.21a1.71,1.71,0,0,0,.23-.47,4.68,4.68,0,0,0-1.8-5.33c-2.38-1.72-5.07-.86-7.75-.92a1.68,1.68,0,0,0-.89.23,3.06,3.06,0,0,0-.6,0c-2.68.33-4.45,4.22-5.53,6.29C159.77,286.18,161.13,288,163.29,290.06Z"/><path class="cls-11" d="M143.58,259.57c1.71-7.46,5.21-12.51,11.43-16.92,2.9-2.06,7.09-4.68,10.67-3.83h.13c6.75.25,8.4,7.3,6.4,12.72-1.43,3.88-3.91,7.54-5.94,11.13-1.37,2.39-4.4,5.79-2.48,8.79.86,1.33,3.94,2.65,5.27,3.55a2.56,2.56,0,0,1,.9,3c-2.19,4.21-3.87,11.93-9.84,10.34s-13.72-4.8-16.47-10.57C141,272.16,142.26,265.33,143.58,259.57Z"/><path class="cls-22" d="M143.58,259.57c1.71-7.46,5.21-12.51,11.43-16.92,2.9-2.06,7.09-4.68,10.67-3.83h.13c6.75.25,8.4,7.3,6.4,12.72-1.43,3.88-3.91,7.54-5.94,11.13-1.37,2.39-4.4,5.79-2.48,8.79.86,1.33,3.94,2.65,5.27,3.55a2.56,2.56,0,0,1,.9,3c-2.19,4.21-3.87,11.93-9.84,10.34s-13.72-4.8-16.47-10.57C141,272.16,142.26,265.33,143.58,259.57Z"/><path class="cls-13" d="M187.85,272.74l0,0c-.56-3.15.56-7.33,1.69-10.26a6,6,0,0,1,5.53-4.18,2.16,2.16,0,0,1,.43-1.38c-.42.58-.13-1.2,0-1.79.59-2.11,1.5-3.13,1.61-5.63.29-6.47-.58-12.12-4.93-17.15a1.47,1.47,0,0,1,2-2.11c5.77,4.33,7,11.35,7.32,18.17a18.39,18.39,0,0,1-.75,7.37c-.42,1.25-.59,2.69-1.5,3.76,2.93,2.08,3.85,6.35,4,10.1a1.54,1.54,0,0,1,.6,0,1.87,1.87,0,0,1,1.67,1.54c0,.58.07,1.17.08,1.76a2.08,2.08,0,0,1-2.26,1.82,3.93,3.93,0,0,1-3.59-3,2,2,0,0,1,.74-1.95c-.5-2.4-1.82-8.58-5.41-7.17-1.46.58-1.68,3.17-1.94,4.51-.41,2.06-.37,4.21-1,6.21a2.87,2.87,0,0,1-.18.4,2.24,2.24,0,0,1,.82,2,2.17,2.17,0,0,1-2.38,1.9,2.73,2.73,0,0,1-2.07-1.32,4.34,4.34,0,0,1-.43-1v0A2.1,2.1,0,0,1,187.85,272.74Z"/><path class="cls-13" d="M171.56,241.47c-.22-5.26,1.68-10.53,6.86-12.55,1.86-.72,3.83,1.86,2,3.13-5.54,3.78-4.34,10.36-3,16a23,23,0,0,0,2.79,6.78,8.53,8.53,0,0,1,1.31,2.36,4.6,4.6,0,0,1-4.61,5.55c-.18.07-.37.14-.55.19a2.48,2.48,0,0,1-2.65-1.38,6.93,6.93,0,0,1-.45-1.73,4.17,4.17,0,0,1,1.62-4.65c-.58-1.35-1.27-2.72-1.4-3.13A43.55,43.55,0,0,1,171.56,241.47Z"/><path class="cls-19" d="M153.29,192.88a10.88,10.88,0,0,1,1.8-4.26c1.92-2.88,2.71-4.68,2.87-8.17.22-4.56,2-7.4,5.76-10a44.69,44.69,0,0,1,26.18-7.94c6,.22,12.66,4.31,12.5,10.29a9.57,9.57,0,0,1,4.65,1.89,10.36,10.36,0,0,1,5.92,6.77,1.68,1.68,0,0,1,.17.78l0,.26a6.63,6.63,0,0,1-.41,2.74,18,18,0,0,1-4.82,8.54c-1.37,1.38-4-.12-3.71-2,.19-1.24.27-2.5.34-3.77a4.22,4.22,0,0,0-.93.25c-1.5.55-1.48,1.22-2.54,2.3a5.8,5.8,0,0,1-3,1.77c-2.82.62-5.05-1.27-7.25-2.7-4.82-3.1-6.09,1.9-9.13,4.65a7.81,7.81,0,0,1-3.19,1.87c-1.35.36-3.91-.67-4.85-.15-1.09.61-.5,2.29-1,4-.61,1.92-3.49,4.5-3.44,6.68.12.45.23.9.32,1.35.62,2.8-3.88,4.23-4.89,1.49-.08-.22-.13-.43-.19-.64h0c-.83-3.75-6.11-3.91-8.59-6.9A11.75,11.75,0,0,1,153.29,192.88Z"/><path class="cls-11" d="M82,183.42c8.54-6.6,19.42-10.24,27.66-1.46a15.82,15.82,0,0,1,4.57,13.38c-.09.69-.16,1.36-.22,2,.56,3.12,0,6.75,1.5,9.68,2.25,4.54,3.17,8.48-.25,12.71-1.61,2-3.76,3.42-5.64,5.13a25.45,25.45,0,0,0-6.43,9.75c-1.89,4.66-4.23,8.22-9.91,7.62-1.14-.12-2.57-1.05-2.36-2.42.35-2.29,2.15-7.51.91-9.65-1.45-2.5-6-3.32-8.24-5-4.17-3-5.9-7.64-7.65-12.26C71.9,202.26,72.35,190.89,82,183.42Z"/><path class="cls-18" d="M99.08,230.26c2.74-5.71,5.47-11.82,5.19-18.31-.31-7.38-3.94-14.15-6-21.1-1.37-4.58-1.91-9.38-4-13.62A15.41,15.41,0,0,1,109.67,182a15.82,15.82,0,0,1,4.57,13.38c-.09.69-.16,1.36-.22,2,.56,3.12,0,6.75,1.5,9.68,2.25,4.54,3.17,8.48-.25,12.71-1.61,2-3.76,3.42-5.64,5.13a25.45,25.45,0,0,0-6.43,9.75c-1.85,4.56-4.14,8.06-9.57,7.64C95.7,238.4,97.19,234.19,99.08,230.26Z"/><path class="cls-21" d="M49.6,288.38c5.91-15.92,15.27-32.29,26.49-45,1-1.09,2.76.36,2,1.57-.95,1.48-1.91,2.95-2.88,4.43-3.84,8.4-7.69,16.8-11.7,25.13-2.32,4.82-4.83,15-11,16.29a2.44,2.44,0,0,1-.53.05C50.56,291.09,49,290.1,49.6,288.38Z"/><path class="cls-11" d="M121.23,267.56a2.5,2.5,0,0,1,.89-1.27,11.25,11.25,0,0,1,2-1.74,1.37,1.37,0,0,1,1.26-.2,1.46,1.46,0,0,1,2.74.14c1.06,6.27.67,12.84.71,19.18,0,4.3.25,7.68,1.84,11.75a11.21,11.21,0,0,1,1.16,5.65c-.4,3.08-2.91,5-5.79,3.32-2.4-1.37-3.32-4.08-3.64-6.81a2.54,2.54,0,0,1-.75-1.69q-.74-10.39-1.17-20.81C120.32,271.82,120.16,269.56,121.23,267.56Z"/><path class="cls-23" d="M107.2,236.16a1.21,1.21,0,0,1,.81-.22c14.31,1.26,19.21,17.88,22.24,29.4a2.6,2.6,0,0,1-1.87,3.14c-2.64.38-7.14,2-9.68.6-2.27-1.21-2.33-4.47-2.92-6.6-2.38-8.47-8.39-14.8-11.12-23A2.74,2.74,0,0,1,107.2,236.16Z"/><path class="cls-18" d="M107.2,236.16a1.21,1.21,0,0,1,.81-.22c14.31,1.26,19.21,17.88,22.24,29.4a2.6,2.6,0,0,1-1.87,3.14c-2.64.38-7.14,2-9.68.6-2.27-1.21-2.33-4.47-2.92-6.6-2.38-8.47-8.39-14.8-11.12-23A2.74,2.74,0,0,1,107.2,236.16Z"/><path class="cls-13" d="M78.21,317.85c-1-7.08-1.79-14.2-2.93-21.27-.21-1.33.87-3.08,2.34-3.09l8.06-.08a2.9,2.9,0,0,1,4.73,0c2.52,0,5,0,7.57,0,2.76-.08,5.5-.05,8.22.12a2.22,2.22,0,0,1,1.19-.6,65.46,65.46,0,0,1,8.75-.69,18.67,18.67,0,0,1,5.73.23c.53-2.46,4.43-2,4,.59-.19,1.19-.38,2.37-.58,3.56a1.68,1.68,0,0,1,.09,1.05c-.34,1.46-.67,2.91-1,4.36a1.59,1.59,0,0,1-.07.2c-.29,11.91-2.39,23.55-3.5,35.4a79.21,79.21,0,0,1-2.12,13.18c-.78,2.87-2.38,9.83-5.74,10.81-5.07,1.48-5-6.84-5.4-9.92a194.75,194.75,0,0,0-5-24.5c-.46-1.74-.9-3.49-1.38-5.23-1.24-4.53-.45-.66-.64.93-.37,3.31-1.74,6.92-2.82,10a81.83,81.83,0,0,1-9.42,18.7c-2.82,4.19-6.43,8.34-12,7.06-1.33-.3-2.9-1.56-2.47-3.16a126.7,126.7,0,0,0,4.41-29.87Q78.38,321.73,78.21,317.85Z"/><path class="cls-13" d="M111.84,356.16a4.37,4.37,0,0,1,4.82-.68,21.29,21.29,0,0,1,2,1,6,6,0,0,1,5.11,3.93,3.33,3.33,0,0,1-1.69,4.23c-1.78.72-3.87-.51-5.5-1.12s-3.66-1.06-4.83-2.46A3.58,3.58,0,0,1,111.84,356.16Z"/><path class="cls-13" d="M83.59,357.51a4.32,4.32,0,0,1-1,3.68,11.37,11.37,0,0,1-3.56,2.22c-1.07.57-2,1.34-3,1.91-2.17,1.16-5.08,1.4-6.88-.31s-.87-4.29,1.18-5.73a49.82,49.82,0,0,1,7.7-4.67c2.37-1.06,5.08-.42,5.54,2.09A2.48,2.48,0,0,1,83.59,357.51Z"/><path class="cls-23" d="M74.55,264.82c.09-3.05-.07-6.89,0-10.79.15-5.84.89-11.83,4-15.61a17,17,0,0,1,6.64-4.61c4.14-1.6,4.52.38,7.48,2.81a5.79,5.79,0,0,0,7,.12,23.61,23.61,0,0,1,2.64-2.27,5.25,5.25,0,0,1,4.15-.22,19,19,0,0,1,10.37,8.81c4.79,8.15,7.11,17.37,7.83,26.74a124.38,124.38,0,0,1,.17,14.32c0,.47,0,1,0,1.46l0,.57c.13,2.43,1.39,7.13.22,9.32-1,1.95-4.27,1.83-6.15,2a35.26,35.26,0,0,1-5.25.19c-6,.51-12.51-.43-18.07.48-4.41.73-8.64,2.32-13,3.15-5,1-7.06-1.87-7.39-6.51A296.83,296.83,0,0,1,74.55,264.82Z"/><path class="cls-12" d="M41.19,317.52c.77,6.59,11.06,6.57,16.06,7.66,8.41,1.81,15.61,4.18,24.27,1.85,5-1.35,5.17-4,5.94-8.64a95.91,95.91,0,0,0,1.28-13.21c.14-5.59-.48-9.69-5.23-13.35-6.7-5.13-18.15-9-26.66-7.87a13.29,13.29,0,0,0-8,4.58,25.26,25.26,0,0,0-2.64,3.52C41.58,299.43,40.22,309.13,41.19,317.52Z"/><path class="cls-12" d="M78.33,296.54c-3.63,2.8-4.49,7-5.75,11.1-2.36,7.72-10.43,3.9-15.85,1.74-5.14-2.05-10.29-3.77-14.69-7a33.68,33.68,0,0,1,4.19-10.29,25.26,25.26,0,0,1,2.64-3.52,13.29,13.29,0,0,1,8-4.58c8.51-1.11,20,2.74,26.66,7.87a16,16,0,0,1,2.33,2.2A14.4,14.4,0,0,0,78.33,296.54Z"/><path class="cls-24" d="M78.33,296.54c-3.63,2.8-4.49,7-5.75,11.1-2.36,7.72-10.43,3.9-15.85,1.74-5.14-2.05-10.29-3.77-14.69-7a33.68,33.68,0,0,1,4.19-10.29,25.26,25.26,0,0,1,2.64-3.52,13.29,13.29,0,0,1,8-4.58c8.51-1.11,20,2.74,26.66,7.87a16,16,0,0,1,2.33,2.2A14.4,14.4,0,0,0,78.33,296.54Z"/><path class="cls-21" d="M78.46,297.87c-.09-3.12,1.15-4.24,3.87-6.49,3.16-2.62,6.24-5.33,9.21-8.17,12.8-12.26,15.16-33.32,12.64-50a1.89,1.89,0,0,1,2.68-1.83c1.55.77,2.19,1.78,2,3.15a1.26,1.26,0,0,1,.62.77c3.26,10.32,2,21.78-1.36,31.9a73.62,73.62,0,0,1-10.78,21.12C95.37,291,83,306,79.55,302a4.72,4.72,0,0,1-1-2.53C78.52,298.89,78.48,298.35,78.46,297.87Z"/><path class="cls-11" d="M68.57,262c2.48-1.9,6.73.27,8.63,2.11,1.52-.6,3.75.12,3.49,2.12a56.41,56.41,0,0,0-.91,8c0,2.52.41,4.63,3,5.46l.61.15a3.83,3.83,0,0,1,1.1-.66,10.11,10.11,0,0,1,2.59-.61,6.07,6.07,0,0,1,1.71,0h.1l.66.09c1.76.32,2.1,2.22,1.42,3.54a7.57,7.57,0,0,1,1.53,1.9,5.09,5.09,0,0,1,.74.83,7.06,7.06,0,0,1,.55,6,3.53,3.53,0,0,1-4.28,2.22,4,4,0,0,1-2-.83,6.45,6.45,0,0,1-.61-.57c-1.47-1-2.13-2.92-3.41-4.38-.14-.14-.28-.28-.41-.43a15.36,15.36,0,0,1-16.73-13.29C65.84,270.46,65.69,264.19,68.57,262Z"/><path class="cls-23" d="M79.47,271a2.53,2.53,0,0,0,3.06-1.65,209.68,209.68,0,0,0,4.5-25.8c.47-1.86.67-3.72,0-5.11-2.41-5.21-9.33.18-11.68,2.7a39.47,39.47,0,0,0-9.53,19.55C64.58,268.21,73.67,270,79.47,271Z"/><path class="cls-18" d="M79.47,271a2.53,2.53,0,0,0,3.06-1.65,209.68,209.68,0,0,0,4.5-25.8c.47-1.86.67-3.72,0-5.11-2.41-5.21-9.33.18-11.68,2.7a39.47,39.47,0,0,0-9.53,19.55C64.58,268.21,73.67,270,79.47,271Z"/><path class="cls-8" d="M51.88,305.06a3.15,3.15,0,0,1,3.42-1.24,2.85,2.85,0,0,1,1.79,1.76,3.42,3.42,0,0,1,.7.82,3.08,3.08,0,0,1-.22,3.32c-1.71,2.4-5.11,1-6-1.38A3.35,3.35,0,0,1,51.88,305.06Z"/><path class="cls-19" d="M59.11,220.75a13.12,13.12,0,0,1,2.63-3.22c0-.05,0-.11.09-.17a22,22,0,0,0,1.4-2.32c-1.85.48-4.44-1.42-2.87-3.37a40,40,0,0,0,5.45-9.18c0-.18,0-.35,0-.52a104.17,104.17,0,0,1,1.7-11.35c.27-1.48.56-3,.9-4.45.28-.66.56-1.33.87-2,4.12-8.36,12.75-11.52,21.59-12.39,4-.39,14.71-1.61,17.33,2.24a2.13,2.13,0,0,0,1.54,1c.45.48.89,1,1.32,1.48a50.29,50.29,0,0,1,2.51,5.6,1.9,1.9,0,0,0-.5,2.23c2.76,7.13,6.1,13.92,12.44,18.27a1.87,1.87,0,0,1-1.35,1.3,4.33,4.33,0,0,1-1.93,0c1.18,2.63,2.36,5.25,3.55,7.88,0,.06,0,.13.07.19.25.37.51.74.77,1.1,1.34,1.83-1.43,3.48-3,2.18l-.05,0-.26-.36,0,0-.18-.24,0,0-.23-.09A11.88,11.88,0,0,1,121,213.4a1.89,1.89,0,0,1-.67,0c.7,2.68,1.68,5.23.73,8.06-.58,1.69-3.44,2.41-4.26.47a39.17,39.17,0,0,1-3.15-12.41c-.37-4.87.61-9.21-.81-13.52a2.71,2.71,0,0,1-.2-.42c-.13-.4-.28-.78-.43-1.16a15.87,15.87,0,0,0-.87-1.52,17.45,17.45,0,0,1-1.44,2.46,2.07,2.07,0,0,1-3.71-.55c-.16-.62-.33-1.24-.5-1.85a41.15,41.15,0,0,1-4.15,7.9,2.1,2.1,0,0,1-3.77-.55c-.32-1.47-.62-2.94-.93-4.41a2,2,0,0,1-.88.77,49.47,49.47,0,0,1-6.82,7,2.24,2.24,0,0,1-3.74-1.61c-.1-1.93-.15-3.85-.15-5.77a18.76,18.76,0,0,0-3.88,9c-.46,4.73,2,9.14,2,13.89,0,2-2.93,3.39-4.29,1.67-1.13-1.45-2.23-2.93-3.31-4.42-.08,4.45-1.4,8.94-5,11.64a2.35,2.35,0,0,1-3.92-1.7,40.81,40.81,0,0,1-.11-5.53,16.57,16.57,0,0,1-4.57,3.11A2.32,2.32,0,0,1,59.11,220.75Z"/><path class="cls-23" d="M66.2,179.8c4.09-7.37,12.55-10.35,20.44-11.43,7.69-1.06,15.81-1.45,22,3.95a23.28,23.28,0,0,1,7.56,16.55l0,.09a2.45,2.45,0,0,1,0,1.11c0,.46,0,.93,0,1.4a1.61,1.61,0,0,1-3,.69l-.24-.08a31.3,31.3,0,0,0-13.09-1.93A69.22,69.22,0,0,0,80.53,197a15.4,15.4,0,0,0-3.87,5.21c-1,2.22-3.3,1.8-5.4,2-5.08.47-5.73-5.39-6.6-9.42C63.59,189.73,63.65,184.39,66.2,179.8Z"/><path class="cls-23" d="M76.53,203.63c2.09,5.76,10.5,4.51,14.93,2.86a2.8,2.8,0,0,0,.87-.5c2.3-1,4-2.88,6.53-3.7,5.65-1.85,16.16-2.75,21.26.83,1,.71,2.19-.43,2-1.43a1.32,1.32,0,0,0-.08-1.41c-2.41-3.46-4.65-8.11-8-10.78-2.29-1.85-5.51-2.21-8.31-2.64-6.82-1.06-15.46-2-21.57,2.06C80.21,191.54,74.69,198.55,76.53,203.63Z"/><path class="cls-18" d="M76.53,203.63c2.09,5.76,10.5,4.51,14.93,2.86a2.8,2.8,0,0,0,.87-.5c2.3-1,4-2.88,6.53-3.7,5.65-1.85,16.16-2.75,21.26.83,1,.71,2.19-.43,2-1.43a1.32,1.32,0,0,0-.08-1.41c-2.41-3.46-4.65-8.11-8-10.78-2.29-1.85-5.51-2.21-8.31-2.64-6.82-1.06-15.46-2-21.57,2.06C80.21,191.54,74.69,198.55,76.53,203.63Z"/><path class="cls-8" d="M88.61,175.3a13.72,13.72,0,0,1,4.06-1.18A2,2,0,0,1,95,175.49a1.27,1.27,0,0,1,.36.48c1,2.15.61,5.26-1.67,6.5-1.4.75-2.47-.17-3.27-1.24s-1.65-2.41-2.49-3.62A1.69,1.69,0,0,1,88.61,175.3Z"/><path class="cls-8" d="M89.49,251.14l3-.77a2.2,2.2,0,0,1,.5-.06,1.72,1.72,0,0,1,2.15,1,8.54,8.54,0,0,1-.23,4.8,3.46,3.46,0,0,1-1.21,2.07,8.11,8.11,0,0,1-1,.58c-.08.09-.15.19-.23.27a1.61,1.61,0,0,1-1.56.42,1.79,1.79,0,0,1-2.13-1.34l-.66-4.68A1.94,1.94,0,0,1,89.49,251.14Z"/></g></g></svg>